<svg width="41" height="41" viewBox="0 0 41 41" fill="none" xmlns="http://www.w3.org/2000/svg">
<path fill-rule="evenodd" clip-rule="evenodd" d="M5.90625 32.9449L10.6252 27.96C10.6252 27.96 12.6295 25.3371 15.7063 25.3327L25.7145 25.3172C25.7145 25.3172 27.0564 28.6836 23.6761 30.2062C23.6761 30.2062 28.5019 30.2837 32.5293 27.9296C32.5293 27.9296 37.2641 24.6989 40.4569 27.96L31.7419 34.632C31.7419 34.632 28.9923 36.6227 24.0279 37.0571C23.589 37.0953 23.1495 37.1324 22.7117 37.1873L15.9205 38.0488C13.8909 38.3059 11.8476 38.4366 9.80159 38.4394L5.91447 38.4455" fill="#F5D9BA"/>
<path d="M5.90625 32.9449L10.6252 27.96C10.6252 27.96 12.6295 25.3371 15.7063 25.3327L25.7145 25.3172C25.7145 25.3172 27.0564 28.6836 23.6761 30.2062C23.6761 30.2062 28.5019 30.2837 32.5293 27.9296C32.5293 27.9296 37.2641 24.6989 40.4569 27.96L31.7419 34.632C31.7419 34.632 28.9923 36.6227 24.0279 37.0571C23.589 37.0953 23.1495 37.1324 22.7117 37.1873L15.9205 38.0488C13.8909 38.3059 11.8476 38.4366 9.80159 38.4394L5.91447 38.4455" stroke="#404040" stroke-width="1.09804" stroke-linecap="round" stroke-linejoin="round"/>
<path fill-rule="evenodd" clip-rule="evenodd" d="M1 30.8851L4.05808 30.8806C5.07671 30.879 5.90411 31.7472 5.90575 32.8187L5.91398 38.2429C5.91562 39.3155 5.09096 40.1854 4.07123 40.1871L1.0137 40.1921" fill="#ED6262"/>
<path d="M1 30.8851L4.05808 30.8806C5.07671 30.879 5.90411 31.7472 5.90575 32.8187L5.91398 38.2429C5.91562 39.3155 5.09096 40.1854 4.07123 40.1871L1.0137 40.1921M5.90636 32.9449L10.6253 27.96C10.6253 27.96 12.6296 25.3371 15.7064 25.3327L25.7146 25.3172C25.7146 25.3172 27.0565 28.6836 23.6762 30.2062C23.6762 30.2062 28.502 30.2837 32.5294 27.9296C32.5294 27.9296 37.2642 24.6989 40.457 27.96L31.742 34.632C31.742 34.632 28.9924 36.6227 24.028 37.0571C23.5891 37.0953 23.1496 37.1324 22.7118 37.1873L15.9206 38.0488C13.891 38.3059 11.8477 38.4366 9.8017 38.4394L5.91458 38.4455M16.4554 30.2309L23.8351 30.1965" stroke="#404040" stroke-width="1.09804" stroke-linecap="round" stroke-linejoin="round"/>
<path fill-rule="evenodd" clip-rule="evenodd" d="M28.5482 18.6845H11.551C9.85288 18.6845 8.47534 17.2916 8.47534 15.5746V6.92247C8.47534 5.2049 9.85288 3.81201 11.551 3.81201H28.5482C30.2474 3.81201 31.6244 5.2049 31.6244 6.92247V15.5746C31.6244 17.2916 30.2474 18.6845 28.5482 18.6845Z" fill="#E0B688"/>
<path fill-rule="evenodd" clip-rule="evenodd" d="M15.7292 3.42636V1.37691C15.7292 0.922035 16.0936 0.553589 16.5424 0.553589H23.5298C23.9797 0.553589 24.344 0.922035 24.344 1.37691V3.46293" fill="white"/>
<path fill-rule="evenodd" clip-rule="evenodd" d="M28.5482 18.6845H11.551C9.85288 18.6845 8.47534 17.2916 8.47534 15.5746V6.92247C8.47534 5.2049 9.85288 3.81201 11.551 3.81201H28.5482C30.2474 3.81201 31.6244 5.2049 31.6244 6.92247V15.5746C31.6244 17.2916 30.2474 18.6845 28.5482 18.6845Z" stroke="#404040" stroke-width="1.09804" stroke-linecap="round" stroke-linejoin="round"/>
<path d="M28.6252 7.47789C26.3671 9.48523 23.3288 10.7152 19.9868 10.7152C16.5912 10.7152 13.5085 9.44534 11.24 7.37982" stroke="#404040" stroke-width="1.09804" stroke-linecap="round" stroke-linejoin="round"/>
<path fill-rule="evenodd" clip-rule="evenodd" d="M20.7132 12.6619H19.534C19.3 12.6619 19.1099 12.4696 19.1099 12.2336V9.12036C19.1099 8.88378 19.3 8.69208 19.534 8.69208H20.7132C20.9477 8.69208 21.1373 8.88378 21.1373 9.12036V12.2336C21.1373 12.4696 20.9477 12.6619 20.7132 12.6619Z" fill="white"/>
<path d="M15.7292 2.42647V1.37654C15.7292 0.922218 16.0936 0.553772 16.5424 0.553772H23.5298C23.9797 0.553772 24.344 0.922218 24.344 1.37654V3.46311M20.7132 12.6619H19.534C19.3 12.6619 19.1099 12.4696 19.1099 12.2336V9.12039C19.1099 8.88381 19.3 8.69211 19.534 8.69211H20.7132C20.9477 8.69211 21.1373 8.88381 21.1373 9.12039V12.2336C21.1373 12.4696 20.9477 12.6619 20.7132 12.6619Z" stroke="#404040" stroke-width="1.09804" stroke-linecap="round" stroke-linejoin="round"/>
</svg>
