<svg width="61" height="60" viewBox="0 0 61 60" fill="none" xmlns="http://www.w3.org/2000/svg">
<path d="M11.6665 34.2999C11.6665 33.9257 11.7402 33.5551 11.8834 33.2093C12.0267 32.8635 12.2366 32.5493 12.5012 32.2847C12.7659 32.02 13.0801 31.8101 13.4259 31.6669C13.7716 31.5237 14.1422 31.45 14.5165 31.45H43.0165C43.8898 31.45 44.7545 31.622 45.5613 31.9562C46.3682 32.2903 47.1013 32.7802 47.7188 33.3977C48.3363 34.0152 48.8261 34.7483 49.1603 35.5551C49.4945 36.3619 49.6665 37.2267 49.6665 38.0999V41.9C49.6665 42.1519 49.5664 42.3935 49.3883 42.5717C49.2101 42.7499 48.9685 42.8499 48.7165 42.8499H14.5165C13.7606 42.8499 13.0357 42.5497 12.5012 42.0152C11.9668 41.4807 11.6665 40.7558 11.6665 40V34.2999Z" fill="#FA5723"/>
<path d="M30.2305 3.39206C30.2305 3.39206 46.3445 3.13006 47.8385 21.0001C47.8385 21.0001 41.1165 17.0031 35.8825 21.0001C35.8825 21.0001 36.8205 11.0521 30.2305 3.39206Z" fill="#1281D2"/>
<path d="M30.2306 3.39209C30.2306 3.39209 13.6966 3.79809 12.6226 21.0001C12.6226 21.0001 17.8866 17.2421 24.2196 21.0001C24.2196 21.0001 23.9926 8.29109 30.2246 3.39209H30.2306Z" fill="#1281D2"/>
<path d="M35.8765 21.0001C35.8765 21.0001 36.9815 11.3271 30.2245 3.39209C30.2245 3.39209 24.0105 7.73609 24.2195 21.0001C24.2195 21.0001 29.5555 17.1281 35.8765 21.0001Z" fill="#56B8FF"/>
<path d="M47.8325 21.0001C47.8325 11.2791 39.9515 3.39209 30.2245 3.39209C20.4975 3.39209 12.6165 11.2721 12.6165 21.0001C12.6165 21.0001 15.9685 18.4301 21.3515 19.6561" stroke="#404040" stroke-width="1.164" stroke-linecap="round" stroke-linejoin="round"/>
<path d="M33.2115 19.608C26.9315 18.407 24.2195 20.994 24.2195 20.994C24.6255 6.523 30.2245 3.386 30.2245 3.386C30.2245 3.386 36.1635 8.936 35.8765 20.994C35.8765 20.994 37.9975 18.383 44.5995 19.608M30.2305 2V2.938" stroke="#404040" stroke-width="1.164" stroke-linecap="round" stroke-linejoin="round"/>
<path d="M32.0125 24.8109C32.0125 24.8109 34.3785 24.4509 37.2405 27.7849C37.2405 27.7849 40.1005 31.0699 41.8175 31.7909H34.4705C33.1705 31.7909 32.1105 30.7449 32.0905 29.4459L32.0125 24.8109Z" fill="white"/>
<path d="M16.9226 31.784H32.5286L32.4716 24.804H24.0436C24.0436 24.804 21.0266 24.571 19.1196 27.687L16.0186 31.777H16.9226V31.784Z" fill="white"/>
<path d="M32.0125 24.811L32.0905 29.474C32.0999 30.0917 32.3518 30.6808 32.7919 31.1143C33.2319 31.5478 33.8248 31.7908 34.4425 31.791H41.8175" stroke="#404040" stroke-width="1.276" stroke-linecap="round" stroke-linejoin="round"/>
<path d="M17.7136 29.481L19.7336 26.902C20.2456 26.2497 20.8988 25.722 21.6441 25.3586C22.3894 24.9952 23.2074 24.8056 24.0366 24.804H32.0056C33.4606 24.804 34.8596 25.384 35.8836 26.422L39.6776 30.244C40.6777 31.2479 41.9677 31.9124 43.3656 32.144L46.3956 32.639C47.3066 32.7893 48.1347 33.2581 48.7324 33.9619C49.3301 34.6656 49.6587 35.5586 49.6596 36.482V42.55H45.9716" stroke="#404040" stroke-width="1.276" stroke-linecap="round" stroke-linejoin="round"/>
<path d="M19.3736 46.295C20.3685 46.295 21.3227 45.8997 22.0263 45.1962C22.7298 44.4927 23.1251 43.5385 23.1251 42.5435C23.1251 41.5485 22.7298 40.5943 22.0263 39.8908C21.3227 39.1872 20.3685 38.792 19.3736 38.792C18.3786 38.792 17.4244 39.1872 16.7209 39.8908C16.0173 40.5943 15.6221 41.5485 15.6221 42.5435C15.6221 43.5385 16.0173 44.4927 16.7209 45.1962C17.4244 45.8997 18.3786 46.295 19.3736 46.295ZM41.8176 46.295C42.8125 46.295 43.7667 45.8997 44.4703 45.1962C45.1738 44.4927 45.5691 43.5385 45.5691 42.5435C45.5691 41.5485 45.1738 40.5943 44.4703 39.8908C43.7667 39.1872 42.8125 38.792 41.8176 38.792C40.8226 38.792 39.8684 39.1872 39.1649 39.8908C38.4613 40.5943 38.0661 41.5485 38.0661 42.5435C38.0661 43.5385 38.4613 44.4927 39.1649 45.1962C39.8684 45.8997 40.8226 46.295 41.8176 46.295Z" fill="white"/>
<path d="M15.6295 42.565H15.5165C14.4945 42.5594 13.5162 42.15 12.795 41.4259C12.0737 40.7019 11.6681 39.722 11.6665 38.7V34.002C11.6665 33.7117 11.7237 33.4242 11.8348 33.156C11.946 32.8878 12.1088 32.6442 12.3142 32.4389C12.5195 32.2337 12.7632 32.0709 13.0315 31.9599C13.2997 31.8489 13.5872 31.7919 13.8775 31.792H29.6175M37.9605 42.402H23.6565M41.8175 46.295C42.8125 46.295 43.7667 45.8997 44.4702 45.1962C45.1738 44.4927 45.569 43.5385 45.569 42.5435C45.569 41.5485 45.1738 40.5943 44.4702 39.8908C43.7667 39.1872 42.8125 38.792 41.8175 38.792C40.8225 38.792 39.8683 39.1872 39.1648 39.8908C38.4612 40.5943 38.066 41.5485 38.066 42.5435C38.066 43.5385 38.4612 44.4927 39.1648 45.1962C39.8683 45.8997 40.8225 46.295 41.8175 46.295Z" stroke="#404040" stroke-width="1.276" stroke-linecap="round" stroke-linejoin="round"/>
<path d="M19.3736 46.295C20.3685 46.295 21.3227 45.8997 22.0263 45.1962C22.7298 44.4927 23.1251 43.5385 23.1251 42.5435C23.1251 41.5485 22.7298 40.5943 22.0263 39.8908C21.3227 39.1872 20.3685 38.792 19.3736 38.792C18.3786 38.792 17.4244 39.1872 16.7209 39.8908C16.0173 40.5943 15.6221 41.5485 15.6221 42.5435C15.6221 43.5385 16.0173 44.4927 16.7209 45.1962C17.4244 45.8997 18.3786 46.295 19.3736 46.295Z" stroke="#404040" stroke-width="1.276" stroke-linecap="round" stroke-linejoin="round"/>
<path d="M41.8175 43.6879C42.1155 43.6879 42.4012 43.5695 42.6119 43.3589C42.8226 43.1482 42.941 42.8624 42.941 42.5644C42.941 42.2664 42.8226 41.9807 42.6119 41.77C42.4012 41.5593 42.1155 41.4409 41.8175 41.4409C41.5195 41.4409 41.2338 41.5593 41.0231 41.77C40.8124 41.9807 40.694 42.2664 40.694 42.5644C40.694 42.8624 40.8124 43.1482 41.0231 43.3589C41.2338 43.5695 41.5195 43.6879 41.8175 43.6879ZM19.3735 43.6879C19.6715 43.6879 19.9572 43.5695 20.1679 43.3589C20.3786 43.1482 20.497 42.8624 20.497 42.5644C20.497 42.2664 20.3786 41.9807 20.1679 41.77C19.9572 41.5593 19.6715 41.4409 19.3735 41.4409C19.0755 41.4409 18.7898 41.5593 18.5791 41.77C18.3684 41.9807 18.25 42.2664 18.25 42.5644C18.25 42.8624 18.3684 43.1482 18.5791 43.3589C18.7898 43.5695 19.0755 43.6879 19.3735 43.6879Z" fill="#404040"/>
<path d="M26.3186 34.73H29.5966" stroke="#404040" stroke-width="1.276" stroke-linecap="round" stroke-linejoin="round"/>
</svg>
