<svg width="33" height="42" viewBox="0 0 33 42" fill="none" xmlns="http://www.w3.org/2000/svg">
<path d="M25.144 12.2328C25.144 16.7246 21.368 20.3646 16.7107 20.3646C12.0527 20.3646 8.27734 16.7246 8.27734 12.2328C8.27734 7.741 12.0527 4.10034 16.7107 4.10034C21.368 4.10034 25.144 7.741 25.144 12.2328Z" fill="#FFE600"/>
<path d="M16.7475 20.3928V40.3443M9.96167 40.3442H14.4237M19.4343 40.3442H23.897" stroke="#404040" stroke-width="1.33333" stroke-linecap="round" stroke-linejoin="round"/>
<path fill-rule="evenodd" clip-rule="evenodd" d="M5.91016 32.179C2.1995 30.1921 1.3335 23.0361 1.3335 23.0361C4.25616 22.6938 8.6235 25.0787 8.6235 25.0787C10.4635 26.2361 11.0482 27.5423 11.1155 28.6564C11.2288 30.5541 9.77016 32.2754 7.81683 32.5351C7.79816 32.5377 7.78016 32.5397 7.76083 32.5423C7.12283 32.6177 6.47283 32.48 5.91016 32.179Z" fill="#84EB9C"/>
<path d="M16.586 38.1279C16.586 38.1279 11.8993 32.1181 7.6773 29.006M5.91016 32.179C2.1995 30.1921 1.3335 23.036 1.3335 23.036C4.25616 22.6937 8.6235 25.0786 8.6235 25.0786C10.4635 26.236 11.0482 27.5422 11.1155 28.6563C11.1662 29.5062 10.9015 30.3199 10.4195 30.9835M16.586 1V4.12787M8.4193 4.30557L10.696 6.53311M5.00716 12.2385L8.24983 12.2713M8.51503 20.3071L10.8037 18.0901M25.1185 4.47338L22.7572 6.61764M28.3607 12.2698L25.118 12.241M24.7702 20.3839L22.5436 18.1092M14.1126 8.41803H19.308M14.1126 10.8361H19.308M25.1439 12.2327C25.1439 16.7245 21.3679 20.3645 16.7106 20.3645C12.0526 20.3645 8.27723 16.7245 8.27723 12.2327C8.27723 7.74092 12.0526 4.10026 16.7106 4.10026C21.3679 4.10026 25.1439 7.74092 25.1439 12.2327Z" stroke="#404040" stroke-width="1.33333" stroke-linecap="round" stroke-linejoin="round"/>
<path d="M15.6492 8.41797C16.8645 8.41797 17.8499 9.576 17.8499 11.0042C17.8499 12.4331 16.8645 13.1773 15.6492 13.1773H14.1125L17.8979 16.7963" stroke="#404040" stroke-width="1.33333" stroke-linecap="round" stroke-linejoin="round"/>
<path fill-rule="evenodd" clip-rule="evenodd" d="M27.4232 30.0113C31.1339 28.0244 31.9999 20.8683 31.9999 20.8683C29.0772 20.526 24.7099 22.911 24.7099 22.911C22.8699 24.0683 22.2852 25.3739 22.2178 26.4887C22.1045 28.3864 23.5632 30.1077 25.5165 30.3673C25.5352 30.37 25.5532 30.3719 25.5725 30.3746C26.2105 30.45 26.8605 30.3123 27.4232 30.0113Z" fill="#84EB9C"/>
<path d="M16.7473 35.9603C16.7473 35.9603 21.434 29.9505 25.656 26.8384M27.4231 30.0113C31.1338 28.0244 31.9998 20.8683 31.9998 20.8683C29.0771 20.526 24.7098 22.911 24.7098 22.911C22.8698 24.0683 22.2851 25.3739 22.2178 26.4887C22.1671 27.3385 22.4318 28.1523 22.9138 28.8159" stroke="#404040" stroke-width="1.33333" stroke-linecap="round" stroke-linejoin="round"/>
</svg>
