<svg width="61" height="60" viewBox="0 0 61 60" fill="none" xmlns="http://www.w3.org/2000/svg">
<g clip-path="url(#clip0_28_884)">
<path d="M31.5165 3.75732C31.6982 3.82104 31.8801 3.88446 32.0621 3.94761C32.4502 4.08266 32.8378 4.2192 33.225 4.35676C33.8397 4.57442 34.4568 4.78462 35.0747 4.99328C37.7783 5.90705 40.4755 6.8391 43.1679 7.78543C43.7155 7.97772 44.2637 8.16805 44.8129 8.35592C45.0506 8.4374 45.2882 8.51952 45.5256 8.60192C45.8055 8.69895 46.0858 8.79488 46.3665 8.88945C46.4873 8.9317 46.6081 8.97395 46.7325 9.01749C46.8879 9.07066 46.8879 9.07066 47.0463 9.12492C47.4786 9.34487 47.626 9.62742 47.7762 10.0781C48.0615 10.2048 48.3301 10.3063 48.6258 10.4004C48.7042 10.4277 48.7826 10.4551 48.8634 10.4832C49.3394 10.6394 49.6403 10.669 50.12 10.5469C50.8524 10.5044 51.4104 10.6211 52.0984 10.8636C52.1943 10.8963 52.2901 10.9291 52.3889 10.9627C52.5902 11.0318 52.7913 11.1016 52.9922 11.172C53.298 11.2791 53.6047 11.3835 53.9116 11.4876C54.1081 11.5553 54.3044 11.6232 54.5008 11.6913C54.637 11.7376 54.637 11.7376 54.776 11.7849C55.495 12.0394 56.1512 12.3323 56.5653 13.0078C56.7036 13.4226 56.698 13.7962 56.6958 14.2276C56.6958 14.3157 56.6958 14.4037 56.6958 14.4945C56.6957 14.7855 56.6948 15.0765 56.6939 15.3676C56.6937 15.5694 56.6935 15.7712 56.6934 15.973C56.693 16.5041 56.6918 17.0353 56.6905 17.5664C56.6893 18.1084 56.6888 18.6504 56.6882 19.1924C56.6869 20.2559 56.6849 21.3193 56.6825 22.3828C56.7553 22.4061 56.8281 22.4295 56.9031 22.4535C56.9984 22.4845 57.0937 22.5156 57.1919 22.5475C57.2864 22.5781 57.381 22.6087 57.4784 22.6402C58.288 22.9348 58.7684 23.6259 59.1539 24.3617C59.5092 25.1866 59.5169 26.2124 59.2812 27.0703C59.1359 27.4334 58.9789 27.7768 58.7742 28.1103C58.651 28.3523 58.651 28.3523 58.7221 28.5916C58.758 28.673 58.7939 28.7544 58.8309 28.8384C58.8708 28.9316 58.9107 29.0248 58.9518 29.1208C59.019 29.271 59.019 29.271 59.0876 29.4241C59.1792 29.6394 59.2707 29.8547 59.3622 30.07C59.5081 30.4073 59.6548 30.7441 59.8028 31.0804C60.914 33.6192 60.914 33.6192 60.6668 34.9219C60.291 35.8715 60.291 35.8715 59.8465 36.0938C59.8463 36.245 59.8463 36.245 59.846 36.3993C59.8417 38.8522 59.8348 41.3052 59.825 43.7581C59.8203 44.9443 59.8165 46.1306 59.8148 47.3168C59.8133 48.3507 59.8101 49.3846 59.805 50.4185C59.8023 50.966 59.8005 51.5134 59.8006 52.0609C59.8007 52.5762 59.7986 53.0916 59.7948 53.6069C59.7938 53.796 59.7936 53.9851 59.7943 54.1741C59.7951 54.4326 59.793 54.6908 59.7902 54.9493C59.7897 55.0938 59.7893 55.2383 59.7889 55.3873C59.702 55.9624 59.4701 56.3229 59.01 56.6775C58.5791 56.8811 58.1961 56.8845 57.7294 56.8802C57.6343 56.8807 57.5392 56.8812 57.4413 56.8817C57.1214 56.883 56.8015 56.8818 56.4816 56.8806C56.2504 56.881 56.0193 56.8815 55.7881 56.8822C55.1519 56.8837 54.5157 56.883 53.8795 56.8819C53.1938 56.8811 52.5081 56.8823 51.8224 56.8833C50.4786 56.8849 49.1349 56.8845 47.7911 56.8835C46.6993 56.8827 45.6076 56.8826 44.5158 56.883C44.4382 56.883 44.3607 56.883 44.2808 56.8831C43.9661 56.8832 43.6514 56.8833 43.3367 56.8834C40.3835 56.8845 37.4303 56.8835 34.4772 56.8816C31.8526 56.8799 29.2281 56.8801 26.6035 56.8818C23.6558 56.8837 20.7081 56.8844 17.7604 56.8833C17.4462 56.8832 17.1321 56.8831 16.8179 56.883C16.5861 56.8829 16.5861 56.8829 16.3495 56.8828C15.2587 56.8825 14.1678 56.883 13.0769 56.8839C11.7481 56.8848 10.4192 56.8846 9.09038 56.8827C8.41199 56.8818 7.73362 56.8814 7.05523 56.8826C6.43474 56.8836 5.81428 56.8831 5.1938 56.8812C4.96882 56.8808 4.74383 56.881 4.51885 56.8818C4.21398 56.8829 3.90919 56.8818 3.60432 56.8802C3.51615 56.881 3.42799 56.8818 3.33716 56.8827C2.81585 56.877 2.48864 56.8028 2.0731 56.4844C1.55723 55.897 1.53725 55.4182 1.54483 54.6737C1.54409 54.5631 1.54336 54.4524 1.54261 54.3384C1.54074 53.9681 1.54222 53.5979 1.5437 53.2276C1.54306 52.962 1.54223 52.6963 1.54121 52.4306C1.53907 51.7094 1.5399 50.9881 1.54138 50.2668C1.54257 49.5122 1.54147 48.7576 1.54073 48.003C1.53983 46.6545 1.54128 45.3061 1.54367 43.9576C1.54576 42.7354 1.5454 41.5132 1.54324 40.291C1.54073 38.8711 1.5398 37.4512 1.54118 36.0313C1.54191 35.2799 1.54201 34.5285 1.54046 33.7771C1.53911 33.0707 1.54004 32.3643 1.54275 31.6579C1.54338 31.3986 1.5432 31.1392 1.54216 30.8799C1.54088 30.526 1.54249 30.1723 1.54483 29.8185C1.54378 29.7157 1.54273 29.6129 1.54166 29.5069C1.55124 28.7601 1.75497 28.3349 2.28436 27.7906C2.65649 27.5964 2.96205 27.6142 3.38036 27.6163C3.46521 27.6163 3.55006 27.6163 3.63749 27.6162C3.91134 27.6165 4.18512 27.6191 4.45896 27.6219C4.62835 27.6224 4.79775 27.6228 4.96714 27.623C5.59426 27.6248 6.22138 27.6297 6.84849 27.6343C8.95127 27.6452 8.95127 27.6452 11.0965 27.6562C11.0965 24.7559 11.0965 21.8555 11.0965 18.8672C10.7485 18.7898 10.4004 18.7125 10.0418 18.6328C9.81384 18.5641 9.58701 18.4912 9.36207 18.413C9.23954 18.3707 9.11701 18.3284 8.99077 18.2848C8.86148 18.2395 8.73219 18.1942 8.59898 18.1476C8.46213 18.1002 8.32529 18.0527 8.1843 18.0039C7.7486 17.8527 7.3132 17.7008 6.87779 17.5488C6.58896 17.4485 6.30011 17.3483 6.01124 17.2481C5.45564 17.0553 4.90042 16.8615 4.34544 16.6669C3.88882 16.5071 3.4315 16.3504 2.97215 16.1987C2.83475 16.1525 2.83475 16.1525 2.69457 16.1054C2.5326 16.0512 2.37024 15.998 2.2074 15.9464C1.59959 15.7406 1.11321 15.4223 0.742838 14.8892C0.530036 14.2149 0.562467 13.467 0.857279 12.832C1.50179 12.1536 2.23269 11.9036 3.10307 11.6116C3.2912 11.5471 3.2912 11.5471 3.48313 11.4813C3.8966 11.3398 4.31053 11.1997 4.72447 11.0596C5.01569 10.9601 5.30687 10.8606 5.59802 10.7609C6.12347 10.5811 6.64901 10.4016 7.1747 10.2225C8.44437 9.78979 9.71189 9.35098 10.9792 8.91135C11.6083 8.69317 12.2375 8.47541 12.8667 8.2576C13.1184 8.17045 13.3701 8.08331 13.6217 7.99616C14.3811 7.73322 15.1405 7.47035 15.8999 7.20749C16.0258 7.16387 16.1518 7.12026 16.2816 7.07532C16.913 6.85679 17.5443 6.63829 18.1757 6.41985C19.3641 6.00863 20.5524 5.59708 21.7403 5.18442C22.3006 4.98981 22.8609 4.79537 23.4213 4.60095C23.6881 4.50834 23.9548 4.41565 24.2215 4.32286C24.5916 4.19409 24.9618 4.06563 25.3321 3.93722C25.44 3.8996 25.5478 3.86198 25.659 3.82321C25.9605 3.71883 26.2626 3.61646 26.5653 3.51562C26.6661 3.48191 26.767 3.4482 26.8709 3.41347C28.5375 2.88156 29.9267 3.17819 31.5165 3.75732ZM54.1169 16.1307C53.9943 16.173 53.8717 16.2153 53.7454 16.2589C53.6113 16.3054 53.4772 16.3519 53.339 16.3998C53.2008 16.4476 53.0626 16.4953 52.9203 16.5445C52.6259 16.6463 52.3315 16.7482 52.0371 16.8502C51.5933 17.0039 51.1494 17.1574 50.7055 17.3108C50.4187 17.41 50.132 17.5091 49.8453 17.6083C49.715 17.6534 49.5846 17.6985 49.4504 17.7449C48.3829 18.1147 47.3181 18.4912 46.2528 18.8672C46.2528 21.7676 46.2528 24.668 46.2528 27.6562C48.3411 27.6562 50.4293 27.6562 52.5809 27.6562C52.4649 27.2695 52.3489 26.8828 52.2294 26.4844C52.1081 25.4075 52.2223 24.5668 52.8226 23.6572C53.3483 23.0707 54.1138 22.7296 54.8075 22.3828C54.8075 20.2559 54.8075 18.1289 54.8075 15.9375C54.5716 15.9375 54.3365 16.0548 54.1169 16.1307Z" fill="#404040"/>
<path d="M3.47925 29.4141C19.6828 29.4141 35.8863 29.4141 52.5808 29.4141C52.1853 30.6006 52.1853 30.6006 51.9729 31.062C51.9124 31.1946 51.9124 31.1946 51.8507 31.3298C51.8209 31.3937 51.7912 31.4576 51.7605 31.5234C49.4877 31.5372 47.215 31.5475 44.9422 31.5538C43.8867 31.5568 42.8312 31.5609 41.7757 31.5676C40.8549 31.5735 39.9341 31.5773 39.0132 31.5786C38.5265 31.5793 38.0397 31.5811 37.5529 31.5854C33.8771 31.6167 33.8771 31.6167 32.4288 31.0697C31.9144 30.8786 31.4431 30.8655 30.9011 30.8936C30.8128 30.8952 30.7244 30.8969 30.6333 30.8986C30.3703 30.9054 30.109 30.9199 29.8464 30.9375C29.7637 30.9417 29.6809 30.9459 29.5956 30.9502C29.0779 30.9895 28.6518 31.1022 28.1679 31.2909C27.3016 31.5839 26.4735 31.5875 25.5677 31.58C25.3895 31.5802 25.2113 31.5807 25.0331 31.5814C24.6523 31.5824 24.2716 31.5819 23.8908 31.5804C23.2885 31.578 22.6862 31.5792 22.0839 31.5809C20.8067 31.584 19.5294 31.5832 18.2522 31.582C16.8702 31.5807 15.4881 31.5801 14.1061 31.5841C13.5074 31.5856 12.9089 31.5849 12.3102 31.5825C11.9383 31.5814 11.5665 31.5823 11.1947 31.5837C11.0224 31.584 10.8501 31.5834 10.6778 31.582C10.4426 31.5802 10.2073 31.5815 9.97201 31.583C9.84043 31.5828 9.70885 31.5826 9.57328 31.5824C9.0214 31.6737 8.74135 31.9708 8.41028 32.4042C8.33958 32.5099 8.26888 32.6157 8.19604 32.7246C7.51691 33.6797 6.73903 34.3238 5.71359 34.8839C5.43873 35.0372 5.43873 35.0372 5.23706 35.3906C5.20084 35.6536 5.20084 35.6536 5.20493 35.9495C5.20376 36.0645 5.2026 36.1795 5.20139 36.298C5.20131 36.424 5.20123 36.55 5.20115 36.6799C5.20018 36.8127 5.1992 36.9455 5.1982 37.0824C5.19537 37.5228 5.19435 37.9632 5.19357 38.4036C5.19252 38.7091 5.19145 39.0146 5.19037 39.3201C5.18833 39.961 5.18753 40.602 5.18719 41.2429C5.18677 41.9833 5.18326 42.7237 5.17836 43.4642C5.1738 44.1768 5.17247 44.8894 5.17234 45.602C5.17185 45.9051 5.17039 46.2081 5.16795 46.5111C5.1648 46.9348 5.16535 47.3583 5.16682 47.782C5.16508 47.9076 5.16335 48.0331 5.16155 48.1625C5.16543 48.8664 5.16543 48.8664 5.51502 49.464C5.82116 49.6862 6.1267 49.8914 6.45288 50.083C7.42181 50.6875 8.01347 51.4047 8.6593 52.3412C8.86444 52.6411 8.86444 52.6411 9.22144 52.8516C9.50453 52.8879 9.50453 52.8879 9.82405 52.8837C9.94686 52.8849 10.0697 52.886 10.1962 52.8871C10.3288 52.887 10.4613 52.8869 10.5979 52.8868C10.7342 52.8873 10.8704 52.8878 11.0108 52.8883C11.2991 52.889 11.5875 52.8891 11.8758 52.8886C12.3174 52.8882 12.7589 52.8909 13.2005 52.8939C13.4805 52.8942 13.7604 52.8943 14.0403 52.8941C14.1726 52.8952 14.305 52.8963 14.4413 52.8974C14.5645 52.8967 14.6877 52.8959 14.8146 52.8952C14.9228 52.8953 15.0311 52.8953 15.1426 52.8954C15.4916 52.8426 15.6523 52.7485 15.9011 52.5C15.9754 51.9586 15.9754 51.9586 15.7559 51.4802C15.4886 51.2832 15.3399 51.289 15.01 51.2979C14.8462 51.3007 14.8462 51.3007 14.6792 51.3035C14.5612 51.3068 14.4433 51.3101 14.3218 51.3135C14.0714 51.3154 13.821 51.3171 13.5706 51.3185C13.1763 51.3224 12.7823 51.3281 12.3881 51.3389C10.0656 51.3974 10.0656 51.3974 9.53197 50.9365C9.26862 50.6106 9.06814 50.29 8.86987 49.9219C8.68174 49.7068 8.48424 49.5331 8.26929 49.3433C8.17956 49.2624 8.08983 49.1816 7.99738 49.0984C7.75677 48.9126 7.53236 48.7663 7.26913 48.6184C7.13995 48.5458 7.01078 48.4732 6.87769 48.3984C6.84781 46.8083 6.82491 45.2183 6.8109 43.6279C6.80417 42.8894 6.79505 42.1511 6.78044 41.4128C6.76642 40.7 6.75872 39.9875 6.75538 39.2746C6.753 39.0028 6.74835 38.731 6.74139 38.4593C6.68883 36.3223 6.68883 36.3223 7.16157 35.7502C7.49266 35.5384 7.79746 35.4035 8.16675 35.2734C8.49157 35.0118 8.49157 35.0118 8.73071 34.7534C8.80881 34.6738 8.88691 34.5942 8.96738 34.5122C9.21857 34.242 9.21857 34.242 9.35035 33.9888C9.58706 33.594 9.76625 33.3269 10.2206 33.1959C10.5961 33.1657 10.9616 33.1653 11.3383 33.1748C11.4801 33.1747 11.622 33.1745 11.7681 33.1744C12.1556 33.1749 12.5427 33.1796 12.9301 33.1862C13.3355 33.1921 13.7409 33.1926 14.1463 33.1937C14.9133 33.1966 15.6802 33.2043 16.4472 33.2137C17.3206 33.2242 18.194 33.2294 19.0675 33.2341C20.8637 33.2439 22.6597 33.2603 24.4558 33.2812C24.3437 33.4316 24.2315 33.5819 24.1193 33.7321C24.0568 33.8158 23.9944 33.8995 23.93 33.9857C23.7288 34.2501 23.5149 34.5014 23.2986 34.7534C21.2482 37.3134 20.6762 40.628 20.9402 43.8281C21.2886 46.4047 22.3345 48.7259 24.118 50.6181C24.3386 50.8594 24.3386 50.8594 24.573 51.2109C24.5033 51.2119 24.4336 51.2128 24.3618 51.2138C23.6375 51.2239 22.9133 51.2355 22.1891 51.2481C21.9186 51.2526 21.6482 51.2567 21.3778 51.2604C20.9894 51.2657 20.6011 51.2725 20.2128 51.2796C20.0916 51.281 19.9703 51.2823 19.8454 51.2837C19.6766 51.2872 19.6766 51.2872 19.5043 51.2908C19.3555 51.2931 19.3555 51.2931 19.2038 51.2955C18.9139 51.3132 18.9139 51.3132 18.5964 51.5625C18.5159 52.1571 18.5159 52.1571 18.7251 52.6875C19.0604 52.9343 19.3364 52.8951 19.749 52.8948C19.8706 52.8955 19.8706 52.8955 19.9946 52.8961C20.1707 52.8969 20.3468 52.8968 20.5229 52.8961C20.803 52.895 21.083 52.8962 21.363 52.8981C22.1594 52.9027 22.9557 52.9029 23.7521 52.9026C24.2396 52.9026 24.727 52.9049 25.2145 52.9084C25.488 52.9097 25.7613 52.9083 26.0348 52.9068C26.9781 52.9092 27.8085 53.0049 28.7062 53.3256C29.9769 53.7701 31.9615 53.7544 33.2127 53.2366C34.067 52.895 34.9141 52.9195 35.8215 52.9237C35.9974 52.9232 36.1732 52.9225 36.3491 52.9218C36.7258 52.9204 37.1025 52.9201 37.4793 52.9206C38.0752 52.9214 38.671 52.9196 39.2669 52.9173C40.6386 52.9125 42.0103 52.9112 43.382 52.9099C44.641 52.9086 45.9 52.9067 47.159 52.9019C47.7512 52.8997 48.3435 52.8993 48.9358 52.9001C49.3039 52.9003 49.672 52.899 50.0401 52.8974C50.2107 52.8969 50.3813 52.897 50.5519 52.8978C50.7849 52.8988 51.0179 52.8974 51.2508 52.8959C51.3811 52.8958 51.5114 52.8958 51.6457 52.8957C52.172 52.8292 52.4755 52.633 52.8019 52.2208C52.8716 52.1147 52.9412 52.0087 53.0129 51.8994C53.7162 50.9006 54.5516 50.1845 55.624 49.6042C55.8955 49.4545 55.8955 49.4545 56.0964 49.1016C56.1327 48.8585 56.1327 48.8585 56.1291 48.5877C56.1304 48.4827 56.1317 48.3777 56.133 48.2695C56.1334 48.0972 56.1334 48.0972 56.1338 47.9214C56.135 47.8002 56.1362 47.6789 56.1374 47.5541C56.141 47.1527 56.143 46.7513 56.145 46.3499C56.1472 46.0719 56.1494 45.7939 56.1518 45.5159C56.1579 44.7837 56.1625 44.0514 56.1669 43.3191C56.1715 42.5721 56.1775 41.8251 56.1834 41.0781C56.1948 39.612 56.2047 38.1458 56.2136 36.6797C56.755 36.6797 57.2964 36.6797 57.8542 36.6797C57.8542 42.7512 57.8542 48.8227 57.8542 55.0781C39.9105 55.0781 21.9667 55.0781 3.47925 55.0781C3.47925 46.609 3.47925 38.1398 3.47925 29.4141Z" fill="#99C03B"/>
<path d="M31.0735 5.52567C31.5084 5.68507 31.9448 5.84029 32.381 5.99584C32.6227 6.08204 32.8643 6.16844 33.1058 6.25503C34.1168 6.61696 35.1313 6.96864 36.1471 7.3169C36.2265 7.34412 36.3059 7.37134 36.3877 7.39939C36.9562 7.59429 37.5248 7.78887 38.0935 7.9834C38.7368 8.20348 39.3799 8.42374 40.023 8.64441C40.1391 8.68424 40.1391 8.68424 40.2575 8.72488C41.243 9.06327 42.2261 9.40768 43.2063 9.76135C43.309 9.79825 43.4117 9.83516 43.5176 9.87317C43.9734 10.037 44.4285 10.2021 44.8825 10.3707C45.6694 10.6579 46.3463 10.8833 47.1902 10.7813C47.4408 10.5306 47.4745 10.4141 47.5417 10.0781C48.3333 10.2867 49.1115 10.5148 49.8855 10.7813C49.8855 11.2066 49.8855 11.632 49.8855 12.0703C50.021 12.1147 50.1565 12.1591 50.2961 12.2049C51.0539 12.4575 51.8063 12.7254 52.559 12.9927C52.8101 13.0819 53.0613 13.1707 53.3125 13.2596C53.4725 13.3163 53.6325 13.3731 53.7925 13.4299C53.9368 13.481 54.081 13.5322 54.2296 13.5849C54.573 13.7109 54.573 13.7109 54.8074 13.8281C54.8074 13.9055 54.8074 13.9828 54.8074 14.0625C54.7308 14.0888 54.6542 14.1152 54.5753 14.1423C53.8446 14.3936 53.114 14.6452 52.3834 14.897C52.0081 15.0264 51.6327 15.1557 51.2572 15.2847C50.8231 15.434 50.3891 15.5836 49.9551 15.7333C49.8151 15.7817 49.675 15.83 49.5308 15.8797C48.6184 16.1961 47.7132 16.5266 46.8141 16.8791C46.4871 16.9922 46.4871 16.9922 46.1355 16.9922C46.1076 16.8501 46.1076 16.8501 46.0792 16.7052C45.8754 15.7151 45.8754 15.7151 45.198 15C44.4778 14.637 43.7477 14.5006 42.9568 14.3628C42.8139 14.3378 42.671 14.3128 42.5238 14.2871C40.6128 13.9665 38.6895 13.7693 36.7605 13.5938C36.6641 13.5848 36.5677 13.5759 36.4684 13.5667C33.8021 13.3208 31.1472 13.2091 28.4695 13.2056C28.341 13.2051 28.2125 13.2047 28.0801 13.2043C26.7165 13.2019 25.3597 13.2341 23.9999 13.3397C23.8857 13.3478 23.7715 13.3558 23.6538 13.3641C23.5486 13.3734 23.4434 13.3827 23.3351 13.3923C23.2428 13.4 23.1506 13.4077 23.0556 13.4157C22.7606 13.4904 22.6461 13.5869 22.4636 13.8281C22.4138 14.306 22.427 14.4763 22.698 14.8828C23.05 14.932 23.05 14.932 23.4711 14.9171C23.551 14.9166 23.6308 14.9161 23.7131 14.9156C23.8877 14.9143 24.0623 14.9121 24.2369 14.9093C24.5171 14.9047 24.7973 14.9023 25.0775 14.9003C25.4777 14.8974 25.8778 14.8936 26.2779 14.8892C27.3154 14.8781 28.353 14.8746 29.3905 14.8732C29.5438 14.873 29.5438 14.873 29.7003 14.8727C32.0223 14.871 34.3257 14.9839 36.6367 15.211C37.0059 15.2468 37.3756 15.2785 37.7451 15.3113C39.2656 15.4555 40.7701 15.6925 42.2756 15.9448C42.4136 15.9677 42.4136 15.9677 42.5543 15.991C42.8146 16.0344 43.0745 16.0793 43.3344 16.1247C43.4849 16.1507 43.6354 16.1767 43.7904 16.2035C44.1433 16.2891 44.1433 16.2891 44.3777 16.5234C44.3777 18.6117 44.3777 20.7 44.3777 22.8516C34.0136 22.8516 23.6496 22.8516 12.9714 22.8516C12.9714 20.7246 12.9714 18.5977 12.9714 16.4063C13.4343 16.1748 13.7551 16.1044 14.2619 16.0291C14.3418 16.017 14.4216 16.005 14.5039 15.9926C14.6742 15.9671 14.8445 15.942 15.0149 15.9172C15.2794 15.8788 15.5437 15.8392 15.8081 15.7995C16.8541 15.6438 17.8991 15.5085 18.9539 15.428C19.3653 15.337 19.5162 15.2161 19.7683 14.8828C19.8465 14.5262 19.8465 14.5262 19.7683 14.1797C19.5297 13.952 19.3711 13.8392 19.043 13.7884C18.2984 13.8103 17.569 13.8795 16.8313 13.9819C16.7144 13.9977 16.5976 14.0135 16.4772 14.0297C13.8978 14.2416 13.8978 14.2416 11.6824 15.3516C11.3273 15.8842 11.2674 16.3683 11.2136 16.9922C10.2837 16.8112 9.40629 16.5159 8.51282 16.2048C8.35547 16.1505 8.19812 16.0962 8.04074 16.042C7.71284 15.9289 7.38508 15.8154 7.05742 15.7016C6.63848 15.5561 6.21933 15.4112 5.8001 15.2666C5.39811 15.1279 4.99623 14.9889 4.59436 14.8499C4.51837 14.8236 4.44237 14.7973 4.36407 14.7702C4.14816 14.6955 3.93232 14.6206 3.71648 14.5457C3.59398 14.5032 3.47147 14.4607 3.34524 14.4169C3.03514 14.3057 2.72952 14.1871 2.42456 14.0625C2.42456 13.9852 2.42456 13.9078 2.42456 13.8281C4.05272 13.1957 5.70593 12.6355 7.35835 12.0706C8.11415 11.8122 8.86963 11.553 9.62513 11.2937C9.79359 11.2359 9.96206 11.1781 10.1305 11.1203C11.594 10.6182 13.0562 10.1124 14.5168 9.60205C14.6667 9.54972 14.6667 9.54972 14.8196 9.49633C15.8756 9.12745 16.931 8.75677 17.9858 8.3844C18.3578 8.25313 18.7298 8.12191 19.1018 7.99072C19.1911 7.95921 19.2805 7.9277 19.3725 7.89523C20.7263 7.41806 22.0851 6.95864 23.4484 6.50929C24.5446 6.14649 25.632 5.76197 26.7161 5.36465C26.8848 5.30296 26.8848 5.30296 27.0568 5.24002C27.1547 5.20391 27.2526 5.1678 27.3535 5.13059C28.6948 4.6697 29.7918 5.05573 31.0735 5.52567Z" fill="#858390"/>
<path d="M31.6041 32.5781C31.7754 32.5888 31.7754 32.5888 31.9502 32.5996C33.3577 32.7703 34.7885 33.634 35.8229 34.5703C35.9389 34.6702 35.9389 34.6702 36.0573 34.7722C36.6922 35.3563 37.1248 36.0356 37.5715 36.7653C37.7919 37.1119 38.0072 37.4308 38.2838 37.7344C38.7148 37.8152 38.9032 37.7881 39.2726 37.5513C39.4924 37.269 39.4924 37.269 39.4378 36.8875C39.3293 36.4045 39.1432 36.0509 38.8698 35.647C38.8233 35.5764 38.7768 35.5058 38.729 35.4331C38.3474 34.8672 37.9167 34.3601 37.4457 33.8658C37.2291 33.6328 37.2291 33.6328 36.9948 33.2813C41.5967 33.2813 46.1987 33.2813 50.9401 33.2813C50.9787 33.784 51.0174 34.2867 51.0573 34.8047C51.338 35.6021 51.7383 36.0149 52.4635 36.4453C52.8698 36.5807 53.2301 36.601 53.6574 36.6284C53.8065 36.6382 53.9556 36.6481 54.1092 36.6582C54.2235 36.6653 54.3379 36.6724 54.4557 36.6797C54.4856 38.1934 54.5085 39.707 54.5225 41.221C54.5292 41.924 54.5383 42.6269 54.553 43.3298C54.567 44.0083 54.5747 44.6867 54.578 45.3654C54.5804 45.6241 54.585 45.8828 54.592 46.1414C54.6446 48.175 54.6446 48.175 54.1729 48.7331C53.8425 48.944 53.5326 49.0824 53.1666 49.2188C52.9275 49.3969 52.7451 49.5885 52.5368 49.8047C52.4464 49.8965 52.3561 49.9884 52.263 50.083C52.0004 50.3592 52.0004 50.3592 51.8892 50.5968C51.7522 50.8507 51.628 51.0217 51.4088 51.2109C50.9469 51.3324 50.4943 51.3146 50.0191 51.3041C49.8785 51.3042 49.7378 51.3043 49.5929 51.3044C49.2081 51.304 48.8235 51.2999 48.4388 51.2941C48.0364 51.289 47.634 51.2885 47.2315 51.2875C46.4699 51.285 45.7084 51.2783 44.9469 51.27C44.0797 51.2608 43.2125 51.2563 42.3452 51.2522C40.5617 51.2437 38.7782 51.2292 36.9948 51.2109C37.105 51.0815 37.2153 50.9521 37.3257 50.8228C37.3872 50.7507 37.4486 50.6786 37.5119 50.6044C37.6797 50.4116 37.8521 50.225 38.0275 50.0391C39.8151 47.9371 40.5795 45.2983 40.5627 42.5814C40.5616 42.3292 40.5651 42.0772 40.5688 41.825C40.5689 41.6632 40.5689 41.5015 40.5685 41.3397C40.5687 41.1957 40.569 41.0516 40.5692 40.9031C40.5431 40.5399 40.5431 40.5399 40.2989 40.3206C39.9083 40.1304 39.6327 40.2058 39.2213 40.3125C38.9546 40.7126 38.9551 40.87 38.9467 41.3411C38.9432 41.4764 38.9397 41.6117 38.9361 41.751C38.9323 41.9635 38.9323 41.9635 38.9284 42.1802C38.9027 43.5545 38.8289 44.8813 38.3204 46.1719C38.2898 46.2508 38.2592 46.3298 38.2277 46.4111C37.7181 47.6829 37.0231 48.7167 36.0573 49.6875C35.9406 49.8103 35.9406 49.8103 35.8215 49.9356C34.4533 51.2751 32.548 51.9326 30.6593 51.958C28.4842 51.9338 26.816 50.9525 25.2687 49.4971C23.3174 47.4944 22.5078 44.7624 22.5413 42.0307C22.6057 39.5184 23.3263 37.1634 25.0416 35.2734C25.1296 35.1746 25.2175 35.0759 25.3081 34.9741C27.0451 33.1246 29.1266 32.4015 31.6041 32.5781Z" fill="#B5E345"/>
<path d="M11.3384 33.1748C11.4803 33.1747 11.6221 33.1745 11.7682 33.1744C12.1558 33.1749 12.5428 33.1796 12.9303 33.1862C13.3356 33.1921 13.741 33.1926 14.1464 33.1937C14.9134 33.1966 15.6803 33.2043 16.4473 33.2137C17.3207 33.2242 18.1942 33.2294 19.0676 33.2341C20.8638 33.2439 22.6598 33.2603 24.4559 33.2813C24.3439 33.4316 24.2317 33.5819 24.1194 33.7321C24.0569 33.8158 23.9945 33.8995 23.9301 33.9857C23.7289 34.2501 23.515 34.5014 23.2987 34.7534C21.2483 37.3134 20.6763 40.628 20.9403 43.8281C21.2887 46.4047 22.3346 48.7259 24.1181 50.6181C24.3387 50.8594 24.3387 50.8594 24.5731 51.2109C24.5037 51.2116 24.4343 51.2123 24.3627 51.213C23.6403 51.2205 22.918 51.2304 22.1956 51.2417C21.926 51.2456 21.6564 51.2489 21.3867 51.2515C20.9992 51.2555 20.6118 51.2616 20.2244 51.2682C20.0434 51.2693 20.0434 51.2693 19.8588 51.2704C19.7463 51.2727 19.6337 51.2751 19.5177 51.2775C19.4188 51.2788 19.3199 51.2801 19.218 51.2814C18.8911 51.338 18.7341 51.4733 18.4794 51.6797C18.1951 51.7252 18.1951 51.7252 17.882 51.7264C17.7688 51.7268 17.6555 51.7273 17.5389 51.7278C17.4214 51.7264 17.304 51.725 17.183 51.7236C17.0651 51.725 16.9472 51.7264 16.8257 51.7278C16.7126 51.7273 16.5996 51.7268 16.4831 51.7264C16.3799 51.726 16.2767 51.7256 16.1704 51.7252C15.9012 51.6797 15.9012 51.6797 15.7424 51.503C15.4868 51.2711 15.351 51.2887 15.0101 51.2979C14.8464 51.3007 14.8464 51.3007 14.6793 51.3035C14.5614 51.3068 14.4434 51.3101 14.322 51.3135C14.0716 51.3154 13.8212 51.3171 13.5708 51.3185C13.1764 51.3224 12.7824 51.3281 12.3882 51.3389C10.0657 51.3974 10.0657 51.3974 9.53209 50.9365C9.26873 50.6106 9.06826 50.29 8.86999 49.9219C8.68186 49.7068 8.48436 49.5331 8.2694 49.3433C8.17967 49.2624 8.08994 49.1816 7.99749 49.0984C7.75689 48.9126 7.53248 48.7663 7.26925 48.6184C7.14007 48.5458 7.01089 48.4732 6.8778 48.3984C6.84792 46.8083 6.82502 45.2183 6.81101 43.6279C6.80429 42.8895 6.79517 42.1511 6.78055 41.4128C6.76654 40.7 6.75884 39.9875 6.7555 39.2746C6.75312 39.0028 6.74847 38.731 6.74151 38.4593C6.68894 36.3223 6.68894 36.3223 7.16169 35.7502C7.49278 35.5384 7.79757 35.4035 8.16686 35.2734C8.49169 35.0118 8.49169 35.0118 8.73083 34.7534C8.80893 34.6738 8.88703 34.5942 8.96749 34.5122C9.21869 34.242 9.21869 34.242 9.35047 33.9888C9.8606 33.138 10.4013 33.1511 11.3384 33.1748Z" fill="#B5E345"/>
<path d="M31.6041 32.5781C31.7754 32.5888 31.7754 32.5888 31.9502 32.5996C33.3577 32.7703 34.7885 33.634 35.8229 34.5703C35.9389 34.6702 35.9389 34.6702 36.0573 34.7722C36.6922 35.3563 37.1248 36.0356 37.5715 36.7653C37.6519 36.8917 37.7323 37.0182 37.8151 37.1484C37.8834 37.2616 37.9516 37.3747 38.022 37.4913C38.3206 37.7686 38.3914 37.7698 38.7819 37.771C38.9269 37.7589 39.0719 37.7468 39.2213 37.7344C39.3001 38.0369 39.3781 38.3397 39.4557 38.6426C39.4781 38.7281 39.5004 38.8136 39.5234 38.9017C39.6274 39.31 39.6901 39.6541 39.6901 40.0781C39.4044 40.2686 39.4044 40.2686 39.1041 40.4297C38.9493 40.7394 38.9661 40.9831 38.9581 41.3297C38.9523 41.5331 38.9523 41.5331 38.9464 41.7407C38.9394 42.0242 38.9327 42.3077 38.9263 42.5913C38.8903 43.8262 38.7761 45.0153 38.3204 46.1719C38.2898 46.2508 38.2592 46.3298 38.2277 46.4111C37.7181 47.6829 37.0231 48.7167 36.0573 49.6875C35.9406 49.8103 35.9406 49.8103 35.8215 49.9356C34.4533 51.2751 32.548 51.9326 30.6593 51.958C28.4842 51.9338 26.816 50.9525 25.2687 49.4971C23.3174 47.4944 22.5078 44.7624 22.5413 42.0307C22.6057 39.5184 23.3263 37.1634 25.0416 35.2734C25.1296 35.1746 25.2175 35.0759 25.3081 34.9741C27.0451 33.1246 29.1266 32.4015 31.6041 32.5781Z" fill="#AAD440"/>
<path d="M4.29965 29.5312C20.1551 29.5312 36.0106 29.5312 52.3465 29.5312C52.2147 30.5859 52.2147 30.5859 51.9876 31.0547C51.9452 31.1441 51.9027 31.2335 51.859 31.3257C51.8265 31.3909 51.794 31.4562 51.7606 31.5234C49.4878 31.5372 47.2151 31.5475 44.9423 31.5538C43.8868 31.5568 42.8313 31.5609 41.7758 31.5676C40.855 31.5735 39.9342 31.5773 39.0133 31.5786C38.5265 31.5793 38.0398 31.5811 37.553 31.5854C33.8772 31.6167 33.8772 31.6167 32.4289 31.0697C31.9145 30.8786 31.4432 30.8655 30.9012 30.8936C30.8128 30.8952 30.7245 30.8969 30.6334 30.8986C30.3704 30.9054 30.109 30.9199 29.8465 30.9375C29.7637 30.9417 29.681 30.9459 29.5957 30.9502C29.078 30.9895 28.6519 31.1022 28.168 31.2909C27.3016 31.5839 26.4736 31.5875 25.5678 31.58C25.3896 31.5802 25.2114 31.5807 25.0332 31.5814C24.6524 31.5824 24.2717 31.5819 23.8909 31.5804C23.2886 31.578 22.6863 31.5792 22.084 31.5809C20.8067 31.584 19.5295 31.5832 18.2523 31.582C16.8702 31.5807 15.4882 31.5801 14.1062 31.5841C13.5075 31.5856 12.9089 31.5849 12.3103 31.5825C11.9384 31.5814 11.5666 31.5823 11.1948 31.5837C11.0225 31.584 10.8502 31.5834 10.6779 31.582C10.4426 31.5802 10.2074 31.5815 9.9721 31.583C9.84052 31.5828 9.70894 31.5826 9.57337 31.5824C9.02148 31.6737 8.74144 31.9708 8.41037 32.4042C8.33967 32.5099 8.26897 32.6157 8.19613 32.7246C7.517 33.6797 6.73912 34.3238 5.71368 34.8839C5.43882 35.0372 5.43882 35.0372 5.23715 35.3906C5.20093 35.6536 5.20093 35.6536 5.20502 35.9495C5.20385 36.0645 5.20268 36.1795 5.20148 36.298C5.2014 36.424 5.20132 36.55 5.20124 36.6799C5.20027 36.8127 5.19929 36.9455 5.19829 37.0824C5.19546 37.5228 5.19444 37.9632 5.19366 38.4036C5.19261 38.7091 5.19154 39.0146 5.19046 39.3201C5.18842 39.961 5.18762 40.602 5.18728 41.2429C5.18686 41.9833 5.18335 42.7237 5.17845 43.4642C5.17389 44.1768 5.17256 44.8894 5.17243 45.602C5.17194 45.9051 5.17048 46.2081 5.16803 46.5111C5.16489 46.9348 5.16544 47.3583 5.16691 47.782C5.16517 47.9076 5.16343 48.0331 5.16164 48.1625C5.16552 48.8664 5.16552 48.8664 5.51511 49.464C5.82125 49.6862 6.12679 49.8914 6.45297 50.083C7.4219 50.6875 8.01356 51.4047 8.65939 52.3412C8.86453 52.6411 8.86453 52.6411 9.22152 52.8516C9.50462 52.8879 9.50462 52.8879 9.82414 52.8837C9.94695 52.8849 10.0698 52.886 10.1963 52.8871C10.3289 52.887 10.4614 52.8869 10.598 52.8868C10.7343 52.8873 10.8705 52.8878 11.0109 52.8883C11.2992 52.889 11.5876 52.8891 11.8759 52.8886C12.3175 52.8882 12.759 52.8909 13.2006 52.8939C13.4806 52.8942 13.7605 52.8943 14.0404 52.8941C14.1727 52.8952 14.3051 52.8963 14.4414 52.8974C14.5646 52.8967 14.6878 52.8959 14.8147 52.8952C14.9229 52.8953 15.0312 52.8953 15.1427 52.8954C15.5053 52.8405 15.6541 52.7729 15.9012 52.5C15.9399 52.2293 15.9786 51.9586 16.0184 51.6797C16.8305 51.6797 17.6426 51.6797 18.4793 51.6797C18.5373 52.0857 18.5373 52.0857 18.5965 52.5C18.7138 52.7387 18.7138 52.7387 18.9481 52.8516C19.316 52.9033 19.316 52.9033 19.7435 52.8929C19.8643 52.8933 19.8643 52.8933 19.9874 52.8937C20.1624 52.8941 20.3373 52.8936 20.5122 52.8925C20.7909 52.8909 21.0695 52.8917 21.3483 52.8931C22.1407 52.8967 22.9332 52.8962 23.7257 52.8938C24.2109 52.8925 24.696 52.8941 25.1812 52.8973C25.3645 52.8979 25.5477 52.8975 25.731 52.8958C27.0473 52.8842 28.1431 53.096 29.3778 53.5547C29.3778 53.632 29.3778 53.7094 29.3778 53.7891C26.1599 53.8 22.942 53.8083 19.7242 53.8133C18.2301 53.8158 16.7361 53.8191 15.2421 53.8244C13.9402 53.8291 12.6384 53.8321 11.3365 53.8332C10.6469 53.8338 9.95728 53.8352 9.26764 53.8386C8.61906 53.8418 7.97051 53.8428 7.32192 53.8421C7.08339 53.8422 6.84487 53.8431 6.60635 53.8449C6.28159 53.8473 5.95696 53.8467 5.63221 53.8454C5.53702 53.8468 5.44183 53.8482 5.34376 53.8496C5.08064 53.8467 5.08064 53.8467 4.65121 53.7891C-0.20086 47.3196 4.29965 37.618 4.29965 29.5312Z" fill="#A9D440"/>
<path d="M12.9714 24.6094C23.3355 24.6094 33.6996 24.6094 44.3777 24.6094C44.3777 25.6148 44.3777 26.6203 44.3777 27.6562C34.0136 27.6562 23.6496 27.6562 12.9714 27.6562C12.9714 26.6508 12.9714 25.6453 12.9714 24.6094Z" fill="#FCCC08"/>
<path d="M28.6373 11.697C28.9984 11.697 29.3595 11.6962 29.7206 11.6946C32.735 11.6815 35.7212 11.7899 38.7138 12.1898C38.9101 12.216 38.9101 12.216 39.1104 12.2427C39.263 12.2632 39.4157 12.2836 39.573 12.3047C39.7692 12.3304 39.9653 12.3561 40.1615 12.3818C40.7114 12.4539 41.261 12.5282 41.8105 12.6035C42.0305 12.6335 42.2505 12.663 42.4705 12.692C45.7396 13.1251 45.7396 13.1251 46.6853 14.3111C47.1769 15.0514 47.3372 15.7637 47.4246 16.6406C47.2759 16.6999 47.1269 16.7584 46.9778 16.8164C46.8949 16.849 46.8119 16.8817 46.7265 16.9153C46.4871 16.9922 46.4871 16.9922 46.1355 16.9922C46.1076 16.8501 46.1076 16.8501 46.0792 16.7052C45.8754 15.7151 45.8754 15.7151 45.198 15C44.4778 14.637 43.7477 14.5006 42.9568 14.3628C42.8139 14.3378 42.671 14.3128 42.5238 14.2871C40.6128 13.9665 38.6895 13.7693 36.7605 13.5938C36.6159 13.5803 36.6159 13.5803 36.4684 13.5667C33.8021 13.3208 31.1472 13.2091 28.4695 13.2056C28.341 13.2051 28.2125 13.2047 28.0801 13.2043C26.7204 13.2019 25.3639 13.2312 24.0072 13.325C23.8374 13.3342 23.8374 13.3342 23.6641 13.3435C23.0257 13.3831 23.0257 13.3831 22.5434 13.7731C22.4784 13.8686 22.4134 13.9641 22.3464 14.0625C22.064 14.1454 22.064 14.1454 21.7532 14.1577C21.6405 14.1627 21.5278 14.1677 21.4117 14.1728C21.2948 14.1751 21.1778 14.1774 21.0574 14.1797C20.9405 14.1856 20.8235 14.1915 20.7031 14.1975C20.0747 14.2186 19.8031 14.2121 19.2996 13.8281C18.4964 13.7037 17.6295 13.8711 16.8313 13.9819C16.7144 13.9977 16.5976 14.0135 16.4772 14.0297C13.8978 14.2416 13.8978 14.2416 11.6824 15.3516C11.3273 15.8842 11.2674 16.3683 11.2136 16.9922C11.045 16.959 10.8766 16.9245 10.7083 16.8896C10.6144 16.8706 10.5206 16.8516 10.424 16.832C10.1589 16.7578 10.1589 16.7578 9.80737 16.5234C10.0325 15.3561 10.3647 14.4391 11.3015 13.667C12.4058 12.9337 13.8282 12.8459 15.1101 12.6489C15.2092 12.6335 15.3082 12.618 15.4103 12.602C16.8489 12.3779 18.2819 12.1988 19.7344 12.0926C20.0791 12.064 20.4215 12.0222 20.7647 11.9791C23.3719 11.6587 26.0145 11.6967 28.6373 11.697Z" fill="#76767E"/>
<path d="M56.2136 36.6797C56.755 36.6797 57.2964 36.6797 57.8542 36.6797C57.8542 42.3258 57.8542 47.9719 57.8542 53.7891C49.3851 53.7891 40.916 53.7891 32.1902 53.7891C32.3774 53.4146 32.6925 53.3873 33.0788 53.2516C34.0194 52.9384 34.9124 52.8871 35.9013 52.8971C36.0773 52.8966 36.2532 52.896 36.4292 52.895C36.804 52.8936 37.1788 52.894 37.5536 52.8958C38.1466 52.8987 38.7396 52.8973 39.3326 52.8954C40.3761 52.8926 41.4197 52.8932 42.4633 52.8947C44.038 52.8969 45.6128 52.8963 47.1876 52.8923C47.7769 52.891 48.3662 52.8915 48.9555 52.8935C49.3214 52.8944 49.6872 52.8939 50.053 52.8931C50.2225 52.893 50.3919 52.8935 50.5614 52.8947C50.7928 52.8962 51.0242 52.8953 51.2556 52.8943C51.4497 52.8947 51.4497 52.8947 51.6477 52.895C52.173 52.8293 52.4762 52.6321 52.8019 52.2208C52.8715 52.1147 52.9412 52.0087 53.0129 51.8994C53.7162 50.9006 54.5516 50.1845 55.624 49.6042C55.8955 49.4545 55.8955 49.4545 56.0964 49.1016C56.1327 48.8585 56.1327 48.8585 56.1291 48.5877C56.1304 48.4827 56.1317 48.3777 56.133 48.2695C56.1334 48.0972 56.1334 48.0972 56.1338 47.9214C56.135 47.8002 56.1362 47.6789 56.1374 47.5541C56.141 47.1527 56.143 46.7513 56.145 46.3499C56.1472 46.0719 56.1494 45.7939 56.1518 45.5159C56.1579 44.7837 56.1625 44.0514 56.1669 43.3191C56.1715 42.5721 56.1775 41.8251 56.1834 41.0781C56.1948 39.612 56.2046 38.1458 56.2136 36.6797Z" fill="#A8D340"/>
<path d="M12.9714 24.6094C13.3582 24.6094 13.7449 24.6094 14.1433 24.6094C14.1519 24.7449 14.1519 24.7449 14.1607 24.8831C14.1695 25.0006 14.1782 25.1182 14.1873 25.2393C14.1954 25.3562 14.2036 25.4731 14.212 25.5936C14.2328 25.9166 14.2328 25.9166 14.4949 26.1328C14.7239 26.1687 14.7239 26.1687 14.9904 26.1635C15.095 26.1644 15.1995 26.1652 15.3073 26.1661C15.4228 26.1659 15.5384 26.1657 15.6575 26.1654C15.8409 26.1665 15.8409 26.1665 16.0279 26.1675C16.4402 26.1695 16.8524 26.1698 17.2646 26.1702C17.5591 26.1713 17.8535 26.1725 18.148 26.1737C18.7832 26.1763 19.4185 26.1781 20.0538 26.1793C20.9724 26.181 21.8909 26.184 22.8094 26.1873C24.2996 26.1926 25.7897 26.1969 27.2799 26.2006C28.7277 26.2041 30.1755 26.2081 31.6232 26.2128C31.7124 26.2131 31.8016 26.2134 31.8935 26.2137C32.341 26.2151 32.7885 26.2166 33.2359 26.2181C36.9499 26.2302 40.6638 26.2406 44.3777 26.25C44.3777 26.7141 44.3777 27.1781 44.3777 27.6562C34.0136 27.6562 23.6496 27.6562 12.9714 27.6562C12.9714 26.6508 12.9714 25.6453 12.9714 24.6094Z" fill="#FAAB17"/>
<path d="M16.4756 38.1651C17.2273 38.6397 17.8871 39.1942 18.1276 40.0781C18.2715 41.175 18.0271 41.939 17.4611 42.8613C16.6157 43.6839 15.6846 43.8795 14.5411 43.868C13.7349 43.7872 13.1097 43.4363 12.5685 42.8394C12.4655 42.7024 12.365 42.5634 12.2683 42.4219C12.1957 42.3204 12.1232 42.2188 12.0485 42.1143C11.7756 41.2955 11.7709 40.2712 12.1318 39.4734C13.082 37.9716 14.8458 37.3222 16.4756 38.1651Z" fill="#404040"/>
<path d="M48.1277 38.3203C48.7796 38.8214 49.2715 39.3721 49.4168 40.1953C49.5338 41.1354 49.4742 41.8466 48.9302 42.6375C48.3762 43.2851 47.6952 43.7847 46.8286 43.8593C45.6302 43.8536 44.8095 43.7146 43.909 42.8906C43.2988 42.1198 43.142 41.4014 43.1624 40.4333C43.2715 39.5422 43.8014 38.9209 44.4839 38.372C45.5963 37.6062 46.975 37.6409 48.1277 38.3203Z" fill="#404040"/>
<path d="M57.151 29.4141C57.3145 29.7371 57.3145 29.7371 57.4806 30.1657C57.5105 30.2416 57.5404 30.3176 57.5712 30.3958C57.6668 30.6394 57.7605 30.8836 57.8542 31.1279C57.9482 31.3696 58.0427 31.6111 58.1372 31.8526C58.2233 32.0734 58.3086 32.2945 58.3939 32.5157C58.5077 32.804 58.6253 33.0862 58.7505 33.3693C58.9195 33.7756 58.9764 34.0189 58.9089 34.4531C58.7452 34.7045 58.7452 34.7045 58.4401 34.9219C58.0461 34.9916 57.6565 34.9847 57.2572 34.98C57.142 34.9802 57.0267 34.9804 56.9079 34.9805C56.6644 34.9803 56.4209 34.979 56.1774 34.9765C55.8047 34.9732 55.4322 34.9741 55.0595 34.9757C54.8229 34.9749 54.5862 34.9739 54.3495 34.9727C54.1823 34.9732 54.1823 34.9732 54.0118 34.9737C53.8557 34.9715 53.8557 34.9715 53.6965 34.9692C53.6053 34.9686 53.5141 34.968 53.4201 34.9673C53.0948 34.909 52.9333 34.8003 52.6979 34.5703C52.612 33.8505 52.7677 33.3325 53.0527 32.6779C53.0888 32.5914 53.125 32.5048 53.1622 32.4156C53.2769 32.142 53.3939 31.8693 53.5109 31.5967C53.5891 31.411 53.6672 31.2253 53.7451 31.0396C54.2861 29.7533 54.2861 29.7533 54.4557 29.4141C54.6653 29.4161 54.6653 29.4161 54.8792 29.4182C55.0627 29.4193 55.2463 29.4203 55.4299 29.4214C55.568 29.4229 55.568 29.4229 55.7089 29.4244C55.842 29.4249 55.842 29.4249 55.9778 29.4255C56.1002 29.4264 56.1002 29.4264 56.2251 29.4274C57.0442 29.3785 57.0442 29.3785 57.151 29.4141Z" fill="#F8C908"/>
<path d="M27.1512 33.5156C27.2285 33.5543 27.3058 33.593 27.3855 33.6328C27.2349 33.7898 27.0834 33.9459 26.9314 34.1016C26.8471 34.1886 26.7628 34.2756 26.676 34.3652C26.448 34.5703 26.448 34.5703 26.2137 34.5703C26.184 34.6326 26.1544 34.6948 26.1239 34.7589C25.9446 35.1062 25.7409 35.4363 25.5398 35.7715C25.0229 36.6614 24.6514 37.5758 24.3387 38.5547C24.2986 38.6761 24.2586 38.7976 24.2173 38.9227C23.3998 41.9496 24.0338 45.2178 25.5183 47.9137C26.4846 49.5637 27.8573 50.7295 29.4949 51.6797C28.9166 51.9007 28.456 51.6242 27.9133 51.4023C25.6168 50.3321 24.1359 48.4472 23.2043 46.1284C22.2061 43.3849 22.2919 40.3553 23.4639 37.6744C24.2533 36.0111 25.4867 34.3776 27.1512 33.5156Z" fill="#9BC33C"/>
<path d="M43.2344 45.3042C43.4608 45.302 43.4608 45.302 43.6919 45.2997C43.8568 45.2999 44.0218 45.3003 44.1868 45.3007C44.356 45.3002 44.5251 45.2996 44.6943 45.2989C45.0488 45.2978 45.4033 45.2981 45.7579 45.2993C46.212 45.3006 46.666 45.2983 47.1201 45.2948C47.4695 45.2927 47.8188 45.2927 48.1682 45.2934C48.3356 45.2934 48.503 45.2927 48.6704 45.2913C48.9046 45.2895 49.1388 45.2911 49.373 45.2928C49.5728 45.2928 49.5728 45.2928 49.7767 45.2928C50.1961 45.3646 50.3338 45.4853 50.5886 45.8203C50.6732 46.2621 50.6331 46.4523 50.3948 46.834C49.862 47.3344 49.0335 47.193 48.3511 47.1872C48.1878 47.1876 48.0245 47.1882 47.8612 47.1889C47.5196 47.1898 47.178 47.1885 46.8364 47.1858C46.3993 47.1824 45.9625 47.1843 45.5254 47.1879C45.1884 47.19 44.8515 47.1893 44.5145 47.1878C44.3534 47.1874 44.1923 47.1879 44.0312 47.1892C42.6164 47.1986 42.6164 47.1986 42.2237 46.8381C42.0339 46.5234 42.0339 46.5234 42.0339 46.0986C42.2458 45.3835 42.5083 45.3077 43.2344 45.3042Z" fill="#404040"/>
<path d="M11.946 45.2891C12.0942 45.2872 12.2425 45.2853 12.3952 45.2834C12.5566 45.2839 12.718 45.2845 12.8794 45.2852C13.0455 45.2846 13.2116 45.2838 13.3777 45.283C13.7255 45.2818 14.0733 45.2823 14.4211 45.284C14.8662 45.286 15.3111 45.2833 15.7561 45.2792C16.0991 45.2766 16.442 45.2767 16.7849 45.2777C16.949 45.2778 17.113 45.277 17.277 45.2753C17.5067 45.2732 17.7364 45.2753 17.9661 45.2776C18.0966 45.2777 18.2271 45.2778 18.3616 45.2779C18.8263 45.3751 19.0038 45.5747 19.2996 45.9375C19.3655 46.2378 19.3655 46.2378 19.2996 46.5234C19.0804 46.7864 18.9024 46.9564 18.5964 47.1094C18.3686 47.1231 18.1404 47.1293 17.9122 47.132C17.6968 47.1348 17.6968 47.1348 17.4771 47.1377C17.3197 47.139 17.1622 47.1403 17.0048 47.1414C16.9256 47.142 16.8464 47.1427 16.7647 47.1433C16.3454 47.1464 15.9261 47.1487 15.5067 47.1504C15.1599 47.152 14.8131 47.1552 14.4663 47.16C14.0474 47.1658 13.6285 47.1687 13.2095 47.1695C13.0501 47.1703 12.8906 47.1721 12.7312 47.1749C11.3262 47.1982 11.3262 47.1982 10.9396 46.835C10.7007 46.4527 10.6601 46.2629 10.7449 45.8203C11.1058 45.3483 11.3634 45.2923 11.946 45.2891Z" fill="#404040"/>
<path d="M14.1433 16.1719C14.1433 18.3375 14.1433 20.5031 14.1433 22.7344C24.1207 22.7344 34.098 22.7344 44.3777 22.7344C44.3777 22.773 44.3777 22.8117 44.3777 22.8516C34.0136 22.8516 23.6496 22.8516 12.9714 22.8516C12.9714 20.7246 12.9714 18.5977 12.9714 16.4062C13.4402 16.1719 13.4402 16.1719 14.1433 16.1719Z" fill="#787780"/>
<path d="M56.448 24.1406C56.9717 24.3744 57.2876 24.6915 57.5462 25.1967C57.7336 25.7893 57.5805 26.3865 57.3123 26.9312C56.9427 27.4272 56.5949 27.7006 55.9811 27.8178C55.3742 27.8543 54.9261 27.6845 54.4558 27.3047C54.047 26.875 53.9527 26.5343 53.9285 25.957C53.9511 25.3807 54.0609 25.047 54.4558 24.6094C54.5332 24.5175 54.6105 24.4257 54.6902 24.3311C55.2566 24.0242 55.8189 24.0578 56.448 24.1406Z" fill="#F8C908"/>
<path d="M46.7214 39.6094C47.0848 39.815 47.3646 40.0182 47.6589 40.3125C47.7258 40.6706 47.7215 41.0086 47.6589 41.3672C47.3608 41.7437 47.0982 42.034 46.6097 42.1024C46.1066 42.1246 45.7727 42.1212 45.3738 41.792C45.0312 41.4323 44.9733 41.3523 44.927 40.8618C44.9698 40.3571 45.0738 40.1924 45.4324 39.8438C45.841 39.5479 46.229 39.5584 46.7214 39.6094Z" fill="#9AC23B"/>
<path d="M15.3152 39.6094C15.7914 39.7925 16.1375 39.9649 16.3699 40.4297C16.4281 40.8226 16.4567 41.1059 16.2463 41.4551C16.0378 41.7117 15.8476 41.9213 15.5496 42.0703C15.0439 42.122 14.6183 42.1255 14.1507 41.9165C13.87 41.6869 13.7003 41.4869 13.6229 41.1269C13.6011 40.7207 13.5936 40.4303 13.8293 40.0873C14.2985 39.6454 14.6612 39.5024 15.3152 39.6094Z" fill="#9BC23C"/>
<path d="M14.4949 39.6094C15.1094 39.5725 15.4956 39.6283 16.0183 39.9609C16.3512 40.2716 16.3686 40.4039 16.3918 40.8691C16.381 41.0577 16.381 41.0577 16.3699 41.25C15.6352 41.18 15.1898 40.9022 14.6853 40.3711C14.4949 40.0781 14.4949 40.0781 14.4949 39.6094Z" fill="#A5CF3E"/>
<path d="M46.2747 39.5728C46.8904 39.6232 47.2301 39.8836 47.6589 40.3125C47.6906 40.6275 47.6692 40.9326 47.6589 41.25C46.8501 41.0613 46.3533 40.7887 45.9011 40.0781C45.8625 39.9621 45.8238 39.8461 45.7839 39.7266C45.9011 39.6094 45.9011 39.6094 46.2747 39.5728Z" fill="#A6D03F"/>
<path d="M56.7996 29.2969C56.8769 29.3355 56.9542 29.3742 57.0339 29.4141C56.148 29.9678 55.2397 30.0233 54.2214 30.1172C54.2988 29.8852 54.3761 29.6531 54.4558 29.4141C54.6654 29.4161 54.6654 29.4161 54.8792 29.4182C55.0628 29.4193 55.2464 29.4203 55.4299 29.4214C55.568 29.4229 55.568 29.4229 55.7089 29.4244C55.8421 29.4249 55.8421 29.4249 55.9779 29.4255C56.1003 29.4264 56.1003 29.4264 56.2252 29.4274C56.4744 29.4221 56.4744 29.4221 56.7996 29.2969Z" fill="#F3A816"/>
<path d="M29.0007 40H32.9969M29.0007 41.9116H32.9969M30.1827 40C31.1176 40 31.8756 40.9154 31.8756 42.0449C31.8756 43.1738 31.1176 43.7626 30.1827 43.7626H29.0008L31.9131 46.624" stroke="#404040" stroke-width="1.33333" stroke-linecap="round" stroke-linejoin="round"/>
</g>
<defs>
<clipPath id="clip0_28_884">
<rect width="60" height="60" fill="white" transform="translate(0.666748)"/>
</clipPath>
</defs>
</svg>
