<svg width="42" height="35" viewBox="0 0 42 35" fill="none" xmlns="http://www.w3.org/2000/svg">
<path fill-rule="evenodd" clip-rule="evenodd" d="M37.8227 3.8965C34.0307 0.0345001 27.8827 0.0345001 24.0907 3.8965L23.1347 4.8705C21.7713 6.25917 19.5613 6.25917 18.198 4.8705L17.242 3.8965C13.45 0.0345001 7.30267 0.0345001 3.51 3.8965C-0.281329 7.75917 -0.281329 14.0212 3.51 17.8825L6.99334 21.4305L18.9413 33.6065C19.6553 34.3345 20.7027 34.5152 21.584 34.1498C21.88 34.0278 22.1573 33.8458 22.3973 33.6012L22.3847 33.6065L37.8227 17.8825C41.614 14.0212 41.614 7.75917 37.8227 3.8965Z" fill="#FC6262"/>
<path d="M22.3976 33.6009C21.4429 34.5729 19.8963 34.5729 18.9423 33.6009L3.51026 17.8829C-0.28174 14.0209 -0.28174 7.75892 3.51026 3.89626C7.30226 0.034256 13.4503 0.034256 17.2423 3.89626" stroke="#404040" stroke-width="1.33333" stroke-linecap="round" stroke-linejoin="round"/>
<path d="M18.9412 33.6067C19.8925 34.5754 21.4338 34.5754 22.3845 33.6067L37.8225 17.8827C41.6145 14.0207 41.6145 7.75941 37.8225 3.89674C34.0305 0.0347443 27.8825 0.0347443 24.0912 3.89674C24.0912 3.89674 21.2658 6.83741 21.7325 10.5054" stroke="#404040" stroke-width="1.33333" stroke-linecap="round" stroke-linejoin="round"/>
<path d="M4.57007 6.42843C5.9134 4.59376 8.0594 3.40576 10.4787 3.40576" stroke="white" stroke-width="1.33333" stroke-linecap="round" stroke-linejoin="round"/>
<path fill-rule="evenodd" clip-rule="evenodd" d="M4.29075 7.86454C4.29075 8.17587 4.04342 8.42787 3.73742 8.42787C3.43208 8.42787 3.18408 8.17587 3.18408 7.86454C3.18408 7.55254 3.43208 7.30054 3.73742 7.30054C4.04342 7.30054 4.29075 7.55254 4.29075 7.86454Z" fill="white"/>
</svg>
