<svg width="736" height="490" viewBox="0 0 736 490" fill="none" xmlns="http://www.w3.org/2000/svg">
<g clip-path="url(#clip0_29_1042)">
<path d="M239.474 87.7651C248.122 97.4169 247.298 112.242 237.633 120.878C227.968 129.515 213.123 128.692 204.475 119.04C195.827 109.388 196.651 94.5631 206.316 85.9269C215.98 77.2909 230.826 78.1136 239.474 87.7651Z" fill="#D4DEFF"/>
<path d="M232.975 117.934L229.992 114.606C228.049 116.283 225.537 117.46 223.644 117.668L222.457 114.752C224.354 114.481 226.631 113.574 228.479 111.922C230.823 109.829 231.196 107.062 229.513 105.183C227.888 103.37 225.597 103.4 222.269 104.594C217.722 106.283 214.284 106.625 211.715 103.758C209.264 101.022 209.351 97.2062 211.944 93.9989L208.961 90.6704L211.008 88.8419L213.872 92.0384C215.911 90.3352 217.737 89.6534 219.196 89.3581L220.32 92.2707C219.272 92.4946 217.27 92.9787 215.158 94.8657C212.617 97.1366 213.018 99.508 214.199 100.826C215.735 102.54 217.724 102.306 221.658 100.927C226.297 99.2733 229.549 99.4536 232.177 102.387C234.51 104.99 234.88 109.051 231.983 112.649L235.054 116.076L232.975 117.934Z" fill="#E3EAFF"/>
<path d="M721.709 291.064L706.139 269.14C706.139 269.14 690.912 272.383 686.085 291.08C683.093 302.67 668.949 310.261 668.949 310.261L684.602 332.3C684.602 332.3 703.354 324.683 706.55 311.377C709.93 297.304 721.709 291.064 721.709 291.064Z" fill="#D4DEFF"/>
<path d="M688.93 309.731C693.554 312.718 700.131 310.772 703.621 305.385C707.111 299.998 706.191 293.208 701.567 290.221C696.943 287.234 690.365 289.18 686.875 294.567C683.385 299.955 684.305 306.744 688.93 309.731Z" fill="#E3EAFF"/>
<path d="M84.3555 262.368L75.7016 236.917C75.7016 236.917 60.1811 235.684 50.2093 252.226C44.0281 262.48 28.302 265.721 28.302 265.721L37.0015 291.307C37.0015 291.307 57.151 289.354 64.0189 277.513C71.2824 264.991 84.3555 262.368 84.3555 262.368Z" fill="#D4DEFF"/>
<path d="M47.6024 270.911C51.1801 275.093 58.0401 275.104 62.9249 270.936C67.81 266.767 68.8698 259.999 65.2921 255.818C61.7147 251.636 54.8544 251.625 49.9696 255.794C45.085 259.961 44.0249 266.73 47.6024 270.911Z" fill="#E3EAFF"/>
<path d="M41.9307 445.508C41.9307 445.508 -20.0442 384.976 30.7254 324.648C43.5997 309.35 70.3528 302.655 71.5741 282.707C74.117 241.166 47.5064 210.225 75.8888 167.72C113.996 110.649 151.648 125.343 206.068 119.016C244.463 114.552 252.47 87.0357 282.775 63.0725C392.642 -23.8035 483.595 54.6132 540.115 110.895C582.474 153.075 621.422 86.8735 684.094 172.901C722.618 225.782 686.269 254.227 683.414 289.719C680.334 328.016 720.461 346.497 725.513 371.305C734.509 415.478 716.686 444.706 716.686 444.706L41.9307 445.508Z" fill="#E0EFFF"/>
<path d="M514.804 350.876C511.207 360.519 500.463 365.425 490.807 361.832C481.151 358.24 476.238 347.511 479.835 337.868C483.432 328.225 494.176 323.32 503.832 326.912C513.488 330.503 518.401 341.233 514.804 350.876Z" fill="white"/>
<path d="M491.156 357.472L492.397 354.146C490.497 353.402 488.739 352.073 487.892 350.821L489.507 348.909C490.399 350.141 491.88 351.404 493.727 352.091C496.068 352.962 498.154 352.2 498.854 350.323C499.53 348.512 498.661 346.914 496.59 345.019C493.718 342.451 492.206 340.163 493.274 337.299C494.293 334.565 497.013 333.215 500.23 333.849L501.471 330.523L503.516 331.284L502.324 334.478C504.278 335.28 505.433 336.31 506.181 337.225L504.546 339.092C504.001 338.439 502.919 337.211 500.809 336.427C498.27 335.482 496.749 336.641 496.257 337.958C495.619 339.67 496.519 340.98 498.946 343.233C501.826 345.879 502.902 348.229 501.809 351.16C500.839 353.761 498.116 355.524 494.511 354.82L493.234 358.244L491.156 357.472Z" fill="#E3EAFF"/>
<path d="M713.312 455.366H28.171C24.0572 455.366 20.7227 452.035 20.7227 447.927C20.7227 443.819 24.0575 440.489 28.171 440.489H713.312C717.426 440.489 720.76 443.819 720.76 447.927C720.76 452.035 717.426 455.366 713.312 455.366Z" fill="#95A6DB"/>
<path d="M75.1585 195.641C87.382 192.196 113.488 203.23 106.383 247.629C99.2785 292.027 65.6199 284.703 65.6199 284.703C65.6199 284.703 50.9498 280.098 49.633 251.892C48.3161 223.685 54.6023 201.433 75.1585 195.641Z" fill="black"/>
<path d="M81.3007 254.993C81.3007 254.993 97.3982 267.453 121.405 266.683C126.246 257.413 116.379 252.801 116.379 252.801L97.175 244.111C97.175 244.111 90.2649 241.844 84.5634 246.326C79.5969 250.23 81.3007 254.993 81.3007 254.993Z" fill="#4364CC"/>
<path d="M98.2461 230.401C98.2461 230.401 104.403 244.908 107.959 253.546C109.37 256.975 114.716 266.883 121.405 266.683C127.343 260.293 119.326 242.346 101.29 227.519C99.1577 229.773 98.2461 230.401 98.2461 230.401Z" fill="#F37A50"/>
<path d="M99.113 236.657L105.05 233.745C105.855 233.35 106.188 232.377 105.792 231.573L99.5534 218.888C99.1579 218.084 97.6189 217.56 96.8135 217.955L91.4417 221.059C90.6362 221.454 90.3038 222.427 90.6995 223.231L96.0203 236.124C96.2701 236.733 97.6542 237.396 99.113 236.657Z" fill="#8A284C"/>
<path d="M97.9008 236.575L103.838 233.663C104.643 233.268 104.976 232.296 104.58 231.491L98.341 218.806C97.9455 218.002 96.972 217.67 96.1666 218.065L90.2295 220.977C89.4243 221.372 89.0919 222.345 89.4876 223.149L95.7262 235.834C96.1219 236.638 97.0954 236.97 97.9008 236.575Z" fill="#E62552"/>
<path d="M97.1659 234.015L102.201 231.545C102.864 231.22 103.137 230.42 102.812 229.758L97.8079 219.584C97.4823 218.922 96.6811 218.649 96.0182 218.974L90.983 221.443C90.3203 221.769 90.0468 222.569 90.3723 223.231L95.3762 233.405C95.7017 234.067 96.5027 234.34 97.1659 234.015Z" fill="#3B1120"/>
<path d="M99.4874 234.091C99.5823 234.528 100.014 234.805 100.451 234.71C100.889 234.616 101.166 234.185 101.071 233.748C100.977 233.311 100.545 233.034 100.108 233.128C99.6701 233.223 99.3924 233.654 99.4874 234.091Z" fill="#8A284C"/>
<path d="M104.605 227.906C104.488 227.837 104.364 227.796 104.236 227.767C104.248 227.748 104.261 227.73 104.273 227.71C104.966 226.542 104.847 225.194 104.009 224.699C103.871 224.617 103.722 224.567 103.567 224.54C103.736 223.693 103.506 222.904 102.908 222.55C102.67 222.41 102.399 222.355 102.119 222.372C102.342 221.537 102.088 220.685 101.418 220.289C100.579 219.793 99.4201 220.199 98.8291 221.195C98.2376 222.191 98.438 223.401 99.2766 223.896C99.4888 224.022 99.7216 224.089 99.9608 224.104C99.4741 225.182 99.6406 226.328 100.399 226.776C100.537 226.857 100.686 226.908 100.841 226.935C100.672 227.782 100.901 228.571 101.5 228.925C101.721 229.055 101.97 229.112 102.229 229.106C101.997 229.838 102.207 230.604 102.796 230.952C103.505 231.371 104.484 231.029 104.983 230.187C105.482 229.346 105.313 228.325 104.605 227.906Z" fill="#F37A50"/>
<path d="M85.7748 235.966L76.6636 234.603L77.3893 243.049C77.3893 243.049 82.0037 251.353 86.3815 249.923C90.7594 248.492 88.6243 244.824 88.6243 244.824L85.7748 235.966Z" fill="#F37A50"/>
<path d="M69.3749 222.264C70.8555 232.242 78.4176 239.389 86.2653 238.228C94.1128 237.067 99.2741 228.037 97.7936 218.058C96.313 208.08 88.7511 200.933 80.9033 202.094C73.0556 203.255 67.8943 212.286 69.3749 222.264Z" fill="#F37A50"/>
<path d="M77.9042 219.572C78.0131 219.54 78.1127 219.472 78.1826 219.371C79.1998 217.913 81.2461 217.954 81.2667 217.954C81.5528 217.963 81.7924 217.738 81.8015 217.452C81.8104 217.167 81.5869 216.927 81.3008 216.918C81.1941 216.914 78.6748 216.851 77.3303 218.778C77.1664 219.013 77.2241 219.337 77.4596 219.5C77.5943 219.594 77.7579 219.616 77.9042 219.572Z" fill="black"/>
<path d="M95.4063 219.282C95.4583 219.262 95.5076 219.233 95.5525 219.195C95.7714 219.01 95.7981 218.683 95.6126 218.464C94.1718 216.768 92.1699 217.242 92.0852 217.263C91.8075 217.333 91.6375 217.614 91.7069 217.892C91.7759 218.169 92.0563 218.338 92.334 218.271C92.3998 218.255 93.8072 217.942 94.8207 219.135C94.9679 219.309 95.2054 219.361 95.4063 219.282Z" fill="black"/>
<path d="M88.1607 223.506C88.8138 224.308 89.3768 225.124 90.0245 225.616C90.2431 225.782 90.2899 226.095 90.1346 226.321C89.4941 227.253 87.805 227.919 86.7763 228.252C86.6261 228.301 86.5238 228.101 86.6512 228.008C87.7299 227.22 88.2169 226.612 88.4286 226.273C88.5341 226.105 88.5498 225.897 88.476 225.713C88.3067 225.29 87.9706 224.428 87.7547 223.72C87.6798 223.476 87.9988 223.308 88.1607 223.506Z" fill="#DE623C"/>
<path d="M81.5845 231.043C81.385 230.737 81.6441 230.343 82.0033 230.408C82.9166 230.573 84.4284 230.813 85.8798 230.9C87.3312 230.987 88.8608 230.928 89.7872 230.874C90.1515 230.852 90.3615 231.275 90.127 231.554C89.4057 232.413 87.9447 233.694 85.72 233.561C83.4951 233.428 82.1978 231.982 81.5845 231.043Z" fill="white"/>
<path d="M66.1812 221.35C75.4627 220.931 87.6697 212.376 89.1454 207.679C87.8788 201.769 83.2125 198.429 77.6393 200.625C72.0658 202.821 62.9342 213.768 66.1812 221.35Z" fill="black"/>
<path d="M87.0251 210.054C87.0251 210.054 92.5486 215.66 98.1422 216.941C96.1844 210.402 94.786 205.445 91.4301 203.839C88.0739 202.233 84.3684 201.953 84.3684 201.953L87.0251 210.054Z" fill="black"/>
<path d="M71.5446 220.715C73.284 222.33 73.6211 224.792 72.2973 226.213C70.9734 227.635 68.4904 227.477 66.7508 225.862C65.0113 224.247 64.6745 221.785 65.9983 220.364C67.3221 218.942 69.8052 219.099 71.5446 220.715Z" fill="#F37A50"/>
<path d="M70.0449 225.568C70.1178 225.54 70.185 225.495 70.241 225.432C71.0422 224.543 71.2039 223.478 70.674 222.585C70.1313 221.67 69.0175 221.175 68.0254 221.408C67.7462 221.474 67.5732 221.753 67.6389 222.032C67.7049 222.311 67.9844 222.484 68.2636 222.418C68.807 222.29 69.4733 222.596 69.7805 223.113C70.0756 223.611 69.965 224.188 69.4686 224.739C69.277 224.952 69.2942 225.28 69.5077 225.471C69.6588 225.607 69.8678 225.638 70.0449 225.568Z" fill="#DE623C"/>
<path d="M78.9016 221.098C78.9016 221.978 79.6155 222.691 80.4965 222.691C81.3773 222.691 82.0914 221.978 82.0914 221.098C82.0914 220.218 81.3773 219.505 80.4965 219.505C79.6158 219.505 78.9016 220.218 78.9016 221.098Z" fill="black"/>
<path d="M92.1188 222.691C92.9997 222.691 93.7138 221.978 93.7138 221.098C93.7138 220.218 92.9997 219.505 92.1188 219.505C91.238 219.505 90.5239 220.218 90.5239 221.098C90.5239 221.978 91.238 222.691 92.1188 222.691Z" fill="black"/>
<path d="M94.3048 427.201C93.6949 421.124 96.8344 374.878 96.8344 374.878C105.713 334.222 102.226 305.119 102.226 305.119L86.9651 306.19L80.9505 329.164L83.8033 367.532C83.8033 367.532 82.7326 370.486 82.1674 372.847C79.1034 385.655 82.1551 400.961 84.0422 411.162C84.9166 415.89 86.2767 425.826 86.3121 428.084L82.4782 433.034C82.4782 433.034 96.3536 448.369 98.488 448.465C102.637 448.652 101.415 444.549 101.415 444.549C95.7113 438.701 94.4797 428.941 94.3048 427.201Z" fill="#F37A50"/>
<path d="M82.2405 438.468L83.004 448.32L84.7773 448.401L85.6742 439.251C90.3942 440.454 93.7759 449.008 93.7759 449.008C97.027 450.172 105.291 450.971 108.233 449.458C108.943 446.579 101.401 444.561 101.401 444.561C100.72 445.367 96.6944 445.984 95.2648 445.121C90.0007 440.645 87.4338 434.137 86.3118 428.085C86.3118 428.085 77.9938 428.664 82.2405 438.468Z" fill="#E62552"/>
<path d="M89.1441 308.076L67.6458 305.119C59.4222 323.7 56.7412 356.052 54.5087 367.577C45.5474 382.582 42.7017 428.085 42.7017 428.085L38.8679 433.035C38.8679 433.035 52.7432 448.37 54.8776 448.466C59.0265 448.653 57.804 444.55 57.804 444.55C52.1012 438.701 50.9896 430.931 50.6201 429.221C50.0652 426.652 68.0211 376.173 68.0211 376.173L69.9379 371.383C91.8695 335.209 95.468 307.861 95.468 307.861L89.1441 308.076Z" fill="#F37A50"/>
<path d="M38.6308 438.468L39.394 448.32L41.1675 448.401L42.0645 439.251C46.7844 440.454 50.1664 449.008 50.1664 449.008C53.4175 450.172 61.6818 450.971 64.6231 449.458C65.3334 446.579 57.7918 444.561 57.7918 444.561C57.1105 445.367 53.0846 445.984 51.6551 445.121C46.3912 440.645 43.824 434.137 42.7021 428.085C42.7021 428.085 34.3838 428.664 38.6308 438.468Z" fill="#E62552"/>
<path d="M49.1755 365.466C51.3224 358.292 50.388 306.946 69.3417 292.984L101.957 296.416C109.494 308.599 106.729 340.301 104.191 366.391C88.8565 371.857 76.6637 374.051 49.1755 365.466Z" fill="#070635"/>
<path d="M102.355 288.379C102.355 281.246 108.545 270.56 105.578 263.359C103.417 257.567 99.1709 244.499 94.5437 243.617C92.6662 243.259 90.6054 243.619 88.0058 242.901C88.0058 242.901 89.3632 248.95 86.3076 249.195C80.4255 249.666 77.3343 242.136 77.3343 242.136C74.1626 241.833 63.1023 245.129 63.1094 246.322C63.144 255.665 67.2587 270.775 69.7444 280.877C70.2056 286.02 69.8408 290.01 69.3249 292.921C68.3831 295.955 67.2332 297.692 67.2256 298.349C67.2256 298.349 89.0284 305.746 102.9 298.119C102.9 298.119 102.355 293.196 102.355 288.379Z" fill="#768FDB"/>
<path d="M63.5656 295.158L65.4237 295.9C65.4237 295.9 67.3606 292.824 69.3248 292.921L68.3459 295.86C68.3459 295.86 69.4568 299.295 75.4071 298.901C80.4899 300.055 76.9343 302.465 78.3413 303.429C80.4178 304.851 74.5945 308.344 69.6884 306.837C63.3401 304.888 59.2156 298.901 59.2156 298.901L63.5656 295.158Z" fill="#F37A50"/>
<path d="M63.5655 245.762C63.5655 245.762 48.0307 254.85 40.5093 276.632C47.265 284.111 52.957 278.53 52.957 278.53L68.007 263.679C68.007 263.679 72.4313 258.252 70.3156 251.623C68.4726 245.848 63.5655 245.762 63.5655 245.762Z" fill="#F37A50"/>
<path d="M63.5656 295.158L52.7052 279.274C52.7052 279.274 50.1397 273.181 40.5091 276.632C40.043 281.803 43.7924 289.167 60.9695 300.514C62.0791 297.618 63.5656 295.158 63.5656 295.158Z" fill="#F37A50"/>
<path d="M86.3076 249.195C86.8319 251.639 85.4102 254.569 81.3107 253.195C76.4008 251.549 74.1072 242.346 74.1072 242.346L77.1861 240.68C77.1861 240.68 79.5234 247.037 86.3076 249.195Z" fill="white"/>
<path d="M86.3076 249.195C86.9136 250.454 90.3669 253.682 92.0035 251.759C93.6401 249.836 91.7297 244.79 91.7297 244.79L88.0058 242.901C88.0058 242.901 89.4658 247.446 86.3076 249.195Z" fill="white"/>
<path d="M63.5655 245.762C63.5655 245.762 48.0307 254.85 40.5093 276.632C47.265 284.111 53.5433 277.952 53.5433 277.952L68.007 263.679C68.007 263.679 72.4313 258.252 70.3156 251.623C68.4726 245.848 63.5655 245.762 63.5655 245.762Z" fill="#4364CC"/>
<path d="M346.976 102.261C340.773 116.409 324.26 122.856 310.093 116.661C295.926 110.466 289.47 93.9753 295.674 79.8278C301.877 65.68 318.39 59.2331 332.557 65.4279C346.723 71.6225 353.179 88.1135 346.976 102.261Z" fill="#FABA23"/>
<path d="M342.395 100.258C337.3 111.879 323.736 117.174 312.1 112.085C310.885 111.554 309.738 110.931 308.667 110.226C306.852 109.036 305.25 107.616 303.879 106.022C303.36 105.417 302.874 104.788 302.422 104.138C299.114 99.3653 297.676 93.425 298.586 87.5458C298.883 85.6206 299.435 83.7012 300.255 81.8314C304.054 73.165 312.565 68.0156 321.473 68.0685C324.508 68.0869 327.593 68.7092 330.551 70.003C333.112 71.1229 335.367 72.652 337.27 74.4816C337.845 75.0331 338.389 75.6118 338.899 76.2167C340.284 77.855 341.423 79.6725 342.295 81.607C344.873 87.3228 345.111 94.0642 342.395 100.258Z" fill="#FAD332"/>
<path d="M295.049 214.913C287.659 231.768 267.985 239.449 251.107 232.069C234.229 224.688 226.537 205.042 233.928 188.186C241.318 171.331 260.992 163.65 277.87 171.03C294.748 178.411 302.439 198.058 295.049 214.913Z" fill="#FABA23"/>
<path d="M289.591 212.527C283.521 226.372 267.361 232.68 253.497 226.618C252.05 225.985 250.684 225.243 249.407 224.403C247.245 222.985 245.336 221.293 243.703 219.394C243.085 218.674 242.505 217.924 241.967 217.149C238.026 211.463 236.313 204.386 237.397 197.381C237.751 195.087 238.408 192.801 239.385 190.573C243.912 180.248 254.051 174.113 264.664 174.176C268.281 174.198 271.955 174.94 275.48 176.481C278.531 177.815 281.218 179.637 283.485 181.816C284.17 182.474 284.818 183.163 285.426 183.884C287.076 185.836 288.433 188.001 289.471 190.306C292.543 197.116 292.827 205.148 289.591 212.527Z" fill="#FAD332"/>
<path d="M527.662 236.706C520.271 253.561 500.598 261.242 483.72 253.862C466.842 246.481 459.151 226.835 466.541 209.979C473.932 193.124 493.605 185.443 510.483 192.824C527.361 200.204 535.052 219.851 527.662 236.706Z" fill="#FABA23"/>
<path d="M522.205 234.32C516.134 248.165 499.974 254.473 486.11 248.411C484.663 247.778 483.297 247.036 482.021 246.196C479.858 244.778 477.949 243.087 476.316 241.188C475.698 240.467 475.119 239.718 474.581 238.942C470.64 233.257 468.926 226.179 470.011 219.175C470.364 216.881 471.021 214.594 471.998 212.367C476.525 202.041 486.664 195.907 497.278 195.969C500.894 195.991 504.569 196.733 508.094 198.274C511.145 199.608 513.831 201.43 516.098 203.61C516.784 204.267 517.431 204.957 518.039 205.677C519.689 207.629 521.047 209.794 522.084 212.099C525.157 218.91 525.44 226.941 522.205 234.32Z" fill="#FAD332"/>
<path d="M494.152 251.645C491.189 251.029 490.612 251.269 488.999 253.787C489.631 250.866 489.391 250.29 486.854 248.641C489.818 249.256 490.395 249.016 492.007 246.499C491.391 249.458 491.631 250.034 494.152 251.645Z" fill="white"/>
<path d="M434.736 149.941L415.809 200.364L356.292 358.931L350.129 375.349L332.348 368.774L233.685 332.302L279.342 211.015L302.586 149.267L302.855 148.541L368.735 125.543L434.736 149.941Z" fill="#3F964F"/>
<path d="M346.922 139.739L391.592 156.253C387.585 167.063 393.112 179.071 403.936 183.074L348.363 330.173C337.536 326.17 325.509 331.691 321.501 342.503L276.832 325.988C280.837 315.177 275.312 303.169 264.488 299.166L320.061 152.067C330.888 156.07 342.914 150.551 346.922 139.739Z" fill="#4EAD60"/>
<path d="M359.856 259.37C373.407 245.838 373.407 223.897 359.856 210.365C346.305 196.833 324.335 196.833 310.784 210.365C297.234 223.897 297.234 245.838 310.784 259.37C324.335 272.902 346.305 272.902 359.856 259.37Z" fill="#3F964F"/>
<path d="M368.735 125.542L342.519 172.901L302.586 149.266L301.913 148.869L302.855 148.541L368.735 125.542Z" fill="#3F964F"/>
<path opacity="0.2" d="M296.723 165.082L342.519 172.901L302.586 149.266L296.723 165.082Z" fill="#193F1E"/>
<path opacity="0.2" d="M368.735 125.542L342.519 172.901L373.113 127.161L368.735 125.542Z" fill="#193F1E"/>
<path opacity="0.2" d="M415.809 200.364L356.292 358.931L332.348 368.774L233.685 332.301L279.342 211.014H300.509C308.507 211.014 315.309 223.378 317.844 240.642L415.809 200.364Z" fill="#193F1E"/>
<path d="M468.236 186.085L200.125 296.317L247.396 410.978L515.507 300.746L468.236 186.085Z" fill="#3F964F"/>
<path d="M463.473 229.369L481.607 273.355C470.933 277.743 465.843 289.943 470.235 300.602L279.446 379.049C275.051 368.388 262.832 363.303 252.157 367.692L234.026 323.706C244.698 319.315 249.79 307.118 245.397 296.458L436.186 218.012C440.581 228.673 452.798 233.758 463.473 229.369Z" fill="#4EAD60"/>
<path d="M388.12 283.473C395.415 301.17 386.964 321.422 369.244 328.708C351.523 335.993 331.243 327.554 323.947 309.857C316.652 292.161 325.103 271.908 342.823 264.623C360.544 257.337 380.824 265.776 388.12 283.473Z" fill="#3F964F"/>
<path d="M313.864 264.52V386.663H189.698V264.52H277.079C277.168 240.096 285.366 220.361 295.47 220.361C305.573 220.361 313.773 240.096 313.862 264.52H313.864Z" fill="#3F964F"/>
<path d="M295.462 220.536H208.099V357.832H295.462V220.536Z" fill="#4EAD60"/>
<path d="M251.781 328.042C268.898 328.042 282.775 314.184 282.775 297.09C282.775 279.996 268.898 266.138 251.781 266.138C234.663 266.138 220.787 279.996 220.787 297.09C220.787 314.184 234.663 328.042 251.781 328.042Z" fill="#3F964F"/>
<path opacity="0.2" d="M313.864 264.52V277.032H189.698V220.361H295.47C305.573 220.361 313.773 240.095 313.862 264.52H313.864V264.52Z" fill="#193F1E"/>
<path d="M295.469 220.361C285.366 220.361 277.165 240.096 277.079 264.52H152.908L152.91 264.516C152.999 240.093 161.199 220.361 171.303 220.361L295.469 220.361Z" fill="#3F964F"/>
<path d="M273.063 220.361C268.595 220.361 264.665 224.406 262.399 230.523C255.548 230.692 250.052 235.949 250.052 242.41V242.441H187.273V242.41C187.273 236.477 182.638 231.559 176.577 230.664C178.834 224.468 182.79 220.361 187.293 220.361L273.063 220.361Z" fill="#4EAD60"/>
<path opacity="0.2" d="M189.697 316.721V310.908H491.053L475.632 317.062L189.697 316.721Z" fill="#193F1E"/>
<path d="M118.59 430.892C140.193 409.318 140.193 374.34 118.59 352.766C96.987 331.193 61.9616 331.193 40.3586 352.766C18.7556 374.34 18.7556 409.318 40.3586 430.892C61.9616 452.465 96.987 452.465 118.59 430.892Z" fill="#FABA23"/>
<path d="M117.019 417.398C102.88 438.103 74.6112 443.439 53.8781 429.32C51.7138 427.846 49.7158 426.22 47.8925 424.46C44.804 421.488 42.2123 418.147 40.1328 414.553C39.347 413.19 38.6326 411.791 37.993 410.364C33.3145 399.893 32.6926 387.836 36.6079 376.753C37.8883 373.123 39.6598 369.598 41.935 366.266C52.479 350.825 70.8832 343.929 88.1585 347.277C94.0456 348.419 99.8062 350.752 105.078 354.341C109.641 357.449 113.46 361.239 116.486 365.485C117.401 366.765 118.245 368.087 119.015 369.447C121.105 373.132 122.653 377.075 123.638 381.15C126.556 393.187 124.555 406.362 117.019 417.398Z" fill="#FAD332"/>
<path d="M116.486 365.485L37.9935 410.364C33.315 399.893 32.6931 387.836 36.6084 376.753L88.159 347.277C94.0461 348.419 99.8067 350.752 105.078 354.341C109.641 357.449 113.46 361.239 116.486 365.485Z" fill="#FAEE6C"/>
<path d="M123.638 381.15L47.8927 424.46C44.8042 421.488 42.2125 418.147 40.1331 414.553L119.015 369.447C121.105 373.132 122.653 377.075 123.638 381.15Z" fill="#FAEE6C"/>
<path d="M67.0584 342.341C62.0711 346.484 61.7043 347.77 63.7815 353.83C59.7188 348.874 58.431 348.507 52.2771 350.557C57.2645 346.414 57.6313 345.128 55.554 339.068C59.7024 344.048 60.9904 344.415 67.0584 342.341Z" fill="white"/>
<path d="M479.148 317.219C470.74 336.395 448.357 345.134 429.155 336.737C409.953 328.341 401.202 305.988 409.61 286.812C418.019 267.636 440.402 258.897 459.603 267.294C478.806 275.691 487.556 298.043 479.148 317.219Z" fill="#FABA23"/>
<path d="M472.939 314.504C466.032 330.256 447.647 337.433 431.874 330.536C430.228 329.815 428.674 328.971 427.221 328.015C424.761 326.403 422.59 324.478 420.732 322.317C420.029 321.497 419.369 320.645 418.757 319.763C414.273 313.294 412.324 305.242 413.558 297.273C413.961 294.664 414.708 292.062 415.819 289.528C420.97 277.781 432.505 270.801 444.579 270.873C448.694 270.898 452.875 271.741 456.885 273.495C460.356 275.013 463.412 277.085 465.991 279.565C466.772 280.313 467.508 281.098 468.2 281.917C470.077 284.138 471.621 286.601 472.802 289.223C476.297 296.972 476.62 306.109 472.939 314.504Z" fill="#FAD332"/>
<path d="M465.991 279.566L418.757 319.763C414.274 313.294 412.324 305.243 413.558 297.273L444.579 270.873C448.694 270.898 452.875 271.741 456.885 273.495C460.356 275.013 463.412 277.086 465.991 279.566Z" fill="#FAEE6C"/>
<path d="M472.802 289.224L427.222 328.015C424.762 326.403 422.59 324.478 420.732 322.318L468.2 281.917C470.077 284.138 471.621 286.601 472.802 289.224Z" fill="#FAEE6C"/>
<path d="M429.724 270.214C426.887 273.639 426.802 274.553 428.972 278.376C425.604 275.549 424.689 275.465 420.799 277.626C423.637 274.201 423.721 273.287 421.551 269.464C424.981 272.297 425.895 272.381 429.724 270.214Z" fill="white"/>
<path d="M479.662 446.142H171.149C164.798 446.142 159.649 441.001 159.649 434.658V328.205C159.649 321.863 164.798 316.721 171.149 316.721H479.662C486.013 316.721 491.161 321.863 491.161 328.205V434.658C491.162 441.001 486.013 446.142 479.662 446.142Z" fill="#4E73E6"/>
<path d="M333.097 316.721H317.714V446.224H333.097V316.721Z" fill="#2E5BE6"/>
<path d="M471.896 439.126H463.495C462.803 439.126 462.241 438.566 462.241 437.874C462.241 437.183 462.803 436.623 463.495 436.623H471.896C472.588 436.623 473.149 437.183 473.149 437.874C473.149 438.566 472.588 439.126 471.896 439.126ZM455.138 439.126H446.781C446.089 439.126 445.528 438.566 445.528 437.874C445.528 437.183 446.089 436.623 446.781 436.623H455.138C455.83 436.623 456.391 437.183 456.391 437.874C456.391 438.566 455.83 439.126 455.138 439.126ZM438.424 439.126H430.067C429.375 439.126 428.814 438.566 428.814 437.874C428.814 437.183 429.375 436.623 430.067 436.623H438.424C439.116 436.623 439.677 437.183 439.677 437.874C439.677 438.566 439.116 439.126 438.424 439.126ZM421.709 439.126H413.353C412.661 439.126 412.1 438.566 412.1 437.874C412.1 437.183 412.661 436.623 413.353 436.623H421.709C422.402 436.623 422.963 437.183 422.963 437.874C422.963 438.566 422.402 439.126 421.709 439.126ZM404.996 439.126H396.639C395.947 439.126 395.385 438.566 395.385 437.874C395.385 437.183 395.947 436.623 396.639 436.623H404.996C405.688 436.623 406.249 437.183 406.249 437.874C406.249 438.566 405.688 439.126 404.996 439.126ZM388.282 439.126H379.925C379.232 439.126 378.671 438.566 378.671 437.874C378.671 437.183 379.232 436.623 379.925 436.623H388.282C388.974 436.623 389.535 437.183 389.535 437.874C389.535 438.566 388.974 439.126 388.282 439.126ZM371.567 439.126H363.211C362.519 439.126 361.958 438.566 361.958 437.874C361.958 437.183 362.519 436.623 363.211 436.623H371.567C372.26 436.623 372.821 437.183 372.821 437.874C372.821 438.566 372.26 439.126 371.567 439.126ZM354.853 439.126H346.497C345.805 439.126 345.243 438.566 345.243 437.874C345.243 437.183 345.805 436.623 346.497 436.623H354.853C355.546 436.623 356.107 437.183 356.107 437.874C356.107 438.566 355.546 439.126 354.853 439.126ZM338.139 439.126H329.783C329.09 439.126 328.529 438.566 328.529 437.874C328.529 437.183 329.09 436.623 329.783 436.623H338.139C338.831 436.623 339.393 437.183 339.393 437.874C339.393 438.566 338.831 439.126 338.139 439.126ZM321.425 439.126H313.068C312.376 439.126 311.815 438.566 311.815 437.874C311.815 437.183 312.376 436.623 313.068 436.623H321.425C322.117 436.623 322.678 437.183 322.678 437.874C322.679 438.566 322.118 439.126 321.425 439.126ZM304.711 439.126H296.354C295.662 439.126 295.101 438.566 295.101 437.874C295.101 437.183 295.662 436.623 296.354 436.623H304.711C305.403 436.623 305.964 437.183 305.964 437.874C305.965 438.566 305.404 439.126 304.711 439.126ZM287.997 439.126H279.64C278.948 439.126 278.387 438.566 278.387 437.874C278.387 437.183 278.948 436.623 279.64 436.623H287.997C288.689 436.623 289.25 437.183 289.25 437.874C289.251 438.566 288.69 439.126 287.997 439.126ZM271.283 439.126H262.926C262.234 439.126 261.673 438.566 261.673 437.874C261.673 437.183 262.234 436.623 262.926 436.623H271.283C271.975 436.623 272.536 437.183 272.536 437.874C272.536 438.566 271.976 439.126 271.283 439.126ZM254.569 439.126H246.212C245.52 439.126 244.959 438.566 244.959 437.874C244.959 437.183 245.52 436.623 246.212 436.623H254.569C255.261 436.623 255.822 437.183 255.822 437.874C255.823 438.566 255.262 439.126 254.569 439.126ZM237.855 439.126H229.498C228.806 439.126 228.245 438.566 228.245 437.874C228.245 437.183 228.806 436.623 229.498 436.623H237.855C238.548 436.623 239.109 437.183 239.109 437.874C239.109 438.566 238.548 439.126 237.855 439.126ZM221.141 439.126H212.785C212.092 439.126 211.531 438.566 211.531 437.874C211.531 437.183 212.092 436.623 212.785 436.623H221.141C221.833 436.623 222.395 437.183 222.395 437.874C222.395 438.566 221.833 439.126 221.141 439.126ZM204.428 439.126H196.07C195.378 439.126 194.817 438.566 194.817 437.874C194.817 437.183 195.378 436.623 196.07 436.623H204.428C205.12 436.623 205.681 437.183 205.681 437.874C205.681 438.566 205.12 439.126 204.428 439.126ZM187.713 439.126H179.356C178.664 439.126 178.103 438.566 178.103 437.874C178.103 437.183 178.664 436.623 179.356 436.623H187.713C188.406 436.623 188.967 437.183 188.967 437.874C188.967 438.566 188.406 439.126 187.713 439.126ZM171.749 436.244C171.439 436.244 171.127 436.129 170.885 435.898C168.577 433.7 167.289 430.737 167.258 427.554C167.252 426.863 167.807 426.297 168.499 426.29C168.504 426.29 168.508 426.29 168.512 426.29C169.198 426.29 169.758 426.843 169.765 427.53C169.789 430.031 170.801 432.359 172.615 434.087C173.116 434.564 173.134 435.356 172.657 435.856C172.41 436.114 172.08 436.244 171.749 436.244ZM479.374 435.933C479.061 435.933 478.747 435.817 478.504 435.582C478.006 435.103 477.992 434.31 478.472 433.813C480.133 432.093 481.047 429.83 481.047 427.439V427.101C481.047 426.41 481.608 425.85 482.3 425.85C482.992 425.85 483.554 426.41 483.554 427.101V427.439C483.554 430.481 482.39 433.362 480.276 435.55C480.031 435.805 479.703 435.933 479.374 435.933ZM168.511 420.448C167.819 420.448 167.258 419.887 167.258 419.196V410.851C167.258 410.159 167.819 409.599 168.511 409.599C169.203 409.599 169.764 410.159 169.764 410.851V419.196C169.764 419.887 169.203 420.448 168.511 420.448ZM482.3 420.007C481.608 420.007 481.047 419.447 481.047 418.756V410.41C481.047 409.719 481.608 409.159 482.3 409.159C482.992 409.159 483.554 409.719 483.554 410.41V418.756C483.554 419.447 482.993 420.007 482.3 420.007ZM168.511 403.756C167.819 403.756 167.258 403.196 167.258 402.505V394.159C167.258 393.468 167.819 392.908 168.511 392.908C169.203 392.908 169.764 393.468 169.764 394.159V402.505C169.764 403.196 169.203 403.756 168.511 403.756ZM482.3 403.316C481.608 403.316 481.047 402.756 481.047 402.065V393.719C481.047 393.028 481.608 392.468 482.3 392.468C482.992 392.468 483.554 393.028 483.554 393.719V402.065C483.554 402.756 482.993 403.316 482.3 403.316ZM168.511 387.065C167.819 387.065 167.258 386.505 167.258 385.813V377.468C167.258 376.777 167.819 376.217 168.511 376.217C169.203 376.217 169.764 376.777 169.764 377.468V385.813C169.764 386.505 169.203 387.065 168.511 387.065ZM482.3 386.625C481.608 386.625 481.047 386.065 481.047 385.374V377.028C481.047 376.337 481.608 375.777 482.3 375.777C482.992 375.777 483.554 376.337 483.554 377.028V385.374C483.554 386.065 482.993 386.625 482.3 386.625ZM168.511 370.374C167.819 370.374 167.258 369.813 167.258 369.122V360.777C167.258 360.085 167.819 359.525 168.511 359.525C169.203 359.525 169.764 360.085 169.764 360.777V369.122C169.764 369.813 169.203 370.374 168.511 370.374ZM482.3 369.934C481.608 369.934 481.047 369.373 481.047 368.682V360.337C481.047 359.645 481.608 359.085 482.3 359.085C482.992 359.085 483.554 359.645 483.554 360.337V368.682C483.554 369.373 482.993 369.934 482.3 369.934ZM168.511 353.682C167.819 353.682 167.258 353.122 167.258 352.431V344.085C167.258 343.394 167.819 342.834 168.511 342.834C169.203 342.834 169.764 343.394 169.764 344.085V352.431C169.764 353.122 169.203 353.682 168.511 353.682ZM482.3 353.242C481.608 353.242 481.047 352.682 481.047 351.991V343.645C481.047 342.954 481.608 342.394 482.3 342.394C482.992 342.394 483.554 342.954 483.554 343.645V351.991C483.554 352.682 482.993 353.242 482.3 353.242ZM168.511 336.991C167.819 336.991 167.258 336.431 167.258 335.74V335.424C167.258 332.373 168.428 329.486 170.553 327.295C171.034 326.799 171.827 326.786 172.325 327.267C172.822 327.747 172.835 328.54 172.353 329.036C170.684 330.758 169.764 333.026 169.764 335.424V335.74C169.764 336.431 169.203 336.991 168.511 336.991ZM482.3 336.551C481.614 336.551 481.055 336 481.047 335.314C481.018 332.814 480.001 330.488 478.183 328.764C477.681 328.288 477.661 327.496 478.137 326.994C478.614 326.493 479.407 326.473 479.909 326.949C482.222 329.142 483.516 332.102 483.553 335.285C483.561 335.976 483.007 336.543 482.315 336.551C482.31 336.551 482.305 336.551 482.3 336.551ZM471.433 326.24H463.076C462.384 326.24 461.823 325.68 461.823 324.989C461.823 324.298 462.384 323.738 463.076 323.738H471.433C472.125 323.738 472.686 324.298 472.686 324.989C472.686 325.68 472.125 326.24 471.433 326.24ZM454.719 326.24H446.362C445.67 326.24 445.109 325.68 445.109 324.989C445.109 324.298 445.67 323.738 446.362 323.738H454.719C455.411 323.738 455.972 324.298 455.972 324.989C455.972 325.68 455.411 326.24 454.719 326.24ZM438.005 326.24H429.648C428.956 326.24 428.395 325.68 428.395 324.989C428.395 324.298 428.956 323.738 429.648 323.738H438.005C438.697 323.738 439.258 324.298 439.258 324.989C439.258 325.68 438.697 326.24 438.005 326.24ZM421.291 326.24H412.934C412.242 326.24 411.681 325.68 411.681 324.989C411.681 324.298 412.242 323.738 412.934 323.738H421.291C421.983 323.738 422.544 324.298 422.544 324.989C422.544 325.68 421.983 326.24 421.291 326.24ZM404.577 326.24H396.22C395.528 326.24 394.967 325.68 394.967 324.989C394.967 324.298 395.528 323.738 396.22 323.738H404.577C405.269 323.738 405.83 324.298 405.83 324.989C405.83 325.68 405.269 326.24 404.577 326.24ZM387.863 326.24H379.506C378.814 326.24 378.253 325.68 378.253 324.989C378.253 324.298 378.814 323.738 379.506 323.738H387.863C388.555 323.738 389.116 324.298 389.116 324.989C389.116 325.68 388.555 326.24 387.863 326.24ZM371.149 326.24H362.792C362.1 326.24 361.539 325.68 361.539 324.989C361.539 324.298 362.1 323.738 362.792 323.738H371.149C371.841 323.738 372.402 324.298 372.402 324.989C372.402 325.68 371.841 326.24 371.149 326.24ZM354.435 326.24H346.078C345.386 326.24 344.825 325.68 344.825 324.989C344.825 324.298 345.386 323.738 346.078 323.738H354.435C355.127 323.738 355.688 324.298 355.688 324.989C355.688 325.68 355.127 326.24 354.435 326.24ZM337.721 326.24H329.364C328.672 326.24 328.111 325.68 328.111 324.989C328.111 324.298 328.672 323.738 329.364 323.738H337.721C338.413 323.738 338.974 324.298 338.974 324.989C338.974 325.68 338.413 326.24 337.721 326.24ZM321.007 326.24H312.65C311.958 326.24 311.397 325.68 311.397 324.989C311.397 324.298 311.958 323.738 312.65 323.738H321.007C321.699 323.738 322.26 324.298 322.26 324.989C322.26 325.68 321.699 326.24 321.007 326.24ZM304.293 326.24H295.936C295.244 326.24 294.683 325.68 294.683 324.989C294.683 324.298 295.244 323.738 295.936 323.738H304.293C304.985 323.738 305.546 324.298 305.546 324.989C305.546 325.68 304.985 326.24 304.293 326.24ZM287.579 326.24H279.222C278.53 326.24 277.969 325.68 277.969 324.989C277.969 324.298 278.53 323.738 279.222 323.738H287.579C288.271 323.738 288.832 324.298 288.832 324.989C288.832 325.68 288.271 326.24 287.579 326.24ZM270.865 326.24H262.508C261.816 326.24 261.255 325.68 261.255 324.989C261.255 324.298 261.816 323.738 262.508 323.738H270.865C271.557 323.738 272.118 324.298 272.118 324.989C272.118 325.68 271.557 326.24 270.865 326.24ZM254.151 326.24H245.794C245.102 326.24 244.541 325.68 244.541 324.989C244.541 324.298 245.102 323.738 245.794 323.738H254.151C254.843 323.738 255.404 324.298 255.404 324.989C255.404 325.68 254.843 326.24 254.151 326.24ZM237.437 326.24H229.08C228.388 326.24 227.827 325.68 227.827 324.989C227.827 324.298 228.388 323.738 229.08 323.738H237.437C238.129 323.738 238.69 324.298 238.69 324.989C238.69 325.68 238.129 326.24 237.437 326.24ZM220.723 326.24H212.366C211.674 326.24 211.113 325.68 211.113 324.989C211.113 324.298 211.674 323.738 212.366 323.738H220.723C221.415 323.738 221.976 324.298 221.976 324.989C221.976 325.68 221.415 326.24 220.723 326.24ZM204.009 326.24H195.652C194.96 326.24 194.399 325.68 194.399 324.989C194.399 324.298 194.96 323.738 195.652 323.738H204.009C204.701 323.738 205.262 324.298 205.262 324.989C205.262 325.68 204.701 326.24 204.009 326.24ZM187.295 326.24H178.96C178.268 326.24 177.696 325.68 177.696 324.989C177.696 324.298 178.246 323.738 178.938 323.738H187.295C187.987 323.738 188.548 324.298 188.548 324.989C188.548 325.68 187.987 326.24 187.295 326.24Z" fill="#7292F7"/>
<path d="M461.5 414.325H349.44C347.028 414.325 345.072 412.372 345.072 409.963V351.164C345.072 348.755 347.028 346.801 349.44 346.801H461.501C463.913 346.801 465.869 348.755 465.869 351.164V409.963C465.869 412.372 463.913 414.325 461.5 414.325Z" fill="#7292F7"/>
<path d="M455.522 363.289H402.268C401.596 363.289 401.051 362.745 401.051 362.073V357.994C401.051 357.322 401.596 356.778 402.268 356.778H455.522C456.194 356.778 456.739 357.322 456.739 357.994V362.073C456.739 362.745 456.194 363.289 455.522 363.289Z" fill="#4E73E6"/>
<path d="M428.9 389.867H402.268C401.596 389.867 401.051 389.322 401.051 388.651V384.571C401.051 383.9 401.596 383.356 402.268 383.356H428.901C429.572 383.356 430.118 383.9 430.118 384.571V388.651C430.117 389.322 429.572 389.867 428.9 389.867Z" fill="#4E73E6"/>
<path d="M455.522 403.156H402.268C401.596 403.156 401.051 402.611 401.051 401.94V397.86C401.051 397.189 401.596 396.645 402.268 396.645H455.522C456.194 396.645 456.739 397.189 456.739 397.86V401.94C456.739 402.612 456.194 403.156 455.522 403.156Z" fill="#4E73E6"/>
<path d="M443.162 376.578H402.268C401.596 376.578 401.051 376.034 401.051 375.362V371.283C401.051 370.611 401.596 370.067 402.268 370.067H443.162C443.834 370.067 444.379 370.611 444.379 371.283V375.362C444.379 376.034 443.834 376.578 443.162 376.578Z" fill="#4E73E6"/>
<path d="M395.074 356.778H354.735V403.156H395.074V356.778Z" fill="white"/>
<path d="M395.074 395.999V403.156H354.735V395.999C357.87 391.973 365.718 389.119 374.904 389.119C384.09 389.119 391.939 391.973 395.074 395.999Z" fill="#4E73E6"/>
<path d="M382.289 383.554C386.37 379.479 386.37 372.871 382.289 368.795C378.208 364.719 371.591 364.719 367.51 368.795C363.428 372.871 363.428 379.479 367.51 383.554C371.591 387.63 378.208 387.63 382.289 383.554Z" fill="#201D40"/>
<path d="M384.217 378.076C384.217 378.247 384.213 378.415 384.205 378.584C383.95 383.705 379.883 387.778 374.904 387.778C369.935 387.778 365.876 383.722 365.607 378.618C365.596 378.439 365.592 378.258 365.592 378.076C365.592 374.603 367.344 371.555 369.98 369.842C371.409 368.912 373.097 368.375 374.904 368.375C375.244 368.375 375.58 368.394 375.909 368.431C380.578 368.953 384.217 373.074 384.217 378.076Z" fill="#F37A50"/>
<path d="M384.217 377.675C384.217 377.838 384.213 377.999 384.205 378.161C383.476 378.291 382.724 378.359 381.956 378.359C378.33 378.359 375.06 376.835 372.757 374.393C371.525 373.088 370.569 371.519 369.98 369.781C371.409 368.89 373.097 368.375 374.905 368.375C375.244 368.375 375.58 368.394 375.909 368.429C380.579 368.929 384.217 372.879 384.217 377.675Z" fill="#201D40"/>
<path d="M375.909 368.429C375.414 370.708 374.302 372.757 372.757 374.393C370.895 376.366 368.406 377.739 365.607 378.194C365.596 378.023 365.592 377.849 365.592 377.675C365.592 374.346 367.344 371.424 369.98 369.782C371.409 368.89 373.096 368.375 374.904 368.375C375.244 368.375 375.58 368.394 375.909 368.429Z" fill="#201D40"/>
<path d="M298.983 348.438V354.832H190.813V348.438C190.813 344.571 193.953 341.435 197.823 341.435H291.974C295.844 341.435 298.983 344.571 298.983 348.438Z" fill="#FAD332"/>
<path d="M309.882 352.144H182.396V354.832H309.882V352.144Z" fill="#2E5BE6"/>
<path d="M298.983 366.549V370.666H190.813V366.549C190.813 362.682 193.953 359.547 197.823 359.547H291.974C295.844 359.547 298.983 362.682 298.983 366.549Z" fill="#E62552"/>
<path d="M309.882 369.961H182.396V372.649H309.882V369.961Z" fill="#2E5BE6"/>
<path d="M298.983 385.496V391.458H190.813V385.496C190.813 381.629 193.953 378.494 197.823 378.494H291.974C295.844 378.494 298.983 381.629 298.983 385.496Z" fill="#6EAB3F"/>
<path d="M309.882 388.769H182.396V391.458H309.882V388.769Z" fill="#2E5BE6"/>
<path d="M194.66 436.222V443.25C194.66 445.996 192.431 448.223 189.681 448.223H103.782C101.032 448.223 98.8025 445.996 98.8025 443.25V436.222C98.8025 434.999 99.2438 433.879 99.9784 433.012C100.893 431.934 102.258 431.249 103.782 431.249H189.681C191.205 431.249 192.57 431.934 193.484 433.012C194.219 433.879 194.66 434.999 194.66 436.222Z" fill="#FAD332"/>
<path d="M106.058 431.25H103.563V448.223H106.058V431.25Z" fill="#FABA23"/>
<path d="M116.521 431.25H114.026V448.223H116.521V431.25Z" fill="#FABA23"/>
<path d="M126.984 431.25H124.489V448.223H126.984V431.25Z" fill="#FABA23"/>
<path d="M137.447 431.25H134.952V448.223H137.447V431.25Z" fill="#FABA23"/>
<path d="M147.911 431.25H145.416V448.223H147.911V431.25Z" fill="#FABA23"/>
<path d="M158.373 431.25H155.879V448.223H158.373V431.25Z" fill="#FABA23"/>
<path d="M168.836 431.25H166.342V448.223H168.836V431.25Z" fill="#FABA23"/>
<path d="M179.299 431.25H176.804V448.223H179.299V431.25Z" fill="#FABA23"/>
<path d="M189.763 431.25H187.268V448.223H189.763V431.25Z" fill="#FABA23"/>
<path d="M193.484 433.012H99.9785C100.893 431.934 102.258 431.249 103.782 431.249H189.681C191.205 431.249 192.57 431.934 193.484 433.012Z" fill="#FABA23"/>
<path d="M193.484 446.46H99.9785C100.893 447.538 102.258 448.223 103.782 448.223H189.681C191.205 448.223 192.57 447.538 193.484 446.46Z" fill="#FABA23"/>
<path d="M188.28 419.249V426.277C188.28 429.023 186.05 431.25 183.301 431.25H97.4021C94.6527 431.25 92.4226 429.023 92.4226 426.277V419.249C92.4226 418.025 92.864 416.906 93.5985 416.039C94.5133 414.96 95.8776 414.276 97.4021 414.276H183.301C184.825 414.276 186.189 414.96 187.104 416.039C187.839 416.906 188.28 418.025 188.28 419.249Z" fill="#FAD332"/>
<path d="M99.6784 414.276H97.1833V431.249H99.6784V414.276Z" fill="#FABA23"/>
<path d="M110.141 414.276H107.646V431.249H110.141V414.276Z" fill="#FABA23"/>
<path d="M120.604 414.276H118.109V431.249H120.604V414.276Z" fill="#FABA23"/>
<path d="M131.067 414.276H128.573V431.249H131.067V414.276Z" fill="#FABA23"/>
<path d="M141.53 414.276H139.036V431.249H141.53V414.276Z" fill="#FABA23"/>
<path d="M151.994 414.276H149.499V431.249H151.994V414.276Z" fill="#FABA23"/>
<path d="M162.457 414.276H159.962V431.249H162.457V414.276Z" fill="#FABA23"/>
<path d="M172.92 414.276H170.425V431.249H172.92V414.276Z" fill="#FABA23"/>
<path d="M183.383 414.276H180.888V431.249H183.383V414.276Z" fill="#FABA23"/>
<path d="M187.104 416.039H93.5984C94.5132 414.96 95.8775 414.276 97.402 414.276H183.301C184.825 414.276 186.19 414.96 187.104 416.039Z" fill="#FABA23"/>
<path d="M187.104 429.486H93.5984C94.5132 430.565 95.8775 431.249 97.402 431.249H183.301C184.825 431.249 186.19 430.565 187.104 429.486Z" fill="#FABA23"/>
<path d="M510.474 436.393V443.372C510.474 446.098 508.26 448.309 505.53 448.309H420.242C417.512 448.309 415.298 446.098 415.298 443.372V436.393C415.298 435.178 415.737 434.067 416.466 433.206C417.374 432.135 418.729 431.455 420.242 431.455H505.53C507.044 431.455 508.399 432.135 509.307 433.206C510.036 434.067 510.474 435.178 510.474 436.393Z" fill="#FAD332"/>
<path d="M422.503 431.456H420.025V448.309H422.503V431.456Z" fill="#FABA23"/>
<path d="M432.891 431.456H430.414V448.309H432.891V431.456Z" fill="#FABA23"/>
<path d="M443.28 431.456H440.802V448.309H443.28V431.456Z" fill="#FABA23"/>
<path d="M453.669 431.456H451.191V448.309H453.669V431.456Z" fill="#FABA23"/>
<path d="M464.057 431.456H461.58V448.309H464.057V431.456Z" fill="#FABA23"/>
<path d="M474.445 431.456H471.968V448.309H474.445V431.456Z" fill="#FABA23"/>
<path d="M484.834 431.456H482.357V448.309H484.834V431.456Z" fill="#FABA23"/>
<path d="M495.223 431.456H492.746V448.309H495.223V431.456Z" fill="#FABA23"/>
<path d="M505.611 431.456H503.134V448.309H505.611V431.456Z" fill="#FABA23"/>
<path d="M509.307 433.206H416.466C417.374 432.135 418.729 431.455 420.242 431.455H505.53C507.044 431.455 508.399 432.135 509.307 433.206Z" fill="#FABA23"/>
<path d="M509.307 446.558H416.466C417.374 447.629 418.729 448.309 420.242 448.309H505.53C507.044 448.309 508.399 447.629 509.307 446.558Z" fill="#FABA23"/>
<path d="M516.44 419.54V426.518C516.44 429.245 514.226 431.455 511.496 431.455H426.208C423.478 431.455 421.264 429.245 421.264 426.518V419.54C421.264 418.325 421.702 417.214 422.432 416.353C423.34 415.282 424.695 414.603 426.208 414.603H511.496C513.009 414.603 514.364 415.282 515.272 416.353C516.002 417.214 516.44 418.325 516.44 419.54Z" fill="#FAD332"/>
<path d="M428.468 414.603H425.991V431.455H428.468V414.603Z" fill="#FABA23"/>
<path d="M438.857 414.603H436.379V431.455H438.857V414.603Z" fill="#FABA23"/>
<path d="M449.245 414.603H446.768V431.455H449.245V414.603Z" fill="#FABA23"/>
<path d="M459.634 414.603H457.157V431.455H459.634V414.603Z" fill="#FABA23"/>
<path d="M470.023 414.603H467.545V431.455H470.023V414.603Z" fill="#FABA23"/>
<path d="M480.411 414.603H477.934V431.455H480.411V414.603Z" fill="#FABA23"/>
<path d="M490.799 414.603H488.322V431.455H490.799V414.603Z" fill="#FABA23"/>
<path d="M501.188 414.603H498.711V431.455H501.188V414.603Z" fill="#FABA23"/>
<path d="M511.577 414.603H509.1V431.455H511.577V414.603Z" fill="#FABA23"/>
<path d="M515.272 416.353H422.431C423.339 415.282 424.694 414.603 426.208 414.603H511.495C513.009 414.603 514.364 415.282 515.272 416.353Z" fill="#FABA23"/>
<path d="M515.272 429.705H422.431C423.339 430.776 424.694 431.455 426.208 431.455H511.495C513.009 431.455 514.364 430.776 515.272 429.705Z" fill="#FABA23"/>
<path d="M198.812 402.275V409.303C198.812 412.049 196.582 414.276 193.832 414.276H107.933C105.184 414.276 102.954 412.049 102.954 409.303V402.275C102.954 401.051 103.395 399.932 104.13 399.065C105.045 397.986 106.409 397.302 107.933 397.302H193.832C195.357 397.302 196.721 397.986 197.636 399.065C198.37 399.932 198.812 401.051 198.812 402.275Z" fill="#FAD332"/>
<path d="M110.21 397.303H107.715V414.275H110.21V397.303Z" fill="#FABA23"/>
<path d="M120.673 397.303H118.178V414.275H120.673V397.303Z" fill="#FABA23"/>
<path d="M131.136 397.303H128.641V414.275H131.136V397.303Z" fill="#FABA23"/>
<path d="M141.599 397.303H139.104V414.275H141.599V397.303Z" fill="#FABA23"/>
<path d="M152.062 397.303H149.567V414.275H152.062V397.303Z" fill="#FABA23"/>
<path d="M162.525 397.303H160.03V414.275H162.525V397.303Z" fill="#FABA23"/>
<path d="M172.988 397.303H170.493V414.275H172.988V397.303Z" fill="#FABA23"/>
<path d="M183.451 397.303H180.956V414.275H183.451V397.303Z" fill="#FABA23"/>
<path d="M193.914 397.303H191.419V414.275H193.914V397.303Z" fill="#FABA23"/>
<path d="M197.636 399.065H104.13C105.044 397.986 106.409 397.302 107.933 397.302H193.832C195.357 397.302 196.721 397.986 197.636 399.065Z" fill="#FABA23"/>
<path d="M197.636 412.513H104.13C105.044 413.591 106.409 414.275 107.933 414.275H193.832C195.357 414.275 196.721 413.591 197.636 412.513Z" fill="#FABA23"/>
<path d="M606.206 412.871C597.79 438.897 569.841 453.181 543.78 444.777C517.719 436.373 503.415 408.461 511.831 382.436C520.246 356.411 548.196 342.126 574.257 350.53C600.318 358.934 614.622 386.845 606.206 412.871Z" fill="#FABA23"/>
<path d="M597.78 410.154C590.867 431.532 567.909 443.264 546.503 436.361C544.268 435.64 542.137 434.746 540.124 433.693C536.715 431.918 533.64 429.699 530.941 427.134C529.92 426.161 528.951 425.138 528.04 424.072C521.364 416.25 517.774 406.038 518.333 395.518C518.515 392.073 519.145 388.594 520.258 385.154C525.413 369.212 539.492 358.631 555.197 357.146C560.548 356.641 566.093 357.191 571.536 358.946C576.247 360.465 580.492 362.76 584.17 365.646C585.281 366.516 586.342 367.44 587.348 368.415C590.079 371.056 592.41 374.056 594.288 377.311C599.847 386.925 601.464 398.76 597.78 410.154Z" fill="#FAD332"/>
<path d="M584.169 365.646L528.04 424.072C521.364 416.25 517.774 406.039 518.333 395.518L555.197 357.146C560.548 356.641 566.093 357.191 571.536 358.946C576.247 360.465 580.492 362.76 584.169 365.646Z" fill="#FAEE6C"/>
<path d="M594.288 377.31L540.124 433.693C536.715 431.918 533.64 429.699 530.941 427.134L587.348 368.415C590.079 371.056 592.41 374.056 594.288 377.31Z" fill="#FAEE6C"/>
<path d="M561.751 358.991C556.939 358.486 556.06 358.96 553.899 363.222C554.436 358.475 553.962 357.598 549.662 355.381C554.474 355.886 555.353 355.412 557.514 351.15C557.009 355.956 557.483 356.833 561.751 358.991Z" fill="white"/>
<path d="M544.721 435.392C540.66 434.967 539.919 435.366 538.096 438.963C538.548 434.957 538.148 434.216 534.52 432.346C538.581 432.772 539.322 432.372 541.146 428.776C540.72 432.831 541.12 433.572 544.721 435.392Z" fill="white"/>
<path d="M604.626 181.71C599.754 191.261 588.052 195.059 578.489 190.194C568.926 185.328 565.123 173.643 569.994 164.092C574.866 154.542 586.568 150.744 596.131 155.609C605.695 160.474 609.498 172.16 604.626 181.71Z" fill="#D4DEFF"/>
<path d="M579.371 185.723L581.051 182.43C579.174 181.434 577.514 179.85 576.787 178.453L578.685 176.667C579.461 178.048 580.843 179.531 582.672 180.461C584.991 181.641 587.24 181.101 588.188 179.242C589.103 177.449 588.395 175.692 586.478 173.484C583.812 170.485 582.52 167.939 583.968 165.101C585.348 162.395 588.323 161.32 591.577 162.36L593.257 159.066L595.282 160.096L593.668 163.259C595.594 164.321 596.667 165.524 597.331 166.56L595.417 168.298C594.931 167.557 593.958 166.159 591.868 165.096C589.354 163.816 587.641 164.835 586.976 166.139C586.111 167.835 586.887 169.297 589.129 171.917C591.793 174.998 592.627 177.557 591.146 180.46C589.832 183.036 586.805 184.536 583.158 183.378L581.428 186.77L579.371 185.723Z" fill="#E3EAFF"/>
<path d="M463.897 111.7L479.468 89.7764C479.468 89.7764 494.695 93.0197 499.522 111.717C502.514 123.306 516.658 130.897 516.658 130.897L501.005 152.937C501.005 152.937 482.253 145.319 479.057 132.013C475.676 117.941 463.897 111.7 463.897 111.7Z" fill="#D4DEFF"/>
<path d="M496.677 130.368C492.053 133.355 485.475 131.409 481.986 126.021C478.496 120.634 479.415 113.845 484.04 110.858C488.664 107.871 495.241 109.817 498.731 115.204C502.221 120.591 501.301 127.38 496.677 130.368Z" fill="#E3EAFF"/>
<path d="M135.556 174.847C141.77 183.056 140.144 194.741 131.925 200.947C123.705 207.152 112.004 205.529 105.789 197.32C99.5754 189.111 101.201 177.426 109.421 171.22C117.641 165.015 129.342 166.638 135.556 174.847Z" fill="white"/>
<path d="M128.429 198.31L126.286 195.479C124.637 196.68 122.57 197.447 121.058 197.488L120.309 195.101C121.829 195.011 123.692 194.442 125.264 193.255C127.257 191.751 127.734 189.585 126.524 187.987C125.357 186.445 123.541 186.318 120.828 187.046C117.116 188.086 114.371 188.131 112.525 185.693C110.764 183.366 111.083 180.35 113.347 177.98L111.204 175.149L112.945 173.836L115.003 176.555C116.73 175.339 118.22 174.919 119.394 174.781L120.093 177.161C119.249 177.269 117.632 177.522 115.835 178.878C113.674 180.509 113.836 182.413 114.685 183.535C115.788 184.992 117.379 184.937 120.584 184.102C124.366 183.097 126.929 183.452 128.818 185.947C130.494 188.162 130.521 191.401 127.991 194.06L130.198 196.975L128.429 198.31Z" fill="#E3EAFF"/>
<path d="M423.153 91.9658L401.992 98.8413C402.353 99.9491 402.713 101.057 403.075 102.165C403.598 103.772 408.786 103.526 414.662 101.617C420.538 99.7076 424.878 96.8577 424.355 95.251C424.307 95.1035 423.153 91.9658 423.153 91.9658Z" fill="#C2D0FF"/>
<path d="M423.329 92.105C423.853 93.7115 419.513 96.5616 413.637 98.4708C407.761 100.38 402.573 100.626 402.05 99.0192C401.526 97.4127 405.866 94.5629 411.742 92.6536C417.618 90.7443 422.806 90.4988 423.329 92.105Z" fill="#D4DEFF"/>
<path d="M577.911 99.1738L558.312 88.6481C557.759 89.6741 557.206 90.7004 556.654 91.7267C555.853 93.2146 559.615 96.7902 565.057 99.7133C570.5 102.636 575.561 103.799 576.363 102.311C576.436 102.175 577.911 99.1738 577.911 99.1738Z" fill="#C2D0FF"/>
<path d="M577.932 99.398C577.13 100.886 572.069 99.7224 566.627 96.7995C561.184 93.8764 557.422 90.3011 558.223 88.8132C559.024 87.3254 564.086 88.4889 569.528 91.4117C574.971 94.3343 578.733 97.9101 577.932 99.398Z" fill="#D4DEFF"/>
<path d="M640.153 221.683L620.613 211.047C620.055 212.07 619.496 213.094 618.938 214.117C618.129 215.6 621.871 219.197 627.296 222.15C632.722 225.103 637.777 226.295 638.587 224.812C638.662 224.675 640.153 221.683 640.153 221.683Z" fill="#C2D0FF"/>
<path d="M640.172 221.907C639.363 223.39 634.308 222.198 628.882 219.245C623.456 216.291 619.714 212.695 620.524 211.212C621.333 209.728 626.388 210.92 631.814 213.873C637.24 216.827 640.982 220.424 640.172 221.907Z" fill="#D4DEFF"/>
<path d="M657.76 247.561L637.48 256.709C637.961 257.771 638.441 258.833 638.921 259.894C639.618 261.434 644.747 260.623 650.379 258.083C656.011 255.542 660.012 252.235 659.315 250.696C659.251 250.554 657.76 247.561 657.76 247.561Z" fill="#C2D0FF"/>
<path d="M657.951 247.68C658.648 249.22 654.647 252.527 649.015 255.067C643.383 257.607 638.254 258.419 637.557 256.879C636.861 255.339 640.862 252.032 646.494 249.492C652.125 246.952 657.255 246.141 657.951 247.68Z" fill="#D4DEFF"/>
<path d="M174.587 152.246L154.44 142.81C153.944 143.865 153.449 144.92 152.953 145.975C152.235 147.504 156.188 150.868 161.783 153.489C167.378 156.109 172.495 156.994 173.214 155.464C173.28 155.324 174.587 152.246 174.587 152.246Z" fill="#C2D0FF"/>
<path d="M174.621 152.469C173.902 153.998 168.785 153.114 163.19 150.493C157.595 147.873 153.642 144.509 154.36 142.979C155.078 141.45 160.196 142.334 165.791 144.955C171.386 147.575 175.339 150.939 174.621 152.469Z" fill="#D4DEFF"/>
<path d="M200.52 195.938L179.691 203.759C180.102 204.849 180.513 205.94 180.923 207.031C181.518 208.612 186.69 208.133 192.474 205.961C198.258 203.789 202.465 200.747 201.869 199.166C201.815 199.02 200.52 195.938 200.52 195.938Z" fill="#C2D0FF"/>
<path d="M200.703 196.069C201.299 197.65 197.092 200.692 191.308 202.864C185.524 205.036 180.352 205.515 179.757 203.934C179.162 202.353 183.368 199.31 189.152 197.138C194.937 194.966 200.108 194.487 200.703 196.069Z" fill="#D4DEFF"/>
<path d="M234.884 242.663C231.168 238.919 233.606 235.08 233.606 235.08C231.566 234.644 220.809 250.917 216.17 261.259C208.079 253.115 193.822 242.118 189.967 241.476C189.967 241.476 184.766 240.08 182.898 246.36C181.23 251.964 187.735 255.936 187.735 255.936C187.735 255.936 215.563 275.556 219.678 273.812C226.083 271.098 231.879 247.746 234.884 242.663Z" fill="#F37A50"/>
<path d="M240.694 242.2C238.423 242.339 235.439 241.217 234.564 243.251L230.259 241.068L229.988 238.37C233.838 232.207 243.225 230.459 244.155 230.377C246.57 230.165 247.691 229.917 247.879 230.239C248.068 230.561 248.659 232.708 245.156 233.128C240.759 233.656 243.678 237.166 252.598 233.825C254.831 232.988 259.035 234.074 257.514 235.704C255.839 237.501 251.026 241.571 240.694 242.2Z" fill="#F37A50"/>
<path d="M172.702 191.089C166.652 184.901 154.354 183.948 152.083 192.94C149.811 201.932 150.039 208.019 138.786 205.941C129.826 204.286 120.064 211.829 119.313 224.551C118.354 240.828 130.022 235.159 126.929 243.044C123.837 250.93 121.669 258.985 133.304 259.937C144.939 260.888 154.564 251.679 153.982 238.367C153.4 225.055 161.595 230.412 164.451 224.014C168.511 214.916 172.702 191.089 172.702 191.089Z" fill="#201D40"/>
<path d="M200.929 437.388L206.176 416.749L193.158 414.96C192.711 424.721 191.98 434.33 192.044 436.933L200.929 437.388Z" fill="#F37A50"/>
<path d="M169.865 414.841H156.272C156.719 418.094 158.502 435.708 158.502 435.708C159.65 438.311 169.78 437.717 169.78 436.253C169.014 433.081 169.801 415.248 169.865 414.841Z" fill="#F37A50"/>
<path d="M192.091 422.908L205.496 424.884L214.792 369.373C212.877 348.306 194.307 303.489 194.307 303.489L173.375 310.81L172.865 330.575L198.072 373.196C194.786 381.439 192.538 408.088 192.091 422.908Z" fill="#C4204A"/>
<path d="M181.73 304.974C181.538 303.673 181.475 303.266 180.39 302.615L160.288 296.922L155.501 301.639C150.97 318.07 153.778 340.926 157.352 359.064C152.119 374.762 154.166 407.125 156.272 422.335H170.567C171.396 412.167 171.136 393.307 171.2 384.197C173.051 376.877 174.838 369.069 176.433 360.854C178.475 350.361 181.028 340.194 181.73 330.677C182.368 321.648 182.559 311.97 181.73 304.974Z" fill="#E62552"/>
<path d="M161.102 214.464C161.026 225.375 167.921 234.269 176.502 234.329C185.084 234.389 192.102 225.592 192.178 214.68C192.254 203.769 185.36 194.876 176.778 194.815C168.196 194.756 161.178 203.553 161.102 214.464Z" fill="#F37A50"/>
<path d="M166.374 225.318L178.854 232.395C178.854 232.395 179.961 237.442 180.514 239.079C181.655 242.457 177.284 243.934 173.59 241.831C169.895 239.728 167.503 236.913 167.503 236.913L166.374 225.318Z" fill="#F37A50"/>
<path d="M192.612 212.544C189.637 212.274 173.078 208.003 171.163 205.015C171.319 212.111 160.613 220.208 159.178 218.125C154.165 205.005 157.819 193.773 172.519 190.844C192.678 186.827 192.612 212.544 192.612 212.544Z" fill="#2C2858"/>
<path d="M173.781 218.096C174.286 218.9 175.349 219.142 176.153 218.637C176.958 218.132 177.201 217.071 176.695 216.268C176.19 215.464 175.127 215.222 174.322 215.726C173.518 216.232 173.275 217.292 173.781 218.096Z" fill="black"/>
<path d="M185.81 217.935C186.285 218.689 187.282 218.916 188.038 218.443C188.793 217.969 189.021 216.973 188.546 216.218C188.072 215.464 187.074 215.237 186.319 215.71C185.564 216.184 185.335 217.18 185.81 217.935Z" fill="black"/>
<path d="M190.258 214.527C190.319 214.5 190.376 214.461 190.426 214.411C190.672 214.165 190.669 213.734 190.419 213.448C188.476 211.229 186.09 211.874 185.989 211.903C185.659 211.997 185.483 212.369 185.598 212.734C185.713 213.098 186.073 213.318 186.404 213.226C186.482 213.205 188.162 212.779 189.528 214.339C189.727 214.566 190.022 214.633 190.258 214.527Z" fill="#2C2858"/>
<path d="M172.107 214.844C172.046 214.817 171.989 214.778 171.938 214.728C171.693 214.482 171.696 214.05 171.946 213.765C173.889 211.546 176.275 212.191 176.376 212.22C176.706 212.314 176.882 212.686 176.767 213.051C176.652 213.415 176.292 213.635 175.961 213.543C175.883 213.522 174.203 213.096 172.837 214.656C172.638 214.883 172.343 214.95 172.107 214.844Z" fill="#2C2858"/>
<path d="M184.587 219.099C185.092 220.158 185.493 221.209 186.075 221.926C186.272 222.168 186.239 222.526 186.007 222.734C185.049 223.59 183.007 223.871 181.782 223.963C181.603 223.976 181.544 223.728 181.71 223.659C183.112 223.079 183.813 222.539 184.138 222.223C184.299 222.066 184.373 221.841 184.341 221.618C184.268 221.106 184.13 220.064 184.082 219.226C184.065 218.935 184.462 218.837 184.587 219.099Z" fill="#DE623C"/>
<path d="M165.151 218.803C166.943 220.642 167.174 223.32 165.668 224.785C164.16 226.249 161.486 225.945 159.694 224.106C157.902 222.268 157.671 219.59 159.178 218.126C160.685 216.661 163.359 216.964 165.151 218.803Z" fill="#F37A50"/>
<path d="M163.947 223.268C164.018 223.223 164.081 223.161 164.128 223.084C164.801 221.978 164.759 220.814 164.016 219.97C163.255 219.107 161.971 218.804 160.964 219.251C160.68 219.377 160.552 219.708 160.678 219.991C160.805 220.274 161.136 220.402 161.42 220.276C161.972 220.031 162.741 220.223 163.172 220.711C163.585 221.181 163.584 221.817 163.167 222.501C163.006 222.766 163.091 223.111 163.356 223.272C163.544 223.386 163.773 223.377 163.947 223.268Z" fill="#DE623C"/>
<path d="M195.103 304.98C173.296 313.352 154.283 307.165 154.283 307.165C154.349 304.27 153.938 295.142 158.349 285.158C157.279 276.702 157.688 263.998 157.353 259.124C159.95 246.048 158.717 244.942 156.373 238.781L164.533 236.376L179.22 241.548L180.311 238.011C180.311 238.011 189.477 240.786 191.414 241.855L194.935 255.786L194.182 286.591C194.182 286.591 194.214 303.094 195.103 304.98Z" fill="#3F964F"/>
<path d="M180.665 229.649C180.304 229.684 179.943 229.685 179.581 229.652C176.907 229.407 175.219 227.356 175.149 227.269C174.931 226.999 174.973 226.604 175.243 226.386C175.513 226.169 175.907 226.21 176.126 226.479C176.14 226.496 177.567 228.214 179.708 228.404C181.103 228.528 182.52 227.983 183.922 226.783C184.185 226.558 184.582 226.588 184.808 226.851C185.034 227.114 185.003 227.51 184.739 227.736C183.412 228.871 182.046 229.512 180.665 229.649Z" fill="#DE623C"/>
<path d="M197.763 437.054C199.124 433.485 202.034 433.088 202.034 433.088C207.691 440.623 221.584 436 221.124 446.192C199.998 446.061 191.218 446.192 191.218 446.192C191.245 443.851 191.663 438.294 192.15 436.119L193.251 436.315L197.763 437.054Z" fill="#2C2858"/>
<path d="M219.901 448.913H192.451C191.77 448.913 191.217 448.361 191.217 447.681V445.911H221.135V447.68C221.135 448.361 220.583 448.913 219.901 448.913Z" fill="white"/>
<path d="M172.201 446.29C172.201 446.29 170.505 439.971 170.356 439.16C170.186 438.236 169.687 436.054 169.585 434.935C169.56 434.66 166.648 432.881 164.425 432.885C161.413 432.89 158.668 434.632 158.612 434.961C158.257 437.07 158.246 439.549 157.67 441.603C157.242 443.13 156.078 446.69 156.078 446.69L172.201 446.29Z" fill="#2C2858"/>
<path d="M172.201 445.799C171.805 447.054 166.929 445.606 163.37 445.608C160.382 445.609 156.517 446.764 156.078 446.314C155.33 447.632 155.946 450.363 155.946 450.363C155.946 450.363 159.059 450.524 162.794 450.363C166.528 450.202 170.843 450.44 172.469 449.958C173.494 448.245 172.201 445.799 172.201 445.799Z" fill="white"/>
<path d="M163.542 236.668C166.694 241.715 173.371 255.671 172.702 273.922C172.033 292.172 167.459 314.346 169.569 334.674C158.83 335.627 148.582 334.252 148.582 334.252C149.725 322.256 156.373 238.781 156.373 238.781C159.739 237.789 163.542 236.668 163.542 236.668Z" fill="#201D40"/>
<path d="M147.027 288.532L149.014 289.325C149.014 289.325 150.479 285.956 152.58 286.061L152.31 289.397C152.31 289.397 153.328 292.957 159.694 292.536C165.132 293.77 161.328 296.349 162.833 297.38C165.055 298.901 158.825 302.638 153.577 301.026C146.786 298.941 142.374 292.537 142.374 292.537L147.027 288.532Z" fill="#F37A50"/>
<path d="M156.373 238.781C156.373 238.781 137.225 247.266 126.525 269.478C132.774 278.262 139.516 273.038 139.516 273.038L157.353 259.124C157.353 259.124 161.615 253.218 160.665 246.6C159.744 240.182 156.373 238.781 156.373 238.781Z" fill="#F37A50"/>
<path d="M147.347 288.66L138.379 272.871C138.379 272.871 136.828 265.787 126.525 269.478C126.026 275.01 124.269 280.769 142.645 292.907C145.031 291.048 147.347 288.66 147.347 288.66Z" fill="#F37A50"/>
<path d="M167.369 234.744L161.615 237.185C162.223 244.085 177.684 248.209 177.684 248.209L179.219 241.548L167.369 234.744Z" fill="#0E6A41"/>
<path d="M184.958 239.038C187.786 248.057 192.049 260.641 190.887 274.139C189.724 287.638 188.32 309.418 195.103 332.448C200.142 333.416 207.004 332.687 207.004 332.687C207.004 332.687 197.076 298.865 197.517 283.834C198.005 267.15 197.24 252.14 193.132 242.589C190.043 241.26 184.958 239.038 184.958 239.038Z" fill="#201D40"/>
<path d="M179.219 241.548L183.772 246.6C183.772 246.6 187.709 242.534 186.284 240.021C184.859 237.508 179.784 235.813 179.784 235.813L179.219 241.548Z" fill="#0E6A41"/>
<path d="M607.389 245.253C600.88 247.473 579.611 285.653 579.611 285.653L596.002 286.728L613.557 268.961L607.389 245.253Z" fill="#201D40"/>
<path d="M629.302 434.145C623.239 442.221 608.349 437.265 608.842 448.19C631.485 448.049 640.896 448.19 640.896 448.19C640.866 445.681 640.418 439.725 639.896 437.394L629.302 434.145Z" fill="black"/>
<path d="M663.181 434.357C657.117 442.433 642.227 437.477 642.72 448.401C665.364 448.261 674.774 448.401 674.774 448.401C674.745 445.892 674.297 439.937 673.775 437.606L663.181 434.357Z" fill="black"/>
<path d="M616.28 310.503C616.28 310.503 612.646 362.536 614.139 374.045C615.632 385.554 623.419 400.379 622.82 438.445C630.201 440.229 640.896 438.445 640.896 438.445C640.896 438.445 642.481 395.402 634.678 376.177C637.851 357.502 648.033 314.729 648.033 314.729L616.28 310.503Z" fill="#201D40"/>
<path d="M638.737 312.326C638.737 312.326 639.074 369.771 642.708 380.794C646.342 391.817 653.404 399.681 659.983 437.18C667.569 437.547 678.492 437.704 678.492 437.704C678.492 437.704 674.607 389.507 662.793 378.69C662.393 359.752 667.266 311.963 667.266 311.963L638.737 312.326Z" fill="#2C2858"/>
<path d="M620.515 237.399L630.318 234.173L640.63 234.655L632.284 248.376L620.515 237.399Z" fill="#95A6DB"/>
<path d="M624.023 243.793C628.873 246.206 634.958 245.58 639.239 241.677L637.277 226.219L622.903 228.337L624.023 243.793Z" fill="#F37A50"/>
<path d="M644.431 239.428L641.193 238.933L640.63 234.655L633.91 243.144L631.669 244.045L629.268 243.777L620.515 237.399L621.121 241.671L618.621 242.795L609.525 246.484L620.412 299.104L620.748 316.588C634.239 317.884 648.518 316.901 661.864 311.851L657.298 294.073L655.349 240.659L644.431 239.428Z" fill="#95A6DB"/>
<path d="M629.892 249.821L631.488 291.252L635.653 295.218L639.341 291.107L633.065 249.573L629.892 249.821Z" fill="#E62552"/>
<path d="M626.846 245.067L630.526 243.837L634.809 244.253L633.078 249.654L629.897 249.959L626.846 245.067Z" fill="#E62552"/>
<path d="M619.896 239.398L625.461 285.781L630.129 318.348C630.129 318.348 621.146 322.734 613.571 318.246L607.263 245.268L619.896 239.398Z" fill="#2C2858"/>
<path d="M620.07 238.883L625.921 288.992L614.163 250.92L620.07 238.883Z" fill="#494C7F"/>
<path d="M640.959 235.083L647.792 317.653C647.792 317.653 665.066 318.715 671.466 313.375L664.791 287.79L654.752 234.969L640.959 235.083Z" fill="#2C2858"/>
<path d="M640.778 234.941L645.126 285.437L649.436 244.818L640.778 234.941Z" fill="#494C7F"/>
<path d="M640.992 214.634C639.887 225.392 632.131 233.411 623.67 232.544C615.209 231.677 609.245 222.253 610.351 211.494C611.456 200.735 619.211 192.717 627.673 193.584C636.134 194.45 642.097 203.875 640.992 214.634Z" fill="#F37A50"/>
<path d="M614.788 215.515C613.978 215.86 613.041 215.483 612.696 214.674C612.351 213.865 612.728 212.929 613.538 212.584C614.348 212.24 615.285 212.616 615.63 213.425C615.976 214.235 615.598 215.17 614.788 215.515Z" fill="black"/>
<path d="M626.903 214.026C626.572 214.845 625.64 215.242 624.819 214.912C623.999 214.583 623.601 213.651 623.931 212.832C624.262 212.013 625.194 211.616 626.015 211.946C626.835 212.275 627.233 213.207 626.903 214.026Z" fill="black"/>
<path d="M618.403 213.429C617.558 216.137 616.458 219.46 616.458 219.46C616.458 219.46 617.956 221.69 621.207 220.875C619.686 220.668 618.087 220.102 618.166 218.129C618.245 216.155 618.403 213.429 618.403 213.429Z" fill="#DE623C"/>
<path d="M628.708 211.141C628.42 211.308 628.044 211.264 627.803 211.012C627.747 210.954 626.35 209.544 624.922 210.367C624.569 210.57 624.117 210.449 623.914 210.096C623.71 209.744 623.834 209.291 624.185 209.09C626.134 207.967 628.103 209.19 628.871 209.995C629.153 210.289 629.142 210.756 628.847 211.037C628.804 211.077 628.757 211.112 628.708 211.141Z" fill="#2C2858"/>
<path d="M611.206 212.802C611.525 212.902 611.882 212.775 612.06 212.476C612.102 212.407 613.151 210.723 614.726 211.208C615.116 211.328 615.529 211.11 615.649 210.721C615.769 210.332 615.548 209.919 615.161 209.8C613.01 209.137 611.363 210.767 610.792 211.721C610.583 212.071 610.698 212.523 611.048 212.732C611.099 212.762 611.152 212.785 611.206 212.802Z" fill="#2C2858"/>
<path d="M639.418 215.244C638.542 211.417 635.39 212.991 633.879 208.024C632.368 203.057 631.011 199.338 626.406 201.265C621.8 203.192 620.393 202.323 618.197 201.631C611.594 199.55 610.471 210.511 610.471 210.511C610.471 210.511 604.954 202.426 609.128 197.199C613.755 191.405 615.696 194.809 620.124 190.477C624.552 186.146 632.448 186.587 634.671 189.384C637.014 192.333 637.838 194.638 642.857 195.934C647.876 197.231 651.003 200.582 647.913 206.329C644.823 212.076 652.515 213.98 646.498 220.003C644.164 222.339 639.545 223.817 638.57 223.008C637.265 221.925 639.983 217.712 639.418 215.244Z" fill="#2C2858"/>
<path d="M610.438 217.313C610.438 217.313 611.825 222.442 613.173 223.9C613.296 221.412 617.082 223.258 618.832 222.945C623.063 222.187 628.71 218.443 631.379 224.292C636.841 224.279 638.363 212.382 638.363 212.382C642.433 224.137 636.53 233.293 623.408 235.303C614.763 236.627 609.392 226.131 610.438 217.313Z" fill="#2C2858"/>
<path d="M637.471 212.796C635.903 214.909 636.036 217.661 637.768 218.942C639.499 220.223 642.174 219.548 643.742 217.435C645.309 215.322 645.176 212.57 643.444 211.289C641.713 210.008 639.038 210.682 637.471 212.796Z" fill="#F37A50"/>
<path d="M640.092 217.782C640.007 217.765 639.924 217.73 639.851 217.674C638.796 216.867 638.404 215.739 638.8 214.658C639.205 213.55 640.319 212.785 641.448 212.839C641.765 212.854 642.011 213.123 641.995 213.44C641.98 213.757 641.711 214.002 641.393 213.987C640.775 213.958 640.111 214.426 639.881 215.053C639.661 215.655 639.899 216.262 640.551 216.761C640.803 216.955 640.851 217.315 640.658 217.568C640.521 217.746 640.299 217.822 640.092 217.782Z" fill="#DE623C"/>
<path d="M621.753 226.711C621.409 226.826 621.058 226.908 620.697 226.956C618.04 227.311 615.94 225.687 615.851 225.619C615.579 225.404 615.532 225.01 615.747 224.738C615.961 224.467 616.354 224.42 616.627 224.632C616.644 224.646 618.416 226.002 620.543 225.711C621.928 225.523 623.187 224.677 624.285 223.197C624.491 222.919 624.884 222.861 625.163 223.067C625.441 223.274 625.5 223.666 625.293 223.944C624.254 225.344 623.067 226.272 621.753 226.711Z" fill="#DE623C"/>
<path d="M630.526 243.837L638.539 249.489L642.822 237.499L640.63 234.655L630.526 243.837Z" fill="white"/>
<path d="M630.526 243.837L625.595 250.404L619.166 240.725L620.515 237.399L630.526 243.837Z" fill="white"/>
<path d="M573.524 222.439H573.516L566.644 222.463L565.088 238.673L573.11 242.903L581.665 238.721L580.282 222.463L573.524 222.439Z" fill="#F37A50"/>
<path d="M587.953 211.558C586.297 222.805 577.783 230.87 568.937 229.571C560.091 228.271 554.263 218.1 555.92 206.853C557.577 195.606 566.09 187.541 574.936 188.84C583.782 190.139 589.61 200.311 587.953 211.558Z" fill="#F37A50"/>
<path d="M560.237 209.384C559.924 210.182 559.022 210.576 558.222 210.263C557.422 209.951 557.028 209.05 557.341 208.252C557.654 207.453 558.556 207.059 559.356 207.372C560.156 207.685 560.55 208.585 560.237 209.384Z" fill="black"/>
<path d="M572.669 211.297C572.33 212.161 571.354 212.588 570.488 212.25C569.622 211.911 569.195 210.936 569.534 210.072C569.873 209.207 570.849 208.781 571.715 209.119C572.581 209.457 573.008 210.432 572.669 211.297Z" fill="black"/>
<path d="M563.111 211.246C561.451 213.344 559.359 215.896 559.359 215.896C559.359 215.896 559.922 218.363 563.058 218.743C561.79 218.048 560.575 217.01 561.312 215.301C562.049 213.591 563.111 211.246 563.111 211.246Z" fill="#DE623C"/>
<path d="M575.414 209.602C575.472 209.588 575.53 209.567 575.585 209.539C575.967 209.346 576.12 208.88 575.926 208.498C575.398 207.456 573.789 205.627 571.485 206.165C571.066 206.27 570.809 206.68 570.907 207.096C571.004 207.513 571.422 207.772 571.839 207.674C573.545 207.275 574.533 209.179 574.542 209.198C574.708 209.525 575.073 209.684 575.414 209.602Z" fill="#201D40"/>
<path d="M561.056 205.811C561.164 205.786 561.267 205.732 561.353 205.649C561.611 205.402 561.619 204.994 561.372 204.736C561.333 204.696 560.407 203.749 559.103 203.816C558.212 203.862 557.397 204.352 556.681 205.271C556.462 205.552 556.512 205.958 556.794 206.177C557.076 206.396 557.482 206.346 557.701 206.064C558.177 205.454 558.671 205.131 559.17 205.106C559.879 205.069 560.433 205.625 560.439 205.631C560.603 205.802 560.84 205.863 561.056 205.811Z" fill="#201D40"/>
<path d="M591.736 202.55C592.847 191.827 583.011 188.163 583.011 188.163C583.011 188.163 585.236 187.417 584.744 184.163C583.169 185.1 581.252 185.517 579.43 185.311C567.155 183.923 559.39 185.834 560.545 190.662C560.957 192.38 553.004 193.008 556.396 204.417C556.701 203.617 557.895 198.199 560.301 197.124C562.715 196.044 561.237 199.953 566.675 199.418C572.161 198.879 575.759 196.659 579.72 198.876C582.884 200.878 587.59 215.656 586.839 216.175C589.17 214.562 591.247 207.262 591.736 202.55Z" fill="#201D40"/>
<path d="M555.747 213.004C555.747 213.004 556.708 219.142 558.024 220.796C558.351 218.165 560.906 220.261 562.79 220.067C567.34 219.596 574.946 216.228 577.316 222.647C583.113 223.064 586.49 210.921 586.49 210.921C589.881 223.719 581.113 232.696 567.026 233.794C557.746 234.518 553.939 222.281 555.747 213.004Z" fill="#201D40"/>
<path d="M567.998 223.126C568.82 222.71 569.644 222.138 570.466 221.41C570.679 221.221 570.699 220.894 570.51 220.681C570.32 220.467 569.993 220.448 569.779 220.637C567.958 222.25 566.162 223.014 564.441 222.908C562.314 222.778 561.01 221.326 560.997 221.311C560.808 221.097 560.482 221.076 560.267 221.263C560.053 221.45 560.03 221.775 560.217 221.99C560.28 222.063 561.797 223.772 564.358 223.938C565.56 224.016 566.777 223.743 567.998 223.126Z" fill="#DE623C"/>
<path d="M584.319 209.457C582.354 211.273 581.966 214.046 583.454 215.652C584.942 217.258 587.741 217.089 589.706 215.274C591.671 213.458 592.058 210.685 590.571 209.079C589.084 207.473 586.285 207.642 584.319 209.457Z" fill="#F37A50"/>
<path d="M585.995 214.932C585.913 214.9 585.837 214.849 585.774 214.779C584.874 213.774 584.695 212.573 585.295 211.568C585.909 210.539 587.166 209.984 588.284 210.25C588.598 210.325 588.792 210.641 588.717 210.954C588.642 211.268 588.327 211.462 588.012 211.388C587.4 211.242 586.648 211.584 586.301 212.167C585.967 212.726 586.09 213.377 586.647 213.999C586.862 214.24 586.842 214.61 586.601 214.825C586.43 214.977 586.194 215.011 585.995 214.932Z" fill="#DE623C"/>
<path d="M560.984 434.5C554.907 442.873 539.985 437.736 540.48 449.06C563.172 448.914 572.602 449.06 572.602 449.06C572.573 446.459 572.124 440.285 571.601 437.869L560.984 434.5Z" fill="black"/>
<path d="M594.935 434.72C588.859 443.092 573.937 437.955 574.431 449.279C597.123 449.134 606.554 449.279 606.554 449.279C606.524 446.678 606.075 440.505 605.552 438.088L594.935 434.72Z" fill="black"/>
<path d="M550.479 306.682C550.479 306.682 546.795 360.343 548.292 372.273C549.789 384.203 555.089 399.498 554.488 438.958C561.885 440.808 572.603 438.958 572.603 438.958C572.603 438.958 574.192 394.339 566.372 374.41C569.551 355.051 579.755 310.712 579.755 310.712L550.479 306.682Z" fill="#4364CC"/>
<path d="M564.481 308.149C564.481 308.149 571.92 368.392 575.562 379.819C579.204 391.245 582.373 399.616 588.966 438.489C596.568 438.869 607.547 438.634 607.547 438.634C607.547 438.634 606.554 390.471 594.714 379.258C594.313 359.627 596.628 308.535 596.628 308.535L564.481 308.149Z" fill="#768FDB"/>
<path d="M598.776 239.777C598.776 239.777 585.855 235.259 581.546 237.331C568.159 243.769 565.088 237.331 565.088 237.331C560.809 237.7 547.895 239.777 547.895 239.777C547.895 254.179 546.932 268.632 547.195 279.531C547.38 289.023 545.568 314.852 545.568 314.852C545.568 314.852 559.813 318.582 573.29 318.678C586.766 318.591 600.481 315.003 600.481 315.003C600.481 315.003 599.761 288.842 599.163 279.119C599.358 268.22 598.776 254.141 598.776 239.777Z" fill="#E62552"/>
<path d="M524.928 261.183C530.261 248.476 546.086 240.393 547.896 239.777L551.566 256.09C543.964 260.58 538.445 265.437 538.445 265.437C539.38 269.979 539.224 274.435 541.857 280.179C541.857 280.179 539.571 277.028 536.75 278.893C534.007 280.706 528.963 277.006 528.963 277.006C528.963 277.006 520.854 270.889 524.928 261.183Z" fill="#C4204A"/>
<path d="M527.9 293.295C527.808 293.323 527.714 293.342 527.622 293.351H527.319C526.763 293.292 526.268 292.913 526.092 292.346L511.874 246.569C511.845 246.477 511.828 246.385 511.818 246.292C511.811 246.231 511.815 246.172 511.816 246.112C511.817 246.076 511.812 246.039 511.816 246.003C511.819 245.971 511.829 245.94 511.834 245.909C511.92 245.389 512.284 244.934 512.823 244.766C512.91 244.739 513 244.718 513.093 244.708C513.198 244.696 513.301 244.698 513.402 244.708H549.194L563.536 293.351H527.876L527.9 293.295Z" fill="#768FDB"/>
<path d="M548.867 244.765C549.629 244.529 550.438 244.954 550.675 245.715L564.804 291.377L564.836 291.484C565.07 292.242 564.647 293.044 563.891 293.283L563.889 293.286C563.127 293.523 562.318 293.098 562.081 292.337L547.917 246.57C547.68 245.809 548.106 245.001 548.867 244.765Z" fill="#4364CC"/>
<path d="M521.827 273.807C521.693 273.718 521.548 273.662 521.399 273.62C521.414 273.598 521.431 273.577 521.446 273.554C522.337 272.213 522.277 270.609 521.313 269.972C521.155 269.867 520.981 269.798 520.799 269.757C521.049 268.763 520.825 267.815 520.137 267.36C519.864 267.18 519.547 267.099 519.213 267.102C519.528 266.127 519.278 265.102 518.508 264.593C517.543 263.955 516.146 264.367 515.386 265.512C514.626 266.657 514.791 268.102 515.755 268.739C515.999 268.9 516.271 268.994 516.553 269.026C515.912 270.274 516.041 271.641 516.913 272.217C517.071 272.322 517.245 272.391 517.427 272.432C517.176 273.426 517.401 274.374 518.089 274.829C518.342 274.997 518.634 275.078 518.942 275.087C518.623 275.941 518.825 276.86 519.503 277.308C520.317 277.847 521.497 277.499 522.139 276.532C522.781 275.565 522.641 274.345 521.827 273.807Z" fill="#F37A50"/>
<path d="M565.829 270.914L562.566 269.026C562.566 269.026 561.663 264.405 556.424 264.293C557.024 266.232 557.888 269.026 557.888 269.026C557.888 269.026 555.309 271.025 549.193 267.603C543.214 266.261 545.768 270.615 543.786 270.927C540.863 271.389 545.918 277.127 551.888 278.005C559.613 279.141 560.53 277.562 560.53 277.562L564.9 279.087L565.829 270.914Z" fill="#F37A50"/>
<path d="M599.196 276.289C588.291 275.528 566.512 269.711 566.512 269.711C563.535 274.271 564.359 280.327 564.359 280.327C581.294 295.155 606.782 299.948 614.602 296.379C621.741 293.121 616.67 249.708 598.744 239.766L599.196 276.289Z" fill="#8A284C"/>
<path d="M541.573 251.715C542.191 253.261 543.78 254.08 545.121 253.545C546.462 253.01 547.049 251.324 546.431 249.779C545.813 248.233 544.224 247.414 542.883 247.949C541.542 248.483 540.955 250.17 541.573 251.715Z" fill="#4364CC"/>
<path d="M537.004 251.191C537.373 252.113 538.32 252.601 539.121 252.283C539.921 251.963 540.271 250.958 539.902 250.035C539.534 249.113 538.586 248.624 537.786 248.943C536.986 249.262 536.636 250.269 537.004 251.191Z" fill="#4364CC"/>
<path d="M609.018 308.464C611.371 307.341 614 306.68 614.802 303.325C614.802 303.325 621.171 301.635 627.841 300.153C627.841 300.153 619.719 292.72 619.712 292.722C617.073 293.614 612.201 296.901 609.22 296.975C608.445 296.995 607.668 296.974 606.89 296.984C604.996 296.969 603.022 296.746 600.992 298.24C593.148 304.01 590.079 303.031 589.761 303.697C589.498 304.737 591.609 306.722 595.606 304.724C599.473 302.79 601.526 302.76 601.526 302.76C601.526 302.76 601.461 306.131 602.802 307.098C603.412 307.537 606.268 309.776 609.018 308.464Z" fill="#F37A50"/>
<path d="M616.71 292.446C616.71 292.446 637.528 282.42 653.353 279.175C651.166 271.267 654.735 234.724 654.735 234.724C654.735 234.724 665.423 237.343 670.732 257.136C676.039 276.93 663.866 297.074 663.866 297.074C663.866 297.074 631.045 306.183 619.307 302.85C617.466 302.327 616.71 292.446 616.71 292.446Z" fill="#201D40"/>
</g>
<defs>
<clipPath id="clip0_29_1042">
<rect width="736" height="490" fill="white"/>
</clipPath>
</defs>
</svg>
