<svg width="61" height="60" viewBox="0 0 61 60" fill="none" xmlns="http://www.w3.org/2000/svg">
<path d="M42.0107 10.6395L42.0108 10.6396C42.8447 11.1493 43.3651 12.0773 43.3651 13.0565C43.3651 13.074 43.3512 13.088 43.3337 13.088H41.8927H41.3927V13.588V22.5149C41.3927 22.5334 41.3783 22.5469 41.3613 22.5469C41.3438 22.5469 41.3299 22.533 41.3299 22.5155V22.0155H40.8299H24.6549H24.1549V22.5155V22.936C24.1549 22.9527 24.1411 22.9674 24.1228 22.9674C24.1054 22.9674 24.0914 22.9535 24.0914 22.936V13.6239V13.1239H23.5914H21.5671C21.549 13.1239 21.5356 13.1105 21.5356 13.0924C21.5356 12.1818 22.0227 11.3231 22.8049 10.8556L31.7092 5.54167L31.7095 5.54147C32.3227 5.17486 33.0812 5.17922 33.691 5.55179L42.0107 10.6395Z" fill="#FEDA9B" stroke="#404040"/>
<path d="M27.1571 14.519H31.9244C31.9418 14.519 31.9558 14.533 31.9558 14.5505V21.6049C31.9558 21.8314 31.7719 22.0152 31.5455 22.0152H27.5353C27.3086 22.0152 27.125 21.8318 27.125 21.6049V14.5505C27.125 14.5334 27.1386 14.519 27.1571 14.519Z" fill="#C58B59" stroke="#404040"/>
<path d="M37.6493 15.05V18.7442H34.741V15.05H37.6493Z" fill="white" stroke="#404040"/>
<path d="M38.4946 5.80225H40.8933V9.40724L38.4946 7.9405V5.80225Z" fill="#404040" stroke="#404040"/>
<mask id="path-5-inside-1_28_813" fill="white">
<path fill-rule="evenodd" clip-rule="evenodd" d="M11.5286 34.3031H14.4946C15.4831 34.3031 16.2843 35.137 16.2843 36.1652V41.3685C16.2843 42.3973 15.4831 43.2306 14.4946 43.2306H11.5286"/>
</mask>
<path fill-rule="evenodd" clip-rule="evenodd" d="M11.5286 34.3031H14.4946C15.4831 34.3031 16.2843 35.137 16.2843 36.1652V41.3685C16.2843 42.3973 15.4831 43.2306 14.4946 43.2306H11.5286" fill="#ED6262"/>
<path d="M11.5286 35.3031H14.4946V33.3031H11.5286V35.3031ZM14.4946 35.3031C14.8937 35.3031 15.2843 35.6515 15.2843 36.1652H17.2843C17.2843 34.6226 16.0724 33.3031 14.4946 33.3031V35.3031ZM15.2843 36.1652V41.3685H17.2843V36.1652H15.2843ZM15.2843 41.3685C15.2843 41.8826 14.8939 42.2306 14.4946 42.2306V44.2306C16.0722 44.2306 17.2843 42.912 17.2843 41.3685H15.2843ZM14.4946 42.2306H11.5286V44.2306H14.4946V42.2306Z" fill="#404040" mask="url(#path-5-inside-1_28_813)"/>
<mask id="path-7-inside-2_28_813" fill="white">
<path fill-rule="evenodd" clip-rule="evenodd" d="M16.2844 36.2862L20.869 31.5112C20.869 31.5112 22.8171 28.9978 25.8017 28.9978H35.5094C35.5094 28.9978 36.8062 32.2285 33.5248 33.6843C33.5248 33.6843 38.2062 33.7664 42.1158 31.5138C42.1158 31.5138 46.7133 28.4215 49.8049 31.5548L41.3428 37.942C41.3428 37.942 38.6722 39.8478 33.8569 40.2567C33.4306 40.2933 33.0043 40.3279 32.5799 40.3805L25.9915 41.1965C24.0216 41.4407 22.0402 41.5625 20.0556 41.5625H16.2844"/>
</mask>
<path fill-rule="evenodd" clip-rule="evenodd" d="M16.2844 36.2862L20.869 31.5112C20.869 31.5112 22.8171 28.9978 25.8017 28.9978H35.5094C35.5094 28.9978 36.8062 32.2285 33.5248 33.6843C33.5248 33.6843 38.2062 33.7664 42.1158 31.5138C42.1158 31.5138 46.7133 28.4215 49.8049 31.5548L41.3428 37.942C41.3428 37.942 38.6722 39.8478 33.8569 40.2567C33.4306 40.2933 33.0043 40.3279 32.5799 40.3805L25.9915 41.1965C24.0216 41.4407 22.0402 41.5625 20.0556 41.5625H16.2844" fill="#F5D9BA"/>
<path d="M20.869 31.5112L21.5904 32.2038L21.627 32.1656L21.6594 32.1238L20.869 31.5112ZM35.5094 28.9978L36.4375 28.6253L36.1856 27.9978H35.5094V28.9978ZM33.5248 33.6843L33.1193 32.7702L33.5073 34.6842L33.5248 33.6843ZM42.1158 31.5138L42.6151 32.3803L42.6451 32.3629L42.6739 32.3436L42.1158 31.5138ZM49.8049 31.5548L50.4074 32.353L51.3187 31.6652L50.5168 30.8525L49.8049 31.5548ZM41.3428 37.942L41.9236 38.756L41.9345 38.7482L41.9452 38.7402L41.3428 37.942ZM33.8569 40.2567L33.7722 39.2603L33.7715 39.2604L33.8569 40.2567ZM32.5799 40.3805L32.7029 41.3729L32.7029 41.3729L32.5799 40.3805ZM25.9915 41.1965L25.8686 40.2041L25.8684 40.2041L25.9915 41.1965ZM17.0058 36.9788L21.5904 32.2038L20.1477 30.8187L15.5631 35.5937L17.0058 36.9788ZM20.869 31.5112C21.6594 32.1238 21.6592 32.1241 21.659 32.1244C21.659 32.1245 21.6588 32.1247 21.6586 32.1249C21.6584 32.1252 21.6582 32.1254 21.658 32.1257C21.6576 32.1261 21.6574 32.1265 21.6573 32.1266C21.657 32.127 21.6572 32.1267 21.6578 32.1259C21.6591 32.1244 21.6621 32.1205 21.6669 32.1146C21.6766 32.1027 21.6933 32.0825 21.7168 32.0552C21.7639 32.0005 21.8378 31.9176 21.9368 31.8159C22.1356 31.6115 22.4304 31.3365 22.8061 31.062C23.5656 30.5071 24.5949 29.9978 25.8017 29.9978V27.9978C24.0239 27.9978 22.5869 28.7452 21.6262 29.447C21.1419 29.8009 20.763 30.1542 20.5033 30.4212C20.373 30.5551 20.2715 30.6685 20.2003 30.7512C20.1647 30.7926 20.1367 30.8265 20.1163 30.8514C20.1062 30.8639 20.0979 30.8742 20.0916 30.8821C20.0885 30.8861 20.0858 30.8894 20.0837 30.8922C20.0826 30.8936 20.0816 30.8948 20.0808 30.8959C20.0804 30.8964 20.08 30.8969 20.0796 30.8974C20.0794 30.8976 20.0792 30.8979 20.0791 30.898C20.0789 30.8983 20.0786 30.8986 20.869 31.5112ZM25.8017 29.9978H35.5094V27.9978H25.8017V29.9978ZM35.5094 28.9978C34.5814 29.3703 34.5812 29.3698 34.581 29.3694C34.581 29.3692 34.5808 29.3688 34.5807 29.3685C34.5805 29.368 34.5803 29.3675 34.5801 29.3671C34.5798 29.3662 34.5795 29.3655 34.5793 29.365C34.5789 29.364 34.5788 29.3637 34.579 29.3641C34.5793 29.3649 34.5807 29.3686 34.5829 29.3749C34.5875 29.3875 34.5956 29.4106 34.6059 29.443C34.6267 29.5081 34.6558 29.6089 34.6833 29.7364C34.7392 29.9954 34.7834 30.3407 34.7514 30.7086C34.6928 31.3828 34.3858 32.2084 33.1193 32.7702L33.9303 34.5984C35.9452 33.7045 36.6305 32.1868 36.7439 30.8817C36.7979 30.2599 36.7229 29.7065 36.6383 29.3143C36.5955 29.1161 36.5489 28.9531 36.5116 28.8359C36.4928 28.7771 36.4763 28.7294 36.4634 28.6939C36.457 28.6762 36.4515 28.6615 36.4471 28.65C36.4449 28.6443 36.443 28.6394 36.4414 28.6352C36.4406 28.6332 36.4399 28.6313 36.4392 28.6296C36.4389 28.6288 36.4386 28.628 36.4383 28.6273C36.4381 28.6269 36.4379 28.6264 36.4378 28.6262C36.4376 28.6258 36.4375 28.6253 35.5094 28.9978ZM33.5248 33.6843C33.5073 34.6842 33.5075 34.6842 33.5078 34.6842C33.5079 34.6842 33.5082 34.6842 33.5085 34.6842C33.5089 34.6842 33.5095 34.6842 33.5101 34.6842C33.5113 34.6842 33.5128 34.6842 33.5146 34.6843C33.5182 34.6843 33.5229 34.6844 33.5287 34.6844C33.5404 34.6845 33.5565 34.6847 33.5769 34.6847C33.6177 34.6847 33.6757 34.6845 33.7495 34.6833C33.8971 34.681 34.1083 34.6749 34.3723 34.6604C34.8997 34.6314 35.6412 34.5683 36.5097 34.4316C38.2362 34.1599 40.5155 33.59 42.6151 32.3803L41.6166 30.6473C39.8066 31.6902 37.7903 32.2055 36.1988 32.4559C35.4082 32.5803 34.7349 32.6375 34.2624 32.6634C34.0265 32.6764 33.8414 32.6816 33.7177 32.6836C33.6559 32.6845 33.6095 32.6847 33.5798 32.6847C33.5649 32.6847 33.5543 32.6846 33.548 32.6845C33.5448 32.6845 33.5428 32.6845 33.5418 32.6845C33.5414 32.6844 33.5412 32.6844 33.5412 32.6844C33.5413 32.6844 33.5414 32.6844 33.5416 32.6845C33.5417 32.6845 33.5419 32.6845 33.5419 32.6845C33.5421 32.6845 33.5423 32.6845 33.5248 33.6843ZM42.1158 31.5138C42.6739 32.3436 42.6736 32.3438 42.6734 32.344C42.6733 32.344 42.673 32.3442 42.6729 32.3443C42.6726 32.3445 42.6724 32.3446 42.6722 32.3447C42.6719 32.3449 42.6719 32.3449 42.6721 32.3448C42.6726 32.3445 42.6742 32.3434 42.6768 32.3417C42.682 32.3383 42.6913 32.3323 42.7047 32.3238C42.7314 32.3068 42.774 32.2802 42.831 32.2463C42.9451 32.1783 43.1159 32.0815 43.3316 31.973C43.7664 31.7545 44.3664 31.4976 45.042 31.3298C46.4004 30.9925 47.8952 31.0431 49.0931 32.2572L50.5168 30.8525C48.6231 28.9332 46.2733 28.9633 44.56 29.3888C43.6998 29.6024 42.9572 29.9228 42.4334 30.1861C42.1698 30.3186 41.9572 30.4389 41.8079 30.5278C41.7331 30.5723 41.6739 30.6091 41.6318 30.6359C41.6107 30.6493 41.5939 30.6602 41.5815 30.6683C41.5753 30.6724 41.5702 30.6757 41.5662 30.6784C41.5642 30.6797 41.5625 30.6808 41.5611 30.6818C41.5604 30.6822 41.5598 30.6827 41.5592 30.683C41.5589 30.6832 41.5585 30.6835 41.5584 30.6836C41.5581 30.6838 41.5577 30.684 42.1158 31.5138ZM49.2025 30.7567L40.7403 37.1438L41.9452 38.7402L50.4074 32.353L49.2025 30.7567ZM41.3428 37.942C40.7619 37.128 40.7622 37.1278 40.7624 37.1276C40.7625 37.1276 40.7628 37.1274 40.7629 37.1273C40.7633 37.127 40.7635 37.1268 40.7638 37.1267C40.7643 37.1263 40.7646 37.1261 40.7647 37.126C40.765 37.1258 40.7647 37.126 40.7638 37.1267C40.7619 37.128 40.7574 37.1311 40.7504 37.1358C40.7365 37.1453 40.7124 37.1613 40.6784 37.1831C40.6104 37.2268 40.5026 37.2935 40.3561 37.3768C40.063 37.5433 39.6156 37.7758 39.0218 38.0226C37.8347 38.5159 36.064 39.0657 33.7722 39.2603L33.9415 41.2532C36.4651 41.0388 38.4374 40.4313 39.7893 39.8694C40.4651 39.5886 40.9863 39.3191 41.3444 39.1156C41.5235 39.0138 41.6619 38.9284 41.7588 38.8662C41.8072 38.8351 41.8452 38.8099 41.8728 38.7912C41.8865 38.7819 41.8976 38.7742 41.9061 38.7683C41.9104 38.7654 41.914 38.7628 41.9169 38.7608C41.9183 38.7598 41.9196 38.7588 41.9208 38.758C41.9213 38.7576 41.9218 38.7573 41.9223 38.7569C41.9226 38.7568 41.9229 38.7565 41.923 38.7564C41.9233 38.7562 41.9236 38.756 41.3428 37.942ZM33.7715 39.2604C33.353 39.2963 32.9045 39.3326 32.457 39.388L32.7029 41.3729C33.1041 41.3232 33.5082 41.2903 33.9423 41.2531L33.7715 39.2604ZM32.457 39.388L25.8686 40.2041L26.1144 42.1889L32.7029 41.3729L32.457 39.388ZM25.8684 40.2041C23.9396 40.4432 21.9993 40.5625 20.0556 40.5625V42.5625C22.0811 42.5625 24.1036 42.4382 26.1145 42.1889L25.8684 40.2041ZM20.0556 40.5625H16.2844V42.5625H20.0556V40.5625Z" fill="#404040" mask="url(#path-7-inside-2_28_813)"/>
<path d="M11.5286 34.3031H14.4946C15.4831 34.3031 16.2843 35.137 16.2843 36.1652V41.3685C16.2843 42.3973 15.4831 43.2306 14.4946 43.2306H11.5286" stroke="#404040" stroke-width="1.33333" stroke-linecap="round" stroke-linejoin="round"/>
<path d="M16.2844 36.2862L20.869 31.5112C20.869 31.5112 22.8171 28.9978 25.8017 28.9978H35.5094C35.5094 28.9978 36.8062 32.2285 33.5248 33.6843M33.5248 33.6843C33.5248 33.6843 38.2062 33.7664 42.1158 31.5138C42.1158 31.5138 46.7133 28.4215 49.8049 31.5548L41.3428 37.942C41.3428 37.942 38.6722 39.8478 33.8569 40.2567C33.4306 40.2933 33.0043 40.3279 32.5799 40.3805L25.9915 41.1965C24.0216 41.4407 22.0402 41.5625 20.0556 41.5625H16.2844M33.5248 33.6843L26.3981 33.6298M41.3614 22.5155V13.0565H43.3338C43.3338 12.0808 42.8262 11.1757 41.9941 10.6667L33.6742 5.57892C33.0768 5.21353 32.3262 5.20969 31.7255 5.56866L22.821 10.8834C22.0435 11.3475 21.5672 12.1866 21.5672 13.093H24.1229V21.1276M37.9947 8.22071V5.30212H41.3935V9.9643" stroke="#404040" stroke-width="1.33333" stroke-linecap="round" stroke-linejoin="round"/>
<path d="M33.3331 9.96411C33.3331 10.3121 33.0507 10.5942 32.703 10.5942C32.3556 10.5942 32.0735 10.3125 32.0735 9.96411C32.0735 9.61617 32.3558 9.33398 32.703 9.33398C33.0505 9.33398 33.3331 9.61654 33.3331 9.96411Z" fill="#404040" stroke="#404040"/>
<path d="M27.1572 21.076V14.5503H31.9245V22.5157" stroke="#404040" stroke-width="1.33333" stroke-linecap="round" stroke-linejoin="round"/>
<path d="M30.4385 19.4978C30.4385 19.5328 30.4095 19.5626 30.3731 19.5626C30.3377 19.5626 30.3083 19.5332 30.3083 19.4978C30.3083 19.4622 30.3373 19.4331 30.3731 19.4331C30.4099 19.4331 30.4385 19.4625 30.4385 19.4978Z" fill="#404040" stroke="#404040"/>
<path fill-rule="evenodd" clip-rule="evenodd" d="M34.241 19.2442H38.1493V14.55H34.241V19.2442Z" stroke="#404040" stroke-width="1.33333" stroke-linecap="round" stroke-linejoin="round"/>
</svg>
