<svg width="40" height="40" viewBox="0 0 40 40" fill="none" xmlns="http://www.w3.org/2000/svg">
<mask id="mask0_29_1251" style="mask-type:luminance" maskUnits="userSpaceOnUse" x="0" y="0" width="40" height="40">
<path d="M0 0H40V40H0V0Z" fill="white"/>
</mask>
<g mask="url(#mask0_29_1251)">
<path d="M39.333 37.333C39.333 38.438 36.946 39.333 34 39.333C31.054 39.333 28.667 38.438 28.667 37.333V21.333H39.333V37.333ZM11.333 37.333C11.333 38.438 8.94599 39.333 5.99999 39.333C3.05399 39.333 0.666992 38.438 0.666992 37.333V29.333H11.333V37.333Z" fill="#FFE600"/>
<path d="M11.333 29.333V37.333C11.333 38.173 9.953 38.893 8 39.187V29.333H11.333ZM25.333 37.333C25.333 38.438 22.946 39.333 20 39.333C17.054 39.333 14.667 38.438 14.667 37.333V25.333H25.333V37.333Z" fill="#FFE600"/>
<path d="M25.333 37.333C25.333 38.438 22.946 39.333 20 39.333C17.054 39.333 14.667 38.438 14.667 37.333V25.333H25.333V37.333Z" fill="#FFE600"/>
<path d="M11.333 33.333V37.333C11.333 38.44 8.94699 39.333 5.99999 39.333C3.05299 39.333 0.666992 38.44 0.666992 37.333V33.333C0.666992 34.44 3.05299 35.333 5.99999 35.333C8.94699 35.333 11.333 34.44 11.333 33.333ZM25.333 29.333V33.333C25.333 34.44 22.947 35.333 20 35.333C17.053 35.333 14.667 34.44 14.667 33.333V29.333C14.667 30.44 17.053 31.333 20 31.333C22.947 31.333 25.333 30.44 25.333 29.333ZM39.333 25.333V29.333C39.333 30.44 36.947 31.333 34 31.333C31.053 31.333 28.667 30.44 28.667 29.333V25.333C28.667 26.44 31.053 27.333 34 27.333C36.947 27.333 39.333 26.44 39.333 25.333ZM39.333 33.333V37.333C39.333 38.44 36.947 39.333 34 39.333C31.053 39.333 28.667 38.44 28.667 37.333V33.333C28.667 34.44 31.053 35.333 34 35.333C36.947 35.333 39.333 34.44 39.333 33.333ZM11.333 29.333C11.333 30.438 8.94599 31.333 5.99999 31.333C3.05399 31.333 0.666992 30.438 0.666992 29.333C0.666992 28.229 3.05399 27.333 5.99999 27.333C8.94599 27.333 11.333 28.229 11.333 29.333ZM25.333 25.333C25.333 26.438 22.946 27.333 20 27.333C17.054 27.333 14.667 26.438 14.667 25.333C14.667 24.229 17.054 23.333 20 23.333C22.946 23.333 25.333 24.229 25.333 25.333ZM39.333 21.333C39.333 22.438 36.946 23.333 34 23.333C31.054 23.333 28.667 22.438 28.667 21.333C28.667 20.229 31.054 19.333 34 19.333C36.946 19.333 39.333 20.229 39.333 21.333Z" fill="#FFB800"/>
<path d="M36 0.666992H28.667C28.4903 0.666992 28.3208 0.737128 28.1957 0.861999C28.0706 0.986869 28.0003 1.15627 28 1.33299V2.66699C28 3.03399 28.299 3.33299 28.667 3.33299H32.667L22.667 13.333L17.886 8.55299C17.6383 8.30529 17.3443 8.10881 17.0207 7.97475C16.6971 7.8407 16.3503 7.7717 16 7.7717C15.6497 7.7717 15.3029 7.8407 14.9793 7.97475C14.6557 8.10881 14.3617 8.30529 14.114 8.55299L2.66699 20L4.66699 22L16 10.667L20.781 15.447C21.2811 15.9469 21.9593 16.2278 22.6665 16.2278C23.3737 16.2278 24.0519 15.9469 24.552 15.447L34.667 5.33299V9.33299C34.6678 9.50965 34.7383 9.67884 34.8632 9.80376C34.9881 9.92868 35.1573 9.9992 35.334 9.99999H36.667C36.8437 9.99973 37.0131 9.92934 37.138 9.80428C37.2629 9.67922 37.333 9.50972 37.333 9.33299V1.99999C37.333 1.26299 36.737 0.666992 36 0.666992Z" fill="#139AFC"/>
<path d="M6 26.667C3.018 26.667 0 27.582 0 29.333V37.333C0 39.084 3.018 40 6 40C8.982 40 12 39.084 12 37.333V29.333C12 27.583 8.982 26.667 6 26.667ZM6 38.667C2.969 38.667 1.333 37.72 1.333 37.333V35.067C2.798 35.727 4.393 36.047 6 36C7.60634 36.0476 9.20241 35.7285 10.667 35.067V37.333C10.667 37.72 9.031 38.667 6 38.667ZM6 34.667C2.969 34.667 1.333 33.72 1.333 33.333V31.067C2.798 31.727 4.393 32.047 6 32C7.60634 32.0476 9.20241 31.7285 10.667 31.067V33.333C10.667 33.72 9.031 34.667 6 34.667ZM6 30.667C2.969 30.667 1.333 29.72 1.333 29.333C1.333 28.947 2.97 28 6 28C9.031 28 10.667 28.947 10.667 29.333C10.667 29.72 9.031 30.667 6 30.667ZM20 22.667C17.018 22.667 14 23.582 14 25.333V37.333C14 39.084 17.018 40 20 40C22.982 40 26 39.084 26 37.333V25.333C26 23.583 22.982 22.667 20 22.667ZM20 38.667C16.969 38.667 15.333 37.72 15.333 37.333V35.067C16.798 35.727 18.393 36.047 20 36C21.6063 36.0476 23.2024 35.7285 24.667 35.067V37.333C24.667 37.72 23.031 38.667 20 38.667ZM20 34.667C16.969 34.667 15.333 33.72 15.333 33.333V31.067C16.798 31.727 18.393 32.047 20 32C21.6063 32.0476 23.2024 31.7285 24.667 31.067V33.333C24.667 33.72 23.031 34.667 20 34.667ZM20 30.667C16.969 30.667 15.333 29.72 15.333 29.333V27.067C16.798 27.727 18.393 28.047 20 28C21.6063 28.0476 23.2024 27.7285 24.667 27.067V29.333C24.667 29.72 23.031 30.667 20 30.667ZM20 26.667C16.969 26.667 15.333 25.72 15.333 25.333C15.333 24.947 16.97 24 20 24C23.031 24 24.667 24.947 24.667 25.333C24.667 25.72 23.031 26.667 20 26.667ZM34 18.667C31.018 18.667 28 19.582 28 21.333V37.333C28 39.084 31.018 40 34 40C36.982 40 40 39.084 40 37.333V21.333C40 19.583 36.982 18.667 34 18.667ZM34 20C37.031 20 38.667 20.947 38.667 21.333C38.667 21.72 37.031 22.667 34 22.667C30.969 22.667 29.333 21.72 29.333 21.333C29.333 20.947 30.97 20 34 20ZM34 38.667C30.969 38.667 29.333 37.72 29.333 37.333V35.067C30.798 35.727 32.393 36.047 34 36C35.6063 36.0476 37.2024 35.7285 38.667 35.067V37.333C38.667 37.72 37.031 38.667 34 38.667ZM34 34.667C30.969 34.667 29.333 33.72 29.333 33.333V31.067C30.798 31.727 32.393 32.047 34 32C35.6063 32.0476 37.2024 31.7285 38.667 31.067V33.333C38.667 33.72 37.031 34.667 34 34.667ZM34 30.667C30.969 30.667 29.333 29.72 29.333 29.333V27.067C30.798 27.727 32.393 28.047 34 28C35.6063 28.0476 37.2024 27.7285 38.667 27.067V29.333C38.667 29.72 37.031 30.667 34 30.667ZM34 26.667C30.969 26.667 29.333 25.72 29.333 25.333V23.067C30.798 23.727 32.393 24.047 34 24C35.6063 24.0476 37.2024 23.7285 38.667 23.067V25.333C38.667 25.72 37.031 26.667 34 26.667ZM2.196 20.47C2.07155 20.3448 2.00169 20.1755 2.00169 19.999C2.00169 19.8225 2.07155 19.6532 2.196 19.528L13.643 8.08C14.2682 7.45506 15.116 7.10399 16 7.10399C16.884 7.10399 17.7318 7.45506 18.357 8.08L22.667 12.39L31.057 4H28.667C28.3134 4 27.9742 3.85959 27.7241 3.60963C27.4739 3.35968 27.3333 3.02063 27.333 2.667V1.333C27.333 0.598 27.93 0.001 28.667 0H36C36.5303 0.000529477 37.0387 0.211413 37.4136 0.586371C37.7886 0.961329 37.9995 1.46973 38 2V9.333C38 10.069 37.402 10.666 36.667 10.667H35.333C34.9794 10.6667 34.6403 10.5261 34.3904 10.2759C34.1404 10.0258 34 9.68663 34 9.333V6.943L25.023 15.919C24.3978 16.5436 23.5502 16.8945 22.6665 16.8945C21.7828 16.8945 20.9352 16.5436 20.31 15.919L16 11.609L5.138 22.47C5.01104 22.5844 4.84502 22.6457 4.67419 22.6412C4.50336 22.6368 4.34076 22.5669 4.21993 22.4461C4.09909 22.3252 4.02924 22.1626 4.02479 21.9918C4.02034 21.821 4.08162 21.655 4.196 21.528L15.529 10.195C15.6542 10.0705 15.8235 10.0007 16 10.0007C16.1765 10.0007 16.3458 10.0705 16.471 10.195L21.252 14.975C21.6329 15.3388 22.1393 15.5419 22.666 15.5419C23.1927 15.5419 23.6992 15.3388 24.08 14.975L34.194 4.861C34.2875 4.76846 34.4062 4.70557 34.5352 4.68021C34.6643 4.65485 34.7979 4.66815 34.9195 4.71845C35.041 4.76875 35.145 4.8538 35.2184 4.96295C35.2917 5.0721 35.3313 5.20048 35.332 5.332V9.332H36.666V2C36.666 1.8231 36.5957 1.65345 36.4706 1.52836C36.3456 1.40327 36.1759 1.333 35.999 1.333H28.666V2.667H32.666C32.7977 2.66717 32.9263 2.70636 33.0357 2.77961C33.1451 2.85287 33.2303 2.9569 33.2806 3.07858C33.3309 3.20025 33.344 3.3341 33.3183 3.46321C33.2925 3.59233 33.2291 3.71092 33.136 3.804L23.136 13.804C23.0108 13.9285 22.8415 13.9983 22.665 13.9983C22.4885 13.9983 22.3192 13.9285 22.194 13.804L17.414 9.024C17.0331 8.66017 16.5267 8.45714 16 8.45714C15.4733 8.45714 14.9669 8.66017 14.586 9.024L3.138 20.47C3.01284 20.5945 2.84351 20.6643 2.667 20.6643C2.49049 20.6643 2.32116 20.5945 2.196 20.47Z" fill="#5665B0"/>
</g>
</svg>
