<svg width="60" height="60" viewBox="0 0 60 60" fill="none" xmlns="http://www.w3.org/2000/svg">
<path d="M14.2446 25.3572L11.68 25.3514C10.7388 25.3495 10.2884 24.2059 10.9794 23.5727L27.7304 8.2238C28.9936 6.97152 31.0452 6.98309 32.2942 8.24823L49.0201 23.5784C49.7123 24.2129 49.2594 25.3579 48.3175 25.3579H44.8736L44.9052 28.8087L44.9833 41.9397C44.9884 42.5241 44.3117 42.9998 43.4736 42.9998H15.7542C14.9207 42.9998 14.2446 42.5286 14.2446 41.9474V25.3572Z" fill="#FEDA9B"/>
<path fill-rule="evenodd" clip-rule="evenodd" d="M44.8896 19.967V6.99994H37.5322V13.262L44.8896 19.967Z" fill="#C58B59"/>
<path d="M37.5322 10.2638V7.00006H44.8896V15.8496" stroke="#404040" stroke-width="1.33333" stroke-linecap="round" stroke-linejoin="round"/>
<path d="M49.0971 28.6092C49.0971 31.7329 47.2319 34.4258 44.5455 35.653C43.55 36.1075 42.4429 36.3614 41.2745 36.3614C36.9545 36.3614 33.4519 32.89 33.4519 28.6092C33.4519 24.3278 36.9545 20.8564 41.2745 20.8564C42.4338 20.8564 43.5345 21.1064 44.5242 21.5551C47.2229 22.7785 49.0971 25.4766 49.0971 28.6092Z" fill="#FFD032"/>
<path d="M39.2756 25.2968H43.2718M39.2756 27.2084H43.2718M40.4576 25.2968C41.3925 25.2968 42.1505 26.2122 42.1505 27.3417C42.1505 28.4706 41.3925 29.0595 40.4576 29.0595H39.2757L42.188 31.9208" stroke="#404040" stroke-width="1.33333" stroke-linecap="round" stroke-linejoin="round"/>
<path fill-rule="evenodd" clip-rule="evenodd" d="M49.0971 28.6092C49.0971 31.7329 47.2319 34.4258 44.5455 35.653C43.55 36.1075 42.4429 36.3614 41.2745 36.3614C36.9545 36.3614 33.4519 32.89 33.4519 28.6092C33.4519 24.3278 36.9545 20.8564 41.2745 20.8564C42.4338 20.8564 43.5345 21.1064 44.5242 21.5551C47.2229 22.7785 49.0971 25.4766 49.0971 28.6092Z" stroke="#404040" stroke-width="1.33333" stroke-linecap="round" stroke-linejoin="round"/>
<path fill-rule="evenodd" clip-rule="evenodd" d="M20.6667 25.6667H28.6667V43H20.6667V25.6667Z" fill="#C58B59"/>
<path d="M44.9741 38.2834L44.9832 41.9393C44.9883 42.5243 44.3115 43.0001 43.4735 43.0001H15.7541C14.9206 43.0001 14.2445 42.5288 14.2445 41.9471V25.3575L11.6806 25.3517C10.7393 25.3498 10.2883 24.2061 10.9799 23.5723L27.7303 8.22341C28.9935 6.97177 31.0451 6.98334 32.2941 8.24784L44.2599 19.1732" stroke="#404040" stroke-width="1.33333" stroke-linecap="round" stroke-linejoin="round"/>
<path fill-rule="evenodd" clip-rule="evenodd" d="M27.422 35.1125C27.422 35.6775 26.96 36.1353 26.3903 36.1353C25.8213 36.1353 25.3594 35.6775 25.3594 35.1125C25.3594 34.548 25.8213 34.0903 26.3903 34.0903C26.96 34.0903 27.422 34.548 27.422 35.1125Z" fill="#404040"/>
<path d="M20.519 37.9683V26.1622H29.2216V40.5725" stroke="#404040" stroke-width="1.33333" stroke-linecap="round" stroke-linejoin="round"/>
</svg>
