<svg width="60" height="60" viewBox="0 0 60 60" fill="none" xmlns="http://www.w3.org/2000/svg">
<g clip-path="url(#clip0_28_915)">
<path d="M13.7995 0.894071C14.0387 0.89356 14.2777 0.889304 14.5169 0.884859C15.5499 0.881798 16.2287 0.941505 17.0248 1.64063C17.1211 1.75664 17.1211 1.75664 17.2193 1.875C17.2856 1.95235 17.3519 2.02969 17.4203 2.10938C17.5824 2.34996 17.6333 2.53263 17.6954 2.8125C20.6342 2.81362 23.573 2.81074 26.5118 2.80309C27.8763 2.79964 29.2408 2.79749 30.6053 2.79843C31.7944 2.79924 32.9835 2.7976 34.1727 2.793C34.8025 2.79065 35.4322 2.78954 36.062 2.79136C36.6546 2.79303 37.2472 2.79144 37.8398 2.78731C38.0574 2.78638 38.2751 2.78665 38.4927 2.7882C38.7898 2.79014 39.0865 2.78777 39.3835 2.78432C39.4698 2.78591 39.5561 2.7875 39.645 2.78914C39.976 2.78166 40.2353 2.7624 40.4912 2.54024C40.6365 2.36507 40.7683 2.17886 40.8985 1.99219C42.105 0.981609 43.3468 0.822178 44.8713 0.913755C45.9697 1.01981 46.7954 1.59768 47.5782 2.34375C47.6555 2.45977 47.7329 2.57578 47.8126 2.69531C48.1732 2.73233 48.5107 2.74656 48.8719 2.74598C49.0365 2.74777 49.0365 2.74777 49.2045 2.7496C49.5685 2.75315 49.9324 2.75422 50.2964 2.75528C50.5483 2.75725 50.8002 2.75938 51.0521 2.76166C51.716 2.76724 52.3798 2.77072 53.0437 2.77378C53.8398 2.77788 54.6359 2.78456 55.4319 2.79082C56.6422 2.80003 57.8523 2.80595 59.0626 2.8125C59.0626 4.66875 59.0626 6.525 59.0626 8.4375C58.2573 8.4378 57.452 8.43811 56.6222 8.43842C56.1122 8.44017 55.6022 8.44213 55.0922 8.44483C54.2825 8.44909 53.4729 8.45259 52.6633 8.45158C52.0106 8.45081 51.3579 8.45343 50.7052 8.45843C50.4561 8.45973 50.2071 8.45981 49.958 8.45865C49.6092 8.45722 49.2606 8.46015 48.9118 8.46411C48.8087 8.46268 48.7056 8.46125 48.5994 8.45977C48.0727 8.46321 48.0727 8.46321 47.6256 8.70881C47.4468 8.9192 47.4468 8.9192 47.2266 9.25781C46.9163 9.49768 46.9163 9.49768 46.5968 9.69727C46.4919 9.76434 46.3871 9.83141 46.2791 9.90051C45.9376 10.0781 45.9376 10.0781 45.1173 10.3125C45.0786 11.2406 45.0399 12.1688 45.0001 13.125C45.3581 13.081 45.7161 13.0371 46.085 12.9918C47.0415 12.9486 47.6409 13.1488 48.3658 13.7757C48.7591 14.1541 49.1373 14.5426 49.5056 14.9453C49.793 15.2595 50.0883 15.564 50.3861 15.8682C50.5734 16.0634 50.7602 16.259 50.9464 16.4552C51.0342 16.5471 51.1219 16.6389 51.2123 16.7335C51.2911 16.8202 51.37 16.907 51.4513 16.9964C51.5561 17.11 51.5561 17.11 51.663 17.2259C51.797 17.4609 51.797 17.4609 51.7776 17.7452C51.674 18.0647 51.5487 18.3512 51.3975 18.6513C51.3096 18.8272 51.3096 18.8272 51.2198 19.0066C51.1563 19.1318 51.0928 19.2569 51.0275 19.3858C50.9626 19.5151 50.8977 19.6443 50.8309 19.7774C50.659 20.1196 50.4865 20.4615 50.3136 20.8033C50.1372 21.1526 49.9615 21.5023 49.7858 21.852C49.4413 22.5371 49.096 23.2219 48.7501 23.9063C48.284 23.7546 47.8533 23.5883 47.4171 23.3643C47.3146 23.312 47.2122 23.2597 47.1067 23.2059C47.0303 23.1663 46.9538 23.1267 46.8751 23.0859C47.0236 22.7684 47.1726 22.451 47.3219 22.1338C47.368 22.0355 47.4141 21.9372 47.4616 21.836C47.729 21.2704 48.0042 20.71 48.2909 20.154C48.3503 20.0383 48.4096 19.9227 48.4707 19.8036C48.5873 19.5773 48.7051 19.3515 48.8241 19.1265C48.9039 18.9712 48.9039 18.9712 48.9854 18.8127C49.0333 18.7213 49.0812 18.6299 49.1305 18.5358C49.2394 18.222 49.2372 18.1154 49.1016 17.8125C48.7675 17.3938 48.3934 17.014 48.0185 16.632C47.8366 16.445 47.6596 16.2541 47.4823 16.0627C47.3649 15.9421 47.2471 15.8218 47.1291 15.7018C47.0243 15.5924 46.9195 15.4831 46.8115 15.3705C46.2863 14.9991 46.2863 14.9991 45.0001 15C45.0001 17.7844 45.0001 20.5688 45.0001 23.4375C44.3813 23.4375 43.7626 23.4375 43.1251 23.4375C43.1251 20.6531 43.1251 17.8688 43.1251 15C41.817 15.0434 41.817 15.0434 40.9621 15.7233C40.9014 15.7841 40.8407 15.845 40.7782 15.9077C40.6521 16.0355 40.5276 16.1647 40.4047 16.2955C40.2159 16.4957 40.0222 16.69 39.8271 16.8842C39.7047 17.0096 39.5825 17.1353 39.4607 17.2614C39.403 17.3195 39.3453 17.3776 39.2858 17.4375C39.0531 17.6886 38.9084 17.8505 38.8991 18.2C39.0815 18.6627 39.2963 19.104 39.522 19.547C39.5959 19.694 39.5959 19.694 39.6713 19.844C39.8282 20.1559 39.9862 20.4674 40.1441 20.7788C40.2509 20.9906 40.3577 21.2025 40.4643 21.4144C40.7255 21.9329 40.9876 22.4509 41.2501 22.9688C40.9061 23.2325 40.5695 23.4421 40.1807 23.6353C40.0789 23.6865 39.9771 23.7377 39.8722 23.7904C39.6095 23.9063 39.6095 23.9063 39.3751 23.9063C38.9741 23.1207 38.5747 22.3343 38.1772 21.547C37.9926 21.1814 37.8075 20.8161 37.6211 20.4514C37.4069 20.0321 37.195 19.6118 36.9833 19.1913C36.916 19.0604 36.8488 18.9295 36.7795 18.7947C36.7185 18.6727 36.6574 18.5508 36.5946 18.4251C36.513 18.2643 36.513 18.2643 36.4298 18.1002C36.3149 17.7748 36.3084 17.6568 36.4454 17.3438C36.6031 17.1272 36.6031 17.1272 36.8069 16.9033C36.9217 16.7766 36.9217 16.7766 37.0388 16.6474C37.3968 16.2642 37.7574 15.8835 38.1215 15.5059C38.3111 15.307 38.4982 15.1056 38.6825 14.9017C40.3613 13.0466 40.3613 13.0466 41.6699 12.9789C42.157 13.0003 42.641 13.0672 43.1251 13.125C43.0864 12.1969 43.0477 11.2688 43.0079 10.3125C42.5825 10.1578 42.1571 10.0031 41.7188 9.84375C41.3448 9.60526 41.3448 9.60526 41.067 9.36768C40.9253 9.24962 40.9253 9.24962 40.7809 9.12918C40.547 8.90625 40.547 8.90625 40.3126 8.55469C40.0094 8.51873 39.7339 8.50598 39.4302 8.50796C39.3381 8.50718 39.246 8.50641 39.1512 8.5056C38.8409 8.50341 38.5308 8.50373 38.2205 8.50402C37.9988 8.50296 37.7771 8.50175 37.5554 8.5004C36.9521 8.49716 36.3488 8.49608 35.7454 8.49538C35.1154 8.49428 34.4854 8.49121 33.8555 8.48835C32.6618 8.48322 31.4682 8.47988 30.2746 8.47718C28.916 8.47401 27.5574 8.46887 26.1987 8.46355C23.4034 8.45266 20.608 8.44452 17.8126 8.4375C17.8126 11.5699 17.8126 14.7023 17.8126 17.9297C18.0059 18.007 18.1993 18.0844 18.3985 18.1641C18.6485 18.3376 18.6485 18.3376 18.8819 18.5376C18.9596 18.6021 19.0372 18.6666 19.1172 18.7331C19.6436 19.3376 19.7393 19.9691 19.7275 20.7477C19.7275 20.8381 19.7276 20.9285 19.7276 21.0216C19.7274 21.3178 19.7247 21.6138 19.7219 21.9099C19.7213 22.1163 19.7208 22.3227 19.7204 22.5291C19.7191 23.0703 19.7156 23.6114 19.7117 24.1526C19.7081 24.7056 19.7065 25.2587 19.7047 25.8117C19.701 26.8953 19.695 27.9789 19.6876 29.0625C19.7545 29.0615 19.8214 29.0604 19.8904 29.0593C20.59 29.0489 21.2896 29.0419 21.9893 29.0368C22.25 29.0344 22.5107 29.0312 22.7715 29.0271C23.1473 29.0214 23.5231 29.0188 23.899 29.0167C24.0146 29.0143 24.1303 29.0119 24.2494 29.0094C25.1139 29.0091 25.7395 29.1865 26.3956 29.7615C26.4588 29.8378 26.5219 29.9141 26.587 29.9927C26.6519 30.0687 26.7169 30.1446 26.7838 30.2229C27.2151 30.8489 27.2203 31.4078 27.2142 32.1432C27.2142 32.2518 27.2143 32.3605 27.2143 32.4725C27.2141 32.8307 27.2123 33.189 27.2105 33.5472C27.21 33.796 27.2097 34.0447 27.2095 34.2935C27.2086 34.9476 27.2063 35.6016 27.2037 36.2557C27.2008 37.0408 27.1998 37.8259 27.1984 38.6111C27.1961 39.8032 27.1916 40.9953 27.1876 42.1875C29.972 42.1295 29.9719 42.1295 32.8126 42.0703C32.8101 41.6279 32.8077 41.1855 32.8051 40.7298C32.7974 39.2676 32.7922 37.8055 32.7883 36.3433C32.7859 35.4568 32.7826 34.5704 32.7772 33.684C32.7725 32.9111 32.7695 32.1382 32.7685 31.3653C32.7679 30.9563 32.7664 30.5473 32.763 30.1383C32.7592 29.6811 32.7591 29.2238 32.7594 28.7666C32.7577 28.6319 32.756 28.4972 32.7543 28.3584C32.759 27.4427 32.8913 26.8122 33.5116 26.1044C33.5879 26.0413 33.6642 25.9781 33.7428 25.9131C33.8187 25.8481 33.8947 25.7832 33.973 25.7162C34.4951 25.3566 34.9437 25.283 35.5718 25.2812C35.6473 25.2806 35.7227 25.2801 35.8005 25.2796C36.0524 25.2781 36.3042 25.2783 36.5561 25.2785C36.7371 25.2778 36.918 25.277 37.099 25.2761C37.5901 25.274 38.0811 25.2735 38.5721 25.2733C38.8791 25.2731 39.1861 25.2726 39.4932 25.272C40.5648 25.2698 41.6365 25.2689 42.7082 25.2691C43.7061 25.2692 44.704 25.2667 45.7019 25.263C46.5595 25.26 47.4171 25.2587 48.2747 25.2589C48.7865 25.2589 49.2983 25.2583 49.8102 25.2558C50.2918 25.2535 50.7734 25.2535 51.255 25.2552C51.4313 25.2554 51.6076 25.2549 51.7839 25.2535C52.8569 25.2454 53.6775 25.2726 54.5206 26.0115C54.5838 26.0878 54.6469 26.1641 54.712 26.2427C54.7769 26.3187 54.8419 26.3946 54.9088 26.4729C55.2364 26.9484 55.3419 27.3668 55.3408 27.9402C55.3412 28.1292 55.3412 28.1292 55.3417 28.3221C55.3409 28.4591 55.34 28.5962 55.3392 28.7374C55.3392 28.8827 55.3393 29.0279 55.3393 29.1775C55.3392 29.5748 55.338 29.9721 55.3363 30.3694C55.3349 30.7849 55.3347 31.2005 55.3345 31.616C55.3337 32.4025 55.3318 33.189 55.3295 33.9754C55.3268 34.871 55.3255 35.7665 55.3244 36.6621C55.3219 38.5039 55.3178 40.3457 55.3126 42.1875C55.455 42.2318 55.455 42.2318 55.6004 42.2769C55.7258 42.317 55.8512 42.3572 55.9805 42.3985C56.1044 42.4377 56.2284 42.4769 56.3561 42.5172C57.4088 42.9207 58.2216 43.8075 58.7308 44.7976C59.1004 45.7083 59.1347 46.5817 59.1237 47.5491C59.1212 47.8122 59.1237 48.0749 59.1267 48.338C59.1297 49.8433 58.8357 51.0357 57.7735 52.1484C57.0476 52.8414 56.4121 53.0803 55.4298 53.4375C55.3911 55.2938 55.3524 57.15 55.3126 59.0625C48.6553 59.0731 41.998 59.0815 35.3407 59.0864C34.555 59.087 33.7694 59.0876 32.9837 59.0882C32.9055 59.0883 32.8274 59.0884 32.7468 59.0884C30.2127 59.0904 27.6786 59.094 25.1445 59.0983C22.4665 59.1028 19.7886 59.1056 17.1107 59.1066C15.5063 59.1072 13.902 59.1093 12.2977 59.1131C11.1981 59.1156 10.0985 59.1163 8.99892 59.1157C8.36416 59.1154 7.72942 59.1159 7.09466 59.1184C6.51359 59.1207 5.93257 59.1208 5.3515 59.1192C5.14124 59.119 4.93098 59.1196 4.72073 59.121C4.43483 59.1229 4.14909 59.1219 3.8632 59.1202C3.78163 59.1214 3.70005 59.1226 3.616 59.1239C2.87493 59.1138 2.28067 58.8465 1.72951 58.3635C1.66636 58.2872 1.60322 58.2109 1.53816 58.1323C1.47321 58.0563 1.40825 57.9804 1.34132 57.9021C0.918084 57.2878 0.903588 56.7403 0.906237 56.0185C0.905706 55.9124 0.905175 55.8064 0.904628 55.6971C0.903144 55.3415 0.903336 54.986 0.90353 54.6305C0.902829 54.3756 0.902031 54.1208 0.901145 53.8659C0.899073 53.1734 0.898525 52.4809 0.898376 51.7885C0.898153 51.2104 0.89729 50.6323 0.89646 50.0543C0.894551 48.6903 0.893979 47.3264 0.894146 45.9625C0.894287 44.5556 0.891813 43.1488 0.888112 41.7419C0.885047 40.534 0.88379 39.326 0.88394 38.1181C0.884 37.3967 0.883332 36.6753 0.880852 35.9539C0.878583 35.2753 0.878564 34.5967 0.880269 33.9181C0.880514 33.6692 0.879961 33.4204 0.878544 33.1715C0.876733 32.8314 0.877824 32.4913 0.87963 32.1511C0.878424 32.053 0.877219 31.9549 0.875977 31.8539C0.885242 31.0619 1.11208 30.453 1.63658 29.8544C1.71287 29.7913 1.78915 29.7281 1.86775 29.6631C1.94374 29.5981 2.01972 29.5332 2.09801 29.4662C2.5494 29.1552 2.95617 29.033 3.50188 29.0359C3.66722 29.0359 3.66722 29.0359 3.8359 29.0359C3.95335 29.0372 4.07081 29.0384 4.19182 29.0396C4.31324 29.0399 4.43466 29.0403 4.55977 29.0406C4.94662 29.0419 5.33345 29.0449 5.72029 29.0479C5.98297 29.049 6.24565 29.0501 6.50833 29.0511C7.15142 29.0536 7.7945 29.0576 8.43758 29.0625C8.43654 28.9486 8.43549 28.8347 8.43442 28.7173C8.4249 27.6415 8.41788 26.5657 8.41329 25.4899C8.41085 24.9368 8.40754 24.3838 8.40221 23.8308C8.3971 23.2966 8.39431 22.7625 8.3931 22.2283C8.39224 22.025 8.39055 21.8216 8.38802 21.6183C8.38459 21.3325 8.38414 21.0468 8.38436 20.761C8.38268 20.6778 8.38099 20.5946 8.37925 20.5088C8.3854 19.754 8.64841 19.1609 9.1407 18.6003C9.21805 18.5361 9.29539 18.4719 9.37508 18.4058C9.45242 18.3394 9.52976 18.2731 9.60945 18.2048C9.85003 18.0427 10.0327 17.9917 10.3126 17.9297C10.3121 17.8532 10.3117 17.7768 10.3113 17.698C10.3009 15.8357 10.2932 13.9734 10.2883 12.111C10.2859 11.2104 10.2826 10.3097 10.2772 9.40911C10.2725 8.62387 10.2695 7.83864 10.2685 7.05339C10.2679 6.63783 10.2664 6.2223 10.263 5.80675C10.2592 5.34218 10.2591 4.87766 10.2594 4.41307C10.2577 4.27618 10.256 4.13929 10.2543 3.99825C10.2589 3.07598 10.3868 2.44244 11.0116 1.72943C11.0879 1.66629 11.1642 1.60315 11.2428 1.53809C11.3187 1.47313 11.3947 1.40817 11.473 1.34125C12.2003 0.840116 12.9451 0.893867 13.7995 0.894071Z" fill="#404040"/>
<path d="M4.27021 30.8647C4.35692 30.8639 4.44362 30.8632 4.53295 30.8624C4.82295 30.8606 5.11277 30.863 5.40276 30.8654C5.61087 30.865 5.81898 30.8643 6.02709 30.8634C6.59197 30.8618 7.15679 30.8638 7.72167 30.8665C8.31274 30.8689 8.90382 30.8682 9.4949 30.8679C10.4875 30.8679 11.4801 30.8702 12.4728 30.874C13.6204 30.8783 14.7681 30.8793 15.9158 30.8785C17.0197 30.8778 18.1237 30.879 19.2276 30.8813C19.6974 30.8823 20.1673 30.8826 20.6372 30.8824C21.1904 30.8823 21.7437 30.884 22.297 30.887C22.5 30.8879 22.7031 30.8881 22.9062 30.8877C23.1834 30.8873 23.4605 30.889 23.7376 30.8913C23.818 30.8907 23.8985 30.89 23.9813 30.8894C24.4816 30.8965 24.7964 30.9847 25.1953 31.2891C25.3843 31.667 25.3294 32.0801 25.329 32.4953C25.3293 32.597 25.3297 32.6987 25.33 32.8035C25.331 33.1464 25.3312 33.4892 25.3314 33.8321C25.3319 34.0771 25.3325 34.3221 25.3332 34.5671C25.3347 35.2341 25.3354 35.9012 25.336 36.5682C25.3363 36.9847 25.3368 37.4011 25.3373 37.8176C25.3389 39.1196 25.3401 40.4216 25.3405 41.7237C25.341 43.2283 25.3431 44.733 25.3465 46.2377C25.349 47.3996 25.3502 48.5615 25.3504 49.7235C25.3505 50.418 25.3512 51.1124 25.3533 51.8069C25.3552 52.4601 25.3554 53.1133 25.3544 53.7665C25.3543 54.0064 25.3548 54.2464 25.356 54.4863C25.3575 54.8135 25.3568 55.1407 25.3556 55.4679C25.357 55.6108 25.357 55.6108 25.3584 55.7565C25.3537 56.2903 25.3052 56.6524 24.9609 57.0703C24.5534 57.2062 24.1889 57.2045 23.765 57.204C23.6784 57.2043 23.5918 57.2047 23.5026 57.205C23.2117 57.206 22.9208 57.2062 22.6298 57.2064C22.4215 57.2069 22.2133 57.2075 22.005 57.2081C21.4387 57.2097 20.8724 57.2104 20.3061 57.211C19.9525 57.2113 19.5989 57.2118 19.2453 57.2123C18.1395 57.2139 17.0338 57.215 15.928 57.2155C14.6504 57.216 13.3729 57.2181 12.0953 57.2215C11.1084 57.224 10.1216 57.2252 9.13469 57.2253C8.54494 57.2255 7.95519 57.2262 7.36544 57.2283C6.81092 57.2302 6.25643 57.2304 5.70191 57.2294C5.4982 57.2293 5.2945 57.2298 5.0908 57.231C4.81307 57.2325 4.53543 57.2318 4.2577 57.2306C4.13631 57.232 4.13631 57.232 4.01247 57.2334C3.6619 57.2298 3.42638 57.2031 3.11769 57.031C2.70721 56.6051 2.79481 56.0514 2.79447 55.4984C2.79396 55.3966 2.79345 55.2948 2.79292 55.1899C2.79135 54.8474 2.79062 54.5049 2.78991 54.1624C2.78898 53.9174 2.78801 53.6724 2.787 53.4274C2.78393 52.6217 2.78214 51.8161 2.78046 51.0104C2.77984 50.7333 2.77921 50.4562 2.77857 50.1791C2.77604 49.0269 2.77384 47.8746 2.77252 46.7224C2.77062 45.0695 2.76673 43.4167 2.76006 41.7639C2.75553 40.6024 2.75323 39.441 2.75261 38.2796C2.75218 37.5855 2.75077 36.8914 2.74697 36.1973C2.74346 35.5446 2.74271 34.8919 2.74409 34.2392C2.74412 33.9994 2.74314 33.7597 2.74108 33.5199C2.73844 33.1929 2.73939 32.8661 2.74126 32.5391C2.73882 32.3964 2.73882 32.3964 2.73633 32.2507C2.74272 31.797 2.79561 31.5479 3.05544 31.1715C3.47089 30.8881 3.78382 30.8558 4.27021 30.8647Z" fill="#E5E8EC"/>
<path d="M4.6875 32.8125C10.875 32.8125 17.0625 32.8125 23.4375 32.8125C23.4375 36.525 23.4375 40.2375 23.4375 44.0625C17.25 44.0625 11.0625 44.0625 4.6875 44.0625C4.6875 40.35 4.6875 36.6375 4.6875 32.8125Z" fill="#69D6F4"/>
<path d="M35.8025 27.121C35.9047 27.1211 36.007 27.1211 36.1123 27.1212C36.271 27.1257 36.271 27.1257 36.4329 27.1303C36.5314 27.1309 36.6299 27.1315 36.7313 27.1321C37.0975 27.1351 37.4635 27.1433 37.8296 27.1509C38.6489 27.163 39.4683 27.175 40.3125 27.1875C40.3512 29.1211 40.3898 31.0547 40.4297 33.0469C41.4345 32.7012 41.4345 32.7012 42.4384 32.3527C42.5648 32.3099 42.6912 32.267 42.8215 32.2229C43.0139 32.1566 43.0139 32.1566 43.2102 32.089C43.9552 31.9009 44.5216 31.994 45.2376 32.2485C45.3735 32.2961 45.5095 32.3437 45.6495 32.3927C45.8195 32.4539 45.9894 32.5151 46.1645 32.5781C46.7084 32.7715 47.2522 32.9648 47.8125 33.1641C47.8125 31.1918 47.8125 29.2195 47.8125 27.1875C48.6125 27.1802 49.4125 27.173 50.2368 27.1655C50.6142 27.1607 50.6142 27.1607 50.9993 27.1558C51.1997 27.1548 51.4001 27.1539 51.6005 27.1532C51.7038 27.1514 51.807 27.1496 51.9134 27.1477C52.4781 27.1475 52.8646 27.1651 53.3203 27.5391C53.4619 27.8223 53.4528 28.0017 53.4539 28.3182C53.4546 28.433 53.4553 28.5479 53.456 28.6662C53.4562 28.8559 53.4562 28.8559 53.4564 29.0494C53.4569 29.1822 53.4575 29.315 53.4581 29.4519C53.4598 29.8929 53.4606 30.3339 53.4613 30.775C53.462 31.0807 53.4626 31.3863 53.4633 31.692C53.4644 32.2515 53.4651 32.8111 53.4655 33.3706C53.466 34.194 53.4681 35.0174 53.4715 35.8407C53.4743 36.5539 53.4752 37.2671 53.4754 37.9803C53.4758 38.2836 53.4767 38.587 53.4782 38.8904C53.4802 39.3146 53.48 39.7387 53.4793 40.163C53.4803 40.2887 53.4814 40.4144 53.4825 40.544C53.4764 41.6347 53.4764 41.6347 53.0859 42.0703C52.763 42.178 52.575 42.2018 52.2426 42.2008C52.1428 42.2008 52.0429 42.2008 51.94 42.2008C51.8355 42.2002 51.731 42.1996 51.6234 42.1989C51.527 42.1988 51.4306 42.1987 51.3312 42.1986C50.9713 42.198 50.6114 42.1963 50.2515 42.1948C49.4466 42.1924 48.6417 42.19 47.8125 42.1875C47.8125 40.2152 47.8125 38.243 47.8125 36.2109C46.7305 36.5952 46.7305 36.5952 45.6495 36.9823C45.5136 37.0299 45.3776 37.0774 45.2376 37.1265C45.0995 37.1756 44.9614 37.2247 44.8191 37.2752C44.0898 37.4689 43.5274 37.3953 42.8215 37.1521C42.6951 37.1093 42.5686 37.0664 42.4384 37.0223C42.2807 36.9673 42.1229 36.9122 41.9604 36.8555C41.4553 36.6814 40.9501 36.5074 40.4297 36.3281C40.391 38.2617 40.3523 40.1953 40.3125 42.1875C39.4907 42.1948 38.6689 42.202 37.8223 42.2095C37.5634 42.2127 37.3046 42.2159 37.038 42.2192C36.8325 42.2202 36.627 42.2211 36.4215 42.2218C36.2619 42.2245 36.2619 42.2245 36.0991 42.2273C35.3502 42.2276 35.3502 42.2276 34.9746 42.0315C34.6767 41.6886 34.6723 41.3598 34.6695 40.9255C34.6684 40.8105 34.6674 40.6955 34.6664 40.577C34.6656 40.388 34.6656 40.388 34.6649 40.1951C34.6639 40.0623 34.663 39.9295 34.662 39.7926C34.6591 39.3522 34.6571 38.9118 34.6554 38.4714C34.6548 38.3212 34.6542 38.1709 34.6536 38.0162C34.6511 37.3851 34.6488 36.7539 34.6475 36.1228C34.6456 35.2188 34.6417 34.3148 34.635 33.4108C34.63 32.6982 34.6281 31.9856 34.6273 31.273C34.6265 30.9699 34.6248 30.6669 34.622 30.3639C34.6183 29.9402 34.6182 29.5167 34.6191 29.093C34.6172 28.9675 34.6153 28.8419 34.6133 28.7125C34.618 28.1547 34.6217 27.8659 34.9517 27.4022C35.2781 27.1844 35.4178 27.1153 35.8025 27.121Z" fill="#CE9D75"/>
<path d="M27.1875 53.4375C35.85 53.4375 44.5125 53.4375 53.4375 53.4375C53.4375 54.675 53.4375 55.9125 53.4375 57.1875C44.7363 57.1875 36.0352 57.1875 27.0703 57.1875C27.109 55.95 27.1477 54.7125 27.1875 53.4375Z" fill="#A9B1BC"/>
<path d="M4.6875 32.8125C10.875 32.8125 17.0625 32.8125 23.4375 32.8125C23.4375 36.525 23.4375 40.2375 23.4375 44.0625C17.25 44.0625 11.0625 44.0625 4.6875 44.0625C4.6875 40.35 4.6875 36.6375 4.6875 32.8125ZM6.5625 34.6875C6.5625 37.1625 6.5625 39.6375 6.5625 42.1875C11.5125 42.1875 16.4625 42.1875 21.5625 42.1875C21.5625 39.7125 21.5625 37.2375 21.5625 34.6875C16.6125 34.6875 11.6625 34.6875 6.5625 34.6875Z" fill="#404040"/>
<path d="M13.3483 2.74292C13.4548 2.74322 13.5613 2.74352 13.671 2.74383C13.8357 2.74882 13.8357 2.74882 14.0038 2.75391C14.1136 2.7536 14.2235 2.7533 14.3366 2.75299C14.9184 2.76124 15.3549 2.77505 15.8202 3.16406C15.9658 3.45521 15.9518 3.64806 15.9515 3.97383C15.9517 4.09544 15.9518 4.21704 15.952 4.34233C15.9514 4.54324 15.9514 4.54324 15.9507 4.74821C15.9507 4.88883 15.9507 5.02946 15.9508 5.17434C15.9507 5.5605 15.9501 5.94666 15.9493 6.33282C15.9486 6.73618 15.9485 7.13954 15.9483 7.5429C15.948 8.30696 15.947 9.07102 15.9458 9.83509C15.9445 10.7048 15.9439 11.5746 15.9433 12.4444C15.9421 14.2337 15.9399 16.0231 15.9374 17.8125C14.6999 17.8125 13.4624 17.8125 12.1874 17.8125C12.1742 15.9433 12.1634 14.0741 12.157 12.2048C12.154 11.3368 12.1499 10.4689 12.1432 9.60099C12.1374 8.84447 12.1336 8.08797 12.1323 7.33142C12.1315 6.93086 12.1297 6.53036 12.1255 6.12981C12.1212 5.68254 12.1206 5.23541 12.1209 4.78812C12.1188 4.65545 12.1167 4.52277 12.1145 4.38607C12.1204 3.4884 12.1204 3.4884 12.4668 3.02312C12.7974 2.79594 12.9522 2.7395 13.3483 2.74292Z" fill="#CBD0D8"/>
<path d="M12.2936 19.6179C12.4971 19.6179 12.4971 19.6179 12.7046 19.6179C12.9911 19.6185 13.2775 19.6206 13.564 19.624C14.0022 19.6289 14.4403 19.6288 14.8786 19.628C15.1571 19.6292 15.4355 19.6307 15.714 19.6326C15.845 19.6326 15.976 19.6326 16.111 19.6326C16.2946 19.6354 16.2946 19.6354 16.4819 19.6383C16.6428 19.6398 16.6428 19.6398 16.807 19.6413C17.1726 19.6972 17.3962 19.8245 17.6952 20.0391C17.8124 20.2734 17.8124 20.2734 17.8124 21.5625C15.9562 21.5625 14.0999 21.5625 12.1874 21.5625C12.1874 22.1813 12.1874 22.8 12.1874 23.4375C14.0437 23.4375 15.8999 23.4375 17.8124 23.4375C17.8124 25.2938 17.8124 27.15 17.8124 29.0625C15.3374 29.0625 12.8624 29.0625 10.3124 29.0625C10.3124 28.4438 10.3124 27.825 10.3124 27.1875C12.1687 27.1875 14.0249 27.1875 15.9374 27.1875C15.9374 26.5688 15.9374 25.95 15.9374 25.3125C14.0812 25.3125 12.2249 25.3125 10.3124 25.3125C10.3003 24.4931 10.2882 23.6738 10.2758 22.8296C10.2704 22.5719 10.2651 22.3141 10.2596 22.0486C10.2579 21.8434 10.2564 21.6382 10.2552 21.433C10.2522 21.3271 10.2492 21.2213 10.2461 21.1123C10.2458 20.6234 10.273 20.3414 10.5217 19.9123C11.0985 19.568 11.6339 19.6082 12.2936 19.6179Z" fill="#FBD66F"/>
<path d="M17.8125 4.6875C24.9281 4.6875 32.0437 4.6875 39.375 4.6875C39.375 5.30625 39.375 5.925 39.375 6.5625C32.2594 6.5625 25.1438 6.5625 17.8125 6.5625C17.8125 5.94375 17.8125 5.325 17.8125 4.6875Z" fill="#CCD1D9"/>
<path d="M29.0625 44.0625C31.5375 44.0625 34.0125 44.0625 36.5625 44.0625C36.3691 44.2559 36.1758 44.4492 35.9766 44.6484C35.0592 45.8448 34.6759 47.0034 34.8047 48.5156C35.0797 49.7757 35.6609 50.6609 36.5625 51.5625C34.0875 51.5625 31.6125 51.5625 29.0625 51.5625C29.3525 51.2725 29.3525 51.2725 29.6484 50.9766C30.481 49.9736 30.916 48.7212 30.8574 47.4161C30.7219 46.295 30.26 45.1389 29.3701 44.4067C29.2178 44.2943 29.2178 44.2943 29.0625 44.1797C29.0625 44.141 29.0625 44.1023 29.0625 44.0625Z" fill="#E4E7EB"/>
<path d="M51.5625 44.0625C52.0898 44.0522 52.6171 44.046 53.1445 44.0405C53.3675 44.0361 53.3675 44.0361 53.595 44.0316C54.6322 44.0235 55.4689 44.0709 56.2793 44.7876C56.3524 44.8497 56.4255 44.9118 56.5009 44.9757C57.2215 45.8312 57.2636 46.6451 57.2534 47.7393C57.2576 47.9446 57.2576 47.9446 57.2619 48.154C57.2602 49.1538 57.0847 49.9733 56.3993 50.7316C55.5789 51.5218 54.6892 51.6019 53.595 51.5934C53.4463 51.5905 53.2977 51.5875 53.1445 51.5845C52.9161 51.5821 52.9161 51.5821 52.6831 51.5797C52.3095 51.5755 51.936 51.5698 51.5625 51.5625C51.6518 51.4755 51.7411 51.3885 51.833 51.2988C52.7898 50.3213 53.3268 49.1094 53.3716 47.7319C53.3197 46.5772 52.8988 45.3916 52.0638 44.566C51.9008 44.432 51.7322 44.305 51.5625 44.1797C51.5625 44.141 51.5625 44.1023 51.5625 44.0625Z" fill="#E4E7EB"/>
<path d="M18.9908 46.16C19.7526 46.5914 20.3828 47.1893 20.625 48.0469C20.7731 48.9862 20.5796 49.7297 20.0391 50.5078C19.487 51.143 18.8263 51.4921 17.9942 51.5996C17.2873 51.6331 16.7424 51.5216 16.1719 51.0937C15.3944 50.3673 15.0061 49.7774 14.9561 48.7061C14.9763 47.9181 15.1705 47.4227 15.7141 46.8517C16.6804 45.9547 17.7269 45.6125 18.9908 46.16Z" fill="#404040"/>
<path d="M11.4908 46.16C12.2526 46.5914 12.8828 47.1893 13.125 48.0469C13.2731 48.9862 13.0796 49.7297 12.5391 50.5078C11.987 51.143 11.3263 51.4921 10.4942 51.5996C9.78735 51.6331 9.24236 51.5216 8.67188 51.0937C7.8944 50.3673 7.50609 49.7774 7.45605 48.7061C7.47631 47.9181 7.67049 47.4227 8.21411 46.8517C9.18036 45.9547 10.2269 45.6125 11.4908 46.16Z" fill="#404040"/>
<path d="M49.9283 45.2225C50.6901 45.6539 51.3203 46.2518 51.5625 47.1094C51.7106 48.0487 51.5171 48.7922 50.9766 49.5703C50.4245 50.2055 49.7638 50.5546 48.9317 50.6621C48.2248 50.6956 47.6799 50.5841 47.1094 50.1562C46.3319 49.4298 45.9436 48.8399 45.8936 47.7686C45.9138 46.9806 46.108 46.4852 46.6516 45.9142C47.6179 45.0172 48.6644 44.675 49.9283 45.2225Z" fill="#818C98"/>
<path d="M40.5533 45.2225C41.3151 45.6539 41.9453 46.2518 42.1875 47.1094C42.3356 48.0487 42.1421 48.7922 41.6016 49.5703C41.0495 50.2055 40.3888 50.5546 39.5567 50.6621C38.8498 50.6956 38.3049 50.5841 37.7344 50.1562C36.9569 49.4298 36.5686 48.8399 36.5186 47.7686C36.5388 46.9806 36.733 46.4852 37.2766 45.9142C38.2429 45.0172 39.2894 44.675 40.5533 45.2225Z" fill="#818C98"/>
<path d="M45.2408 3.03497C46.0026 3.46638 46.6328 4.06426 46.875 4.92188C47.0231 5.86124 46.8296 6.60475 46.2891 7.38281C45.737 8.01798 45.0763 8.36709 44.2442 8.47458C43.5373 8.50814 42.9924 8.39661 42.4219 7.96875C41.6444 7.24228 41.2561 6.65239 41.2061 5.58106C41.2263 4.79308 41.4205 4.29766 41.9641 3.72666C42.9304 2.82965 43.9769 2.48748 45.2408 3.03497Z" fill="#F8D46E"/>
<path d="M48.6328 4.6875C51.4559 4.6875 54.2789 4.6875 57.1875 4.6875C57.1875 5.30625 57.1875 5.925 57.1875 6.5625C54.4031 6.5625 51.6187 6.5625 48.75 6.5625C48.7113 5.94375 48.6727 5.325 48.6328 4.6875Z" fill="#CBD0D8"/>
<path d="M42.1875 38.7891C42.6902 38.9438 43.193 39.0984 43.7109 39.2578C44.5063 39.2458 45.1484 39.0043 45.9375 38.7891C45.9375 39.9105 45.9375 41.032 45.9375 42.1875C44.7 42.1875 43.4625 42.1875 42.1875 42.1875C42.1875 41.066 42.1875 39.9445 42.1875 38.7891Z" fill="#E4E7EB"/>
<path d="M42.1875 27.1875C43.425 27.1875 44.6625 27.1875 45.9375 27.1875C45.9375 28.309 45.9375 29.4305 45.9375 30.5859C45.5121 30.4699 45.0867 30.3539 44.6484 30.2344C43.6358 29.9894 43.3484 30.2287 42.1875 30.5859C42.1875 29.4645 42.1875 28.343 42.1875 27.1875Z" fill="#E4E7EB"/>
<path d="M27.1875 45.2344C27.9837 45.4998 27.9837 45.4998 28.3887 45.9741C28.4666 46.0631 28.5446 46.1521 28.6249 46.2437C29.0961 46.8922 29.1508 47.5022 29.0625 48.2812C28.8539 49.1683 28.4274 49.7809 27.6562 50.2734C27.4242 50.3314 27.4242 50.3314 27.1875 50.3906C27.1875 48.6891 27.1875 46.9875 27.1875 45.2344Z" fill="#818D99"/>
<path d="M43.9453 48.6328C44.0227 48.6328 44.1 48.6328 44.1797 48.6328C44.2125 48.7305 44.2452 48.8283 44.279 48.929C44.661 50.0012 45.1364 50.7614 45.9375 51.5625C44.7 51.5625 43.4625 51.5625 42.1875 51.5625C42.3809 51.3691 42.5742 51.1758 42.7734 50.9766C43.3461 50.2624 43.6697 49.5003 43.9453 48.6328Z" fill="#E0E3E7"/>
<path d="M42.1875 44.0625C43.425 44.0625 44.6625 44.0625 45.9375 44.0625C45.7441 44.2559 45.5508 44.4492 45.3516 44.6484C44.7815 45.3918 44.3218 46.1714 44.1797 47.1094C44.1023 47.1094 44.025 47.1094 43.9453 47.1094C43.9281 47.0384 43.9109 46.9674 43.8931 46.8942C43.5934 45.7745 43.1289 44.8745 42.1875 44.1797C42.1875 44.141 42.1875 44.1023 42.1875 44.0625Z" fill="#E0E3E7"/>
<path d="M20.625 53.4375C21.2438 53.4375 21.8625 53.4375 22.5 53.4375C22.5 54.0563 22.5 54.675 22.5 55.3125C21.8813 55.3125 21.2625 55.3125 20.625 55.3125C20.625 54.6938 20.625 54.075 20.625 53.4375Z" fill="#404040"/>
<path d="M16.875 53.4375C17.4938 53.4375 18.1125 53.4375 18.75 53.4375C18.75 54.0563 18.75 54.675 18.75 55.3125C18.1313 55.3125 17.5125 55.3125 16.875 55.3125C16.875 54.6938 16.875 54.075 16.875 53.4375Z" fill="#404040"/>
<path d="M13.125 53.4375C13.7438 53.4375 14.3625 53.4375 15 53.4375C15 54.0563 15 54.675 15 55.3125C14.3813 55.3125 13.7625 55.3125 13.125 55.3125C13.125 54.6938 13.125 54.075 13.125 53.4375Z" fill="#404040"/>
<path d="M9.375 53.4375C9.99375 53.4375 10.6125 53.4375 11.25 53.4375C11.25 54.0563 11.25 54.675 11.25 55.3125C10.6313 55.3125 10.0125 55.3125 9.375 55.3125C9.375 54.6938 9.375 54.075 9.375 53.4375Z" fill="#404040"/>
<path d="M5.625 53.4375C6.24375 53.4375 6.8625 53.4375 7.5 53.4375C7.5 54.0563 7.5 54.675 7.5 55.3125C6.88125 55.3125 6.2625 55.3125 5.625 55.3125C5.625 54.6938 5.625 54.075 5.625 53.4375Z" fill="#404040"/>
<path d="M17.8125 47.7393C18.29 47.8387 18.4622 48.0091 18.75 48.3984C18.8232 48.75 18.8232 48.75 18.75 49.1016C18.4622 49.4909 18.29 49.6613 17.8125 49.7607C17.335 49.6613 17.1628 49.4909 16.875 49.1016C16.8018 48.75 16.8018 48.75 16.875 48.3984C17.1628 48.0091 17.335 47.8387 17.8125 47.7393Z" fill="#F0CC6A"/>
<path d="M10.3125 47.7393C10.79 47.8387 10.9622 48.0091 11.25 48.3984C11.3232 48.75 11.3232 48.75 11.25 49.1016C10.9622 49.4909 10.79 49.6613 10.3125 49.7607C9.83504 49.6613 9.66281 49.4909 9.375 49.1016C9.30176 48.75 9.30176 48.75 9.375 48.3984C9.66281 48.0091 9.83504 47.8387 10.3125 47.7393Z" fill="#F0CC6A"/>
<path d="M44.0625 4.61426C44.54 4.71373 44.7122 4.88405 45 5.27344C45.0732 5.625 45.0732 5.625 45 5.97656C44.7122 6.36595 44.54 6.53627 44.0625 6.63574C43.585 6.53627 43.4128 6.36595 43.125 5.97656C43.0518 5.625 43.0518 5.625 43.125 5.27344C43.4128 4.88405 43.585 4.71373 44.0625 4.61426Z" fill="#404040"/>
<path d="M49.1245 46.9171C49.336 46.9922 49.336 46.9922 49.5704 47.1899C49.7232 47.5434 49.7353 47.7823 49.6876 48.1641C49.5704 48.4351 49.5704 48.4351 49.336 48.6328C48.9024 48.7672 48.5395 48.8042 48.1129 48.6401C47.8339 48.2718 47.7627 47.9195 47.8126 47.4609C48.1732 46.8909 48.4934 46.7885 49.1245 46.9171Z" fill="#404040"/>
<path d="M39.7495 46.9171C39.961 46.9922 39.961 46.9922 40.1954 47.1899C40.3482 47.5434 40.3603 47.7823 40.3126 48.1641C40.1954 48.4351 40.1954 48.4351 39.961 48.6328C39.5274 48.7672 39.1645 48.8042 38.7379 48.6401C38.4589 48.2718 38.3877 47.9195 38.4376 47.4609C38.7982 46.8909 39.1184 46.7885 39.7495 46.9171Z" fill="#404040"/>
</g>
<defs>
<clipPath id="clip0_28_915">
<rect width="60" height="60" fill="white"/>
</clipPath>
</defs>
</svg>
