<svg width="61" height="60" viewBox="0 0 61 60" fill="none" xmlns="http://www.w3.org/2000/svg">
<g clip-path="url(#clip0_28_781)">
<path d="M4.55089 0.921789C4.6694 0.921267 4.78792 0.920744 4.91004 0.920206C5.04002 0.920228 5.17001 0.920249 5.30393 0.920271C5.4422 0.919841 5.58047 0.91941 5.72293 0.918966C6.10686 0.917897 6.49078 0.917356 6.87471 0.917045C7.28876 0.916587 7.70281 0.915465 8.11686 0.914442C9.11693 0.912127 10.117 0.910946 11.1171 0.909904C11.5882 0.90939 12.0594 0.908761 12.5306 0.908147C14.0973 0.906154 15.6641 0.904455 17.2308 0.903606C17.6373 0.903383 18.0438 0.903157 18.4503 0.902928C18.5513 0.902872 18.6524 0.902815 18.7565 0.902756C20.3924 0.901784 22.0283 0.898816 23.6643 0.895009C25.3446 0.89113 27.025 0.889022 28.7053 0.888648C29.6484 0.888395 30.5916 0.887373 31.5347 0.884375C32.3381 0.881827 33.1414 0.88089 33.9448 0.882028C34.3544 0.882559 34.764 0.882345 35.1735 0.880063C35.6185 0.877988 36.0634 0.878819 36.5084 0.88036C36.6366 0.879075 36.7647 0.877789 36.8968 0.876465C38.0989 0.886483 39.1288 1.20782 40.0589 1.98625C40.9546 2.9011 41.2584 3.98642 41.2657 5.2399C41.2665 5.32482 41.2673 5.40974 41.2681 5.49723C41.2703 5.77467 41.2708 6.05207 41.2711 6.32952C41.2718 6.52383 41.2726 6.71813 41.2734 6.91244C41.2748 7.31816 41.2753 7.72387 41.2751 8.12959C41.2751 8.64896 41.2783 9.16826 41.2823 9.68761C41.2849 10.0882 41.2854 10.4889 41.2853 10.8895C41.2856 11.081 41.2866 11.2725 41.2884 11.464C41.2907 11.7316 41.29 11.999 41.2886 12.2666C41.289 12.4186 41.2893 12.5706 41.2896 12.7272C41.2211 13.1978 41.1109 13.39 40.7629 13.711C40.5696 13.7496 40.3762 13.7883 40.177 13.8281C40.2157 15.3363 40.2543 16.8445 40.2942 18.3985C40.5866 17.8474 40.8791 17.2963 41.1804 16.7285C41.8396 15.487 42.5007 14.2465 43.1653 13.0078C43.7932 11.8375 44.4177 10.6654 45.0403 9.49221C45.8119 8.03822 46.5863 6.58577 47.3653 5.13567C47.6247 4.65262 47.8832 4.16907 48.1402 3.68475C48.2543 3.47001 48.3686 3.25543 48.483 3.04088C48.6259 2.77294 48.7682 2.50474 48.9101 2.23625C49.0058 2.05721 49.0058 2.05721 49.1034 1.87456C49.1591 1.76964 49.2148 1.66472 49.2722 1.55661C49.4244 1.30626 49.5621 1.12466 49.7864 0.937518C50.2798 0.836648 50.7097 0.85213 51.134 1.12795C51.3499 1.46969 51.4028 1.70615 51.427 2.10939C51.3948 2.2174 51.3626 2.32541 51.3295 2.43669C51.2693 2.83792 51.2693 2.83792 51.5771 3.1856C51.7008 3.31473 51.8267 3.44176 51.9543 3.56691C52.0194 3.63386 52.0845 3.70081 52.1515 3.76979C52.3377 3.96059 52.5263 4.14864 52.7161 4.33596C52.8386 4.45877 52.8386 4.45877 52.9637 4.58406C53.093 4.71308 53.2229 4.84159 53.3533 4.9695C53.5532 5.17345 53.7387 5.3862 53.9246 5.60304C54.2484 5.97932 54.5894 6.3308 54.9426 6.67971C55.3627 7.09467 55.7567 7.52023 56.1401 7.96877C56.4617 8.32982 56.808 8.66457 57.155 9.00103C57.3827 9.23632 57.5647 9.47594 57.7551 9.74123C57.9087 9.94582 57.9087 9.94582 58.1067 10.0781C58.3955 10.0959 58.6289 10.061 58.9096 9.99254C59.2298 9.95237 59.3643 10.0175 59.6301 10.1953C59.9287 10.6432 59.9602 10.9676 59.8645 11.4844C59.6593 11.9988 59.3977 12.4784 59.1321 12.9639C59.0567 13.1049 58.9815 13.246 58.9065 13.3872C58.6815 13.809 58.4529 14.2288 58.2239 14.6485C58.1602 14.7657 58.0965 14.883 58.0308 15.0038C57.7992 15.43 57.5671 15.8559 57.3334 16.2809C56.9165 17.04 56.5129 17.8053 56.1145 18.5742C55.656 19.459 55.188 20.3375 54.7082 21.211C54.0396 22.4294 53.3916 23.6578 52.755 24.8933C52.615 25.1641 52.4733 25.4339 52.3311 25.7034C50.5452 29.1215 49.814 33.0068 49.4582 36.8198C49.4467 36.9422 49.4467 36.9422 49.435 37.0671C49.3983 37.4655 49.3639 37.8639 49.3324 38.2629C49.1656 40.2301 49.1656 40.2301 48.5559 40.8399C48.053 41.1416 47.5812 41.1662 47.0105 41.1987C46.7277 41.2157 46.4449 41.2326 46.1536 41.25C46.1536 41.9074 46.1536 42.5649 46.1536 43.2422C46.3469 43.2809 46.5403 43.3195 46.7395 43.3594C47.065 43.682 47.1352 43.9223 47.1373 44.3733C47.1386 44.4824 47.1399 44.5914 47.1413 44.7038C47.141 44.8226 47.1406 44.9414 47.1403 45.0639C47.1413 45.1897 47.1423 45.3155 47.1433 45.4452C47.146 45.862 47.1461 46.2788 47.146 46.6956C47.1468 46.9858 47.1477 47.276 47.1487 47.5663C47.1503 48.1755 47.1505 48.7847 47.1498 49.3939C47.1489 50.172 47.1527 50.95 47.1574 51.7281C47.1604 52.3281 47.1608 52.9281 47.1603 53.5281C47.1605 53.8148 47.1617 54.1014 47.1638 54.3881C47.1835 57.4241 47.1835 57.4241 46.2501 58.711C45.4166 59.4912 44.6241 60.0134 43.4535 60.0157C43.3337 60.0163 43.2139 60.0168 43.0905 60.0173C42.959 60.0173 42.8276 60.0173 42.6922 60.0173C42.4825 60.0179 42.4825 60.0179 42.2686 60.0186C41.8804 60.0196 41.4923 60.0202 41.1041 60.0205C40.6855 60.021 40.2669 60.0221 39.8483 60.0231C38.8373 60.0254 37.8263 60.0266 36.8153 60.0276C36.339 60.0281 35.8627 60.0288 35.3864 60.0294C33.8029 60.0314 32.2194 60.0331 30.6359 60.0339C30.225 60.0342 29.8142 60.0344 29.4033 60.0346C29.3012 60.0347 29.1991 60.0347 29.0939 60.0348C27.44 60.0358 25.7862 60.0387 24.1324 60.0425C22.4339 60.0464 20.7354 60.0485 19.0369 60.0489C18.0835 60.0491 17.1301 60.0502 16.1767 60.0532C15.3647 60.0557 14.5526 60.0566 13.7406 60.0555C13.3265 60.055 12.9125 60.0552 12.4984 60.0575C12.0488 60.0599 11.5992 60.0587 11.1495 60.0572C10.9547 60.0591 10.9547 60.0591 10.756 60.0611C9.59226 60.0515 8.66605 59.7524 7.81219 58.9435C6.80596 57.8466 6.62202 56.8189 6.64673 55.3711C6.64778 55.2524 6.64884 55.1336 6.64993 55.0113C6.65267 54.7211 6.65651 54.4309 6.66137 54.1406C6.58648 54.1431 6.51158 54.1456 6.43441 54.1481C3.32174 54.2368 3.32174 54.2368 2.04712 53.1885C1.38478 52.5525 0.82817 51.6909 0.786905 50.7494C0.786695 50.607 0.786486 50.4647 0.78627 50.3181C0.785994 50.2385 0.785718 50.1589 0.785434 50.0769C0.78465 49.8082 0.784704 49.5396 0.784752 49.2709C0.784366 49.0771 0.783929 48.8834 0.783446 48.6896C0.782271 48.1555 0.781836 47.6214 0.781526 47.0874C0.781069 46.512 0.779946 45.9366 0.778923 45.3611C0.776605 43.9707 0.775426 42.5802 0.774384 41.1897C0.773871 40.5351 0.773242 39.8805 0.772628 39.2259C0.770634 37.0502 0.768936 34.8744 0.768087 32.6987C0.767863 32.1339 0.767638 31.5691 0.767409 31.0043C0.767352 30.8639 0.767295 30.7236 0.767237 30.5789C0.766264 28.3048 0.763295 26.0308 0.759489 23.7567C0.755615 21.4226 0.753503 19.0884 0.753128 16.7543C0.752875 15.4436 0.751848 14.1328 0.748856 12.822C0.746313 11.7057 0.745368 10.5894 0.746508 9.47301C0.747041 8.90349 0.746817 8.33399 0.744544 7.76446C0.74248 7.24274 0.742593 6.72106 0.744415 6.19934C0.744694 6.01093 0.744185 5.82252 0.742794 5.63412C0.732155 4.09695 0.950885 3.03438 2.03109 1.89882C2.75679 1.26229 3.58977 0.923757 4.55089 0.921789Z" fill="#F4F4F4"/>
<path d="M50.588 0.896742C50.8411 0.937483 50.8411 0.937483 51.1341 1.12791C51.3499 1.46966 51.4028 1.70612 51.427 2.10936C51.3788 2.27137 51.3788 2.27137 51.3295 2.43666C51.2693 2.83789 51.2693 2.83789 51.5772 3.18556C51.7008 3.31469 51.8267 3.44173 51.9544 3.56688C52.0194 3.63383 52.0845 3.70078 52.1515 3.76975C52.3378 3.96055 52.5264 4.14861 52.7161 4.33592C52.8387 4.45873 52.8387 4.45873 52.9637 4.58403C53.0931 4.71305 53.2229 4.84156 53.3533 4.96947C53.5533 5.17342 53.7387 5.38616 53.9246 5.60301C54.2485 5.97928 54.5895 6.33077 54.9427 6.67967C55.3627 7.09464 55.7567 7.5202 56.1402 7.96873C56.4617 8.32978 56.808 8.66454 57.155 9.00099C57.3828 9.23628 57.5648 9.4759 57.7552 9.74119C57.9087 9.94579 57.9087 9.94579 58.1067 10.0781C58.3956 10.0958 58.6289 10.061 58.9096 9.99251C59.2299 9.95233 59.3643 10.0175 59.6302 10.1953C59.9288 10.6432 59.9602 10.9675 59.8645 11.4844C59.6593 11.9988 59.3977 12.4784 59.1321 12.9639C59.0567 13.1049 58.9815 13.246 58.9065 13.3872C58.6815 13.809 58.453 14.2288 58.2239 14.6484C58.1602 14.7657 58.0965 14.8829 58.0308 15.0038C57.7992 15.4299 57.5671 15.8558 57.3334 16.2809C56.9165 17.0399 56.513 17.8053 56.1145 18.5742C55.656 19.459 55.188 20.3375 54.7083 21.2109C54.0396 22.4294 53.3916 23.6578 52.7551 24.8933C52.6151 25.1641 52.4734 25.4338 52.3311 25.7034C50.5452 29.1215 49.814 33.0067 49.4582 36.8197C49.4506 36.9014 49.4429 36.983 49.4351 37.0671C49.3983 37.4655 49.3639 37.8639 49.3324 38.2628C49.1657 40.2301 49.1657 40.2301 48.5559 40.8398C48.1431 41.0875 47.8123 41.1495 47.3401 41.1749C42.4414 41.4807 38.5089 43.7306 34.8404 46.8828C34.4254 47.2088 34.1116 47.242 33.5997 47.2491C33.4161 47.252 33.4161 47.252 33.2287 47.2549C32.67 47.2601 32.1113 47.2649 31.5525 47.2676C31.2577 47.2695 30.9628 47.2727 30.668 47.2772C30.243 47.2836 29.8181 47.2862 29.393 47.2879C29.1954 47.2919 29.1954 47.2919 28.9939 47.2959C28.0823 47.2935 28.0823 47.2935 27.6134 46.9554C27.3347 46.5373 27.3156 46.3133 27.4036 45.8203C27.7272 45.3917 27.8952 45.2485 28.4326 45.1678C28.6031 45.1679 28.7736 45.1712 28.944 45.1771C29.0342 45.178 29.1244 45.1788 29.2173 45.1797C29.504 45.1829 29.7904 45.1903 30.0769 45.1977C30.2719 45.2007 30.4668 45.2034 30.6617 45.2057C31.1383 45.2122 31.6146 45.2223 32.0911 45.2344C32.6364 40.667 32.3467 36.0475 29.9648 32.0192C29.719 31.5913 29.6095 31.2704 29.5935 30.7837C29.5892 30.6971 29.5848 30.6106 29.5803 30.5214C29.7087 29.7823 30.274 29.3528 30.846 28.9306C30.9933 28.8183 31.1404 28.7057 31.2873 28.5928C31.3623 28.5352 31.4373 28.4776 31.5145 28.4183C32.1567 27.9156 32.768 27.3745 33.3802 26.8359C33.4888 26.7406 33.5974 26.6453 33.7093 26.5471C35.4456 24.9881 37.1889 23.3594 38.5364 21.4453C38.586 21.3763 38.6355 21.3072 38.6866 21.2361C39.3358 20.3261 39.8813 19.3904 40.367 18.3838C40.7292 17.6345 41.113 16.8963 41.4954 16.1572C41.5526 16.0466 41.5526 16.0466 41.6109 15.9338C42.1604 14.8714 42.7233 13.8172 43.3002 12.7695C43.7152 12.0144 44.1166 11.2532 44.513 10.4883C45.0275 9.49538 45.5566 8.51167 46.095 7.53157C46.5152 6.76441 46.9229 5.99141 47.3255 5.21483C47.8092 4.28328 48.2985 3.355 48.7976 2.43162C48.8857 2.26723 48.8857 2.26723 48.9755 2.09952C49.0305 1.99823 49.0856 1.89694 49.1423 1.79259C49.2145 1.65907 49.2145 1.65907 49.2882 1.52285C49.6517 0.943383 49.9236 0.871895 50.588 0.896742Z" fill="#404040"/>
<path d="M4.55089 0.921789C4.6694 0.921267 4.78792 0.920744 4.91004 0.920206C5.04002 0.920228 5.17001 0.920249 5.30393 0.920271C5.4422 0.919841 5.58047 0.91941 5.72293 0.918966C6.10686 0.917897 6.49078 0.917356 6.87471 0.917045C7.28876 0.916587 7.70281 0.915465 8.11686 0.914442C9.11693 0.912127 10.117 0.910946 11.1171 0.909904C11.5882 0.90939 12.0594 0.908761 12.5306 0.908147C14.0973 0.906154 15.6641 0.904455 17.2308 0.903606C17.6373 0.903383 18.0438 0.903157 18.4503 0.902928C18.5513 0.902872 18.6524 0.902815 18.7565 0.902756C20.3924 0.901784 22.0283 0.898816 23.6643 0.895009C25.3446 0.89113 27.025 0.889022 28.7053 0.888648C29.6484 0.888395 30.5916 0.887373 31.5347 0.884375C32.3381 0.881827 33.1414 0.88089 33.9448 0.882028C34.3544 0.882559 34.764 0.882345 35.1735 0.880063C35.6185 0.877988 36.0634 0.878819 36.5084 0.88036C36.6366 0.879075 36.7647 0.877789 36.8968 0.876465C38.0989 0.886483 39.1288 1.20782 40.0589 1.98625C40.9546 2.9011 41.2584 3.98642 41.2657 5.2399C41.2665 5.32482 41.2673 5.40974 41.2681 5.49723C41.2703 5.77467 41.2708 6.05207 41.2711 6.32952C41.2718 6.52383 41.2726 6.71813 41.2734 6.91244C41.2748 7.31816 41.2753 7.72387 41.2751 8.12959C41.2751 8.64896 41.2783 9.16826 41.2823 9.68761C41.2849 10.0882 41.2854 10.4889 41.2853 10.8895C41.2856 11.081 41.2866 11.2725 41.2884 11.464C41.2907 11.7316 41.29 11.999 41.2886 12.2666C41.289 12.4186 41.2893 12.5706 41.2896 12.7272C41.222 13.1914 41.0932 13.384 40.7629 13.711C40.408 13.8475 40.2348 13.8447 39.8694 13.7403C39.5813 13.5886 39.4322 13.5029 39.2395 13.2422C39.1959 12.877 39.1959 12.877 39.1963 12.4211C39.1956 12.2964 39.1956 12.2964 39.1949 12.1692C39.1942 11.9887 39.1942 11.8082 39.195 11.6277C39.196 11.3414 39.1948 11.0551 39.193 10.7688C39.1883 9.95481 39.1882 9.1408 39.1884 8.32677C39.1884 7.82865 39.1862 7.33058 39.1826 6.83248C39.1814 6.55152 39.1828 6.27065 39.1843 5.98969C39.204 4.72849 39.204 4.72849 38.6536 3.63283C37.9398 3.00374 37.2555 2.96325 36.3357 2.97328C36.1985 2.97245 36.0613 2.97161 35.92 2.97076C35.5413 2.96906 35.1627 2.96997 34.784 2.97201C34.3749 2.97359 33.9657 2.97177 33.5566 2.97039C32.7559 2.96824 31.9553 2.96924 31.1546 2.97134C30.5039 2.97299 29.8532 2.97344 29.2025 2.97305C29.1098 2.97299 29.0171 2.97294 28.9216 2.97288C28.7333 2.97276 28.545 2.97264 28.3567 2.97251C26.6926 2.9715 25.0286 2.97346 23.3645 2.97694C21.7502 2.98032 20.1358 2.98115 18.5214 2.97934C16.7627 2.97738 15.004 2.97691 13.2453 2.97896C13.0577 2.97918 12.8702 2.97939 12.6827 2.9796C12.5443 2.97976 12.5443 2.97976 12.4031 2.97993C11.7531 2.98058 11.1031 2.9802 10.4531 2.97942C9.66106 2.97852 8.86906 2.97931 8.07704 2.98226C7.67299 2.98372 7.26897 2.98444 6.86492 2.98313C6.42693 2.98211 5.98905 2.98397 5.55106 2.98658C5.42334 2.98562 5.29562 2.98465 5.16403 2.98365C4.45309 2.99148 4.03793 3.04021 3.49731 3.51564C3.00655 4.07273 2.89675 4.34965 2.89564 5.08757C2.89537 5.16599 2.89509 5.2444 2.89481 5.32518C2.89402 5.59051 2.89408 5.85584 2.89413 6.12117C2.89374 6.31229 2.8933 6.5034 2.89282 6.69452C2.89164 7.22174 2.89121 7.74896 2.8909 8.27617C2.89044 8.84399 2.88932 9.41181 2.8883 9.97963C2.88598 11.3519 2.8848 12.7242 2.88376 14.0965C2.88325 14.7422 2.88262 15.3879 2.882 16.0336C2.88001 18.1793 2.87831 20.325 2.87746 22.4706C2.87724 23.0277 2.87701 23.5848 2.87678 24.1419C2.87673 24.2804 2.87667 24.4188 2.87661 24.5615C2.87564 26.8056 2.87267 29.0497 2.86886 31.2938C2.86499 33.5961 2.86288 35.8984 2.8625 38.2008C2.86225 39.4941 2.86122 40.7874 2.85823 42.0808C2.85569 43.182 2.85474 44.2833 2.85588 45.3845C2.85642 45.9467 2.85619 46.5087 2.85392 47.0708C2.85186 47.5852 2.85196 48.0996 2.85379 48.614C2.85407 48.8003 2.85355 48.9866 2.85217 49.1728C2.8504 49.4258 2.85153 49.6786 2.85337 49.9316C2.85325 50.0722 2.85314 50.2128 2.85302 50.3576C2.94442 50.96 3.23836 51.3204 3.68774 51.7163C4.07847 51.994 4.27506 52.046 4.74825 52.047C4.86448 52.0475 4.98071 52.048 5.10046 52.0486C5.22909 52.0486 5.35772 52.0485 5.49025 52.0485C5.69413 52.0492 5.69413 52.0492 5.90213 52.0498C6.28059 52.0509 6.65904 52.0514 7.0375 52.0517C7.44524 52.0522 7.85297 52.0533 8.26071 52.0543C9.2461 52.0567 10.2315 52.0578 11.2169 52.0589C11.6808 52.0594 12.1447 52.06 12.6087 52.0606C14.1508 52.0626 15.6929 52.0643 17.235 52.0652C17.6353 52.0654 18.0356 52.0656 18.436 52.0659C18.5852 52.0659 18.5852 52.0659 18.7375 52.066C20.3491 52.067 21.9606 52.07 23.5722 52.0738C25.2264 52.0777 26.8807 52.0798 28.5349 52.0801C29.4638 52.0804 30.3927 52.0814 31.3217 52.0844C32.1129 52.087 32.9041 52.0879 33.6953 52.0868C34.0989 52.0862 34.5025 52.0865 34.9061 52.0887C35.344 52.0908 35.7818 52.09 36.2198 52.0884C36.3468 52.0897 36.4739 52.091 36.6048 52.0923C37.453 52.0851 38.13 51.9688 38.7561 51.3428C39.1009 50.6915 39.1553 50.1096 39.1544 49.39C39.1567 49.1968 39.1592 49.0036 39.1617 48.8104C39.1643 48.5083 39.1663 48.2061 39.1669 47.904C39.1681 47.6107 39.172 47.3175 39.1763 47.0243C39.1757 46.934 39.1751 46.8438 39.1745 46.7509C39.1822 46.3329 39.2049 46.0998 39.4632 45.7636C39.7289 45.571 39.8526 45.5223 40.177 45.5274C40.293 45.5256 40.293 45.5256 40.4114 45.5237C40.7704 45.6191 40.8907 45.7564 41.1145 46.0547C41.1853 46.4147 41.1802 46.77 41.1768 47.1359C41.1772 47.2417 41.1777 47.3476 41.1781 47.4566C41.1784 47.6806 41.1776 47.9046 41.1756 48.1285C41.1731 48.4681 41.1756 48.8074 41.1786 49.1469C41.1809 50.6739 41.0518 51.9373 39.9426 53.086C38.9193 53.9521 37.7906 54.1952 36.4763 54.1829C36.2975 54.1834 36.2975 54.1834 36.115 54.1838C35.7187 54.1844 35.3223 54.1825 34.9259 54.1806C34.6406 54.1805 34.3552 54.1805 34.0699 54.1807C33.4571 54.1808 32.8444 54.1798 32.2316 54.1778C31.3457 54.1749 30.4597 54.174 29.5738 54.1736C28.1362 54.1728 26.6985 54.1705 25.2609 54.1672C23.865 54.1639 22.4691 54.1614 21.0731 54.16C20.987 54.1599 20.9008 54.1598 20.8121 54.1597C20.3799 54.1592 19.9476 54.1588 19.5154 54.1583C15.9338 54.1547 12.3523 54.1485 8.77075 54.1406C8.78026 54.5778 8.79348 55.0147 8.80737 55.4517C8.81001 55.5753 8.81266 55.699 8.81538 55.8264C8.81954 55.9461 8.82369 56.0658 8.82797 56.1891C8.83257 56.3539 8.83257 56.3539 8.83727 56.522C8.9253 57.0675 9.15449 57.3564 9.58633 57.6892C10.1715 57.9924 10.7796 57.9555 11.4245 57.9502C11.5614 57.9509 11.6983 57.9516 11.8394 57.9524C12.2179 57.9539 12.5963 57.9534 12.9748 57.9519C13.3836 57.9509 13.7923 57.9525 14.2011 57.9538C15.0013 57.9559 15.8015 57.9554 16.6017 57.9541C17.2522 57.953 17.9027 57.9529 18.5532 57.9534C18.6921 57.9535 18.6921 57.9535 18.8339 57.9536C19.0221 57.9537 19.2103 57.9539 19.3985 57.954C21.1627 57.9554 22.927 57.9538 24.6912 57.9513C26.2043 57.9492 27.7173 57.9496 29.2304 57.9518C30.9882 57.9543 32.746 57.9552 34.5038 57.9538C34.6913 57.9537 34.8789 57.9535 35.0664 57.9534C35.1587 57.9533 35.2509 57.9532 35.346 57.9532C35.9955 57.9527 36.645 57.9534 37.2944 57.9545C38.0863 57.9558 38.8781 57.9555 39.6699 57.953C40.0738 57.9518 40.4776 57.9513 40.8814 57.9528C41.3196 57.9541 41.7577 57.9525 42.1958 57.9502C42.323 57.9512 42.4501 57.9523 42.581 57.9533C43.3152 57.9457 43.9087 57.8654 44.5129 57.4219C45.0446 56.7595 45.0466 56.1728 45.0345 55.3452C45.0346 55.2214 45.0347 55.0977 45.0348 54.9701C45.0347 54.7025 45.0335 54.4348 45.0315 54.1672C45.0283 53.7436 45.0283 53.3201 45.0292 52.8965C45.031 51.6925 45.027 50.4886 45.0215 49.2847C45.0184 48.5474 45.0186 47.8103 45.0209 47.073C45.021 46.7922 45.0198 46.5114 45.0172 46.2306C45.0135 45.8384 45.0142 45.4464 45.0157 45.0542C45.0136 44.9382 45.0114 44.8221 45.0092 44.7026C45.0183 43.9376 45.0183 43.9376 45.2484 43.6251C45.5403 43.3693 45.7809 43.2465 46.1609 43.169C46.6463 43.2722 46.792 43.4314 47.0911 43.8281C47.1782 44.2441 47.1711 44.6534 47.1669 45.0772C47.1684 45.2659 47.1684 45.2659 47.17 45.4585C47.1726 45.8747 47.1709 46.2908 47.1689 46.707C47.1693 46.9971 47.1698 47.2871 47.1706 47.5772C47.1714 48.1857 47.1702 48.7942 47.1674 49.4027C47.1641 50.1799 47.166 50.957 47.1695 51.7341C47.1717 52.3337 47.171 52.9331 47.1695 53.5326C47.1691 53.819 47.1696 54.1053 47.1709 54.3917C47.1823 57.4258 47.1823 57.4258 46.2501 58.711C45.4166 59.4912 44.6241 60.0134 43.4535 60.0157C43.3337 60.0163 43.2139 60.0168 43.0905 60.0173C42.959 60.0173 42.8276 60.0173 42.6922 60.0173C42.4825 60.0179 42.4825 60.0179 42.2686 60.0186C41.8804 60.0196 41.4923 60.0202 41.1041 60.0205C40.6855 60.021 40.2669 60.0221 39.8483 60.0231C38.8373 60.0254 37.8263 60.0266 36.8153 60.0276C36.339 60.0281 35.8627 60.0288 35.3864 60.0294C33.8029 60.0314 32.2194 60.0331 30.6359 60.0339C30.225 60.0342 29.8142 60.0344 29.4033 60.0346C29.3012 60.0347 29.1991 60.0347 29.0939 60.0348C27.44 60.0358 25.7862 60.0387 24.1324 60.0425C22.4339 60.0464 20.7354 60.0485 19.0369 60.0489C18.0835 60.0491 17.1301 60.0502 16.1767 60.0532C15.3647 60.0557 14.5526 60.0566 13.7406 60.0555C13.3265 60.055 12.9125 60.0552 12.4984 60.0575C12.0488 60.0599 11.5992 60.0587 11.1495 60.0572C10.9547 60.0591 10.9547 60.0591 10.756 60.0611C9.59226 60.0515 8.66605 59.7524 7.81219 58.9435C6.80596 57.8466 6.62202 56.8189 6.64673 55.3711C6.64778 55.2524 6.64884 55.1336 6.64993 55.0113C6.65267 54.7211 6.65651 54.4309 6.66137 54.1406C6.58648 54.1431 6.51158 54.1456 6.43441 54.1481C3.32174 54.2368 3.32174 54.2368 2.04712 53.1885C1.38478 52.5525 0.82817 51.6909 0.786905 50.7494C0.786695 50.607 0.786486 50.4647 0.78627 50.3181C0.785994 50.2385 0.785718 50.1589 0.785434 50.0769C0.78465 49.8082 0.784704 49.5396 0.784752 49.2709C0.784366 49.0771 0.783929 48.8834 0.783446 48.6896C0.782271 48.1555 0.781836 47.6214 0.781526 47.0874C0.781069 46.512 0.779946 45.9366 0.778923 45.3611C0.776605 43.9707 0.775426 42.5802 0.774384 41.1897C0.773871 40.5351 0.773242 39.8805 0.772628 39.2259C0.770634 37.0502 0.768936 34.8744 0.768087 32.6987C0.767863 32.1339 0.767638 31.5691 0.767409 31.0043C0.767352 30.8639 0.767295 30.7236 0.767237 30.5789C0.766264 28.3048 0.763295 26.0308 0.759489 23.7567C0.755615 21.4226 0.753503 19.0884 0.753128 16.7543C0.752875 15.4436 0.751848 14.1328 0.748856 12.822C0.746313 11.7057 0.745368 10.5894 0.746508 9.47301C0.747041 8.90349 0.746817 8.33399 0.744544 7.76446C0.74248 7.24274 0.742593 6.72106 0.744415 6.19934C0.744694 6.01093 0.744185 5.82252 0.742794 5.63412C0.732155 4.09695 0.950885 3.03438 2.03109 1.89882C2.75679 1.26229 3.58977 0.923757 4.55089 0.921789Z" fill="#404040"/>
<path d="M46.1536 41.25C46.1536 41.9074 46.1536 42.5648 46.1536 43.2422C45.9216 43.3582 45.6895 43.4742 45.4505 43.5937C45.1963 43.8002 45.1963 43.8002 45.187 44.0538C45.1872 44.193 45.1872 44.193 45.1874 44.3349C45.1869 44.4414 45.1865 44.5478 45.186 44.6575C45.1867 44.7746 45.1873 44.8917 45.188 45.0124C45.1878 45.1355 45.1875 45.2586 45.1873 45.3855C45.1869 45.6536 45.187 45.9217 45.1875 46.1898C45.1882 46.6145 45.1871 47.039 45.1855 47.4637C45.1811 48.6712 45.179 49.8787 45.1803 51.0863C45.181 51.8244 45.1788 52.5624 45.1749 53.3005C45.174 53.5817 45.1741 53.8629 45.1754 54.144C45.1771 54.5382 45.1752 54.9321 45.1725 55.3263C45.1738 55.442 45.1752 55.5577 45.1766 55.6769C45.168 56.3242 45.0686 56.7794 44.7301 57.333C43.987 58.0381 43.1793 58.0756 42.1966 58.0681C42.0596 58.0689 41.9226 58.0698 41.7815 58.0706C41.4033 58.0724 41.0251 58.072 40.6469 58.0708C40.2382 58.07 39.8295 58.0719 39.4208 58.0734C38.621 58.0759 37.8212 58.0759 37.0214 58.075C36.3713 58.0742 35.7211 58.0743 35.071 58.0751C34.9784 58.0752 34.8857 58.0753 34.7903 58.0754C34.6021 58.0756 34.414 58.0759 34.2258 58.0761C32.4623 58.078 30.6989 58.077 28.9354 58.075C27.3228 58.0733 25.7101 58.075 24.0975 58.0784C22.4405 58.0818 20.7836 58.0831 19.1267 58.082C18.9392 58.0819 18.7518 58.0818 18.5643 58.0817C18.426 58.0816 18.426 58.0816 18.2848 58.0815C17.6356 58.0812 16.9864 58.0824 16.3373 58.0841C15.5458 58.0861 14.7544 58.0861 13.963 58.0835C13.5594 58.0822 13.1559 58.0818 12.7523 58.084C12.3143 58.0858 11.8766 58.0841 11.4386 58.0814C11.3116 58.0828 11.1846 58.0842 11.0537 58.0856C10.2852 58.0762 9.69301 57.9683 9.12233 57.4219C8.81352 56.9983 8.7277 56.7104 8.73643 56.1891C8.73757 56.0694 8.7387 55.9497 8.73987 55.8263C8.74281 55.7027 8.74576 55.5791 8.74879 55.4517C8.75038 55.3257 8.75196 55.1998 8.7536 55.0701C8.75773 54.7602 8.76351 54.4505 8.77077 54.1406C8.99291 54.1402 8.99291 54.1402 9.21954 54.1398C12.7375 54.133 16.2554 54.1245 19.7733 54.1138C20.2066 54.1125 20.6399 54.1112 21.0732 54.1099C21.1594 54.1096 21.2457 54.1094 21.3345 54.1091C22.73 54.1049 24.1254 54.102 25.5209 54.0996C26.9535 54.097 28.386 54.0931 29.8186 54.088C30.7021 54.0849 31.5856 54.0829 32.4691 54.0821C33.1473 54.0814 33.8255 54.0789 34.5037 54.0757C34.7814 54.0746 35.0591 54.0742 35.3367 54.0744C35.7166 54.0746 36.0964 54.0726 36.4763 54.0702C36.6401 54.071 36.6401 54.071 36.8072 54.0719C37.9951 54.0591 39.0292 53.7422 39.9426 52.9687C40.8164 52.0645 41.0534 51.0374 41.0358 49.8093C41.0356 49.7023 41.0353 49.5954 41.0351 49.4853C41.0343 49.2613 41.0327 49.0374 41.0303 48.8135C41.0266 48.4702 41.0255 48.127 41.0248 47.7837C41.0237 47.5653 41.0225 47.347 41.0211 47.1286C41.0204 46.9748 41.0204 46.9748 41.0196 46.8179C41.0185 46.7228 41.0174 46.6277 41.0162 46.5297C41.0154 46.4462 41.0146 46.3627 41.0138 46.2767C41.0045 46.0283 41.0045 46.0283 40.8801 45.7031C40.5321 45.6645 40.184 45.6258 39.8255 45.5859C39.9995 45.5279 39.9995 45.5279 40.177 45.4687C40.177 44.6566 40.177 43.8445 40.177 43.0078C44.1601 41.1076 44.1601 41.1076 46.1536 41.25Z" fill="#9D9D9D"/>
<path d="M40.9972 21.3281C41.4647 21.3997 41.8238 21.5474 42.2419 21.7662C42.3695 21.8326 42.4972 21.899 42.6287 21.9675C42.7646 22.0393 42.9006 22.1111 43.0407 22.1851C43.1832 22.2597 43.3257 22.3343 43.4683 22.4088C44.4481 22.9225 45.421 23.4486 46.3904 23.9816C47.5135 24.5984 48.6491 25.191 49.7863 25.7812C49.7221 26.3305 49.5604 26.8097 49.3731 27.3255C48.0287 31.0682 47.3619 35.1749 47.2082 39.1406C47.1246 39.1511 47.041 39.1617 46.9549 39.1725C43.1653 39.661 39.4825 40.7331 36.4269 43.125C36.3496 43.0863 36.2722 43.0477 36.1926 43.0078C36.4753 42.4535 36.7586 41.8994 37.0423 41.3456C37.1383 41.1579 37.2342 40.9702 37.33 40.7824C37.9372 39.5919 38.5637 38.4188 39.2394 37.2656C39.3443 37.2693 39.4492 37.2729 39.5573 37.2767C40.8755 37.3155 41.9766 37.1034 42.9894 36.2109C43.2699 35.8803 43.4877 35.5377 43.6926 35.1562C43.7324 35.0842 43.7723 35.0121 43.8134 34.9379C44.2283 34.0409 44.1924 32.8841 43.8757 31.9629C43.3991 30.9424 42.6279 30.1729 41.5832 29.7656C40.6601 29.4621 39.3311 29.4785 38.4557 29.9048C38.284 30.0094 38.115 30.1188 37.9504 30.2344C37.7618 30.3613 37.7618 30.3613 37.5695 30.4907C36.6265 31.4551 36.3891 32.3941 36.3725 33.713C36.3887 34.5352 36.6673 35.1805 37.1301 35.8594C37.1982 35.9178 37.2663 35.9763 37.3365 36.0365C37.3844 36.0941 37.4323 36.1516 37.4816 36.2109C37.4306 36.6343 37.3025 36.9539 37.0948 37.3233C37.0389 37.424 36.9829 37.5248 36.9253 37.6286C36.8648 37.736 36.8042 37.8434 36.7419 37.9541C36.6145 38.1835 36.4874 38.413 36.3606 38.6426C36.2947 38.7618 36.2288 38.881 36.1609 39.0038C35.8211 39.626 35.4939 40.2546 35.1672 40.8838C35.0749 41.0614 35.0749 41.0614 34.9807 41.2426C34.8376 41.5184 34.6946 41.7943 34.5519 42.0703C34.5133 42.0703 34.4746 42.0703 34.4347 42.0703C34.4295 41.9736 34.4242 41.877 34.4188 41.7773C34.2891 39.2088 34.2891 39.2088 33.8488 36.6797C33.8303 36.5965 33.8118 36.5132 33.7927 36.4275C33.4155 34.7352 32.851 33.022 31.934 31.5399C31.7394 31.1719 31.7394 31.1719 31.7655 30.9343C31.9231 30.5343 32.2788 30.3021 32.6037 30.0366C32.6783 29.9741 32.7528 29.9116 32.8296 29.8472C33.2577 29.4897 33.692 29.1404 34.1271 28.7915C36.0229 27.2493 37.8556 25.4842 39.3566 23.5547C39.4692 23.4133 39.582 23.272 39.6949 23.1308C39.8117 22.9841 39.9284 22.8373 40.0451 22.6904C40.1268 22.5879 40.1268 22.5879 40.2102 22.4833C40.5023 22.1123 40.7648 21.7392 40.9972 21.3281Z" fill="#FDDA00"/>
<path d="M50.9583 2.69531C51.4262 2.90867 51.7146 3.21465 52.0496 3.59619C52.1643 3.72434 52.2792 3.85237 52.3943 3.98026C52.4496 4.04187 52.5049 4.10348 52.5619 4.16697C52.7532 4.37667 52.9525 4.57697 53.1555 4.77539C53.4262 5.04092 53.6779 5.31511 53.9246 5.60303C54.2484 5.9793 54.5894 6.33078 54.9426 6.67969C55.3628 7.0948 55.757 7.52057 56.1406 7.96921C56.4589 8.32668 56.8024 8.65769 57.1431 8.99368C57.5222 9.37813 57.8749 9.78353 58.2239 10.1953C57.6989 11.2785 57.1344 12.3361 56.5548 13.3908C56.1243 14.176 55.706 14.9666 55.2942 15.7617C54.8382 16.6417 54.3727 17.5153 53.8953 18.3838C53.3118 19.4455 52.7492 20.5171 52.1926 21.5931C51.7506 22.4471 51.3023 23.2969 50.8411 24.1406C50.1905 23.956 49.64 23.6486 49.054 23.3203C48.2245 22.8612 47.3922 22.409 46.5536 21.9667C46.4664 21.9207 46.3792 21.8747 46.2893 21.8273C45.9388 21.6425 45.5883 21.458 45.2375 21.2739C44.1997 20.7294 43.1753 20.1721 42.1692 19.5703C42.2398 19.1035 42.3866 18.7546 42.6123 18.3412C42.681 18.2144 42.7496 18.0876 42.8204 17.9569C42.8758 17.8557 42.8758 17.8557 42.9324 17.7525C43.0917 17.4619 43.2493 17.1704 43.4071 16.879C43.4908 16.7244 43.5746 16.5699 43.6585 16.4154C44.0826 15.6344 44.4992 14.8495 44.9152 14.0642C45.5761 12.8167 46.2403 11.571 46.908 10.3271C47.7864 8.69025 48.6555 7.04849 49.5237 5.4061C50.0014 4.50226 50.4798 3.59879 50.9583 2.69531Z" fill="#3E50B4"/>
<path d="M4.20044 2.9297C8.45417 2.91629 12.7079 2.90596 16.9616 2.89978C17.4639 2.89904 17.9661 2.89829 18.4684 2.89751C18.6183 2.89728 18.6183 2.89728 18.7713 2.89705C20.3901 2.8945 22.0089 2.88988 23.6277 2.88449C25.2888 2.87901 26.9499 2.87576 28.611 2.87457C29.636 2.87376 30.6609 2.87123 31.6858 2.86647C32.3887 2.86337 33.0916 2.86243 33.7946 2.86319C34.2001 2.86357 34.6055 2.863 35.011 2.85985C35.451 2.85694 35.8909 2.85764 36.3309 2.85924C36.4586 2.85753 36.5863 2.85582 36.7178 2.85406C37.5049 2.86181 38.052 2.9886 38.6536 3.51564C39.1521 4.15474 39.254 4.6019 39.258 5.40071C39.2586 5.48478 39.2592 5.56884 39.2598 5.65546C39.261 5.83789 39.262 6.02032 39.2628 6.20274C39.2642 6.49134 39.2665 6.77992 39.2691 7.06851C39.2763 7.88899 39.2826 8.70946 39.2865 9.52996C39.289 10.0319 39.2931 10.5338 39.2983 11.0356C39.3 11.227 39.301 11.4184 39.3014 11.6098C39.302 11.8772 39.3047 12.1444 39.3079 12.4118C39.3088 12.564 39.3098 12.7162 39.3107 12.8731C39.3274 13.2349 39.3274 13.2349 39.5062 13.4626C39.729 13.6072 39.9163 13.666 40.177 13.7109C40.1945 14.4384 40.2072 15.1656 40.2156 15.8932C40.2191 16.1402 40.2239 16.3871 40.23 16.6341C40.2926 19.2259 40.2926 19.2259 39.4739 20.2734C39.3815 20.4155 39.2896 20.5578 39.1983 20.7005C38.0471 22.3047 36.7551 23.7171 35.365 25.1148C35.3 25.1804 35.235 25.246 35.1681 25.3136C34.4227 26.0644 33.6691 26.7757 32.8386 27.4328C32.5652 27.652 32.3054 27.881 32.0471 28.1177C31.5533 28.5649 31.0291 28.9645 30.4903 29.3554C30.0481 29.6844 29.811 29.9253 29.6997 30.4656C29.6681 31.1694 29.8797 31.5963 30.2335 32.1941C32.3661 35.9689 32.9255 40.6367 32.2083 44.8828C32.1696 44.9988 32.1309 45.1149 32.0911 45.2344C31.4723 45.2344 30.8536 45.2344 30.2161 45.2344C30.2245 45.0931 30.233 44.9519 30.2417 44.8064C30.3517 42.8004 30.3451 40.7973 30.3333 38.7891C30.2277 38.8842 30.1221 38.9794 30.0133 39.0774C29.4082 39.5067 28.7873 39.4571 28.0692 39.4487C27.9312 39.449 27.7933 39.4493 27.6512 39.4496C27.3607 39.4495 27.0701 39.4479 26.7796 39.445C26.3349 39.4409 25.8904 39.4425 25.4457 39.4448C25.163 39.444 24.8802 39.4429 24.5975 39.4414C24.4646 39.442 24.3318 39.4426 24.195 39.4431C23.2756 39.4294 23.2756 39.4294 22.8109 39.1511C22.5577 38.8587 22.4891 38.7271 22.4377 38.3423C22.4837 37.9513 22.5623 37.7734 22.8496 37.5048C23.3473 37.2263 23.9602 37.3054 24.5142 37.3132C24.655 37.3132 24.7958 37.3132 24.941 37.3132C25.2384 37.3139 25.5359 37.3159 25.8334 37.3193C26.2886 37.3242 26.7437 37.3241 27.1989 37.3233C27.4881 37.3245 27.7773 37.3261 28.0664 37.3279C28.2025 37.3279 28.3386 37.3279 28.4789 37.328C28.6695 37.3308 28.6695 37.3308 28.8641 37.3336C28.9755 37.3346 29.0869 37.3356 29.2017 37.3366C29.5683 37.391 29.7954 37.5267 30.0989 37.7344C29.6565 35.5875 29.0994 33.7154 28.0189 31.8024C27.8223 31.4479 27.6564 31.1312 27.561 30.7361C27.6823 30.3144 27.993 30.1054 28.3264 29.8462C28.4306 29.7617 28.4306 29.7617 28.5369 29.6755C28.7437 29.5084 28.9522 29.3437 29.1614 29.1797C29.3616 29.0211 29.5618 28.8624 29.762 28.7036C29.855 28.6299 29.9481 28.5562 30.0439 28.4802C30.4735 28.1268 30.8816 27.7514 31.29 27.3738C31.544 27.1418 31.8007 26.9161 32.0613 26.6918C33.32 25.5934 34.5973 24.3871 35.5994 23.0457C35.7875 22.8034 35.9679 22.6062 36.1853 22.3938C37.4583 21.0546 37.2976 19.3865 37.257 17.6493C37.2538 17.5485 37.2506 17.4477 37.2473 17.3438C37.1387 17.4006 37.0301 17.4574 36.9182 17.5159C36.5047 17.7143 36.2922 17.7721 35.8411 17.6953C35.2119 17.1933 34.9034 16.5092 34.5374 15.8057C34.4038 15.5538 34.27 15.302 34.1359 15.0504C34.0689 14.9245 34.0019 14.7986 33.9328 14.6689C33.4579 13.7904 32.9478 12.9317 32.4426 12.0703C32.441 12.2894 32.441 12.2894 32.4393 12.5128C32.4346 13.0556 32.4269 13.5983 32.4183 14.141C32.415 14.3757 32.4125 14.6104 32.4109 14.8451C32.4084 15.1829 32.4029 15.5206 32.3968 15.8583C32.3967 15.963 32.3966 16.0676 32.3964 16.1754C32.385 16.664 32.3666 16.9267 32.1012 17.3487C31.8051 17.6265 31.69 17.688 31.2854 17.7319C30.9192 17.6953 30.9192 17.6953 30.6482 17.4756C30.2918 17.0268 30.3138 16.6564 30.3106 16.1035C30.3092 15.966 30.3092 15.966 30.3077 15.8257C30.3048 15.5217 30.3029 15.2176 30.3012 14.9135C30.3006 14.8097 30.3 14.7059 30.2993 14.599C30.2962 14.0497 30.2939 13.5005 30.2922 12.9512C30.2903 12.3837 30.285 11.8163 30.2791 11.2489C30.2751 10.8127 30.2738 10.3765 30.2731 9.94024C30.2723 9.73105 30.2705 9.52188 30.2677 9.31271C30.264 9.0198 30.264 8.7271 30.2649 8.43416C30.2629 8.34788 30.261 8.2616 30.259 8.1727C30.2646 7.71676 30.3204 7.51647 30.6049 7.15323C30.9192 6.91407 30.9192 6.91407 31.3293 6.84083C31.8309 6.9304 32.0272 7.10819 32.3254 7.50001C32.6075 7.9653 32.8582 8.44561 33.1091 8.92823C33.2437 9.18391 33.3784 9.43949 33.5133 9.69499C33.5832 9.82753 33.653 9.96006 33.725 10.0966C34.1826 10.957 34.6623 11.8057 35.1379 12.6563C35.1384 12.5031 35.1389 12.35 35.1394 12.1922C35.142 11.6233 35.1483 11.0544 35.1558 10.4855C35.1585 10.2394 35.1602 9.99329 35.1609 9.7472C35.1619 9.3931 35.1667 9.03922 35.1723 8.68516C35.1718 8.5754 35.1714 8.46564 35.1709 8.35255C35.1828 7.81976 35.1997 7.57387 35.5276 7.13663C35.9392 6.84438 36.166 6.84331 36.6614 6.91407C36.8598 7.02585 37.0558 7.14233 37.2473 7.26564C37.2446 6.80162 37.2355 6.33794 37.2253 5.87403C37.2247 5.74412 37.224 5.61421 37.2233 5.48036C37.2199 5.35195 37.2165 5.22355 37.213 5.09126C37.2111 4.97466 37.2093 4.85806 37.2074 4.73792C37.1194 4.18253 37.1194 4.18253 36.5442 3.16407C20.534 3.10607 20.534 3.10607 4.20044 3.04689C4.20044 3.00821 4.20044 2.96954 4.20044 2.9297Z" fill="#CCD4D8"/>
<path d="M17.2807 7.29676C18.5367 8.21099 19.1567 9.50421 19.4931 10.9882C19.6835 12.2107 19.5823 13.3595 19.2006 14.5313C19.1693 14.6323 19.138 14.7334 19.1058 14.8375C18.7381 15.8884 18.0694 16.8138 17.0825 17.3561C16.282 17.728 15.4003 17.8863 14.5538 17.5845C13.2122 16.943 12.5255 16.0401 12.0155 14.6631C11.4333 12.978 11.4633 10.8603 12.2252 9.2418C12.7408 8.28475 13.4046 7.51349 14.3959 7.03126C15.3977 6.7919 16.3712 6.77619 17.2807 7.29676Z" fill="#404040"/>
<path d="M31.3293 6.84082C31.8309 6.93039 32.0272 7.10818 32.3254 7.5C32.6075 7.96529 32.8582 8.4456 33.1091 8.92822C33.2437 9.1839 33.3784 9.43948 33.5133 9.69498C33.5832 9.82751 33.653 9.96005 33.725 10.0966C34.1826 10.957 34.6623 11.8057 35.1379 12.6562C35.1384 12.5031 35.1389 12.35 35.1394 12.1922C35.1419 11.6233 35.1483 11.0544 35.1558 10.4854C35.1585 10.2394 35.1602 9.99328 35.1608 9.74719C35.1619 9.39309 35.1667 9.03921 35.1723 8.68515C35.1716 8.52051 35.1716 8.52051 35.1709 8.35254C35.1827 7.8202 35.1997 7.57397 35.5272 7.13708C35.939 6.84447 36.1665 6.83308 36.6614 6.91406C36.9385 7.13286 37.0903 7.3032 37.2473 7.61719C37.2606 7.91085 37.267 8.20133 37.268 8.49509C37.2692 8.63089 37.2692 8.63089 37.2704 8.76943C37.2727 9.06971 37.2741 9.36998 37.2752 9.67026C37.2757 9.77274 37.2762 9.87523 37.2767 9.98082C37.2791 10.5232 37.2808 11.0657 37.2819 11.6081C37.2832 12.1685 37.2872 12.7288 37.2919 13.2892C37.2949 13.7199 37.2959 14.1507 37.2963 14.5815C37.2969 14.7881 37.2983 14.9946 37.3004 15.2012C37.3033 15.4904 37.3032 15.7795 37.3024 16.0688C37.3039 16.154 37.3054 16.2392 37.3069 16.3269C37.3011 16.8933 37.1808 17.1808 36.7786 17.5781C36.44 17.7474 36.2165 17.7395 35.8411 17.6953C35.2101 17.1974 34.9026 16.5077 34.5373 15.8057C34.4038 15.5538 34.27 15.302 34.1359 15.0504C34.0354 14.8615 34.0354 14.8615 33.9328 14.6689C33.4578 13.7903 32.9478 12.9317 32.4426 12.0703C32.4415 12.2163 32.4404 12.3624 32.4393 12.5128C32.4346 13.0556 32.4269 13.5983 32.4183 14.141C32.415 14.3757 32.4125 14.6104 32.4109 14.8451C32.4083 15.1829 32.4029 15.5206 32.3968 15.8583C32.3966 16.0153 32.3966 16.0153 32.3964 16.1754C32.3849 16.6639 32.3666 16.9267 32.1012 17.3487C31.8051 17.6265 31.69 17.688 31.2854 17.7319C30.9192 17.6953 30.9192 17.6953 30.6482 17.4756C30.2918 17.0268 30.3138 16.6564 30.3106 16.1035C30.3097 16.0118 30.3087 15.9202 30.3077 15.8257C30.3048 15.5216 30.3029 15.2176 30.3012 14.9135C30.3006 14.8097 30.2999 14.7059 30.2993 14.599C30.2962 14.0497 30.2939 13.5005 30.2922 12.9512C30.2903 12.3837 30.285 11.8163 30.279 11.2489C30.2751 10.8126 30.2737 10.3765 30.2731 9.94022C30.2723 9.73104 30.2705 9.52187 30.2677 9.3127C30.264 9.01979 30.264 8.72709 30.2649 8.43415C30.2629 8.34787 30.261 8.26158 30.259 8.17269C30.2646 7.71675 30.3203 7.51646 30.6048 7.15322C30.9192 6.91406 30.9192 6.91406 31.3293 6.84082Z" fill="#404040"/>
<path d="M19.4805 43.5443C20.1507 43.8346 20.5806 44.3888 20.9581 45C20.9581 45.0774 20.9581 45.1547 20.9581 45.2344C21.0681 45.2313 21.178 45.2283 21.2912 45.2251C21.7014 45.2151 22.1114 45.2078 22.5217 45.2022C22.6988 45.1993 22.8759 45.1953 23.0529 45.1902C23.3084 45.183 23.5636 45.1798 23.8192 45.1772C24.0493 45.1726 24.0493 45.1726 24.2841 45.1679C24.841 45.2552 25.0232 45.4184 25.4113 45.8203C25.4845 46.1719 25.4845 46.1719 25.4113 46.5235C25.2003 46.8399 25.0499 47.0557 24.7081 47.2266C24.1356 47.2599 23.563 47.2634 22.9896 47.2676C22.7986 47.2696 22.6077 47.2727 22.4168 47.2772C20.4898 47.3223 20.4898 47.3223 19.8292 46.7962C19.7764 46.7449 19.7235 46.6936 19.6691 46.6407C19.5908 46.5666 19.5126 46.4926 19.432 46.4164C19.3797 46.3502 19.3274 46.284 19.2736 46.2159C19.1925 46.1157 19.1925 46.1157 19.1097 46.0135C18.9777 45.8362 18.8542 45.6527 18.7316 45.4688C18.4469 45.5131 18.2995 45.5457 18.1024 45.7621C18.0318 45.8734 18.0318 45.8734 17.9598 45.987C17.9063 46.0685 17.8528 46.1501 17.7977 46.2342C17.7162 46.3629 17.7162 46.3629 17.633 46.4942C17.1587 47.2391 16.672 47.9655 15.8019 48.2813C15.0724 48.3911 14.4429 48.3748 13.8097 47.9737C13.0591 47.3924 12.7805 46.7063 12.5206 45.8203C12.2426 45.8248 12.2426 45.8248 11.9347 45.9375C11.8622 46.0463 11.7897 46.1551 11.715 46.2671C11.3817 46.7671 11.0153 46.9859 10.4385 47.1786C9.82699 47.2908 9.19201 47.2578 8.57155 47.2612C8.39686 47.2625 8.22218 47.2649 8.04752 47.2684C7.7943 47.2734 7.54122 47.2753 7.28795 47.2765C7.1369 47.2782 6.98584 47.2799 6.83022 47.2817C6.35835 47.2172 6.16863 47.0981 5.84096 46.7578C5.71645 46.355 5.71645 46.355 5.72377 45.9375C5.93077 45.6092 6.07891 45.4084 6.4269 45.2344C6.69378 45.2246 6.96092 45.2217 7.22798 45.222C7.39064 45.2205 7.5533 45.2187 7.71596 45.2168C7.9724 45.2141 8.22866 45.2124 8.48512 45.2139C8.73272 45.2149 8.97994 45.2115 9.22749 45.2074C9.37574 45.2069 9.52399 45.2064 9.67673 45.2059C10.0905 45.152 10.0905 45.152 10.3328 44.7721C10.3974 44.6539 10.4619 44.5358 10.5285 44.4141C10.7413 44.2214 10.7413 44.2214 10.9459 44.0845C11.0138 44.0378 11.0816 43.9911 11.1515 43.9431C11.69 43.6294 12.2698 43.6218 12.8722 43.711C13.5983 44.0103 14.1615 44.4004 14.5128 45.1172C14.6437 45.4652 14.7598 45.8152 14.8644 46.1719C15.1389 46.1784 15.1389 46.1784 15.4503 46.0547C15.6643 45.7758 15.8428 45.5122 16.0216 45.2124C16.8883 43.8329 17.7661 43.1297 19.4805 43.5443Z" fill="#404040"/>
<path d="M24.8254 6.91409C25.3329 7.32471 25.5518 7.7526 25.7468 8.36033C25.7755 8.44483 25.8042 8.52932 25.8337 8.61637C25.9274 8.89404 26.0185 9.17247 26.1095 9.45101C26.1742 9.6453 26.239 9.83955 26.304 10.0338C26.4395 10.4402 26.5739 10.8471 26.7073 11.2543C26.878 11.7749 27.0513 12.2947 27.2255 12.8142C27.3596 13.215 27.4925 13.6163 27.6251 14.0176C27.6885 14.2094 27.7523 14.401 27.8164 14.5926C27.906 14.8608 27.9939 15.1295 28.0814 15.3985C28.1211 15.5159 28.1211 15.5159 28.1617 15.6358C28.3235 16.1405 28.3858 16.5805 28.3411 17.1094C28.054 17.5063 27.8883 17.6704 27.4036 17.7613C26.9337 17.6732 26.7825 17.593 26.4661 17.2266C26.3114 16.7625 26.1567 16.2985 25.9973 15.8203C24.9532 15.7817 23.909 15.743 22.8333 15.7031C22.7172 16.1285 22.6012 16.5539 22.4817 16.9922C22.2616 17.3256 22.1322 17.5185 21.7786 17.6953C21.4417 17.732 21.4417 17.732 21.0754 17.6953C20.8056 17.4765 20.6444 17.302 20.4895 16.9922C20.5246 15.9748 20.8692 15.0497 21.1913 14.0946C21.2505 13.9168 21.3096 13.739 21.3687 13.5611C21.4922 13.19 21.6165 12.8191 21.7413 12.4483C21.9007 11.975 22.0582 11.5012 22.2153 11.0271C22.337 10.6604 22.4596 10.2939 22.5824 9.92748C22.6408 9.75292 22.699 9.57829 22.7569 9.40357C22.8381 9.15883 22.9205 8.9145 23.0032 8.67024C23.0497 8.5316 23.0962 8.39295 23.1441 8.25011C23.5084 7.3306 23.7433 6.80404 24.8254 6.91409Z" fill="#404040"/>
<path d="M6.66667 32.387C6.79726 32.3861 6.92784 32.3853 7.06239 32.3844C7.49396 32.3824 7.92539 32.3847 8.35696 32.3872C8.65687 32.3871 8.95677 32.3868 9.25668 32.3864C9.8852 32.386 10.5137 32.3877 11.1422 32.391C11.8681 32.3947 12.594 32.3947 13.3199 32.3927C14.0191 32.3908 14.7183 32.3916 15.4176 32.3936C15.7147 32.3942 16.0119 32.3942 16.3091 32.3935C16.7243 32.3928 17.1394 32.3952 17.5546 32.3984C17.7391 32.3973 17.7391 32.3973 17.9273 32.3961C18.4443 32.4029 18.7618 32.4102 19.215 32.674C19.5244 33.0338 19.5603 33.2791 19.552 33.75C19.3075 34.1516 19.18 34.3037 18.7317 34.4531C18.5502 34.4648 18.3681 34.4699 18.1862 34.4711C18.0742 34.4722 17.9621 34.4732 17.8467 34.4742C17.6626 34.4749 17.6626 34.4749 17.4748 34.4757C17.3453 34.4767 17.2159 34.4776 17.0826 34.4786C16.6536 34.4815 16.2246 34.4835 15.7956 34.4852C15.5761 34.4861 15.5761 34.4861 15.3522 34.487C14.7373 34.4895 14.1225 34.4918 13.5077 34.4931C12.627 34.495 11.7465 34.4989 10.8659 34.5056C10.1717 34.5106 9.47747 34.5125 8.78324 34.5133C8.48804 34.5141 8.19284 34.5158 7.89765 34.5186C7.48493 34.5223 7.07236 34.5224 6.65963 34.5215C6.47624 34.5244 6.47624 34.5244 6.28914 34.5273C5.73338 34.5225 5.46116 34.5185 5.00349 34.1815C4.71552 33.7645 4.69768 33.5437 4.7864 33.0469C5.28995 32.3171 5.85438 32.3779 6.66667 32.387Z" fill="#404040"/>
<path d="M6.66667 22.5432C6.79726 22.5424 6.92784 22.5415 7.06239 22.5407C7.49396 22.5387 7.92539 22.541 8.35696 22.5435C8.65687 22.5434 8.95677 22.5431 9.25668 22.5426C9.8852 22.5423 10.5137 22.5439 11.1422 22.5472C11.8681 22.551 12.594 22.551 13.3199 22.549C14.0191 22.5471 14.7183 22.5479 15.4176 22.5499C15.7147 22.5505 16.0119 22.5504 16.3091 22.5497C16.7243 22.5491 17.1394 22.5514 17.5546 22.5547C17.7391 22.5535 17.7391 22.5535 17.9273 22.5523C18.4443 22.5591 18.7618 22.5665 19.215 22.8303C19.5244 23.1901 19.5603 23.4354 19.552 23.9062C19.3075 24.3079 19.18 24.4599 18.7317 24.6094C18.5502 24.621 18.3681 24.6262 18.1862 24.6274C18.0742 24.6284 17.9621 24.6294 17.8467 24.6304C17.6626 24.6312 17.6626 24.6312 17.4748 24.632C17.3453 24.6329 17.2159 24.6339 17.0826 24.6349C16.6536 24.6378 16.2246 24.6397 15.7956 24.6414C15.5761 24.6423 15.5761 24.6423 15.3522 24.6433C14.7373 24.6458 14.1225 24.648 13.5077 24.6493C12.627 24.6512 11.7465 24.6551 10.8659 24.6618C10.1717 24.6669 9.47747 24.6688 8.78324 24.6695C8.48804 24.6703 8.19284 24.6721 7.89765 24.6749C7.48493 24.6786 7.07236 24.6786 6.65963 24.6777C6.47624 24.6806 6.47624 24.6806 6.28914 24.6836C5.73338 24.6788 5.46116 24.6748 5.00349 24.3378C4.71552 23.9208 4.69768 23.6999 4.7864 23.2031C5.28995 22.4733 5.85438 22.5342 6.66667 22.5432Z" fill="#404040"/>
<path d="M6.65591 27.467C6.78536 27.4663 6.9148 27.4657 7.04817 27.465C7.47594 27.4636 7.90356 27.4664 8.33132 27.4695C8.6286 27.4697 8.92588 27.4697 9.22316 27.4695C9.84616 27.4697 10.4691 27.4718 11.0921 27.4755C11.8116 27.4799 12.5311 27.4809 13.2507 27.4801C13.9438 27.4793 14.6368 27.4806 15.3299 27.4829C15.6245 27.4837 15.919 27.4841 16.2136 27.484C16.6251 27.4842 17.0366 27.4867 17.4481 27.4898C17.57 27.4895 17.6919 27.4892 17.8175 27.4888C18.8628 27.5012 18.8628 27.5012 19.3177 27.8906C19.552 28.2422 19.552 28.2422 19.5301 28.6523C19.4049 29.1914 19.4049 29.1914 19.0833 29.4141C18.7476 29.526 18.5349 29.5469 18.1862 29.5493C18.0742 29.5503 17.9621 29.5513 17.8467 29.5523C17.6626 29.5531 17.6626 29.5531 17.4748 29.5538C17.3453 29.5548 17.2159 29.5558 17.0826 29.5567C16.6536 29.5597 16.2246 29.5616 15.7956 29.5633C15.5761 29.5642 15.5761 29.5642 15.3522 29.5652C14.7373 29.5677 14.1225 29.5699 13.5077 29.5712C12.627 29.5731 11.7465 29.577 10.8659 29.5837C10.1717 29.5888 9.47747 29.5906 8.78324 29.5914C8.48804 29.5922 8.19284 29.594 7.89765 29.5968C7.48493 29.6005 7.07236 29.6005 6.65963 29.5996C6.47624 29.6025 6.47624 29.6025 6.28914 29.6054C5.73338 29.6006 5.46116 29.5966 5.00349 29.2596C4.71552 28.8427 4.69768 28.6218 4.7864 28.125C5.28936 27.3981 5.84571 27.4566 6.65591 27.467Z" fill="#404040"/>
<path d="M6.66664 37.3088C6.79723 37.308 6.92782 37.3072 7.06237 37.3063C7.49394 37.3043 7.92537 37.3066 8.35693 37.3091C8.65684 37.309 8.95675 37.3087 9.25665 37.3082C9.88517 37.3079 10.5136 37.3096 11.1421 37.3128C11.8681 37.3166 12.5939 37.3166 13.3199 37.3146C14.0191 37.3127 14.7183 37.3135 15.4176 37.3155C15.7147 37.3161 16.0119 37.3161 16.309 37.3153C16.7243 37.3147 17.1393 37.3171 17.5546 37.3203C17.739 37.3191 17.739 37.3191 17.9272 37.318C18.4443 37.3248 18.7618 37.3321 19.215 37.5959C19.5244 37.9557 19.5603 38.201 19.552 38.6719C19.3075 39.0735 19.18 39.2255 18.7317 39.375C18.5519 39.3866 18.3716 39.3918 18.1914 39.393C18.0805 39.394 17.9696 39.395 17.8554 39.3961C17.7339 39.3966 17.6125 39.3971 17.4873 39.3976C17.3593 39.3985 17.2312 39.3995 17.0992 39.4005C16.6746 39.4034 16.25 39.4053 15.8253 39.407C15.6805 39.4076 15.5356 39.4083 15.3863 39.4089C14.6986 39.4117 14.011 39.414 13.3233 39.4155C12.5303 39.4172 11.7373 39.4214 10.9443 39.4274C10.2569 39.4325 9.56944 39.4344 8.88196 39.4351C8.5898 39.4359 8.29764 39.4377 8.0055 39.4405C7.59673 39.4442 7.18812 39.4442 6.77934 39.4434C6.59822 39.4462 6.59822 39.4462 6.41345 39.4492C5.883 39.4446 5.49139 39.4369 5.06236 39.1034C4.78638 38.789 4.78638 38.789 4.70581 38.3789C4.92218 37.2774 5.72666 37.2984 6.66664 37.3088Z" fill="#404040"/>
<path d="M5.72388 6.84814C6.15268 6.92854 6.35103 7.08133 6.66138 7.38281C6.82998 7.72001 6.79256 8.00926 6.79187 8.38606C6.79189 8.46496 6.79191 8.54386 6.79193 8.62515C6.79184 8.8864 6.79093 9.14763 6.79001 9.40887C6.7898 9.58983 6.78963 9.77078 6.78951 9.95174C6.78906 10.4284 6.78791 10.905 6.78662 11.3816C6.78542 11.8678 6.78488 12.3541 6.78429 12.8403C6.78303 13.7946 6.78103 14.7488 6.77857 15.7031C6.91682 15.6985 6.91682 15.6985 7.05786 15.6938C7.47744 15.6816 7.89697 15.674 8.31666 15.6665C8.46168 15.6616 8.60669 15.6567 8.75611 15.6516C9.9609 15.6354 9.9609 15.6354 10.3917 15.9723C10.6458 16.2891 10.6458 16.2891 10.7117 16.7065C10.6446 17.1163 10.59 17.2933 10.2942 17.5781C9.57855 17.8167 8.74689 17.7314 7.99565 17.7363C7.78037 17.7383 7.5651 17.7415 7.34986 17.746C7.03885 17.7524 6.72801 17.7549 6.41694 17.7567C6.32109 17.7593 6.22525 17.762 6.1265 17.7647C6.03618 17.7644 5.94586 17.764 5.8528 17.7637C5.77397 17.7646 5.69514 17.7656 5.61392 17.7666C5.21178 17.648 5.03927 17.4376 4.78638 17.1094C4.72833 16.7729 4.70598 16.5058 4.71057 16.17C4.70954 16.0772 4.70851 15.9843 4.70745 15.8886C4.70488 15.5826 4.70658 15.2767 4.70856 14.9707C4.70817 14.7575 4.7076 14.5443 4.70686 14.3311C4.706 13.8846 4.70725 13.4382 4.70999 12.9918C4.71333 12.42 4.71141 11.8483 4.7079 11.2765C4.70578 10.8363 4.70646 10.3962 4.70797 9.95609C4.70837 9.74528 4.70789 9.53446 4.70652 9.32366C4.70503 9.02879 4.70731 8.73418 4.71057 8.43933C4.70938 8.3525 4.70819 8.26568 4.70697 8.17622C4.71635 7.71738 4.77341 7.51636 5.06212 7.15244C5.37232 6.91406 5.37232 6.91406 5.72388 6.84814Z" fill="#404040"/>
<path d="M56.9348 9.02344C57.3384 9.1931 57.5631 9.40745 57.843 9.74121C57.9149 9.82611 57.9868 9.911 58.0609 9.99847C58.1416 10.0959 58.1416 10.0959 58.2239 10.1953C57.6989 11.2785 57.1344 12.3361 56.5548 13.3908C56.1243 14.176 55.706 14.9666 55.2942 15.7617C54.8382 16.6417 54.3727 17.5153 53.8953 18.3838C53.3118 19.4455 52.7492 20.5171 52.1926 21.5931C51.7506 22.4471 51.3023 23.2969 50.8411 24.1406C50.2753 23.975 49.8196 23.7387 49.3176 23.4375C50.4263 21.1892 51.5781 18.9622 52.7864 16.7658C53.2032 16.0067 53.6067 15.2415 54.0051 14.4727C54.6397 13.2484 55.2968 12.0374 55.9603 10.8286C56.2886 10.2288 56.6118 9.62618 56.9348 9.02344Z" fill="#273492"/>
<path d="M40.177 43.125C40.177 43.8984 40.177 44.6719 40.177 45.4688C39.945 45.5848 39.7129 45.7008 39.4739 45.8203C39.2896 46.1888 39.3383 46.5843 39.3361 46.989C39.3334 47.181 39.3305 47.373 39.3276 47.5651C39.3235 47.8672 39.3201 48.1693 39.3185 48.4714C39.3032 50.9129 39.3032 50.9129 38.4851 51.731C37.9912 52.0321 37.5852 52.1778 37.0052 52.1773C36.8877 52.1777 36.7702 52.1782 36.6491 52.1787C36.4567 52.1777 36.4567 52.1777 36.2605 52.1766C36.1236 52.1768 35.9867 52.177 35.8457 52.1772C35.4662 52.1775 35.0867 52.1768 34.7073 52.1756C34.2979 52.1746 33.8885 52.175 33.4791 52.1751C32.77 52.1753 32.0608 52.1745 31.3517 52.1732C30.3264 52.1713 29.3011 52.1707 28.2758 52.1704C26.6123 52.1699 24.9488 52.1683 23.2853 52.1661C21.6694 52.164 20.0535 52.1623 18.4376 52.1613C18.2882 52.1612 18.2882 52.1612 18.1358 52.1611C17.6361 52.1608 17.1364 52.1605 16.6367 52.1602C12.4913 52.1578 8.34585 52.1537 4.20044 52.1484C4.20044 52.1098 4.20044 52.0711 4.20044 52.0312C14.8739 51.9926 25.5473 51.9539 36.5442 51.9141C37.0658 50.8709 37.2027 50.4573 37.1255 49.3872C37.1153 49.1293 37.1054 48.8715 37.0958 48.6136C37.0776 48.2121 37.0568 47.8113 37.0297 47.4102C36.89 45.2222 36.89 45.2222 37.2964 44.6478C37.7031 44.2649 38.1624 44.0197 38.6739 43.8033C38.9686 43.6761 39.2371 43.5121 39.5105 43.3447C39.9083 43.125 39.9083 43.125 40.177 43.125Z" fill="#CCD3D6"/>
<path d="M24.0304 22.5469C24.1258 22.5465 24.2211 22.546 24.3193 22.5455C24.6336 22.5447 24.9476 22.5482 25.2618 22.5517C25.4805 22.5522 25.6993 22.5525 25.918 22.5525C26.376 22.5533 26.8339 22.5559 27.2919 22.5601C27.8789 22.5654 28.4659 22.5671 29.0529 22.5676C29.5044 22.5681 29.9559 22.5699 30.4074 22.5721C30.6239 22.5732 30.8403 22.5739 31.0568 22.5745C31.3592 22.5755 31.6615 22.5782 31.9639 22.5813C32.0981 22.5814 32.0981 22.5814 32.235 22.5815C33.0213 22.5926 33.0213 22.5926 33.3802 22.8515C33.6546 23.2632 33.6727 23.4216 33.6146 23.9062C33.4037 24.2226 33.2532 24.4385 32.9115 24.6093C32.6029 24.6227 32.2973 24.629 31.9887 24.6301C31.8934 24.6309 31.7981 24.6316 31.6999 24.6324C31.3838 24.6347 31.0678 24.6361 30.7517 24.6373C30.6439 24.6378 30.5361 24.6382 30.4251 24.6387C29.8547 24.6412 29.2842 24.6428 28.7138 24.6439C28.124 24.6452 27.5343 24.6493 26.9445 24.6539C26.4915 24.657 26.0385 24.658 25.5855 24.6584C25.368 24.659 25.1506 24.6603 24.9331 24.6625C24.629 24.6653 24.325 24.6652 24.0208 24.6644C23.9308 24.6659 23.8408 24.6674 23.7481 24.669C23.335 24.6649 23.1118 24.6437 22.7811 24.3862C22.4759 23.9747 22.4213 23.7172 22.4818 23.2031C22.9307 22.6087 23.3209 22.5331 24.0304 22.5469Z" fill="#404040"/>
<path d="M16.0364 8.90624C16.8346 9.31276 17.1487 10.0943 17.4426 10.8984C17.8226 12.091 17.5678 13.4604 17.0544 14.5679C16.772 15.106 16.4668 15.4293 15.9192 15.7031C15.4155 15.7612 15.1681 15.7461 14.7327 15.4761C13.9715 14.7556 13.6185 13.7675 13.5498 12.7428C13.5126 11.3081 13.7962 10.1499 14.7839 9.08202C15.2103 8.84404 15.5675 8.79282 16.0364 8.90624Z" fill="#F0F0F0"/>
<path d="M24.5142 37.3091C24.655 37.3088 24.7958 37.3085 24.941 37.3082C25.2384 37.3084 25.5359 37.3099 25.8334 37.3128C26.2887 37.3169 26.7437 37.3153 27.1989 37.313C27.4881 37.3138 27.7773 37.3149 28.0664 37.3164C28.2706 37.3156 28.2706 37.3156 28.4789 37.3147C29.4171 37.3284 29.4171 37.3284 29.8885 37.5961C30.1864 37.9578 30.2242 38.2065 30.2161 38.6719C30.0091 39.0002 29.8609 39.201 29.5129 39.375C29.3138 39.388 29.1142 39.3936 28.9147 39.3957C28.7899 39.3972 28.6652 39.3987 28.5366 39.4003C28.3335 39.4016 28.3335 39.4016 28.1264 39.4029C27.9876 39.4039 27.8489 39.4048 27.706 39.4058C27.4119 39.4074 27.1178 39.4087 26.8238 39.4096C26.3739 39.4116 25.9242 39.4167 25.4743 39.4219C25.1889 39.4231 24.9035 39.4241 24.6181 39.4249C24.4834 39.4269 24.3488 39.429 24.21 39.4311C23.275 39.4286 23.275 39.4286 22.8096 39.1521C22.5584 38.859 22.489 38.7264 22.4377 38.3423C22.4837 37.9513 22.5623 37.7736 22.8496 37.5051C23.3473 37.226 23.9598 37.3028 24.5142 37.3091Z" fill="#404040"/>
<path d="M41.0078 31.5967C41.5815 31.8779 41.9236 32.3489 42.1692 32.9297C42.2586 33.5666 42.132 34.0126 41.8176 34.5703C41.3324 35.0701 40.9301 35.406 40.2209 35.4345C39.5673 35.4251 39.1284 35.2566 38.6536 34.8047C38.2825 34.313 38.0969 33.7836 38.1322 33.1659C38.2682 32.5555 38.6349 32.1216 39.0784 31.6992C39.7068 31.4199 40.346 31.3987 41.0078 31.5967Z" fill="#5E7A88"/>
<path d="M24.1296 32.3872C24.2824 32.3868 24.2824 32.3868 24.4382 32.3864C24.6529 32.3865 24.8677 32.3881 25.0824 32.391C25.4104 32.395 25.738 32.3934 26.066 32.3911C26.275 32.3919 26.4841 32.3931 26.6931 32.3946C26.8396 32.3937 26.8396 32.3937 26.9891 32.3928C27.4539 32.4022 27.7011 32.4281 28.1067 32.6743C28.4338 33.0307 28.4667 33.2706 28.4583 33.75C28.2138 34.1517 28.0862 34.3037 27.6379 34.4531C27.3077 34.4687 26.9805 34.478 26.6501 34.4811C26.5047 34.4825 26.5047 34.4825 26.3563 34.4839C26.1512 34.4855 25.9461 34.4868 25.741 34.4877C25.428 34.4897 25.1151 34.4949 24.8021 34.5001C24.6027 34.5012 24.4032 34.5022 24.2038 34.503C24.1105 34.5051 24.0172 34.5071 23.9211 34.5092C23.4571 34.5074 23.237 34.4864 22.8355 34.2303C22.5549 33.9387 22.4912 33.8211 22.4377 33.4204C22.4817 33.0469 22.4817 33.0469 22.711 32.7352C23.1936 32.3641 23.5369 32.3778 24.1296 32.3872Z" fill="#404040"/>
<path d="M24.0784 27.4695C24.175 27.4694 24.2716 27.4694 24.3712 27.4694C24.5749 27.4701 24.7786 27.4721 24.9822 27.4755C25.2932 27.4804 25.6039 27.4803 25.9149 27.4795C26.1133 27.4808 26.3116 27.4823 26.51 27.4841C26.6026 27.4841 26.6951 27.4841 26.7904 27.4842C27.3251 27.4956 27.6826 27.5561 28.1067 27.8906C28.2878 28.2529 28.2583 28.5462 28.2239 28.9453C28.0051 29.2224 27.8347 29.3742 27.5208 29.5312C26.8917 29.5673 26.2626 29.573 25.6327 29.5787C25.4223 29.5812 25.2119 29.5852 25.0015 29.5907C24.6979 29.5986 24.3945 29.6018 24.0907 29.604C23.9971 29.6073 23.9034 29.6105 23.8069 29.6139C23.1707 29.6115 23.1707 29.6115 22.8766 29.3824C22.6191 29.0873 22.4869 28.8535 22.4084 28.4692C22.605 27.5456 23.2717 27.4527 24.0784 27.4695Z" fill="#404040"/>
<path d="M24.3567 11.0156C24.6033 11.2622 24.6592 11.3942 24.7678 11.7178C24.7987 11.8101 24.8297 11.9024 24.8616 11.9975C24.8932 12.0941 24.9247 12.1906 24.9573 12.29C24.9898 12.3857 25.0222 12.4813 25.0557 12.5798C25.0864 12.6724 25.117 12.765 25.1486 12.8604C25.1906 12.987 25.1906 12.987 25.2334 13.1162C25.2942 13.3594 25.2942 13.3594 25.2942 13.8281C24.7141 13.8281 24.134 13.8281 23.5364 13.8281C23.7232 12.8599 24.0356 11.9458 24.3567 11.0156Z" fill="#E3E3E3"/>
</g>
<defs>
<clipPath id="clip0_28_781">
<rect width="60" height="60" fill="white" transform="translate(0.333252)"/>
</clipPath>
</defs>
</svg>
