<svg width="61" height="60" viewBox="0 0 61 60" fill="none" xmlns="http://www.w3.org/2000/svg">
<path fill-rule="evenodd" clip-rule="evenodd" d="M20.6276 22.9335L19.5679 17.0981L18.2347 9.75366C18.1624 9.35662 18.4298 8.97637 18.832 8.90541L46.4128 4.01145C46.8144 3.9405 47.1985 4.20483 47.2703 4.60133L48.0353 8.81225" fill="#84EB9C"/>
<path fill-rule="evenodd" clip-rule="evenodd" d="M49.3885 23.6645H21.3666C20.9589 23.6645 20.6279 23.3373 20.6279 22.9333V9.54272C20.6279 9.13972 20.9589 8.81201 21.3666 8.81201H49.3885C49.7967 8.81201 50.1282 9.13972 50.1282 9.54272V22.9333C50.1282 23.3373 49.7967 23.6645 49.3885 23.6645Z" fill="#84EB9C"/>
<path fill-rule="evenodd" clip-rule="evenodd" d="M23.6221 13.2755V19.6217C24.6122 19.6217 25.4144 20.3221 25.4144 21.1855C25.4144 21.2136 25.4067 21.2402 25.4051 21.2689H45.3114C45.3097 21.2402 45.3015 21.2136 45.3015 21.1855C45.3015 20.3221 46.1043 19.6217 47.0944 19.6217C47.1158 19.6217 47.136 19.6266 47.1574 19.6276V13.2696C47.136 13.2701 47.1158 13.2755 47.0944 13.2755C46.1043 13.2755 45.3015 12.5751 45.3015 11.7117H25.4144C25.4144 12.5751 24.6122 13.2755 23.6221 13.2755Z" fill="#84EB9C"/>
<path fill-rule="evenodd" clip-rule="evenodd" d="M15.5698 35.7494L20.2964 30.8831C20.2964 30.8831 22.3046 28.321 25.3813 28.321H35.3901C35.3901 28.321 36.726 31.6138 33.3435 33.0974C33.3435 33.0974 38.1698 33.1808 42.2005 30.8852C42.2005 30.8852 46.9397 27.7338 50.1276 30.9269L41.4032 37.4361C41.4032 37.4361 38.6504 39.3786 33.686 39.7962C33.2465 39.8325 32.8071 39.8682 32.3693 39.9219L25.5769 40.7533C23.5468 41.0019 21.503 41.1271 19.4575 41.1271H15.5698" fill="#F5D9BA"/>
<path fill-rule="evenodd" clip-rule="evenodd" d="M10.6667 33.7282H13.7248C14.7435 33.7282 15.5698 34.5775 15.5698 35.6257V40.9291C15.5698 41.9773 14.7435 42.8266 13.7248 42.8266H10.6667" fill="#ED6262"/>
<path d="M10.6667 33.7282H13.7248C14.7435 33.7282 15.5698 34.5775 15.5698 35.6256V40.9291C15.5698 41.9772 14.7435 42.8266 13.7248 42.8266H10.6667M15.5699 35.7494L20.2964 30.883C20.2964 30.883 22.3047 28.3209 25.3814 28.3209H35.3901C35.3901 28.3209 36.726 31.6137 33.3436 33.0974M33.3436 33.0974C33.3436 33.0974 38.1699 33.1808 42.2006 30.8852C42.2006 30.8852 46.9397 27.7338 50.1277 30.9269L41.4033 37.4361C41.4033 37.4361 38.6504 39.3785 33.686 39.7962C33.2466 39.8324 32.8071 39.8682 32.3693 39.9218L25.577 40.7533C23.5469 41.0019 21.503 41.127 19.4575 41.127H15.5699M33.3436 33.0974L25.9963 33.0416M49.3884 23.6645H21.3665C20.9588 23.6645 20.6278 23.3373 20.6278 22.9333V9.54272C20.6278 9.13972 20.9588 8.81201 21.3665 8.81201H49.3884C49.7966 8.81201 50.1281 9.13972 50.1281 9.54272V22.9333C50.1281 23.3373 49.7966 23.6645 49.3884 23.6645Z" stroke="#404040" stroke-width="1.09804" stroke-linecap="round" stroke-linejoin="round"/>
<path fill-rule="evenodd" clip-rule="evenodd" d="M23.6221 13.2755V19.6217C24.6122 19.6217 25.4144 20.3221 25.4144 21.1855C25.4144 21.2136 25.4067 21.2402 25.4051 21.2689H45.3114C45.3097 21.2402 45.3015 21.2136 45.3015 21.1855C45.3015 20.3221 46.1043 19.6217 47.0944 19.6217C47.1158 19.6217 47.136 19.6266 47.1574 19.6276V13.2696C47.136 13.2701 47.1158 13.2755 47.0944 13.2755C46.1043 13.2755 45.3015 12.5751 45.3015 11.7117H25.4144C25.4144 12.5751 24.6122 13.2755 23.6221 13.2755Z" stroke="#404040" stroke-width="1.09804" stroke-linecap="round" stroke-linejoin="round"/>
<path fill-rule="evenodd" clip-rule="evenodd" d="M29.4634 16.49C29.4634 17.1265 28.9418 17.6416 28.2985 17.6416C27.6552 17.6416 27.1335 17.1265 27.1335 16.49C27.1335 15.8541 27.6552 15.3384 28.2985 15.3384C28.9418 15.3384 29.4634 15.8541 29.4634 16.49ZM43.4424 16.49C43.4424 17.1265 42.9213 17.6416 42.2775 17.6416C41.6342 17.6416 41.1126 17.1265 41.1126 16.49C41.1126 15.8541 41.6342 15.3384 42.2775 15.3384C42.9213 15.3384 43.4424 15.8541 43.4424 16.49Z" fill="#404040"/>
<path d="M33.3411 13.5267H37.1033M33.3411 15.3221H37.1033M34.4536 13.5267C35.3336 13.5267 36.047 14.3864 36.047 15.4469C36.047 16.5075 35.3336 17.0595 34.4536 17.0595H33.3412L36.0826 19.7467" stroke="#404040" stroke-width="1.09804" stroke-linecap="round" stroke-linejoin="round"/>
<path d="M20.6276 22.9335L19.5679 17.0981L18.2347 9.75366C18.1624 9.35662 18.4298 8.97637 18.832 8.90541L46.4128 4.01145C46.8144 3.9405 47.1985 4.20483 47.2703 4.60133L48.0353 8.81225" stroke="#404040" stroke-width="1.09804" stroke-linecap="round" stroke-linejoin="round"/>
</svg>
