<svg width="60" height="60" viewBox="0 0 60 60" fill="none" xmlns="http://www.w3.org/2000/svg">
<g clip-path="url(#clip0_29_1294)">
<mask id="mask0_29_1294" style="mask-type:luminance" maskUnits="userSpaceOnUse" x="15" y="12" width="35" height="33">
<path d="M50 12.3916H15.0352V44.5053H50V12.3916Z" fill="white"/>
</mask>
<g mask="url(#mask0_29_1294)">
<path d="M18.6035 20.5975V15.2322C18.6035 14.979 18.9737 14.7703 19.4364 14.7703H41.5586C42.0151 14.7703 42.3915 14.9756 42.3915 15.2322V20.7172" fill="white"/>
<path d="M18.6035 20.5975V15.2322C18.6035 14.979 18.9737 14.7703 19.4364 14.7703H41.5586C42.0151 14.7703 42.3915 14.9756 42.3915 15.2322V20.7172" stroke="#404040" stroke-width="0.906977"/>
<path d="M43.5811 15.9597H45.3351C45.6775 15.9597 45.9598 16.1693 45.9598 16.4313V20.7173" stroke="#404040" stroke-width="0.906977"/>
<path d="M20.9824 18.4617H29.3082" stroke="#404040" stroke-width="0.906977"/>
<path d="M45.2749 21.063H18.0234C16.6338 21.063 15.5073 22.1895 15.5073 23.579V41.5123C15.5073 42.9019 16.6338 44.0283 18.0234 44.0283H45.2749C46.6644 44.0283 47.7909 42.9019 47.7909 41.5123V23.579C47.7909 22.1895 46.6644 21.063 45.2749 21.063Z" fill="white"/>
<path d="M47.7909 38.7604V41.5172C47.7909 42.905 46.6627 44.0332 45.2749 44.0332H18.0234C16.6355 44.0332 15.5073 42.905 15.5073 41.5172V23.5839C15.5073 22.1961 16.6355 21.0679 18.0234 21.0679H45.2749C46.6627 21.0679 47.7909 22.1961 47.7909 23.5839V29.2674" fill="#BB9974"/>
<path d="M47.7909 38.7604V41.5172C47.7909 42.905 46.6627 44.0332 45.2749 44.0332H18.0234C16.6355 44.0332 15.5073 42.905 15.5073 41.5172V23.5839C15.5073 22.1961 16.6355 21.0679 18.0234 21.0679H45.2749C46.6627 21.0679 47.7909 22.1961 47.7909 23.5839V29.2674" stroke="#404040" stroke-width="0.906977"/>
<path d="M41.4514 29.5696H49.5282V35.541H41.4514C40.2713 35.541 39.313 34.5828 39.313 33.4026V31.708C39.313 30.5278 40.2713 29.5696 41.4514 29.5696Z" fill="white"/>
<path d="M41.4514 29.5696H49.5282V35.541H41.4514C40.2713 35.541 39.313 34.5828 39.313 33.4026V31.708C39.313 30.5278 40.2713 29.5696 41.4514 29.5696Z" fill="#C58B59" stroke="#404040" stroke-width="0.793766" stroke-linecap="round" stroke-linejoin="round"/>
<path d="M42.5136 33.2325C42.962 33.2325 43.3255 32.869 43.3255 32.4206C43.3255 31.9722 42.962 31.6086 42.5136 31.6086C42.0652 31.6086 41.7017 31.9722 41.7017 32.4206C41.7017 32.869 42.0652 33.2325 42.5136 33.2325Z" fill="#404040"/>
</g>
<path d="M17.4138 32.0166L10.8721 33.8007V43.3159L17.4138 48.0735L23.9554 43.3159V33.8007L17.4138 32.0166Z" fill="#20FB9F"/>
<path d="M14.4404 40.224L16.4228 41.7107L20.3874 37.2505" stroke="#404040" stroke-linecap="round" stroke-linejoin="round"/>
<path d="M17.4139 48.2796C16.5496 48.2796 15.6932 48.0258 15.0193 47.5263L11.6097 44.981C10.7057 44.307 10 42.8956 10 41.7775V35.8781C10 34.657 10.896 33.3566 12.0458 32.9284L16.0025 31.4456C16.7875 31.1522 18.0245 31.1522 18.8095 31.4456L22.7662 32.9284C23.9159 33.3566 24.812 34.657 24.812 35.8781V41.7696C24.812 42.8956 24.1062 44.299 23.2023 44.973L19.7927 47.5183C19.1346 48.0258 18.2782 48.2796 17.4139 48.2796ZM16.4227 32.5637L12.466 34.0464C11.792 34.3002 11.1973 35.1565 11.1973 35.886V41.7775C11.1973 42.5308 11.7286 43.5854 12.3233 44.0294L15.7329 46.5748C16.6448 47.2567 18.183 47.2567 19.1028 46.5748L22.5125 44.0294C23.1151 43.5775 23.6384 42.5308 23.6384 41.7775V35.8781C23.6384 35.1565 23.0437 34.3002 22.3697 34.0385L18.413 32.5557C17.8738 32.3654 16.954 32.3654 16.4227 32.5637Z" fill="#404040"/>
</g>
<defs>
<clipPath id="clip0_29_1294">
<rect width="60" height="60" fill="white"/>
</clipPath>
</defs>
</svg>
