<svg width="61" height="60" viewBox="0 0 61 60" fill="none" xmlns="http://www.w3.org/2000/svg">
<g clip-path="url(#clip0_28_849)">
<path d="M33.3874 2.5415C33.5808 2.7093 33.7738 2.87766 33.966 3.04687C34.0868 3.13871 34.2077 3.23056 34.3322 3.32519C36.8314 5.60706 38.1157 8.86337 38.3019 12.1875C38.3102 12.5357 38.3124 12.8838 38.3143 13.2321C38.316 13.4198 38.3178 13.6075 38.3195 13.7952C38.3222 14.0834 38.3239 14.3715 38.3224 14.6598C38.3038 16.1454 38.3038 16.1454 38.9553 17.4524C39.4392 18.1565 39.4051 19.1424 39.3008 19.9585C39.0651 21.1684 38.4381 22.0576 37.4638 22.8126C36.761 23.2726 36.0832 23.4415 35.2551 23.5547C35.2206 23.7378 35.2206 23.7378 35.1855 23.9246C34.7495 26.0746 33.7657 28.0639 32.091 29.5312C32.0106 29.5788 31.9303 29.6264 31.8475 29.6754C31.5925 29.8679 31.5925 29.8679 31.569 30.1917C31.5715 30.3125 31.5739 30.4334 31.5765 30.558C31.578 30.6891 31.5795 30.8201 31.581 30.9551C31.585 31.0919 31.5889 31.2287 31.5929 31.3696C31.5951 31.5078 31.5972 31.6459 31.5993 31.7882C31.6049 32.1298 31.6126 32.4711 31.6222 32.8125C32.347 33.103 33.0728 33.3908 33.7995 33.6765C34.0466 33.7741 34.2935 33.8723 34.5401 33.9712C34.8944 34.1131 35.2495 34.2527 35.6048 34.3918C35.7151 34.4366 35.8255 34.4813 35.9392 34.5275C36.0424 34.5674 36.1456 34.6073 36.2519 34.6484C36.3878 34.7023 36.3878 34.7023 36.5264 34.7572C36.8495 34.8181 36.9758 34.7473 37.2472 34.5703C37.4058 34.4163 37.5591 34.257 37.7087 34.0942C39.2185 32.5598 41.248 31.5166 43.341 31.0547C43.4452 31.0316 43.5495 31.0085 43.6568 30.9846C44.1177 30.9063 44.3475 30.909 44.7546 31.1499C44.9816 31.4062 44.9816 31.4062 44.9816 31.6406C45.3602 31.6379 45.7384 31.6289 46.1169 31.6186C46.2237 31.618 46.3306 31.6173 46.4407 31.6166C47.1142 31.5989 47.1142 31.5989 47.6632 31.2259C47.7451 31.1307 47.8269 31.0355 47.9113 30.9375C49.1955 30.6355 51.2919 31.7421 52.3617 32.3538C52.9782 32.7441 53.5546 33.1749 54.1222 33.6328C54.2136 33.7047 54.305 33.7766 54.3992 33.8507C56.7814 35.8309 58.1516 38.9128 58.4582 41.9531C58.6984 45.2757 57.7232 48.4829 55.5651 51.0338C53.8827 52.9716 51.8681 54.1922 49.4347 54.9609C49.433 55.0513 49.4313 55.1416 49.4296 55.2346C49.4208 55.6488 49.4095 56.0629 49.3981 56.477C49.3955 56.6191 49.3928 56.7612 49.3901 56.9076C49.3612 57.8783 49.3183 58.755 48.6803 59.5239C48.1625 59.9407 47.8325 60.0293 47.1641 60.0301C47.089 60.0306 47.0139 60.031 46.9366 60.0314C46.684 60.0325 46.4314 60.0319 46.1788 60.0313C45.9962 60.0318 45.8137 60.0323 45.6312 60.0329C45.1287 60.0344 44.6263 60.0343 44.1239 60.0341C43.5824 60.034 43.0409 60.0353 42.4993 60.0364C41.438 60.0384 40.3767 60.039 39.3155 60.0391C38.4529 60.0393 37.5904 60.0397 36.7279 60.0405C34.2835 60.0425 31.8392 60.0436 29.3948 60.0435C29.263 60.0434 29.1312 60.0434 28.9953 60.0434C28.8633 60.0434 28.7313 60.0434 28.5954 60.0434C26.4559 60.0433 24.3165 60.0455 22.1771 60.0488C19.9813 60.0522 17.7856 60.0538 15.5899 60.0536C14.3567 60.0536 13.1236 60.0542 11.8904 60.0567C10.8405 60.0588 9.79062 60.0594 8.74071 60.0578C8.20493 60.057 7.66917 60.057 7.13339 60.059C6.64292 60.0609 6.15249 60.0605 5.66202 60.0585C5.48458 60.0581 5.30714 60.0586 5.12971 60.0599C3.46912 60.0713 3.46912 60.0713 2.79411 59.5312C2.38564 59.0045 2.19411 58.5981 2.19172 57.9353C2.19105 57.8241 2.19038 57.7129 2.18969 57.5984C2.18956 57.4766 2.18943 57.3548 2.18929 57.2293C2.18871 57.1008 2.18813 56.9723 2.18753 56.8399C2.18581 56.4133 2.18502 55.9867 2.18437 55.5601C2.1837 55.263 2.18302 54.9658 2.18235 54.6687C2.18127 54.1241 2.18054 53.5794 2.18018 53.0348C2.17966 52.2376 2.17762 51.4404 2.17421 50.6431C2.17134 49.9497 2.17046 49.2562 2.17026 48.5627C2.1699 48.2696 2.16897 47.9764 2.16742 47.6833C2.15151 44.4369 2.56626 41.8288 4.85588 39.4047C6.2973 38.0121 8.08164 37.3425 9.92058 36.6431C10.1548 36.5528 10.389 36.4625 10.6231 36.372C11.1161 36.1817 11.6093 35.9921 12.1028 35.8031C13.2795 35.3521 14.4538 34.895 15.6286 34.4388C16 34.2947 16.3715 34.1509 16.743 34.0071C16.9179 33.9394 16.9179 33.9394 17.0963 33.8704C17.3121 33.7868 17.528 33.7034 17.7438 33.62C18.4266 33.3556 19.107 33.0857 19.7863 32.8125C20.0263 31.1081 20.0263 31.1081 19.5061 29.5674C19.1624 29.2408 18.7685 28.9812 18.3801 28.7109C17.0914 27.4201 16.0363 25.2921 16.0363 23.4375C15.93 23.4496 15.8236 23.4617 15.714 23.4741C14.8054 23.4723 13.8183 22.9778 13.168 22.3576C12.3369 21.3838 11.855 20.2127 11.9013 18.9267C11.9824 18.2138 12.1681 17.6266 12.583 17.0424C12.9261 16.4963 12.9546 16.0463 12.9469 15.4129C12.9481 15.3089 12.9493 15.2048 12.9505 15.0977C12.954 14.7672 12.9536 14.4369 12.9528 14.1064C12.9542 13.6728 12.9572 13.2391 12.9615 12.8055C12.9625 12.7009 12.9635 12.5964 12.9645 12.4886C13.012 9.45433 14.0594 6.64293 16.0363 4.33593C16.1156 4.23955 16.1949 4.14317 16.2766 4.04388C20.4165 -0.815021 28.4467 -1.4778 33.3874 2.5415Z" fill="#404040"/>
<path d="M15.9192 36.5625C16.0999 36.8315 16.0999 36.8315 16.2733 37.1923C16.3719 37.3941 16.3719 37.3941 16.4724 37.6C16.5068 37.6724 16.5412 37.7447 16.5767 37.8193C16.6846 38.0462 16.7946 38.272 16.9052 38.4976C17.1796 39.0583 17.4507 39.6207 17.7213 40.1832C17.9499 40.6581 18.18 41.1323 18.4122 41.6054C18.5203 41.8272 18.6261 42.05 18.7319 42.273C18.7984 42.4086 18.8648 42.5443 18.9333 42.6841C18.9907 42.8034 19.0481 42.9228 19.1073 43.0457C19.3628 43.4267 19.6219 43.6064 20.0208 43.8281C20.6444 43.9205 21.0355 43.7705 21.568 43.4733C21.7786 43.3594 21.7786 43.3594 22.1302 43.2422C22.5713 43.7403 22.9434 44.2289 22.9595 44.9129C22.9387 45.0557 22.9179 45.1985 22.8965 45.3456C22.8848 45.4291 22.8731 45.5126 22.861 45.5986C22.8162 45.9075 22.7664 46.2154 22.7161 46.5234C22.6852 46.7156 22.6852 46.7156 22.6537 46.9118C22.4898 47.9263 22.3175 48.9393 22.1434 49.9522C22.0738 50.358 22.0047 50.7638 21.9356 51.1697C21.7667 52.1601 21.5969 53.1504 21.427 54.1406C21.195 55.4941 20.963 56.8476 20.7239 58.2422C17.9009 58.2422 15.0778 58.2422 12.1692 58.2422C12.1621 57.468 12.155 56.6938 12.1477 55.8961C12.143 55.4064 12.1382 54.9167 12.1333 54.4269C12.1255 53.6492 12.1179 52.8714 12.111 52.0937C12.1054 51.4668 12.0992 50.84 12.0927 50.2131C12.0903 49.9737 12.0881 49.7342 12.0861 49.4947C12.0833 49.16 12.0798 48.8253 12.0761 48.4905C12.0754 48.391 12.0748 48.2914 12.0741 48.1889C12.0692 47.8004 12.0585 47.4804 11.9349 47.1094C11.7173 47.0659 11.7173 47.0659 11.4954 47.0215C11.4138 47.0052 11.3323 46.9888 11.2482 46.972C10.9821 46.9723 10.9821 46.9723 10.7513 47.1626C10.4257 47.5987 10.4615 47.9725 10.4646 48.5038C10.4634 48.609 10.4622 48.7143 10.461 48.8227C10.4575 49.1702 10.4573 49.5176 10.4572 49.8651C10.4554 50.1061 10.4535 50.3472 10.4513 50.5882C10.4462 51.2225 10.4439 51.8567 10.4421 52.4909C10.4394 53.252 10.4333 54.013 10.4277 54.7741C10.4196 55.9301 10.4159 57.0861 10.4114 58.2422C8.32314 58.2422 6.23485 58.2422 4.08329 58.2422C4.06917 54.9015 4.06917 54.9015 4.06562 53.2446C4.06368 52.3505 4.06122 51.4564 4.05677 50.5624C4.05287 49.7782 4.05085 48.9941 4.04994 48.2099C4.04929 47.9115 4.04803 47.6131 4.04612 47.3146C4.04355 46.895 4.04322 46.4755 4.04338 46.0559C4.04212 45.9339 4.04085 45.8118 4.03955 45.6861C4.04741 43.794 4.75042 42.1554 6.05305 40.784C7.53746 39.4134 9.33797 38.7891 11.1951 38.0932C11.5193 37.9712 11.8434 37.849 12.1675 37.7266C12.3781 37.6472 12.5888 37.5679 12.7996 37.4889C13.2775 37.309 13.7529 37.1257 14.224 36.9286C14.3047 36.895 14.3855 36.8614 14.4688 36.8268C14.6823 36.7372 14.8952 36.6459 15.108 36.5544C15.4718 36.4385 15.5781 36.4104 15.9192 36.5625Z" fill="#E3E9F7"/>
<path d="M30.6847 11.9531C31.1384 12.1043 31.2777 12.3249 31.5694 12.6941C31.7995 12.9454 31.9884 13.1103 32.2593 13.3055C32.9179 13.8212 33.4062 14.3419 33.5862 15.1797C33.7033 16.3001 33.6655 17.4219 33.6236 18.5459C33.6114 18.9154 33.6062 19.285 33.6015 19.6547C33.5461 23.9414 33.5461 23.9414 32.8967 25.3271C32.8608 25.4058 32.8248 25.4844 32.7879 25.5654C31.9174 27.4041 30.4425 28.8538 28.5195 29.5647C28.1491 29.6813 27.7802 29.7888 27.4035 29.8828C27.3144 29.9052 27.2252 29.9275 27.1334 29.9506C25.0434 30.2777 22.9412 29.9142 21.1807 28.7302C19.4213 27.4166 18.1644 25.634 17.7941 23.4375C17.7841 23.1716 17.7803 22.9055 17.7808 22.6395C17.7808 22.5617 17.7808 22.4839 17.7808 22.4037C17.7808 22.1482 17.7818 21.8926 17.7827 21.6371C17.7829 21.4593 17.7831 21.2815 17.7832 21.1036C17.7836 20.6368 17.7848 20.1701 17.7861 19.7033C17.7873 19.2264 17.7878 18.7496 17.7884 18.2728C17.7897 17.3381 17.7916 16.4034 17.7941 15.4688C17.9145 15.4632 18.0349 15.4576 18.159 15.4519C22.4144 15.2534 26.3803 14.5218 30.0828 12.2761C30.2786 12.1599 30.4813 12.0555 30.6847 11.9531Z" fill="#F1D0A4"/>
<path d="M32.0104 3.77929C33.6382 5.0842 34.8993 6.57031 35.7164 8.50341C35.7481 8.57784 35.7798 8.65227 35.8125 8.72895C36.4055 10.2336 36.475 11.695 36.4489 13.2861C36.4471 13.4763 36.4455 13.6664 36.444 13.8565C36.4402 14.3158 36.4342 14.7751 36.4269 15.2344C36.0402 15.157 35.6534 15.0797 35.255 15C35.2298 14.8621 35.2046 14.7242 35.1786 14.5821C35.0364 14.0169 34.7577 13.6721 34.3688 13.2495C34.306 13.1788 34.2432 13.1081 34.1785 13.0352C33.7332 12.5383 33.2691 12.0619 32.7895 11.5979C32.5696 11.3771 32.3744 11.148 32.1788 10.9058C31.8389 10.5056 31.5757 10.3466 31.0447 10.2873C30.2913 10.2513 29.8367 10.4554 29.2052 10.8472C29.0213 10.9554 28.8371 11.0631 28.6527 11.1703C28.5615 11.2237 28.4702 11.2771 28.3762 11.332C27.723 11.701 27.0345 12.0016 26.3488 12.3047C26.2226 12.3627 26.0965 12.4207 25.9665 12.4805C25.4217 12.7122 24.8539 12.8609 24.2833 13.0151C24.1768 13.0451 24.0703 13.0751 23.9606 13.106C22.7672 13.4316 21.5886 13.5993 20.3543 13.6473C20.261 13.651 20.1677 13.6546 20.0715 13.6584C19.6853 13.6728 19.2992 13.6866 18.9128 13.6967C18.6266 13.7046 18.3406 13.716 18.0545 13.7279C17.9681 13.7292 17.8817 13.7306 17.7926 13.732C17.1228 13.7639 16.8386 13.9483 16.3878 14.4141C16.3395 14.5397 16.2911 14.6654 16.2413 14.7949C16.1737 14.9013 16.106 15.0076 16.0363 15.1172C15.7599 15.1743 15.7599 15.1743 15.4375 15.1959C15.3306 15.2039 15.2237 15.2119 15.1135 15.2201C15.0313 15.2248 14.9491 15.2295 14.8644 15.2344C14.8585 14.7115 14.8543 14.1887 14.8515 13.6658C14.8503 13.4887 14.8488 13.3115 14.8467 13.1344C14.8097 9.85402 15.8012 7.13727 18.0797 4.73831C21.9021 1.12335 27.7295 0.718362 32.0104 3.77929Z" fill="#566473"/>
<path d="M34.552 38.6719C34.7083 39.1408 34.5748 39.4857 34.4495 39.9463C34.4057 40.112 34.3621 40.2777 34.3185 40.4434C34.2988 40.5167 34.279 40.5899 34.2586 40.6654C33.7511 42.6979 33.986 44.9174 34.6692 46.875C34.7142 47.0126 34.7592 47.1502 34.8056 47.292C35.5131 49.2967 37.0261 51.8366 39.0183 52.7921C39.3567 53.0859 39.3567 53.0859 39.4184 53.3271C39.4383 53.6401 39.4357 53.9462 39.4254 54.2596C39.4246 54.3605 39.4239 54.4614 39.4232 54.5654C39.4195 54.9414 39.4097 55.3174 39.4006 55.6934C39.3861 56.5345 39.3716 57.3756 39.3567 58.2422C36.5336 58.2422 33.7106 58.2422 30.802 58.2422C30.4065 56.0522 30.4065 56.0522 30.2832 55.3639C30.2502 55.1827 30.2171 55.0016 30.184 54.8204C30.1675 54.7273 30.151 54.6341 30.134 54.5381C30.0081 53.8497 30.0081 53.8497 29.7473 53.2031C29.4081 52.9264 29.4081 52.9264 28.9783 52.9907C28.5452 53.0447 28.5452 53.0447 28.3411 53.4375C28.3292 53.6849 28.3292 53.6849 28.3699 53.9561C28.3827 54.0602 28.3955 54.1642 28.4088 54.2714C28.5134 54.9859 28.6389 55.6965 28.7661 56.4072C28.7867 56.5262 28.8073 56.6452 28.8286 56.7677C28.8475 56.8738 28.8664 56.9799 28.8858 57.0892C28.9331 57.4708 28.927 57.8576 28.927 58.2422C26.8 58.2422 24.6731 58.2422 22.4817 58.2422C22.7456 56.1311 22.7456 56.1311 22.868 55.3798C22.8814 55.2973 22.8948 55.2149 22.9085 55.1299C22.9514 54.866 22.9949 54.6022 23.0383 54.3384C23.0691 54.15 23.0999 53.9616 23.1307 53.7732C23.5917 50.9616 24.0717 48.153 24.5911 45.3516C24.9597 45.3482 25.3284 45.3461 25.697 45.3442C25.8022 45.3433 25.9075 45.3423 26.0159 45.3413C26.1159 45.3409 26.216 45.3405 26.3191 45.3401C26.4118 45.3395 26.5045 45.3389 26.5999 45.3383C26.8176 45.3516 26.8176 45.3516 26.9348 45.4688C26.9925 45.7831 27.044 46.0963 27.0918 46.4122C27.1224 46.6073 27.153 46.8024 27.1836 46.9975C27.2314 47.306 27.279 47.6146 27.3263 47.9233C27.372 48.2205 27.4186 48.5175 27.4654 48.8145C27.4792 48.9066 27.493 48.9987 27.5072 49.0935C27.5951 49.7189 27.5951 49.7189 27.8723 50.2734C28.3154 50.4047 28.5645 50.4596 28.9783 50.2368C29.4953 49.3476 29.0543 48.0461 28.8684 47.1021C28.407 44.7514 28.407 44.7514 28.7549 44.0547C28.831 43.9582 28.9072 43.8617 28.9856 43.7622C29.0998 43.6133 29.0998 43.6133 29.2163 43.4615C29.2755 43.3891 29.3347 43.3167 29.3958 43.2422C29.4708 43.2845 29.5459 43.3268 29.6233 43.3704C30.4568 43.8208 30.4568 43.8208 31.3879 43.8281C32.5758 43.2579 33.093 41.6177 33.6511 40.4883C33.7387 40.3119 33.8264 40.1355 33.9141 39.9591C34.1272 39.5303 34.3398 39.1012 34.552 38.6719Z" fill="#E2E8F6"/>
<path d="M50.22 36.8294C51.8648 38.0609 53.0691 39.6064 53.4815 41.6538C53.7617 43.7781 53.3604 45.7902 52.0988 47.5512C50.8837 49.0968 49.1433 50.0683 47.2084 50.3906C44.9473 50.6184 42.985 50.0503 41.2025 48.6035C39.7583 47.2614 38.7971 45.2997 38.7152 43.3264C38.6909 41.205 39.4663 39.298 40.9361 37.7705C43.492 35.4323 47.234 34.8671 50.22 36.8294Z" fill="#3EEDBA"/>
<path d="M46.0072 33.9331C46.1413 33.9342 46.2754 33.9352 46.4136 33.9363C48.5659 33.9802 50.6401 34.7508 52.2474 36.2109C52.3334 36.2862 52.4193 36.3614 52.5079 36.4389C54.2791 38.0855 55.2514 40.3959 55.3477 42.7967C55.3894 45.1914 54.5605 47.4337 52.9506 49.2187C52.8812 49.299 52.8119 49.3792 52.7404 49.4618C51.2341 51.0967 48.9182 52.0906 46.709 52.1878C43.884 52.2349 41.5968 51.3466 39.5289 49.4096C37.7342 47.5381 36.9389 45.0617 36.9806 42.5125C37.0759 40.1623 38.2812 37.8621 39.9624 36.2558C41.7054 34.7893 43.7178 33.9114 46.0072 33.9331ZM40.601 38.0782C39.9084 38.9632 39.3505 39.9454 39.0052 41.0156C38.979 41.0937 38.9527 41.1718 38.9256 41.2523C38.4783 42.8546 38.764 44.4276 39.3568 45.9375C39.4203 46.1 39.4203 46.1 39.485 46.2657C40.2406 47.9577 41.7262 49.2778 43.4428 49.9484C43.5665 49.9933 43.5665 49.9933 43.6927 50.0391C43.7728 50.0738 43.8529 50.1085 43.9354 50.1443C45.6458 50.7939 47.7324 50.4449 49.3635 49.7534C51.3653 48.7668 52.4807 47.2091 53.2829 45.1735C53.8572 43.4562 53.6243 41.4293 52.8627 39.8144C52.5248 39.1813 52.1339 38.6251 51.6615 38.0859C51.5991 38.0139 51.5367 37.9418 51.4724 37.8676C50.2848 36.5892 48.5401 35.7872 46.8019 35.6946C44.3529 35.6313 42.3221 36.2329 40.601 38.0782Z" fill="#404040"/>
<path d="M44.9818 31.6406C45.7552 31.6406 46.5286 31.6406 47.3255 31.6406C47.4415 31.9887 47.4415 31.9887 47.5599 32.3438C47.9587 32.7862 48.5796 32.8681 49.1346 33.0176C50.6624 33.4546 51.8572 34.1151 53.0677 35.1562C53.2404 35.2933 53.2404 35.2933 53.4165 35.4332C55.1509 36.8797 56.2696 39.289 56.5833 41.4844C56.8296 44.642 56.1879 47.4632 54.1224 49.9219C52.4644 51.8053 50.0964 53.2365 47.5599 53.4375C44.9977 53.5653 43.0055 53.3035 40.763 52.0312C40.6632 51.9746 40.5633 51.918 40.4604 51.8596C37.938 50.2916 36.5678 47.8054 35.8411 45C35.2484 42.3825 35.9522 39.5755 37.3211 37.3238C37.7899 36.6012 38.3932 35.992 39.0052 35.3906C39.086 35.31 39.1668 35.2293 39.2501 35.1462C40.6915 33.7992 42.5543 33.0463 44.453 32.6189C44.5502 32.5667 44.6473 32.5146 44.7474 32.4609C44.8247 32.1902 44.9021 31.9195 44.9818 31.6406ZM39.9427 36.3281C39.861 36.4002 39.7793 36.4722 39.6951 36.5465C38.0878 38.0538 37.0839 40.3019 36.9759 42.5047C36.9547 43.3935 36.9713 44.2661 37.2474 45.1172C37.2874 45.2518 37.3275 45.3864 37.3687 45.5251C38.1674 48.1326 39.7627 50.0393 42.1693 51.3281C43.4358 51.9018 44.6123 52.1936 45.9998 52.1851C46.1698 52.1841 46.1698 52.1841 46.3432 52.1831C48.8104 52.1415 50.9468 51.1801 52.7454 49.4897C53.7866 48.3961 54.4845 47.1389 54.9427 45.7031C54.98 45.5957 55.0173 45.4883 55.0558 45.3777C55.6981 43.2671 55.3293 40.8488 54.3568 38.9062C53.8471 37.9799 53.221 37.1984 52.4818 36.4453C52.363 36.3223 52.363 36.3223 52.2419 36.1967C50.3397 34.3625 47.8353 33.9119 45.2894 33.9445C43.2556 34.0139 41.4439 34.9923 39.9427 36.3281Z" fill="#14B688"/>
<path d="M24.5911 45.3516C24.9597 45.3482 25.3284 45.3461 25.697 45.3442C25.8022 45.3433 25.9075 45.3423 26.0159 45.3413C26.1159 45.3409 26.216 45.3405 26.3191 45.3401C26.4118 45.3395 26.5045 45.3389 26.5999 45.3383C26.8176 45.3516 26.8176 45.3516 26.9348 45.4687C26.9925 45.7831 27.044 46.0963 27.0918 46.4122C27.1224 46.6073 27.153 46.8024 27.1836 46.9974C27.2314 47.306 27.279 47.6146 27.3263 47.9232C27.372 48.2205 27.4186 48.5175 27.4654 48.8145C27.4792 48.9066 27.493 48.9987 27.5072 49.0935C27.5969 49.7178 27.5969 49.7178 27.8723 50.2734C28.2288 50.4249 28.2288 50.4249 28.5754 50.5078C28.6517 50.8853 28.7204 51.2639 28.7878 51.6431C28.8204 51.8034 28.8204 51.8034 28.8535 51.9669C28.9055 52.2712 28.9455 52.5432 28.927 52.8516C28.7329 53.0481 28.5376 53.2434 28.3411 53.4375C28.3053 53.8385 28.3844 54.2156 28.4583 54.6094C28.4767 54.7232 28.4951 54.837 28.5142 54.9542C28.5933 55.4394 28.6795 55.9233 28.7661 56.4072C28.7867 56.5262 28.8073 56.6452 28.8286 56.7677C28.8475 56.8738 28.8664 56.9799 28.8858 57.0892C28.9331 57.4708 28.927 57.8576 28.927 58.2422C26.8 58.2422 24.6731 58.2422 22.4817 58.2422C22.7456 56.1311 22.7456 56.1311 22.868 55.3798C22.8814 55.2973 22.8948 55.2149 22.9085 55.1299C22.9514 54.866 22.9949 54.6022 23.0383 54.3384C23.0691 54.15 23.0999 53.9616 23.1307 53.7732C23.5917 50.9616 24.0717 48.153 24.5911 45.3516Z" fill="#FD6A6A"/>
<path d="M29.7473 30.9375C29.9659 33.1525 29.9659 33.1525 29.3517 33.9076C29.121 34.1532 28.8835 34.3899 28.6396 34.6224C28.3346 34.9289 28.0814 35.2733 27.821 35.6177C27.1646 36.466 26.4671 37.2772 25.7629 38.0859C25.2733 37.6156 24.8436 37.1107 24.4152 36.5845C24.3446 36.4981 24.2739 36.4118 24.2011 36.3228C23.9792 36.0514 23.7578 35.7796 23.5363 35.5078C23.3905 35.3294 23.2446 35.151 23.0987 34.9727C22.9613 34.8044 22.824 34.6361 22.6867 34.4678C22.6224 34.3891 22.5582 34.3104 22.4919 34.2294C22.4323 34.1561 22.3727 34.0828 22.3113 34.0073C22.2331 33.9112 22.2331 33.9112 22.1533 33.8132C21.861 33.4376 21.7493 33.2296 21.7556 32.7599C21.7564 32.6605 21.7571 32.5612 21.7579 32.4589C21.7599 32.3556 21.7618 32.2524 21.7639 32.146C21.7649 32.0414 21.766 31.9368 21.7671 31.829C21.7698 31.5709 21.7737 31.3128 21.7785 31.0547C21.8678 31.0773 21.9571 31.1 22.049 31.1234C22.2306 31.1691 22.2306 31.1691 22.4157 31.2158C22.534 31.2457 22.6523 31.2756 22.7741 31.3065C22.9096 31.3394 23.0452 31.3723 23.1848 31.4062C23.2626 31.4269 23.3404 31.4476 23.4205 31.4689C24.1472 31.6504 24.8471 31.6856 25.5944 31.6846C25.7174 31.6846 25.8403 31.6845 25.967 31.6845C27.1272 31.6676 28.1753 31.4759 29.2552 31.0391C29.5129 30.9375 29.5129 30.9375 29.7473 30.9375Z" fill="#EFB986"/>
<path d="M20.6254 34.6502C20.8582 34.8169 21.0205 34.9832 21.2005 35.2057C21.2994 35.3268 21.2994 35.3268 21.4003 35.4504C21.4696 35.537 21.5388 35.6236 21.6102 35.7129C21.6823 35.8019 21.7545 35.8908 21.8288 35.9825C22.0476 36.2531 22.2649 36.5247 22.4818 36.7969C22.5763 36.9153 22.5763 36.9153 22.6726 37.0361C23.2855 37.8064 23.8884 38.5837 24.474 39.375C23.5296 40.0733 22.5812 40.7659 21.6249 41.4478C21.5388 41.5097 21.4527 41.5717 21.364 41.6355C21.2837 41.6925 21.2035 41.7494 21.1209 41.808C21.0143 41.8841 21.0143 41.8841 20.9056 41.9617C20.724 42.0703 20.724 42.0703 20.4896 42.0703C20.0889 41.2825 19.6895 40.4942 19.2917 39.7049C19.107 39.3385 18.9218 38.9723 18.7357 38.6066C18.5217 38.1864 18.3097 37.7652 18.0978 37.3439C18.0305 37.2124 17.9633 37.0809 17.894 36.9455C17.833 36.8235 17.772 36.7015 17.7091 36.5759C17.6547 36.4684 17.6003 36.3609 17.5443 36.2502C17.4427 35.9766 17.4427 35.9766 17.5599 35.625C18.0006 35.3906 18.4764 35.2339 18.9442 35.061C19.0739 35.0104 19.2036 34.9597 19.3372 34.9075C19.462 34.8607 19.5869 34.8139 19.7155 34.7658C19.8302 34.7226 19.9448 34.6794 20.0629 34.6349C20.3724 34.5703 20.3724 34.5703 20.6254 34.6502Z" fill="#D5D9E2"/>
<path d="M30.802 34.5703C31.2374 34.6452 31.6244 34.7669 32.0348 34.9297C32.2143 35.0005 32.2143 35.0005 32.3975 35.0727C32.583 35.1467 32.583 35.1467 32.7722 35.2222C32.8981 35.2719 33.024 35.3217 33.1538 35.373C33.4638 35.4956 33.7736 35.6187 34.0833 35.7422C33.4492 37.1114 32.7884 38.4673 32.1172 39.8187C32.0264 40.0017 31.9358 40.1848 31.8455 40.3681C31.717 40.6285 31.5876 40.8885 31.458 41.1484C31.3994 41.2676 31.3994 41.2676 31.3397 41.3893C31.0632 41.9397 31.0632 41.9397 30.802 42.0703C27.2612 39.6762 27.2612 39.6762 27.052 39.2578C27.5429 38.6409 28.0371 38.0268 28.5352 37.4158C29.3016 36.4756 30.0562 35.5269 30.802 34.5703Z" fill="#D5D9E2"/>
<path d="M42.2865 33.2812C42.3638 33.3199 42.4412 33.3586 42.5208 33.3984C42.4414 33.4539 42.3619 33.5093 42.2801 33.5664C40.6295 34.7392 39.3373 36.0247 38.4193 37.8516C38.4966 37.8902 38.574 37.9289 38.6537 37.9688C38.6168 38.0326 38.5799 38.0965 38.542 38.1624C37.4112 40.1548 36.7645 42.307 37.2108 44.6118C37.2577 44.7815 37.3097 44.9499 37.3646 45.1172C37.4101 45.2599 37.4555 45.4027 37.5024 45.5498C37.769 46.3749 37.769 46.3749 38.0787 47.1844C38.1849 47.4609 38.1849 47.4609 38.2302 47.7393C38.6474 49.5249 40.3854 51.0835 41.7738 52.1599C42.0427 52.3753 42.2821 52.6035 42.5208 52.8516C40.1012 52.1231 38.1272 50.1898 36.8969 48.0367C36.5439 47.3673 36.3024 46.6575 36.0755 45.9375C36.0157 45.758 36.0157 45.758 35.9547 45.575C35.2095 42.9531 35.7988 40.0781 37.0789 37.7344C37.5915 36.8376 38.272 36.111 39.0052 35.3906C39.086 35.31 39.1668 35.2293 39.2501 35.1462C40.1081 34.3444 41.1878 33.6914 42.2865 33.2812Z" fill="#10A678"/>
<path d="M6.30985 40.5469C6.34853 40.6242 6.3872 40.7016 6.42704 40.7812C6.29671 41.146 6.15319 41.5013 6.00018 41.857C5.28759 43.6273 5.44941 45.6374 5.44102 47.5076C5.43882 47.8179 5.43654 48.1283 5.43414 48.4386C5.4287 49.1677 5.42437 49.8969 5.42047 50.626C5.41596 51.4573 5.41018 52.2885 5.4043 53.1198C5.39225 54.8272 5.38181 56.5347 5.37235 58.2422C4.94696 58.2422 4.52157 58.2422 4.08329 58.2422C4.07513 56.4941 4.06887 54.746 4.06508 52.9978C4.06327 52.186 4.06081 51.3742 4.05677 50.5624C4.05287 49.7783 4.05085 48.9941 4.04994 48.21C4.04929 47.9115 4.04803 47.6131 4.04612 47.3146C4.04355 46.8951 4.04322 46.4755 4.04338 46.0559C4.04212 45.9339 4.04085 45.8118 4.03955 45.6861C4.04443 44.5109 4.26777 43.4172 4.86698 42.3999C4.90702 42.3319 4.94705 42.2639 4.98829 42.1939C5.36043 41.5815 5.80579 41.0536 6.30985 40.5469Z" fill="#D6DAE3"/>
<path d="M41.1145 54.2578C41.5016 54.3352 41.803 54.4039 42.1619 54.5361C43.9044 55.1286 45.6255 55.2156 47.4426 55.1953C47.446 55.6812 47.4481 56.167 47.45 56.6528C47.4509 56.7916 47.4519 56.9303 47.4529 57.0733C47.4533 57.2051 47.4537 57.3369 47.4541 57.4727C47.4547 57.5948 47.4553 57.7169 47.4559 57.8428C47.4426 58.125 47.4426 58.125 47.3254 58.2422C47.1312 58.2531 46.9365 58.256 46.742 58.2555C46.6177 58.2555 46.4933 58.2555 46.3652 58.2555C46.1623 58.2546 46.1623 58.2546 45.9554 58.2536C45.8177 58.2535 45.68 58.2533 45.5381 58.2531C45.0963 58.2525 44.6545 58.251 44.2126 58.2495C43.914 58.2489 43.6153 58.2484 43.3166 58.2479C42.5825 58.2467 41.8485 58.2444 41.1145 58.2422C41.1145 56.9273 41.1145 55.6125 41.1145 54.2578Z" fill="#E3E9F7"/>
<path d="M17.7941 15.4688C18.2582 15.4688 18.7222 15.4688 19.2004 15.4688C19.2011 15.5669 19.2017 15.6651 19.2025 15.7663C19.2093 16.6971 19.2177 17.6279 19.228 18.5587C19.2332 19.0371 19.2378 19.5155 19.241 19.9939C19.244 20.4567 19.2488 20.9194 19.2546 21.3821C19.2566 21.5576 19.2579 21.7331 19.2587 21.9085C19.2702 24.4063 20.0104 26.6125 21.8005 28.4106C21.9878 28.5895 22.1758 28.7678 22.3644 28.9453C22.5603 29.1401 22.7557 29.3352 22.9504 29.5312C21.0935 29.0592 19.7153 27.7027 18.7417 26.1072C18.1265 25.0399 17.7785 23.8696 17.7808 22.6395C17.7808 22.5617 17.7808 22.4839 17.7808 22.4037C17.7808 22.1482 17.7818 21.8926 17.7827 21.6371C17.7829 21.4593 17.7831 21.2815 17.7832 21.1036C17.7836 20.6368 17.7848 20.1701 17.7861 19.7033C17.7873 19.2264 17.7878 18.7496 17.7884 18.2728C17.7897 17.3381 17.7916 16.4034 17.7941 15.4688Z" fill="#EFB987"/>
<path d="M24.5911 45.3516C25.0551 45.3516 25.5192 45.3516 25.9973 45.3516C25.6476 47.8664 25.2739 50.3725 24.7844 52.8642C24.4409 54.6485 24.1734 56.4479 23.8879 58.2422C23.4239 58.2422 22.9598 58.2422 22.4817 58.2422C22.6358 56.9351 22.8243 55.6369 23.0383 54.3384C23.0691 54.15 23.0999 53.9616 23.1307 53.7732C23.5917 50.9616 24.0717 48.153 24.5911 45.3516Z" fill="#E95051"/>
<path d="M49.6765 40.1221C50.1495 40.2227 50.3267 40.391 50.6067 40.7812C50.6416 41.1739 50.5664 41.384 50.3272 41.6963C49.8365 42.2513 49.3222 42.7645 48.7756 43.2642C48.0833 43.904 47.4071 44.5559 46.7481 45.2301C46.0754 45.9141 46.0754 45.9141 45.6377 45.9796C45.0111 45.8929 44.5975 45.3069 44.1614 44.8828C44.0321 44.7658 43.9025 44.6491 43.7727 44.5326C43.6433 44.4127 43.5141 44.2926 43.385 44.1724C43.3225 44.1173 43.2601 44.0623 43.1957 44.0056C42.9518 43.7718 42.7718 43.5709 42.7119 43.2326C42.7066 42.8902 42.7172 42.6105 42.8796 42.3047C43.2662 42.1052 43.4966 42.1169 43.927 42.1875C44.1781 42.3592 44.3899 42.5481 44.6081 42.7597C44.953 43.0935 45.3185 43.4011 45.6848 43.7109C45.7699 43.6253 45.8549 43.5396 45.9426 43.4513C46.2607 43.131 46.5792 42.8112 46.8979 42.4914C47.0353 42.3534 47.1726 42.2154 47.3098 42.0772C47.5079 41.8776 47.7064 41.6784 47.905 41.4793C47.9956 41.3878 47.9956 41.3878 48.0882 41.2943C49.1535 40.2288 49.1535 40.2288 49.6765 40.1221Z" fill="#404040"/>
<path d="M43.5754 36.0938C43.6528 36.1324 43.7301 36.1711 43.8098 36.2109C43.7192 36.2904 43.6285 36.3699 43.5351 36.4517C41.7563 38.031 40.443 39.8494 40.2942 42.3047C40.2417 43.4202 40.2973 44.4051 40.6457 45.4688C40.7076 45.6591 40.7076 45.6591 40.7707 45.8533C41.0799 46.7267 41.4752 47.4406 42.052 48.1641C42.1172 48.2471 42.1825 48.3302 42.2497 48.4158C42.7415 49.01 43.3042 49.4699 43.927 49.9219C43.811 49.9799 43.811 49.9799 43.6926 50.0391C41.7341 49.277 40.2568 47.9359 39.3681 46.0199C38.5938 44.1131 38.4996 42.2509 39.2395 40.3125C40.0487 38.5092 41.3875 37.0596 43.1973 36.2325C43.3221 36.1867 43.4469 36.1409 43.5754 36.0938Z" fill="#1CCC9D"/>
<path d="M21.6613 2.46094C21.7386 2.49961 21.8159 2.53828 21.8956 2.57812C21.7891 2.6486 21.7891 2.6486 21.6805 2.72049C18.8841 4.61774 17.0784 7.20582 16.4019 10.5138C16.2238 11.5383 16.2393 12.5644 16.2673 13.6012C16.2705 13.7305 16.2737 13.8597 16.277 13.9929C16.2813 14.1081 16.2855 14.2233 16.2898 14.342C16.269 14.6739 16.2407 14.8537 16.0363 15.1172C15.757 15.1886 15.757 15.1886 15.4357 15.2051C15.329 15.2117 15.2224 15.2184 15.1125 15.2252C15.0306 15.2282 14.9487 15.2313 14.8644 15.2344C14.8585 14.7115 14.8543 14.1887 14.8515 13.6658C14.8503 13.4887 14.8488 13.3115 14.8467 13.1344C14.8097 9.85402 15.8012 7.13728 18.0797 4.73831C19.0948 3.77833 20.3477 2.94259 21.6613 2.46094Z" fill="#3D4958"/>
<path d="M25.5286 40.6641C25.9656 40.7146 26.2361 40.8332 26.5819 41.1003C26.7059 41.1949 26.7059 41.1949 26.8325 41.2914C26.917 41.3575 27.0015 41.4236 27.0886 41.4917C27.1754 41.5582 27.2622 41.6248 27.3516 41.6933C27.565 41.8572 27.7775 42.0219 27.9895 42.1875C27.8969 42.3561 27.8041 42.5245 27.7112 42.6929C27.6595 42.7867 27.6079 42.8805 27.5546 42.9771C27.4346 43.1877 27.3036 43.3921 27.1692 43.5938C26.2933 43.7823 25.2344 43.762 24.3567 43.5938C23.8903 43.2774 23.6862 42.9623 23.5364 42.4219C23.5364 42.3059 23.5364 42.1898 23.5364 42.0703C23.7066 41.9139 23.7066 41.9139 23.9424 41.7581C24.0265 41.7016 24.1105 41.6451 24.1972 41.5869C24.2861 41.5289 24.375 41.4709 24.4666 41.4111C24.641 41.2949 24.8154 41.1787 24.9898 41.0623C25.0677 41.0112 25.1457 40.96 25.226 40.9073C25.4078 40.7921 25.4078 40.7921 25.5286 40.6641Z" fill="#EB5052"/>
<path d="M35.2551 16.7578C36.1565 16.908 36.7039 17.2655 37.2473 18.0029C37.5907 18.6126 37.595 19.2432 37.4817 19.9219C37.1841 20.6872 36.6102 21.2414 35.8777 21.5991C35.6067 21.6797 35.6067 21.6797 35.2551 21.6797C35.2551 20.0555 35.2551 18.4312 35.2551 16.7578Z" fill="#E0A56D"/>
<path d="M16.0364 16.7578C16.0364 18.382 16.0364 20.0063 16.0364 21.6797C15.1773 21.5365 14.6548 21.302 14.1101 20.6177C13.7558 19.9515 13.7061 19.2596 13.8098 18.5156C14.1343 17.736 14.6874 17.221 15.4504 16.875C15.8591 16.7578 15.8591 16.7578 16.0364 16.7578Z" fill="#DFA46D"/>
<path d="M21.7786 31.0547C22.4747 31.2287 22.4747 31.2287 23.1849 31.4062C23.1462 32.5277 23.1075 33.6492 23.0677 34.8047C22.8743 34.6113 22.681 34.418 22.4818 34.2188C22.4121 34.158 22.3425 34.0973 22.2707 34.0347C21.71 33.458 21.7243 32.8736 21.7347 32.1094C21.7439 31.7572 21.7595 31.4066 21.7786 31.0547Z" fill="#E0A56D"/>
<path d="M25.5286 40.6641C25.7249 40.6976 25.9204 40.7365 26.1145 40.7812C25.8429 41.0738 25.6171 41.266 25.2649 41.4624C24.9049 41.6927 24.9049 41.6927 24.8621 42.1069C24.9441 42.5472 25.0183 42.8428 25.2892 43.1978C25.8237 43.5586 26.5454 43.4825 27.1692 43.4766C27.1692 43.5152 27.1692 43.5539 27.1692 43.5938C24.6416 43.7855 24.6416 43.7855 23.9873 43.3452C23.6916 42.9145 23.5364 42.5956 23.5364 42.0703C23.7066 41.9139 23.7066 41.9139 23.9424 41.7581C24.0265 41.7016 24.1105 41.6451 24.1972 41.5869C24.2861 41.5289 24.375 41.4709 24.4666 41.4111C24.641 41.2949 24.8154 41.1787 24.9898 41.0623C25.0677 41.0112 25.1457 40.96 25.226 40.9073C25.4078 40.7921 25.4078 40.7921 25.5286 40.6641Z" fill="#D0383F"/>
<path d="M36.427 17.3438C37.01 17.6352 37.241 17.9148 37.4817 18.5156C37.6208 19.3391 37.5428 19.9887 37.0697 20.6808C36.8958 20.8594 36.8958 20.8594 36.427 21.0938C36.427 19.8563 36.427 18.6187 36.427 17.3438Z" fill="#EBB583"/>
<path d="M15.9192 17.1094C15.9579 17.1094 15.9965 17.1094 16.0364 17.1094C16.0364 18.3855 16.0364 19.6617 16.0364 20.9766C15.4351 20.3753 15.2996 20.0199 15.2966 19.1821C15.3087 18.363 15.4609 17.7969 15.9192 17.1094Z" fill="#F1BA87"/>
<path d="M44.9817 31.6406C45.4844 31.6406 45.9872 31.6406 46.5051 31.6406C46.5051 31.718 46.5051 31.7953 46.5051 31.875C46.0024 31.991 45.4997 32.107 44.9817 32.2266C44.9817 32.0332 44.9817 31.8398 44.9817 31.6406Z" fill="#11AC7D"/>
</g>
<defs>
<clipPath id="clip0_28_849">
<rect width="60" height="60" fill="white" transform="translate(0.333252)"/>
</clipPath>
</defs>
</svg>
