<svg width="42" height="42" viewBox="0 0 42 42" fill="none" xmlns="http://www.w3.org/2000/svg">
<path d="M21.1445 23.3112V37.3278C21.1445 39.3558 19.5005 40.9998 17.4725 40.9998C15.4458 40.9998 13.8025 39.3565 13.8025 37.3298V36.0038" stroke="#404040" stroke-width="1.33333" stroke-linecap="round" stroke-linejoin="round"/>
<path fill-rule="evenodd" clip-rule="evenodd" d="M21.3333 2.57935C21.3333 2.57935 39.6353 2.27802 41.3333 22.5934C41.3333 22.5934 33.6953 18.0507 27.7519 22.5934C27.7519 22.5934 28.8173 11.2854 21.3333 2.57935ZM21.3333 2.57935C21.3333 2.57935 2.55325 3.04135 1.33325 22.5934C1.33325 22.5934 7.30925 18.3207 14.5099 22.5934C14.5099 22.5934 14.2486 8.14802 21.3333 2.57935Z" fill="#1281D2"/>
<path fill-rule="evenodd" clip-rule="evenodd" d="M27.7518 22.5931C27.7518 22.5931 29.0058 11.5998 21.3331 2.5791C21.3331 2.5791 14.2724 7.51777 14.5098 22.5931C14.5098 22.5931 20.5698 18.1931 27.7518 22.5931Z" fill="#56B8FF"/>
<path d="M41.3333 22.5931C41.3333 11.5398 32.3786 2.5791 21.3333 2.5791C10.2879 2.5791 1.33325 11.5398 1.33325 22.5931C1.33325 22.5931 5.13859 19.6704 11.2573 21.0658" stroke="#404040" stroke-width="1.33333" stroke-linecap="round" stroke-linejoin="round"/>
<path d="M24.7233 21.0156C17.5887 19.6469 14.51 22.5929 14.51 22.5929C14.9747 6.14093 21.3333 2.5796 21.3333 2.5796C21.3333 2.5796 28.0793 8.89093 27.752 22.5929C27.752 22.5929 30.162 19.6269 37.6627 21.0156M21.3333 1V2.06267" stroke="#404040" stroke-width="1.33333" stroke-linecap="round" stroke-linejoin="round"/>
</svg>
