<svg width="61" height="60" viewBox="0 0 61 60" fill="none" xmlns="http://www.w3.org/2000/svg">
<path d="M31.5044 1.85775C31.6194 1.85691 31.7344 1.85608 31.8528 1.85521C32.04 1.85474 32.04 1.85474 32.231 1.85426C32.3635 1.85349 32.496 1.85272 32.6325 1.85192C33.071 1.84961 33.5094 1.84824 33.9478 1.84708C34.098 1.8466 34.2481 1.84612 34.4027 1.84563C35.1159 1.84344 35.829 1.84173 36.5421 1.84075C37.3616 1.83961 38.1811 1.83653 39.0006 1.83179C39.7132 1.8278 40.4258 1.82644 41.1385 1.82596C41.4401 1.82539 41.7417 1.82404 42.0433 1.82186C45.0668 1.80136 45.0668 1.80136 46.2708 2.34375C46.3789 2.39049 46.487 2.43722 46.5984 2.48538C47.3125 2.80655 47.9008 3.24847 48.4974 3.75C48.6236 3.84857 48.6236 3.84857 48.7524 3.94913C49.3355 4.42659 49.7879 4.96316 50.2332 5.56641C50.2867 5.63869 50.3401 5.71097 50.3952 5.78545C50.7599 6.29465 51.0414 6.81702 51.3099 7.38281C51.4044 7.38391 51.4989 7.385 51.5962 7.38613C52.0282 7.39246 52.46 7.40225 52.8919 7.41211C53.1149 7.4146 53.1149 7.4146 53.3424 7.41714C54.3394 7.44311 55.0212 7.52406 55.7914 8.19901C55.8545 8.27529 55.9177 8.35158 55.9827 8.43018C56.0477 8.50616 56.1127 8.58214 56.1796 8.66043C56.7045 9.42229 56.6624 10.2388 56.5833 11.1328C56.3864 11.9132 55.8259 12.4436 55.1771 12.8906C54.7164 13.1194 54.3037 13.1673 53.7928 13.1982C53.5886 13.2114 53.5886 13.2114 53.3804 13.2248C53.2772 13.2305 53.174 13.2363 53.0677 13.2422C53.0855 13.3155 53.1032 13.3888 53.1215 13.4644C53.2015 13.7955 53.2811 14.1268 53.3607 14.458C53.3886 14.5734 53.4166 14.6888 53.4454 14.8077C53.4718 14.918 53.4982 15.0283 53.5255 15.1419C53.5623 15.2947 53.5623 15.2947 53.5999 15.4506C53.6536 15.7031 53.6536 15.7031 53.6536 15.9375C53.7246 15.9476 53.7956 15.9577 53.8688 15.9682C55.3208 16.2117 56.4895 16.9096 57.3826 18.0959C58.0376 19.131 58.4674 20.2819 58.4809 21.5083C58.4819 21.5842 58.4828 21.6601 58.4838 21.7383C58.4867 21.9889 58.4887 22.2394 58.4904 22.4899C58.491 22.576 58.4916 22.662 58.4923 22.7506C58.4954 23.2063 58.4977 23.6621 58.4994 24.1178C58.5009 24.4931 58.5042 24.8684 58.509 25.2437C58.5148 25.6986 58.5177 26.1535 58.5185 26.6084C58.5193 26.7808 58.521 26.9532 58.5239 27.1256C58.5414 28.2597 58.4685 29.2331 57.6684 30.1051C56.8449 30.8812 56.1134 30.9759 55.0127 30.9499C54.9123 30.9458 54.8118 30.9417 54.7083 30.9375C54.7138 31.0704 54.7192 31.2034 54.7248 31.3403C54.781 33.2612 54.781 33.2612 54.2396 33.8672C53.6983 34.3595 53.223 34.6979 52.4737 34.7082C52.3782 34.7097 52.2827 34.7113 52.1843 34.7128C52.0814 34.7137 51.9785 34.7145 51.8725 34.7154C51.766 34.7164 51.6594 34.7173 51.5497 34.7183C51.324 34.7199 51.0983 34.7212 50.8726 34.7221C50.5295 34.7241 50.1865 34.7292 49.8434 34.7344C49.6238 34.7356 49.4041 34.7366 49.1845 34.7374C49.0828 34.7394 48.9811 34.7415 48.8763 34.7436C48.0754 34.7408 47.4295 34.5533 46.8499 33.9803C46.7966 33.9019 46.7433 33.8235 46.6883 33.7427C46.6329 33.664 46.5774 33.5853 46.5203 33.5042C46.0263 32.6718 46.2708 32.0669 46.2708 30.9375C40.7021 30.9375 35.1333 30.9375 29.3958 30.9375C29.3958 31.5949 29.3958 32.2523 29.3958 32.9297C29.1377 33.7364 28.7142 34.1403 27.9896 34.5703C27.6745 34.6753 27.4851 34.7038 27.1612 34.7082C27.0657 34.7097 26.9702 34.7113 26.8718 34.7128C26.7689 34.7137 26.666 34.7145 26.56 34.7154C26.4535 34.7164 26.3469 34.7173 26.2372 34.7183C26.0115 34.7199 25.7858 34.7212 25.5601 34.7221C25.217 34.7241 24.874 34.7292 24.5309 34.7344C24.3113 34.7356 24.0916 34.7366 23.872 34.7374C23.7703 34.7394 23.6686 34.7415 23.5638 34.7436C22.7629 34.7408 22.117 34.5533 21.5374 33.9803C21.4841 33.9019 21.4308 33.8235 21.3758 33.7427C21.3204 33.664 21.2649 33.5853 21.2078 33.5042C20.9985 33.1515 20.9439 32.861 20.9469 32.4596C20.9473 32.3708 20.9476 32.2821 20.948 32.1906C20.949 32.0986 20.95 32.0065 20.951 31.9116C20.9515 31.8182 20.9521 31.7248 20.9526 31.6285C20.954 31.3982 20.9561 31.1678 20.9583 30.9375C20.8138 30.9477 20.8138 30.9477 20.6663 30.9581C19.6187 31.0004 18.8454 30.871 18.047 30.1588C17.1507 29.1857 17.1541 28.2128 17.1575 26.9412C17.157 26.7674 17.1564 26.5935 17.1557 26.4197C17.1546 26.0558 17.1549 25.692 17.1561 25.3281C17.1574 24.866 17.155 24.4039 17.1516 23.9418C17.1494 23.5826 17.1495 23.2235 17.1502 22.8644C17.1502 22.6942 17.1495 22.5241 17.148 22.354C17.1346 20.5421 17.5453 18.7809 18.8197 17.4243C19.6804 16.6257 20.8057 15.9375 22.013 15.9375C22.0334 15.84 22.0334 15.84 22.0542 15.7405C22.1161 15.4449 22.1781 15.1492 22.2401 14.8535C22.2614 14.7512 22.2828 14.649 22.3048 14.5436C22.3256 14.4447 22.3464 14.3457 22.3678 14.2438C22.3868 14.1529 22.4058 14.0621 22.4254 13.9685C22.4787 13.7251 22.5372 13.4836 22.599 13.2422C22.4999 13.2392 22.4008 13.2361 22.2987 13.233C21.1708 13.1766 20.4594 13.037 19.6839 12.1948C19.0698 11.4765 19.0303 10.8182 19.0476 9.89594C19.1291 8.97459 19.5577 8.49028 20.2438 7.90375C20.7679 7.5426 21.1951 7.47484 21.8258 7.4968C22.0403 7.49872 22.0403 7.49872 22.2591 7.50069C22.5585 7.50511 22.858 7.51364 23.1572 7.52632C23.5904 7.52609 23.9427 7.51192 24.3568 7.38281C24.7023 6.99665 24.8656 6.56921 25.0599 6.09375C25.246 5.79952 25.4567 5.52964 25.6751 5.25879C25.7304 5.18967 25.7857 5.12055 25.8427 5.04933C27.2162 3.36936 29.2487 1.86911 31.5044 1.85775Z" fill="#404040"/>
<path d="M3.66948 33.6893C3.76938 33.6885 3.86928 33.6877 3.97221 33.6869C4.30225 33.6848 4.63217 33.6862 4.96221 33.6877C5.19162 33.6874 5.42104 33.687 5.65045 33.6864C6.1312 33.6857 6.6119 33.6867 7.09264 33.6889C7.70899 33.6916 8.32524 33.69 8.94159 33.6872C9.4153 33.6855 9.88899 33.6861 10.3627 33.6873C10.59 33.6876 10.8172 33.6872 11.0445 33.6861C11.3621 33.6849 11.6795 33.6867 11.9971 33.6893C12.0911 33.6884 12.1851 33.6874 12.282 33.6865C12.7012 33.6929 12.9423 33.7146 13.2826 33.9694C13.5057 34.286 13.5126 34.4692 13.5041 34.8541C13.5026 34.9742 13.5011 35.0943 13.4995 35.218C13.4956 35.3427 13.4916 35.4673 13.4876 35.5957C13.4855 35.7221 13.4834 35.8486 13.4812 35.9789C13.4757 36.2907 13.468 36.6023 13.4583 36.9141C13.5752 36.8633 13.6921 36.8125 13.8125 36.7601C14.2525 36.5691 14.6929 36.3788 15.1334 36.1888C15.3228 36.1069 15.5122 36.0249 15.7014 35.9426C18.7837 34.6031 18.7837 34.6031 20.1893 34.6289C20.2875 34.6271 20.3858 34.6253 20.487 34.6234C22.2193 34.6339 23.9135 35.5156 25.4993 36.1377C25.8795 36.2861 26.2597 36.4344 26.6399 36.5826C26.9069 36.6867 27.1739 36.7908 27.4409 36.8951C28.4397 37.2849 29.4395 37.672 30.44 38.0576C30.5129 38.0857 30.5858 38.1138 30.661 38.1427C31.3064 38.3916 31.952 38.6402 32.5976 38.8888C33.256 39.1424 33.9142 39.3964 34.572 39.6515C35.06 39.8407 35.5486 40.0282 36.038 40.2138C36.2624 40.2992 36.4866 40.3851 36.7108 40.4712C36.9923 40.5793 37.2741 40.6865 37.5564 40.7925C39.0175 41.3571 39.9801 42.0347 40.7557 43.4106C40.8802 43.7109 40.8802 43.7109 40.8802 43.9453C42.7387 42.7961 44.5744 41.6181 46.4002 40.4179C47.021 40.0107 47.6446 39.608 48.2685 39.2056C48.5951 38.9949 48.9209 38.7829 49.2463 38.5703C52.8451 36.221 52.8451 36.221 54.8914 36.5112C55.9582 36.7421 56.9857 37.315 57.638 38.2031C58.1772 39.1447 58.4806 39.8988 58.4876 40.9863C58.4912 41.1245 58.4912 41.1245 58.4949 41.2656C58.501 42.1813 58.2349 42.8131 57.6014 43.4839C57.5484 43.5402 57.4954 43.5965 57.4408 43.6545C56.8068 44.3208 56.1555 44.9708 55.5066 45.6226C55.4512 45.6783 55.3958 45.734 55.3387 45.7915C54.7493 46.3834 54.1553 46.9616 53.5212 47.5054C53.1451 47.8313 52.7852 48.1744 52.4231 48.5156C51.8979 49.0083 51.371 49.4968 50.8251 49.9667C50.5681 50.1897 50.3166 50.4183 50.0647 50.647C49.5316 51.1281 48.9887 51.5968 48.4425 52.0628C47.999 52.4413 47.5578 52.8222 47.1182 53.2051C46.3394 53.8833 45.5526 54.5486 44.7474 55.1953C44.6186 55.3013 44.4898 55.4074 44.361 55.5135C42.0995 57.358 39.6396 58.4119 36.6614 58.2422C35.6685 58.1261 34.718 57.9173 33.7587 57.6407C33.6304 57.6045 33.502 57.5682 33.3697 57.5309C32.9506 57.4124 32.5319 57.2926 32.1131 57.1729C31.8187 57.0894 31.5243 57.0061 31.2298 56.9228C29.8469 56.5313 28.4652 56.1352 27.084 55.7378C26.6386 55.6096 26.1932 55.4817 25.7478 55.3538C25.1903 55.1936 24.633 55.0325 24.076 54.8707C21.3124 54.0578 21.3124 54.0578 18.4681 53.6499C18.3545 53.6413 18.241 53.6327 18.1241 53.6239C16.5715 53.5145 15.0139 53.4769 13.4583 53.4375C13.4608 53.506 13.4632 53.5746 13.4657 53.6452C13.4755 53.9568 13.4816 54.2684 13.4876 54.5801C13.4915 54.6879 13.4955 54.7958 13.4995 54.9069C13.5018 55.0633 13.5018 55.0633 13.5041 55.2228C13.5078 55.3664 13.5078 55.3664 13.5115 55.5129C13.4351 55.8983 13.3031 56.0132 12.9896 56.25C12.6441 56.2962 12.3425 56.3141 11.9971 56.3107C11.8473 56.3119 11.8473 56.3119 11.6944 56.3131C11.3644 56.3152 11.0344 56.3138 10.7044 56.3123C10.475 56.3126 10.2456 56.313 10.0161 56.3136C9.5354 56.3143 9.0547 56.3133 8.57396 56.3111C7.95761 56.3084 7.34136 56.31 6.72501 56.3128C6.2513 56.3145 5.77761 56.3139 5.3039 56.3127C5.07664 56.3124 4.84938 56.3128 4.62212 56.3139C4.30452 56.3151 3.98707 56.3133 3.66948 56.3107C3.57547 56.3116 3.48147 56.3126 3.38461 56.3135C2.99905 56.3077 2.7375 56.2929 2.4186 56.0664C2.13816 55.6861 2.14299 55.3641 2.14878 54.9094C2.14805 54.8213 2.14731 54.7332 2.14656 54.6424C2.14469 54.3469 2.14617 54.0516 2.14765 53.7561C2.14701 53.5444 2.14618 53.3326 2.14516 53.1209C2.14302 52.5456 2.14385 51.9703 2.14534 51.3951C2.14652 50.7934 2.14542 50.1918 2.14469 49.5902C2.14383 48.5799 2.14496 47.5695 2.14719 46.5591C2.14974 45.3905 2.14891 44.2219 2.14633 43.0532C2.14421 42.0504 2.14391 41.0476 2.14513 40.0448C2.14586 39.4456 2.14596 38.8465 2.14441 38.2473C2.14306 37.684 2.14399 37.1208 2.14671 36.5575C2.14733 36.3506 2.14715 36.1436 2.14611 35.9367C2.14484 35.6546 2.14644 35.3727 2.14878 35.0906C2.14773 35.0083 2.14669 34.9261 2.14561 34.8414C2.15185 34.4548 2.18656 34.2482 2.4186 33.9336C2.81104 33.6548 3.20581 33.6847 3.66948 33.6893Z" fill="#404040"/>
<path d="M20.094 36.5332C20.2993 36.5287 20.2993 36.5287 20.5087 36.524C21.379 36.5985 22.1999 36.9778 23.0113 37.2885C23.1518 37.342 23.1518 37.342 23.2951 37.3966C23.6027 37.5138 23.9101 37.6314 24.2175 37.749C24.4366 37.8327 24.6556 37.9163 24.8747 37.9999C26.9518 38.7934 29.0258 39.5947 31.0992 40.3978C31.7881 40.6645 32.4774 40.9298 33.1671 41.1944C33.6416 41.3763 34.1159 41.5587 34.5902 41.741C34.8161 41.8277 35.0421 41.9143 35.2681 42.0007C35.5819 42.1207 35.8955 42.2412 36.2091 42.3619C36.3007 42.3967 36.3922 42.4316 36.4866 42.4674C38.1555 43.1121 38.1555 43.1121 38.5803 43.6523C38.6344 43.7188 38.6885 43.7853 38.7442 43.8538C39.2051 44.5231 39.2053 45.1396 39.1223 45.9375C38.877 46.7478 38.3071 47.3618 37.5989 47.8125C36.591 48.2578 35.7288 48.0374 34.715 47.7269C34.0719 47.5347 33.4181 47.3871 32.7649 47.2339C31.9103 47.0322 31.0602 46.8239 30.2161 46.582C29.3516 46.3358 28.4819 46.1142 27.6086 45.9009C27.483 45.8696 27.3573 45.8383 27.2278 45.8061C27.0492 45.7631 27.0492 45.7631 26.8671 45.7191C26.7614 45.6934 26.6558 45.6677 26.547 45.6412C26.1215 45.5666 25.6996 45.4947 25.3088 45.7031C25.1035 46.0681 25.0731 46.4693 25.177 46.875C25.6051 47.3086 26.1732 47.3869 26.7453 47.5223C26.9085 47.5624 26.9085 47.5624 27.0749 47.6033C27.4235 47.6887 27.7724 47.7726 28.1213 47.8564C28.5759 47.9667 29.0302 48.0776 29.4846 48.1888C29.5963 48.216 29.708 48.2432 29.823 48.2713C30.6201 48.467 31.4111 48.6801 32.2008 48.9034C32.8828 49.0957 33.5682 49.2662 34.259 49.4238C34.4678 49.4718 34.6766 49.52 34.8853 49.5685C34.9737 49.5887 35.0621 49.6089 35.1533 49.6297C35.3723 49.6875 35.3723 49.6875 35.6067 49.8047C37.0927 49.9382 38.3159 49.5759 39.4739 48.6328C40.0828 48.0552 40.5401 47.3524 40.7227 46.5276C40.9386 46.0399 41.277 45.8825 41.7297 45.6445C41.9122 45.5429 42.0944 45.4408 42.2763 45.3383C42.3733 45.284 42.4703 45.2296 42.5703 45.1737C43.0965 44.8711 43.6065 44.5438 44.1174 44.2163C44.2254 44.1473 44.3333 44.0783 44.4446 44.0071C45.574 43.283 46.6972 42.5491 47.82 41.8147C50.3106 40.1855 50.3106 40.1855 51.5149 39.4263C51.5875 39.3801 51.66 39.334 51.7348 39.2865C52.6828 38.6931 53.4402 38.2582 54.5911 38.4375C55.432 38.6892 55.8978 39.0964 56.342 39.8451C56.6535 40.4301 56.6706 40.9431 56.5833 41.6016C56.422 41.9842 56.1679 42.2432 55.8801 42.5391C55.821 42.6006 55.7618 42.6622 55.7009 42.7256C54.999 43.4533 54.2836 44.1623 53.5117 44.816C53.2747 45.024 53.0545 45.2441 52.8333 45.4688C52.4745 45.8323 52.103 46.1697 51.7159 46.5024C51.3192 46.8531 50.9342 47.2158 50.5481 47.5781C50.0232 48.0703 49.4971 48.5586 48.9514 49.0279C48.6863 49.2582 48.4274 49.4949 48.1677 49.7314C47.7619 50.0982 47.3481 50.4498 46.9226 50.7935C46.4769 51.1539 46.048 51.5259 45.6262 51.9141C45.0016 52.4875 44.3549 53.0255 43.6926 53.5547C43.6274 53.6075 43.5623 53.6603 43.4951 53.7147C41.2403 55.5409 39.1244 56.4236 36.1926 56.25C35.1262 56.1103 34.0942 55.7275 33.0695 55.41C32.1964 55.1408 31.3187 54.8953 30.4358 54.6606C28.7744 54.2186 27.1201 53.7591 25.4782 53.2492C24.4173 52.9204 23.3541 52.6163 22.2766 52.3462C22.1073 52.3036 22.1073 52.3036 21.9345 52.2601C19.1075 51.5658 16.4401 51.6335 13.4583 51.5625C13.4583 47.4246 13.4583 43.2867 13.4583 39.0234C16.5797 37.6663 16.5797 37.6663 17.7063 37.1997C17.8253 37.1501 17.9444 37.1005 18.067 37.0493C18.7696 36.7574 19.3235 36.5433 20.094 36.5332Z" fill="#FDCB80"/>
<path d="M23.4467 17.7671C23.5756 17.7664 23.7045 17.7658 23.8373 17.7652C24.2672 17.7635 24.6971 17.7643 25.127 17.7652C25.436 17.7645 25.745 17.7637 26.054 17.7627C26.8051 17.7607 27.5561 17.7606 28.3071 17.7612C28.9177 17.7617 29.5283 17.7615 30.1389 17.7609C30.2694 17.7608 30.2694 17.7608 30.4026 17.7606C30.5795 17.7604 30.7563 17.7603 30.9332 17.7601C32.5898 17.7585 34.2465 17.7591 35.9032 17.7605C37.4176 17.7616 38.932 17.7601 40.4465 17.7573C42.0031 17.7544 43.5598 17.7533 45.1165 17.7541C45.9898 17.7545 46.8631 17.7542 47.7364 17.7522C48.4797 17.7505 49.2229 17.7504 49.9662 17.7524C50.3452 17.7534 50.7241 17.7534 51.103 17.7519C51.5144 17.7503 51.9258 17.7517 52.3372 17.7538C52.4561 17.7526 52.5749 17.7515 52.6974 17.7504C53.7941 17.7617 54.6275 18.1135 55.4284 18.8617C56.5114 20.0563 56.6198 21.3499 56.6186 22.8973C56.6191 23.0453 56.6196 23.1933 56.6201 23.3458C56.6208 23.657 56.621 23.9682 56.6204 24.2794C56.6197 24.6773 56.6217 25.0751 56.6244 25.4729C56.6265 25.8546 56.6261 26.2363 56.6259 26.618C56.627 26.7604 56.6281 26.9027 56.6292 27.0494C56.6281 27.2483 56.6281 27.2483 56.627 27.4513C56.6271 27.5676 56.6271 27.6838 56.6272 27.8036C56.5742 28.1921 56.4705 28.4004 56.2318 28.7109C55.8143 29.0083 55.5279 29.1065 55.0175 29.1074C54.8923 29.1085 54.7671 29.1095 54.638 29.1106C54.5011 29.11 54.3643 29.1094 54.2232 29.1087C54.0043 29.1098 54.0043 29.1098 53.7809 29.1109C53.3761 29.1125 52.9713 29.1125 52.5664 29.1119C52.1297 29.1116 51.693 29.1133 51.2562 29.1147C50.4008 29.1172 49.5453 29.1177 48.6899 29.1175C47.9946 29.1174 47.2994 29.1178 46.6041 29.1187C46.4039 29.1189 46.2037 29.1192 46.0035 29.1194C45.854 29.1196 45.854 29.1196 45.7016 29.1198C43.8168 29.122 41.932 29.1219 40.0472 29.1211C38.3226 29.1204 36.598 29.1229 34.8734 29.1267C33.1029 29.1307 31.3324 29.1325 29.5618 29.1319C28.5677 29.1317 27.5736 29.1323 26.5794 29.1352C25.7331 29.1377 24.8869 29.1381 24.0406 29.1359C23.6088 29.1348 23.177 29.1347 22.7452 29.1371C22.2771 29.1397 21.8092 29.1377 21.3412 29.1353C21.2046 29.1368 21.068 29.1383 20.9272 29.1398C19.903 29.1285 19.903 29.1285 19.4696 28.787C19.0905 28.3496 19.0683 28.0409 19.0645 27.4816C19.0634 27.3497 19.0622 27.2178 19.0611 27.0819C19.0606 26.9391 19.0601 26.7963 19.0596 26.6492C19.0589 26.5019 19.0582 26.3546 19.0575 26.2028C19.0564 25.8903 19.0556 25.5778 19.0552 25.2654C19.0546 24.8683 19.0518 24.4714 19.0484 24.0744C19.0457 23.6924 19.0455 23.3104 19.0449 22.9285C19.0435 22.7875 19.042 22.6466 19.0405 22.5014C19.0444 21.024 19.3396 19.8502 20.355 18.7491C21.2594 17.888 22.2331 17.7599 23.4467 17.7671Z" fill="#FDCB80"/>
<path d="M32.5863 3.70265C32.7122 3.70185 32.8382 3.70104 32.9679 3.70021C33.3809 3.69808 33.7938 3.69852 34.2068 3.69919C34.4961 3.69866 34.7853 3.69803 35.0745 3.69733C35.6795 3.69628 36.2845 3.69656 36.8895 3.69773C37.6621 3.69908 38.4346 3.69671 39.2071 3.69329C39.8041 3.69113 40.4011 3.69117 40.9981 3.69184C41.2828 3.69186 41.5675 3.69115 41.8522 3.6897C42.2515 3.68794 42.6506 3.68921 43.0499 3.69121C43.1657 3.69007 43.2815 3.68894 43.4009 3.68777C45.1245 3.70572 46.5191 4.46797 47.7502 5.63233C50.4067 8.40251 50.9386 12.3236 51.6614 15.9375C42.5348 15.9375 33.4083 15.9375 24.0051 15.9375C24.5439 13.2438 24.5439 13.2438 24.7742 12.3633C24.8244 12.168 24.8746 11.9727 24.9248 11.7773C24.9482 11.6867 24.9716 11.5961 24.9958 11.5027C25.0812 11.1658 25.1575 10.8269 25.2356 10.4883C25.66 8.80243 26.4967 7.27864 27.6379 5.97656C27.7088 5.89454 27.7796 5.81251 27.8526 5.728C29.1453 4.33191 30.7156 3.69417 32.5863 3.70265Z" fill="#83D1F5"/>
<path d="M4.08325 35.625C6.55825 35.625 9.03325 35.625 11.5833 35.625C11.5833 41.8125 11.5833 48 11.5833 54.375C9.10825 54.375 6.63325 54.375 4.08325 54.375C4.08325 48.1875 4.08325 42 4.08325 35.625Z" fill="#89D3E2"/>
<path d="M8.77075 35.625C9.69888 35.625 10.627 35.625 11.5833 35.625C11.5833 41.8125 11.5833 48 11.5833 54.375C10.6551 54.375 9.727 54.375 8.77075 54.375C8.77075 48.1875 8.77075 42 8.77075 35.625Z" fill="#36C2D6"/>
<path d="M21.0756 18.1641C21.1529 18.2027 21.2302 18.2414 21.3099 18.2813C21.2935 18.3554 21.2771 18.4295 21.2602 18.5059C21.0763 19.409 21.0361 20.2814 21.0321 21.2013C21.031 21.3533 21.0299 21.5054 21.0289 21.662C21.0269 21.9814 21.026 22.3007 21.0257 22.6201C21.025 23.0272 21.0206 23.4341 21.0153 23.8411C21.0109 24.2331 21.0108 24.6252 21.0101 25.0172C21.0078 25.1622 21.0055 25.3071 21.0032 25.4564C21.0069 26.1838 21.0508 26.729 21.4555 27.3439C22.2021 28.0513 22.8835 28.0755 23.8706 28.0686C24.0101 28.0695 24.1496 28.0704 24.2933 28.0713C24.6789 28.0733 25.0645 28.0731 25.4502 28.0721C25.8666 28.0715 26.283 28.0737 26.6994 28.0755C27.4204 28.0782 28.1413 28.0792 28.8623 28.0791C29.9047 28.0789 30.9471 28.0813 31.9895 28.0843C33.6808 28.0891 35.3721 28.0918 37.0634 28.0932C38.7061 28.0946 40.3488 28.097 41.9915 28.1007C42.1435 28.101 42.1435 28.101 42.2985 28.1014C42.8067 28.1025 43.3149 28.1037 43.823 28.1048C48.0374 28.1146 52.2518 28.1209 56.4662 28.125C56.3828 28.5064 56.3065 28.6957 55.9974 28.9453C55.646 29.0625 55.4135 29.0776 55.0464 29.0786C54.9216 29.0792 54.7968 29.0797 54.6683 29.0804C54.5307 29.0804 54.3931 29.0805 54.2514 29.0805C54.1056 29.081 53.9599 29.0816 53.8097 29.0821C53.4043 29.0834 52.999 29.0842 52.5936 29.0847C52.1567 29.0854 51.7198 29.0868 51.2829 29.088C50.2276 29.0909 49.1722 29.0926 48.1168 29.0941C47.8188 29.0945 47.5208 29.095 47.2228 29.0955C45.3728 29.0984 43.5228 29.101 41.6728 29.1025C41.2443 29.1028 40.8158 29.1032 40.3873 29.1035C40.2807 29.1036 40.1742 29.1037 40.0645 29.1038C38.3384 29.1053 36.6122 29.1092 34.8861 29.1141C33.1145 29.119 31.3429 29.1218 29.5714 29.1224C28.5764 29.1228 27.5815 29.1242 26.5866 29.128C25.7394 29.1313 24.8923 29.1326 24.0452 29.1313C23.6129 29.1307 23.1806 29.131 22.7483 29.1339C22.2798 29.137 21.8113 29.1356 21.3428 29.1338C21.206 29.1354 21.0692 29.137 20.9283 29.1387C19.9029 29.1286 19.9029 29.1286 19.4695 28.7871C19.0906 28.3496 19.0683 28.0409 19.0645 27.4816C19.0634 27.3497 19.0622 27.2178 19.0611 27.0819C19.0606 26.9391 19.0601 26.7963 19.0596 26.6492C19.0589 26.5019 19.0582 26.3546 19.0575 26.2028C19.0564 25.8903 19.0556 25.5778 19.0552 25.2654C19.0546 24.8683 19.0518 24.4714 19.0484 24.0744C19.0457 23.6924 19.0455 23.3104 19.0449 22.9285C19.0435 22.7875 19.042 22.6466 19.0405 22.5014C19.044 21.1706 19.2609 20.0211 20.1381 18.9844C20.4372 18.6928 20.7477 18.4229 21.0756 18.1641Z" fill="#FBB54C"/>
<path d="M56.3489 40.0781C56.645 40.3742 56.6281 40.5014 56.6418 40.9131C56.6203 41.67 56.3978 42.0069 55.8801 42.5391C55.821 42.6006 55.7618 42.6622 55.7009 42.7256C54.999 43.4533 54.2836 44.1623 53.5117 44.816C53.2747 45.024 53.0545 45.2441 52.8333 45.4688C52.4745 45.8323 52.103 46.1697 51.7159 46.5024C51.3192 46.8531 50.9342 47.2158 50.5481 47.5781C50.0232 48.0703 49.4971 48.5586 48.9514 49.0279C48.6863 49.2582 48.4274 49.4949 48.1677 49.7314C47.7619 50.0982 47.3481 50.4498 46.9226 50.7935C46.4769 51.1539 46.048 51.5259 45.6262 51.9141C45.0016 52.4875 44.3549 53.0255 43.6926 53.5547C43.6274 53.6075 43.5623 53.6603 43.4951 53.7147C41.2403 55.5409 39.1244 56.4236 36.1926 56.25C35.1262 56.1103 34.0942 55.7275 33.0695 55.41C32.1964 55.1408 31.3187 54.8953 30.4358 54.6606C28.7744 54.2186 27.1201 53.7591 25.4782 53.2492C24.4173 52.9204 23.3541 52.6163 22.2766 52.3462C22.1073 52.3036 22.1073 52.3036 21.9345 52.2601C19.8994 51.7603 17.9252 51.6566 15.8386 51.6138C15.6074 51.6087 15.3761 51.6036 15.1449 51.5984C14.5827 51.586 14.0205 51.5741 13.4583 51.5625C13.4583 51.2531 13.4583 50.9438 13.4583 50.625C16.6612 50.5674 19.5781 50.7381 22.6667 51.6757C23.3244 51.8745 23.9843 52.0653 24.6442 52.2567C24.8766 52.3242 25.109 52.392 25.3414 52.4599C26.4429 52.7811 27.5492 53.0822 28.6584 53.3759C29.4838 53.5962 30.301 53.8364 31.1169 54.0894C31.5586 54.2245 32.0005 54.3586 32.4426 54.4922C32.5552 54.5266 32.6677 54.561 32.7837 54.5964C34.8882 55.2305 36.8662 55.518 39.0051 54.8438C39.1139 54.8111 39.2227 54.7785 39.3347 54.7449C40.9912 54.199 42.2648 53.1384 43.5754 52.0312C43.7089 51.9194 43.8424 51.8075 43.976 51.6957C44.2878 51.4338 44.598 51.1702 44.9075 50.9056C45.1089 50.7336 45.3108 50.5621 45.5127 50.3906C46.2676 49.7481 47.0108 49.0959 47.7415 48.4259C48.0667 48.1293 48.3974 47.8399 48.7294 47.5511C49.1027 47.2241 49.4707 46.8913 49.839 46.5587C50.0293 46.387 50.22 46.2158 50.4112 46.0451C51.2271 45.3158 52.0267 44.5696 52.8248 43.8209C53.0765 43.5854 53.3293 43.351 53.5822 43.1168C55.2114 41.7745 55.2114 41.7745 56.3489 40.0781Z" fill="#F8B34C"/>
<path d="M52.1302 20.2734C52.9503 20.8076 53.5672 21.6543 53.7709 22.6172C53.8928 23.8912 53.6288 25.0339 52.8141 26.0408C52.0446 26.789 51.0536 27.2184 49.9842 27.2314C49.2672 27.2184 48.7563 27.0901 48.1459 26.7187C48.023 26.6462 48.023 26.6462 47.8977 26.5723C47.1133 26.0513 46.6105 25.2834 46.3441 24.3823C46.1163 23.2056 46.2763 22.3286 46.8902 21.3135C48.1282 19.4927 50.2763 19.2417 52.1302 20.2734Z" fill="#404040"/>
<path d="M27.7552 20.2734C28.5753 20.8076 29.1922 21.6543 29.3959 22.6172C29.5178 23.8912 29.2538 25.0339 28.4391 26.0408C27.6696 26.789 26.6786 27.2184 25.6092 27.2314C24.8922 27.2184 24.3813 27.0901 23.7709 26.7187C23.648 26.6462 23.648 26.6462 23.5227 26.5723C22.7383 26.0513 22.2355 25.2834 21.9691 24.3823C21.7413 23.2056 21.9013 22.3286 22.5152 21.3135C23.7532 19.4927 25.9013 19.2417 27.7552 20.2734Z" fill="#404040"/>
<path d="M33.0004 24.3029C33.115 24.3023 33.2296 24.3016 33.3476 24.3009C33.726 24.2995 34.1041 24.3024 34.4824 24.3054C34.7455 24.3056 35.0087 24.3056 35.2718 24.3054C35.8231 24.3056 36.3743 24.3078 36.9256 24.3115C37.6321 24.3161 38.3386 24.3166 39.0452 24.3158C39.5885 24.3154 40.1318 24.3168 40.675 24.3188C40.9356 24.3197 41.1961 24.32 41.4566 24.3199C41.8207 24.3201 42.1848 24.3226 42.5489 24.3258C42.6566 24.3254 42.7642 24.3251 42.8751 24.3247C43.4364 24.3322 43.8257 24.3558 44.2786 24.7266C44.4432 25.0558 44.4249 25.2994 44.3958 25.6641C44.1872 26.0316 44.1001 26.1142 43.6926 26.25C43.5304 26.2615 43.3676 26.2668 43.205 26.268C43.1057 26.269 43.0065 26.2701 42.9043 26.2711C42.7958 26.2716 42.6873 26.2721 42.5755 26.2726C42.461 26.2736 42.3464 26.2745 42.2284 26.2755C41.8489 26.2784 41.4693 26.2804 41.0898 26.282C40.8955 26.283 40.8955 26.283 40.6973 26.2839C40.012 26.2871 39.3267 26.2893 38.6414 26.291C37.933 26.293 37.2246 26.2982 36.5162 26.3042C35.972 26.3081 35.4277 26.3095 34.8834 26.3102C34.6222 26.3109 34.361 26.3127 34.0999 26.3155C33.7346 26.3192 33.3694 26.3192 33.0041 26.3184C32.8961 26.3203 32.7881 26.3222 32.6768 26.3242C32.1502 26.3191 31.927 26.3038 31.4966 25.9747C31.2708 25.6641 31.2708 25.6641 31.1975 25.3125C31.4047 24.3182 32.1491 24.2906 33.0004 24.3029Z" fill="#404040"/>
<path d="M33.0004 20.5529C33.115 20.5523 33.2296 20.5516 33.3476 20.5509C33.726 20.5495 34.1041 20.5524 34.4824 20.5554C34.7455 20.5556 35.0087 20.5556 35.2718 20.5554C35.8231 20.5556 36.3743 20.5578 36.9256 20.5615C37.6321 20.5661 38.3386 20.5666 39.0452 20.5658C39.5885 20.5654 40.1318 20.5668 40.675 20.5688C40.9356 20.5697 41.1961 20.57 41.4566 20.5699C41.8207 20.5701 42.1848 20.5726 42.5489 20.5758C42.6566 20.5754 42.7642 20.5751 42.8751 20.5747C43.4364 20.5822 43.8257 20.6058 44.2786 20.9766C44.4432 21.3058 44.4249 21.5494 44.3958 21.9141C44.1872 22.2816 44.1001 22.3642 43.6926 22.5C43.5304 22.5115 43.3676 22.5168 43.205 22.518C43.1057 22.519 43.0065 22.5201 42.9043 22.5211C42.7958 22.5216 42.6873 22.5221 42.5755 22.5226C42.461 22.5236 42.3464 22.5245 42.2284 22.5255C41.8489 22.5284 41.4693 22.5304 41.0898 22.532C40.8955 22.533 40.8955 22.533 40.6973 22.5339C40.012 22.5371 39.3267 22.5393 38.6414 22.541C37.933 22.543 37.2246 22.5482 36.5162 22.5542C35.972 22.5581 35.4277 22.5595 34.8834 22.5602C34.6222 22.5609 34.361 22.5627 34.0999 22.5655C33.7346 22.5692 33.3694 22.5692 33.0041 22.5684C32.8961 22.5703 32.7881 22.5722 32.6768 22.5742C32.1502 22.5691 31.927 22.5538 31.4966 22.2247C31.2708 21.9141 31.2708 21.9141 31.1975 21.5625C31.4047 20.5682 32.1491 20.5406 33.0004 20.5529Z" fill="#404040"/>
<path d="M32.5863 3.70265C32.7122 3.70185 32.8382 3.70104 32.9679 3.70021C33.3809 3.69808 33.7938 3.69852 34.2068 3.69919C34.4961 3.69866 34.7853 3.69803 35.0745 3.69733C35.6795 3.69628 36.2845 3.69656 36.8895 3.69773C37.6621 3.69908 38.4346 3.69671 39.2071 3.69329C39.8041 3.69113 40.4011 3.69117 40.9981 3.69184C41.2828 3.69186 41.5675 3.69115 41.8522 3.6897C42.2515 3.68794 42.6506 3.68921 43.0499 3.69121C43.1657 3.69007 43.2815 3.68894 43.4009 3.68777C45.1384 3.70587 46.5366 4.4752 47.7649 5.66162C48.3143 6.23071 48.7765 6.83306 49.2004 7.5C49.1618 7.57735 49.1231 7.65469 49.0833 7.73438C49.0189 7.65122 49.0189 7.65122 48.9532 7.56638C47.8495 6.21828 46.2401 5.16018 44.5129 4.80469C44.3293 4.79341 44.1452 4.78791 43.9612 4.78665C43.7955 4.78514 43.7955 4.78514 43.6263 4.7836C43.4456 4.78285 43.4456 4.78285 43.2613 4.78209C43.1337 4.78113 43.0062 4.78017 42.8748 4.77918C42.452 4.77627 42.0293 4.77434 41.6066 4.77265C41.4618 4.77202 41.3171 4.7714 41.1679 4.77076C40.5586 4.76827 39.9493 4.76603 39.34 4.76471C38.471 4.76281 37.6022 4.75894 36.7333 4.75224C36.0459 4.74712 35.3585 4.74528 34.6711 4.74453C34.3804 4.74375 34.0898 4.74198 33.7992 4.73916C31.133 4.71476 29.2823 5.10342 27.2424 6.95206C26.9732 7.22975 26.7784 7.51819 26.5833 7.85156C26.5059 7.81289 26.4286 7.77422 26.3489 7.73438C27.8528 5.41677 29.6872 3.6895 32.5863 3.70265Z" fill="#43B0E2"/>
<path d="M50.6067 21.5625C51.1911 21.8547 51.6024 22.2649 51.8958 22.8516C51.9595 23.4322 51.9619 23.8912 51.698 24.4189C51.3271 24.84 50.9334 25.2767 50.3522 25.3404C49.667 25.3601 49.267 25.3153 48.7317 24.8438C48.2275 24.2851 48.1032 23.855 48.1128 23.1189C48.1819 22.5586 48.5147 22.2364 48.9221 21.8774C49.4678 21.4897 49.9499 21.4897 50.6067 21.5625Z" fill="#EEEEEE"/>
<path d="M26.2317 21.5625C26.8161 21.8547 27.2274 22.2649 27.5208 22.8516C27.5845 23.4322 27.5869 23.8912 27.323 24.4189C26.9521 24.84 26.5584 25.2767 25.9772 25.3404C25.292 25.3601 24.892 25.3153 24.3567 24.8438C23.8525 24.2851 23.7282 23.855 23.7378 23.1189C23.8069 22.5586 24.1397 22.2364 24.5471 21.8774C25.0928 21.4897 25.5749 21.4897 26.2317 21.5625Z" fill="#EEEEEE"/>
<path d="M48.1458 30.9375C49.6926 30.9375 51.2395 30.9375 52.8333 30.9375C52.8333 31.4402 52.8333 31.943 52.8333 32.4609C52.4527 32.8415 52.3551 32.8541 51.8434 32.8613C51.7592 32.8606 51.6749 32.8599 51.5881 32.8592C51.4575 32.8597 51.4575 32.8597 51.3242 32.8602C51.1402 32.8605 50.9562 32.8598 50.7722 32.8583C50.4905 32.8565 50.209 32.8583 49.9274 32.8606C49.7485 32.8603 49.5697 32.8599 49.3909 32.8592C49.3066 32.8599 49.2224 32.8606 49.1356 32.8613C48.6239 32.8541 48.5263 32.8415 48.1458 32.4609C48.1458 31.9582 48.1458 31.4555 48.1458 30.9375Z" fill="#747475"/>
<path d="M22.8333 30.9375C24.3801 30.9375 25.927 30.9375 27.5208 30.9375C27.5208 31.4402 27.5208 31.943 27.5208 32.4609C27.1402 32.8415 27.0426 32.8541 26.5309 32.8613C26.4467 32.8606 26.3624 32.8599 26.2756 32.8592C26.145 32.8597 26.145 32.8597 26.0117 32.8602C25.8277 32.8605 25.6437 32.8598 25.4597 32.8583C25.178 32.8565 24.8965 32.8583 24.6149 32.8606C24.436 32.8603 24.2572 32.8599 24.0784 32.8592C23.9941 32.8599 23.9099 32.8606 23.8231 32.8613C23.3114 32.8541 23.2138 32.8415 22.8333 32.4609C22.8333 31.9582 22.8333 31.4555 22.8333 30.9375Z" fill="#747475"/>
<path d="M22.6355 9.33838C22.7824 9.34235 22.7824 9.34235 22.9324 9.34639C23.1728 9.35326 23.4132 9.36377 23.6536 9.375C23.4989 9.99375 23.3442 10.6125 23.1848 11.25C21.6575 11.3214 21.6575 11.3214 21.1487 11.001C20.9215 10.5991 20.8638 10.4142 20.9582 9.96094C21.448 9.29331 21.8697 9.2991 22.6355 9.33838Z" fill="#EF8564"/>
<path d="M52.0129 9.375C52.3296 9.36775 52.6462 9.3605 52.9724 9.35303C53.0711 9.34983 53.1698 9.34663 53.2714 9.34333C53.8082 9.33739 54.1555 9.37725 54.5911 9.72656C54.7557 10.0558 54.7374 10.2994 54.7083 10.6641C54.4997 11.0316 54.4126 11.1142 54.0051 11.25C53.4969 11.2658 52.9903 11.255 52.4817 11.25C52.327 10.6312 52.1723 10.0125 52.0129 9.375Z" fill="#F08664"/>
</svg>
