<svg width="1440" height="1114" viewBox="0 0 1440 1114" fill="none" xmlns="http://www.w3.org/2000/svg">
<g clip-path="url(#clip0_29_2216)">
<rect width="1440" height="1114" fill="#5665B0"/>
<path d="M1448.8 1017.41C1489.45 977.601 1489.45 913.061 1448.8 873.254C1408.15 833.448 1342.25 833.448 1301.6 873.254C1260.95 913.061 1260.95 977.601 1301.6 1017.41C1342.25 1057.21 1408.15 1057.21 1448.8 1017.41Z" fill="#FABA23"/>
<path d="M1445.84 992.51C1419.24 1030.71 1366.05 1040.56 1327.04 1014.51C1322.97 1011.79 1319.21 1008.79 1315.78 1005.54C1309.96 1000.06 1305.09 993.893 1301.18 987.261C1299.7 984.746 1298.35 982.165 1297.15 979.531C1288.35 960.21 1287.18 937.963 1294.54 917.513C1296.95 910.815 1300.29 904.312 1304.57 898.164C1324.41 869.672 1359.03 856.948 1391.54 863.125C1402.62 865.233 1413.46 869.537 1423.38 876.16C1431.96 881.894 1439.15 888.887 1444.84 896.722C1446.56 899.084 1448.15 901.523 1449.6 904.032C1453.53 910.833 1456.45 918.109 1458.3 925.626C1463.79 947.837 1460.02 972.146 1445.84 992.51Z" fill="#FAD332"/>
<path d="M1444.84 896.721L1297.15 979.531C1288.35 960.21 1287.18 937.963 1294.54 917.513L1391.54 863.125C1402.62 865.233 1413.46 869.537 1423.38 876.16C1431.96 881.894 1439.15 888.887 1444.84 896.721Z" fill="#FAEE6C"/>
<path d="M1458.3 925.626L1315.78 1005.54C1309.96 1000.06 1305.09 993.893 1301.18 987.261L1449.6 904.032C1453.53 910.833 1456.45 918.109 1458.3 925.626Z" fill="#FAEE6C"/>
<path d="M1351.84 854.017C1342.45 861.662 1341.76 864.034 1345.67 875.216C1338.03 866.071 1335.61 865.395 1324.03 869.178C1333.41 861.534 1334.1 859.161 1330.19 847.979C1338 857.168 1340.42 857.845 1351.84 854.017Z" fill="white"/>
<path d="M73.8 334.886C114.448 295.08 114.448 230.54 73.8 190.733C33.1519 150.926 -32.7518 150.926 -73.4 190.733C-114.048 230.54 -114.048 295.08 -73.4 334.886C-32.7518 374.693 33.1518 374.693 73.8 334.886Z" fill="#FABA23"/>
<path d="M70.8436 309.989C44.2405 348.193 -8.95039 358.039 -47.9618 331.987C-52.0342 329.267 -55.7936 326.266 -59.2243 323.019C-65.0357 317.536 -69.9122 311.372 -73.8249 304.74C-75.3034 302.225 -76.6477 299.644 -77.8511 297.01C-86.6542 277.689 -87.8244 255.442 -80.4574 234.992C-78.0482 228.294 -74.7149 221.791 -70.4338 215.643C-50.5944 187.151 -15.9651 174.427 16.5402 180.604C27.6172 182.712 38.4564 187.016 48.3752 193.639C56.9609 199.373 64.1469 206.366 69.8405 214.2C71.5633 216.563 73.1503 219.002 74.5993 221.511C78.5323 228.312 81.4451 235.588 83.2976 243.105C88.7881 265.316 85.0231 289.625 70.8436 309.989Z" fill="#FAD332"/>
<path d="M69.8415 214.2L-77.8501 297.01C-86.6532 277.689 -87.8234 255.442 -80.4564 234.991L16.5412 180.604C27.6182 182.712 38.4574 187.016 48.3763 193.639C56.9614 199.372 64.1479 206.366 69.8415 214.2Z" fill="#FAEE6C"/>
<path d="M83.298 243.105L-59.2239 323.019C-65.0352 317.536 -69.9118 311.371 -73.8245 304.74L74.5997 221.511C78.5327 228.312 81.4456 235.588 83.298 243.105Z" fill="#FAEE6C"/>
<path d="M1464.05 1058.52V1074.36C1464.05 1080.54 1458.93 1085.56 1452.61 1085.56H1255.25C1248.93 1085.56 1243.81 1080.54 1243.81 1074.36V1058.52C1243.81 1055.76 1244.82 1053.24 1246.51 1051.29C1248.61 1048.86 1251.74 1047.32 1255.25 1047.32H1452.61C1456.12 1047.32 1459.25 1048.86 1461.35 1051.29C1463.04 1053.24 1464.05 1055.76 1464.05 1058.52Z" fill="#FAD332"/>
<path d="M1260.48 1047.32H1254.74V1085.56H1260.48V1047.32Z" fill="#FABA23"/>
<path d="M1284.52 1047.32H1278.78V1085.56H1284.52V1047.32Z" fill="#FABA23"/>
<path d="M1308.56 1047.32H1302.82V1085.56H1308.56V1047.32Z" fill="#FABA23"/>
<path d="M1332.6 1047.32H1326.87V1085.56H1332.6V1047.32Z" fill="#FABA23"/>
<path d="M1356.64 1047.32H1350.91V1085.56H1356.64V1047.32Z" fill="#FABA23"/>
<path d="M1380.68 1047.32H1374.95V1085.56H1380.68V1047.32Z" fill="#FABA23"/>
<path d="M1404.72 1047.32H1398.99V1085.56H1404.72V1047.32Z" fill="#FABA23"/>
<path d="M1428.76 1047.32H1423.03V1085.56H1428.76V1047.32Z" fill="#FABA23"/>
<path d="M1461.35 1051.29H1246.51C1248.61 1048.86 1251.74 1047.32 1255.25 1047.32H1452.61C1456.12 1047.32 1459.25 1048.86 1461.35 1051.29Z" fill="#FABA23"/>
<path d="M1461.35 1081.59H1246.51C1248.61 1084.02 1251.74 1085.56 1255.25 1085.56H1452.61C1456.12 1085.56 1459.25 1084.02 1461.35 1081.59Z" fill="#FABA23"/>
<path d="M1450.25 1096.77V1112.6C1450.25 1118.79 1445.13 1123.81 1438.81 1123.81H1241.44C1235.12 1123.81 1230 1118.79 1230 1112.6V1096.77C1230 1094.01 1231.01 1091.49 1232.7 1089.53C1234.8 1087.1 1237.94 1085.56 1241.44 1085.56H1438.81C1442.31 1085.56 1445.45 1087.1 1447.55 1089.53C1449.24 1091.49 1450.25 1094.01 1450.25 1096.77Z" fill="#FAD332"/>
<path d="M1246.67 1085.56H1240.94V1123.81H1246.67V1085.56Z" fill="#FABA23"/>
<path d="M1270.71 1085.56H1264.98V1123.81H1270.71V1085.56Z" fill="#FABA23"/>
<path d="M1294.75 1085.56H1289.02V1123.81H1294.75V1085.56Z" fill="#FABA23"/>
<path d="M1318.79 1085.56H1313.06V1123.81H1318.79V1085.56Z" fill="#FABA23"/>
<path d="M1342.83 1085.56H1337.1V1123.81H1342.83V1085.56Z" fill="#FABA23"/>
<path d="M1366.87 1085.56H1361.14V1123.81H1366.87V1085.56Z" fill="#FABA23"/>
<path d="M1390.92 1085.56H1385.18V1123.81H1390.92V1085.56Z" fill="#FABA23"/>
<path d="M1414.96 1085.56H1409.22V1123.81H1414.96V1085.56Z" fill="#FABA23"/>
<path d="M1439 1085.56H1433.26V1123.81H1439V1085.56Z" fill="#FABA23"/>
<path d="M1447.55 1089.53H1232.7C1234.8 1087.1 1237.94 1085.56 1241.44 1085.56H1438.81C1442.31 1085.56 1445.45 1087.1 1447.55 1089.53Z" fill="#FABA23"/>
<path d="M1509.11 98.0634L1241 206.16L1288.27 318.601L1556.38 210.504L1509.11 98.0634Z" fill="#3F964F"/>
<path d="M1504.35 140.509L1522.48 183.643C1511.81 187.947 1506.72 199.91 1511.11 210.363L1320.32 287.29C1315.93 276.836 1303.71 271.849 1293.03 276.153L1274.9 233.019C1285.57 228.714 1290.66 216.753 1286.27 206.299L1477.06 129.372C1481.46 139.826 1493.67 144.813 1504.35 140.509Z" fill="#4EAD60"/>
<path d="M1428.99 193.565C1436.29 210.919 1427.84 230.78 1410.12 237.924C1392.4 245.069 1372.12 236.793 1364.82 219.439C1357.53 202.085 1365.98 182.225 1383.7 175.08C1401.42 167.935 1421.7 176.211 1428.99 193.565Z" fill="#3F964F"/>
<path d="M190.111 959.06L-78 1067.16L-30.7297 1179.6L237.381 1071.5L190.111 959.06Z" fill="#3F964F"/>
<path d="M185.348 1001.51L203.481 1044.64C192.808 1048.94 187.717 1060.91 192.11 1071.36L1.32067 1148.29C-3.07423 1137.83 -15.2931 1132.85 -25.968 1137.15L-44.0999 1094.02C-33.4271 1089.71 -28.3357 1077.75 -32.7282 1067.3L158.061 990.368C162.456 1000.82 174.673 1005.81 185.348 1001.51Z" fill="#4EAD60"/>
<path d="M109.994 1054.56C117.29 1071.92 108.839 1091.78 91.1181 1098.92C73.3974 1106.07 53.1172 1097.79 45.8217 1080.44C38.526 1063.08 46.9773 1043.22 64.6977 1036.08C82.4186 1028.93 102.698 1037.21 109.994 1054.56Z" fill="#3F964F"/>
<path d="M95.1108 923.757L-173 1031.85L-125.73 1144.29L142.381 1036.2L95.1108 923.757Z" fill="#3F964F"/>
<path d="M90.3479 966.203L108.481 1009.34C97.808 1013.64 92.7173 1025.6 97.1098 1036.06L-93.6793 1112.98C-98.0742 1102.53 -110.293 1097.54 -120.968 1101.85L-139.1 1058.71C-128.427 1054.41 -123.336 1042.45 -127.728 1031.99L63.0609 955.066C67.4558 965.52 79.6727 970.507 90.3479 966.203Z" fill="#4EAD60"/>
<path d="M14.9943 1019.26C22.2898 1036.61 13.8385 1056.47 -3.88189 1063.62C-21.6026 1070.76 -41.8828 1062.49 -49.1783 1045.13C-56.474 1027.78 -48.0227 1007.92 -30.3023 1000.77C-12.5814 993.629 7.69835 1001.91 14.9943 1019.26Z" fill="#3F964F"/>
</g>
<defs>
<clipPath id="clip0_29_2216">
<rect width="1440" height="1114" fill="white"/>
</clipPath>
</defs>
</svg>
