<svg width="299" height="56" viewBox="0 0 299 56" fill="none" xmlns="http://www.w3.org/2000/svg">
<g clip-path="url(#clip0_29_1582)">
<path d="M66.292 50.3009L74.3891 9.46319H98.8043L97.2474 17.3053H82.0498L80.2432 26.5273H93.1978L91.6409 34.3039H78.7472L75.5725 50.3009H66.292ZM106.964 51.0532C104.222 51.0532 102.084 50.06 100.548 48.0736C99.012 46.0872 98.2441 43.2555 98.2441 39.5743C98.2441 36.6052 98.6994 33.8348 99.6142 31.263C100.527 28.6913 101.752 26.4322 103.288 24.4881C104.824 22.5439 106.58 21.0267 108.553 19.9405C110.523 18.8522 112.59 18.3091 114.749 18.3091C116.119 18.3091 117.418 18.6641 118.641 19.3762C119.866 20.0863 120.771 21.0689 121.352 22.3242H121.476L122.846 19.0614H130.259L124.029 50.3009H116.493L116.555 46.3492H116.432C115.062 47.7714 113.523 48.9104 111.822 49.7684C110.12 50.6242 108.5 51.0532 106.964 51.0532ZM111.012 43.4626C111.967 43.4626 112.995 43.1604 114.094 42.5539C115.196 41.9474 116.182 40.8084 117.053 39.1347L119.172 28.5962C118.757 27.6347 118.196 26.9436 117.489 26.5273C116.784 26.1089 116.098 25.8997 115.435 25.8997C114.438 25.8997 113.484 26.2125 112.569 26.8401C111.656 27.4677 110.836 28.3341 110.11 29.4436C109.382 30.5509 108.811 31.8695 108.395 33.3953C107.98 34.921 107.772 36.5841 107.772 38.3824C107.772 40.1808 108.074 41.4762 108.677 42.2707C109.279 43.0653 110.057 43.4626 111.012 43.4626ZM131.629 50.3009L137.857 19.0614H147.074L140.91 50.3009H131.629ZM143.837 14.7335C142.632 14.7335 141.51 14.3679 140.473 13.6347C139.435 12.9035 138.916 11.8067 138.916 10.3423C138.916 8.87783 139.466 7.61413 140.566 6.54696C141.667 5.47979 143.006 4.94727 144.584 4.94727C145.83 4.94727 146.961 5.32342 147.979 6.07572C148.996 6.83013 149.504 7.91632 149.504 9.33851C149.504 10.8854 148.965 12.1723 147.884 13.1972C146.806 14.22 145.457 14.7335 143.837 14.7335ZM148.508 50.3009L154.737 19.0614H162.211L161.899 25.1474H162.148C163.395 23.18 164.826 21.5507 166.445 20.2532C168.065 18.9578 169.748 18.3091 171.492 18.3091C172.323 18.3091 173.007 18.3619 173.546 18.4655C174.087 18.5711 174.501 18.7275 174.792 18.9367L171.802 26.9648C171.387 26.7154 170.879 26.5675 170.277 26.5273C169.675 26.4851 169.125 26.4639 168.626 26.4639C167.339 26.4639 166.082 26.9352 164.857 27.8756C163.634 28.8159 162.398 30.3522 161.152 32.4866L157.788 50.3009H148.508ZM173.919 50.3009L182.017 9.46319H191.236L197.153 29.9761C197.401 30.8129 197.63 31.711 197.837 32.6747C198.045 33.6362 198.253 34.6399 198.46 35.686C198.668 36.7299 198.876 37.7971 199.084 38.8833H199.333C199.457 36.5418 199.665 34.0546 199.957 31.4194C200.246 28.7842 200.62 26.2547 201.077 23.8288L203.941 9.46319H212.724L204.627 50.3009H195.41L189.553 29.788C189.222 28.575 188.901 27.2057 188.588 25.6799C188.278 24.1542 187.955 22.5545 187.623 20.8808H187.373C187.208 23.1399 186.989 25.5954 186.721 28.2517C186.45 30.908 186.066 33.4481 185.567 35.8741L182.766 50.3009H173.919ZM227.735 51.0532C223.625 51.0532 220.354 49.8614 217.926 47.4777C215.496 45.094 214.281 41.8122 214.281 37.6301C214.281 34.7435 214.789 32.1189 215.807 29.7563C216.824 27.3938 218.174 25.3545 219.856 23.6407C221.537 21.9269 223.407 20.6082 225.461 19.689C227.517 18.7698 229.563 18.3091 231.596 18.3091C234.129 18.3091 236.143 18.8416 237.639 19.9088C239.133 20.9738 240.203 22.396 240.845 24.1732C241.489 25.9504 241.812 27.9284 241.812 30.1029C241.812 31.1067 241.718 32.1104 241.531 33.1121C241.344 34.1159 241.137 35.0055 240.908 35.779C240.679 36.5524 240.482 37.1061 240.316 37.4421H221.132L221.879 31.2947H234.026C234.15 31.001 234.223 30.7284 234.244 30.479C234.265 30.2276 234.275 29.9338 234.275 29.5999C234.275 28.8476 234.16 28.1566 233.931 27.5311C233.705 26.9035 233.31 26.4005 232.748 26.0244C232.188 25.6482 231.43 25.4602 230.476 25.4602C229.771 25.4602 228.982 25.6482 228.109 26.0244C227.236 26.4005 226.407 27.0282 225.616 27.9073C224.829 28.7842 224.185 29.9444 223.686 31.3877C223.188 32.831 222.939 34.6188 222.939 36.751C222.939 38.6339 223.241 40.0857 223.843 41.1106C224.443 42.1355 225.253 42.8561 226.271 43.2745C227.288 43.6929 228.419 43.9021 229.666 43.9021C230.62 43.9021 231.627 43.7246 232.687 43.3696C233.745 43.0146 234.628 42.5856 235.333 42.0827L238.386 47.5411C237.098 48.5871 235.541 49.4324 233.715 50.0812C231.888 50.7299 229.894 51.0532 227.735 51.0532ZM245.797 50.3009L250.593 26.2759H246.357L247.79 19.4375L252.15 19.0614L252.4 17.6181C252.816 15.4436 253.521 13.4677 254.517 11.6905C255.514 9.9133 256.853 8.48055 258.535 7.39436C260.216 6.30606 262.283 5.76296 264.731 5.76296C265.978 5.76296 267.193 5.90877 268.376 6.20251C269.56 6.49413 270.649 6.91255 271.645 7.45776L268.718 13.8544C268.387 13.6452 267.929 13.4677 267.348 13.3219C266.767 13.1761 266.207 13.1021 265.667 13.1021C264.629 13.1021 263.777 13.3642 263.114 13.8861C262.449 14.4102 261.949 15.5281 261.618 17.2419L261.244 19.0614H266.538L265.107 26.2759H259.75L255.077 50.3009H245.797ZM277.315 51.0532C274.159 51.0532 271.863 50.2481 270.432 48.6378C268.999 47.0276 268.282 44.9904 268.282 42.5222C268.282 41.8122 268.334 41.1317 268.439 40.483C268.542 39.8363 268.657 39.177 268.781 38.5071L271.335 26.2759H267.224L268.657 19.4375L273.141 19.0614L276.068 9.58998H283.855L282.048 19.0614H288.962L287.529 26.2759H280.428L277.875 38.822C277.833 39.1981 277.801 39.5532 277.78 39.887C277.759 40.223 277.749 40.5569 277.749 40.8908C277.749 41.8544 278.009 42.575 278.527 43.0547C279.048 43.5365 279.742 43.7775 280.615 43.7775C281.112 43.7775 281.58 43.7246 282.017 43.6211C282.453 43.5154 282.858 43.3802 283.232 43.2132L284.912 49.5486C284.042 49.9248 282.951 50.2692 281.643 50.5841C280.334 50.8968 278.893 51.0532 277.315 51.0532Z" fill="#5665B0"/>
<path fill-rule="evenodd" clip-rule="evenodd" d="M0 55.9706H13.9995V14.127H27.315L13.3763 0.0297852H0V55.9706Z" fill="#77C476"/>
<path fill-rule="evenodd" clip-rule="evenodd" d="M55.6204 0.0297852H41.6209V41.8734H28.3054L42.2441 55.9706H55.6204V0.0297852Z" fill="#77C476"/>
<path fill-rule="evenodd" clip-rule="evenodd" d="M21.0999 21.1934H34.5202V34.7073H21.0999V21.1934Z" fill="#5665B0"/>
<path d="M292.735 13.9751L292.728 10.072L291.415 10.0656V9.59862L294.596 9.59229V10.072L293.276 10.0656L293.284 13.9751H292.735ZM295.376 13.9751V9.59862H296.073L296.893 11.9401C296.946 12.088 296.996 12.2338 297.042 12.3817C297.088 12.5275 297.137 12.6839 297.185 12.8487H297.212C297.261 12.6839 297.307 12.5275 297.351 12.3817C297.395 12.2338 297.441 12.088 297.489 11.9401L298.312 9.59862H299V13.9751H298.484V11.566C298.484 11.4371 298.488 11.2934 298.496 11.1328C298.505 10.9743 298.515 10.8137 298.526 10.6573C298.538 10.4989 298.549 10.3552 298.564 10.2262H298.536L298.198 11.2807L297.384 13.5419H296.979L296.165 11.2807L295.827 10.2262H295.8C295.815 10.3552 295.825 10.4989 295.838 10.6573C295.848 10.8137 295.859 10.9743 295.867 11.1328C295.876 11.2934 295.88 11.4371 295.88 11.566V13.9751H295.376Z" fill="#2B2A29"/>
</g>
<defs>
<clipPath id="clip0_29_1582">
<rect width="299" height="56" fill="white"/>
</clipPath>
</defs>
</svg>
