<svg width="524" height="398" viewBox="0 0 524 398" fill="none" xmlns="http://www.w3.org/2000/svg">
<path d="M77.3966 305.373C77.3966 305.373 64.4209 227.82 36.3571 242.003C8.29341 256.186 65.9298 298.734 77.3966 305.373Z" fill="#77C476"/>
<path d="M93.3891 308.692C93.3891 308.692 58.0831 267.351 80.4134 257.694C102.744 248.038 93.3891 308.692 93.3891 308.692Z" fill="#77C476"/>
<path d="M102.74 335.561C102.74 335.561 70.8603 301.035 59.144 317.27C47.4277 333.505 102.74 335.561 102.74 335.561Z" fill="#77C476"/>
<path d="M41.4873 253.772C41.4873 253.772 89.4669 345.204 158.268 356.973" stroke="#77C476" stroke-width="1.9595" stroke-miterlimit="10"/>
<path d="M84.3369 271.877C84.3369 271.877 92.4847 286.965 94.8982 322.573" stroke="#77C476" stroke-width="1.9595" stroke-miterlimit="10"/>
<path d="M71.2244 322.606C71.2244 322.606 83.521 331.441 114.889 338.931" stroke="#77C476" stroke-width="1.7715" stroke-miterlimit="10"/>
<path d="M50.5295 327.327C50.5295 327.327 75.2733 380.56 141.567 355.53" stroke="#77C476" stroke-width="1.9595" stroke-miterlimit="10"/>
<path d="M57.6193 339.308C57.6193 339.308 64.2786 329.819 46.11 319.775C46.11 319.775 40.1686 335.871 57.6193 339.308Z" fill="#77C476"/>
<path d="M68.4845 348.602C68.4845 348.602 60.2184 342.168 67.1974 332.961C67.1974 332.961 75.2196 340.317 68.4845 348.602Z" fill="#77C476"/>
<path d="M67.3406 349.249C67.3406 349.249 59.5938 357.449 50.4407 349.02C50.4407 349.02 59.1512 341.177 67.3406 349.249Z" fill="#77C476"/>
<path d="M84.273 357.479C84.273 357.479 75.2455 352.166 80.978 342.134C80.978 342.134 89.8826 348.394 84.273 357.479Z" fill="#77C476"/>
<path d="M83.2225 358.268C83.2225 358.268 76.5983 367.399 66.4343 360.222C66.4343 360.222 74.0592 351.32 83.2225 358.268Z" fill="#77C476"/>
<path d="M102.189 361.174C102.189 361.174 91.8848 359.294 93.8132 347.902C93.8132 347.902 104.327 350.712 102.189 361.174Z" fill="#77C476"/>
<path d="M101.473 362.276C101.473 362.276 98.3972 373.13 86.3843 369.891C86.3843 369.891 90.4794 358.907 101.473 362.276Z" fill="#77C476"/>
<path d="M122.218 360.755C122.218 360.755 111.781 361.654 110.644 350.156C110.644 350.156 121.528 350.101 122.218 360.755Z" fill="#77C476"/>
<path d="M121.818 362.007C121.818 362.007 121.708 373.288 109.265 373.325C109.265 373.325 110.324 361.652 121.818 362.007Z" fill="#77C476"/>
<path d="M99.4247 203.982C99.4247 203.982 80.4901 259.548 145.689 287.306" stroke="#77C476" stroke-width="1.9595" stroke-miterlimit="10"/>
<path d="M96.2619 217.54C96.2619 217.54 107.634 215.289 101.454 195.47C101.454 195.47 86.0314 202.991 96.2619 217.54Z" fill="#77C476"/>
<path d="M97.6841 231.767C97.6841 231.767 96.1613 221.403 107.57 219.577C107.57 219.577 108.279 230.438 97.6841 231.767Z" fill="#77C476"/>
<path d="M96.4107 231.443C96.4107 231.443 85.1443 232.009 84.3599 219.591C84.3599 219.591 96.0762 219.949 96.4107 231.443Z" fill="#77C476"/>
<path d="M102.952 249.097C102.952 249.097 100.104 239.017 111.182 235.734C111.182 235.734 113.286 246.412 102.952 249.097Z" fill="#77C476"/>
<path d="M101.647 248.94C101.647 248.94 90.5479 250.956 88.1677 238.743C88.1677 238.743 99.8314 237.585 101.647 248.94Z" fill="#77C476"/>
<path d="M113.339 264.154C113.339 264.154 107.196 255.67 116.465 248.774C116.465 248.774 122.118 258.076 113.339 264.154Z" fill="#77C476"/>
<path d="M112.06 264.455C112.06 264.455 102.333 270.169 95.895 259.522C95.895 259.522 106.447 254.42 112.06 264.455Z" fill="#77C476"/>
<path d="M128.098 277.702C128.098 277.702 119.937 271.134 127.065 262.042C127.065 262.042 134.967 269.527 128.098 277.702Z" fill="#77C476"/>
<path d="M126.943 278.329C126.943 278.329 119.063 286.402 110.048 277.825C110.048 277.825 118.886 270.125 126.943 278.329Z" fill="#77C476"/>
<path d="M108.007 294.013C108.007 294.013 119.306 351.619 189.661 343.164" stroke="#77C476" stroke-width="1.9595" stroke-miterlimit="10"/>
<path d="M112.027 307.342C112.027 307.342 120.762 299.72 105.521 285.623C105.521 285.623 95.9043 299.832 112.027 307.342Z" fill="#77C476"/>
<path d="M120.355 318.964C120.355 318.964 113.867 310.74 122.845 303.468C122.845 303.468 128.875 312.529 120.355 318.964Z" fill="#77C476"/>
<path d="M119.089 319.318C119.089 319.318 109.606 325.427 102.734 315.054C102.734 315.054 113.067 309.521 119.089 319.318Z" fill="#77C476"/>
<path d="M133.563 331.358C133.563 331.358 126.067 324.041 134.032 315.671C134.032 315.671 141.182 323.878 133.563 331.358Z" fill="#77C476"/>
<path d="M132.353 331.873C132.353 331.873 123.738 339.156 115.584 329.757C115.584 329.757 125.118 322.936 132.353 331.873Z" fill="#77C476"/>
<path d="M150.076 339.229C150.076 339.229 140.52 334.939 145.116 324.339C145.116 324.339 154.654 329.583 150.076 339.229Z" fill="#77C476"/>
<path d="M149.117 340.129C149.117 340.129 143.536 349.932 132.645 343.915C132.645 343.915 139.247 334.229 149.117 340.129Z" fill="#77C476"/>
<path d="M169.624 343.612C169.624 343.612 159.275 341.989 160.92 330.553C160.92 330.553 171.501 333.101 169.624 343.612Z" fill="#77C476"/>
<path d="M168.936 344.732C168.936 344.732 166.132 355.658 154.042 352.72C154.042 352.72 157.861 341.639 168.936 344.732Z" fill="#77C476"/>
<path d="M281.237 261.518C281.237 261.518 297.129 318.029 230.521 342.21" stroke="#77C476" stroke-width="1.9595" stroke-miterlimit="10"/>
<path d="M283.659 275.227C283.659 275.227 272.425 272.363 279.672 252.908C279.672 252.908 294.663 261.254 283.659 275.227Z" fill="#77C476"/>
<path d="M281.467 289.356C281.467 289.356 283.549 279.09 272.256 276.648C272.256 276.648 270.961 287.455 281.467 289.356Z" fill="#77C476"/>
<path d="M282.756 289.102C282.756 289.102 293.976 290.279 295.432 277.922C295.432 277.922 283.714 277.642 282.756 289.102Z" fill="#77C476"/>
<path d="M275.268 306.375C275.268 306.375 278.658 296.464 267.775 292.584C267.775 292.584 265.094 303.134 275.268 306.375Z" fill="#77C476"/>
<path d="M276.579 306.289C276.579 306.289 287.552 308.904 290.591 296.839C290.591 296.839 279.007 295.05 276.579 306.289Z" fill="#77C476"/>
<path d="M264.078 320.847C264.078 320.847 270.673 312.708 261.79 305.32C261.79 305.32 255.643 314.301 264.078 320.847Z" fill="#77C476"/>
<path d="M265.339 321.217C265.339 321.217 274.742 327.451 281.748 317.168C281.748 317.168 271.488 311.501 265.339 321.217Z" fill="#77C476"/>
<path d="M248.607 333.574C248.607 333.574 257.112 327.459 250.488 317.993C250.488 317.993 242.192 325.039 248.607 333.574Z" fill="#77C476"/>
<path d="M249.726 334.263C249.726 334.263 257.156 342.751 266.623 334.676C266.623 334.676 258.216 326.508 249.726 334.263Z" fill="#77C476"/>
<path d="M182.873 380.36C183.61 385.305 180.2 389.911 175.255 390.649L149.288 394.521C144.343 395.258 139.737 391.848 139 386.903L125.514 296.47C124.776 291.525 128.187 286.919 133.132 286.181L159.098 282.309C164.044 281.571 168.65 284.982 169.387 289.927L182.873 380.36Z" fill="#001433"/>
<path d="M201.721 116.356C201.721 116.356 235.963 94.9712 255.901 126.584C275.839 158.197 283.208 239.089 252.867 244.668C222.525 250.248 201.287 246.063 205.188 200.038C209.089 154.013 201.721 116.356 201.721 116.356Z" fill="#000A19"/>
<path d="M220.278 204.435C220.278 204.435 212.583 226.162 226.162 229.783C239.742 233.404 254.226 225.256 255.584 254.678C256.942 284.099 157.814 257.394 159.172 244.72C160.53 232.047 191.761 241.552 193.119 213.488C194.478 185.424 194.93 184.067 194.93 184.067L220.278 204.435Z" fill="#FFB199"/>
<path d="M218.244 219.408C217.484 212.339 220.278 204.435 220.278 204.435L194.93 184.066C194.93 184.066 194.93 188.243 194.607 198.095C198.836 208.164 207.733 215.561 218.244 219.408Z" fill="#E2887D"/>
<path d="M211.226 127.472C211.226 127.472 254.226 114.937 254.226 168.658C254.226 222.38 202.173 217.008 189.952 176.269C177.203 133.771 211.226 127.472 211.226 127.472Z" fill="#FFB199"/>
<path d="M207.152 155.776C207.152 155.776 207.235 155.36 207.521 154.68C207.804 154.001 208.285 153.047 209.086 152.037C209.872 151.02 210.986 149.929 212.448 149.1C213.169 148.674 213.98 148.328 214.838 148.082C215.691 147.807 216.602 147.71 217.504 147.642C218.407 147.636 219.313 147.677 220.17 147.861C220.602 147.94 221.025 148.032 221.428 148.169C221.837 148.287 222.235 148.412 222.608 148.58C223.373 148.869 224.059 149.248 224.697 149.61C225.323 149.996 225.895 150.38 226.384 150.784C226.896 151.153 227.316 151.554 227.683 151.907C228.063 152.245 228.36 152.577 228.599 152.856C229.081 153.406 229.331 153.741 229.331 153.741C229.331 153.741 228.932 153.591 228.279 153.292C227.631 152.988 226.694 152.583 225.599 152.13C225.055 151.893 224.448 151.692 223.826 151.46C223.196 151.254 222.539 151.029 221.853 150.868C221.173 150.683 220.464 150.553 219.753 150.462C219.039 150.364 218.32 150.342 217.605 150.355C216.895 150.4 216.183 150.46 215.5 150.628C214.816 150.783 214.148 150.984 213.517 151.25C212.245 151.758 211.122 152.472 210.173 153.145C209.239 153.838 208.482 154.498 207.962 154.985C207.444 155.471 207.152 155.776 207.152 155.776Z" fill="#000A19"/>
<path d="M236.574 154.191C236.574 154.191 236.571 153.866 236.668 153.315C236.762 152.762 236.961 151.986 237.345 151.092C237.741 150.209 238.324 149.198 239.243 148.285C239.691 147.822 240.24 147.398 240.861 147.047C241.473 146.679 242.196 146.442 242.929 146.298C243.671 146.157 244.428 146.191 245.142 146.297C245.848 146.433 246.512 146.658 247.09 146.953C247.677 147.237 248.179 147.592 248.631 147.94C249.065 148.308 249.458 148.664 249.774 149.034C250.108 149.385 250.36 149.749 250.583 150.067C250.818 150.373 250.983 150.672 251.116 150.918C251.386 151.406 251.511 151.7 251.511 151.7C251.511 151.7 251.21 151.565 250.735 151.301C250.262 151.037 249.59 150.665 248.805 150.275C248.421 150.063 247.993 149.88 247.558 149.68C247.115 149.5 246.658 149.317 246.189 149.185C245.722 149.04 245.246 148.967 244.778 148.905C244.312 148.895 243.848 148.867 243.399 148.971C242.498 149.121 241.612 149.542 240.803 150.109C239.99 150.666 239.267 151.35 238.646 151.964C238.027 152.582 237.515 153.145 237.152 153.546C236.784 153.958 236.574 154.191 236.574 154.191Z" fill="#000A19"/>
<path d="M239.29 160.076C239.29 160.076 239.439 160.346 239.699 160.818C239.956 161.279 240.324 161.938 240.765 162.728C240.988 163.115 241.237 163.528 241.503 163.949C241.768 164.372 242.072 164.801 242.389 165.211C242.697 165.638 243.078 165.996 243.445 166.315C243.828 166.592 244.212 166.841 244.574 166.838L244.71 166.866L244.718 166.868C244.663 166.872 244.849 166.859 244.595 166.878L244.603 166.877L244.631 166.873L244.687 166.866L244.8 166.851C244.936 166.828 245.128 166.819 245.219 166.784C245.312 166.69 245.428 166.706 245.618 166.54C245.965 166.306 246.298 165.915 246.581 165.503C247.142 164.654 247.563 163.711 247.915 162.897C248.256 162.077 248.53 161.368 248.719 160.869C248.912 160.366 249.022 160.078 249.022 160.078C249.022 160.078 249.204 161.322 248.916 163.177C248.772 164.104 248.523 165.189 247.955 166.311C247.646 166.857 247.305 167.457 246.687 167.932C246.519 168.049 246.423 168.177 246.187 168.279C245.974 168.384 245.749 168.476 245.524 168.552C245.331 168.607 245.214 168.606 245.055 168.635L244.943 168.652L244.886 168.66L244.859 168.665L244.851 168.666C244.594 168.684 244.774 168.671 244.714 168.674L244.694 168.672L244.38 168.637C243.513 168.568 242.835 168.1 242.304 167.646C241.787 167.168 241.394 166.635 241.08 166.114C240.743 165.599 240.512 165.066 240.305 164.564C240.086 164.067 239.938 163.579 239.81 163.129C239.549 162.232 239.423 161.466 239.358 160.927C239.294 160.388 239.29 160.076 239.29 160.076Z" fill="#000A19"/>
<path d="M214.395 160.076C214.395 160.076 214.543 160.346 214.804 160.818C215.061 161.279 215.428 161.938 215.869 162.728C216.093 163.115 216.341 163.528 216.608 163.949C216.873 164.372 217.177 164.801 217.494 165.211C217.801 165.638 218.183 165.996 218.55 166.315C218.932 166.592 219.317 166.841 219.679 166.838L219.815 166.866L219.823 166.868C219.768 166.872 219.953 166.859 219.699 166.878L219.707 166.877L219.735 166.873L219.792 166.866L219.904 166.851C220.041 166.828 220.232 166.819 220.324 166.784C220.417 166.69 220.533 166.706 220.723 166.54C221.07 166.306 221.403 165.915 221.686 165.503C222.247 164.654 222.668 163.711 223.02 162.897C223.361 162.077 223.635 161.368 223.824 160.869C224.017 160.366 224.127 160.078 224.127 160.078C224.127 160.078 224.309 161.322 224.021 163.177C223.877 164.104 223.628 165.189 223.06 166.311C222.75 166.857 222.409 167.457 221.792 167.932C221.624 168.049 221.528 168.177 221.292 168.279C221.079 168.384 220.853 168.476 220.629 168.552C220.435 168.607 220.318 168.606 220.159 168.635L220.048 168.652L219.991 168.66L219.963 168.665L219.956 168.666C219.698 168.684 219.879 168.671 219.818 168.674L219.799 168.672L219.486 168.637C218.619 168.568 217.941 168.1 217.41 167.646C216.893 167.168 216.499 166.635 216.186 166.114C215.85 165.599 215.618 165.066 215.411 164.564C215.192 164.067 215.044 163.579 214.916 163.129C214.654 162.232 214.529 161.466 214.463 160.927C214.399 160.388 214.395 160.076 214.395 160.076Z" fill="#000A19"/>
<path d="M234.537 159.624C234.681 160.385 234.838 161.12 235.009 161.846C235.082 162.209 235.191 162.566 235.281 162.921C235.354 163.279 235.474 163.627 235.569 163.976C235.662 164.326 235.798 164.663 235.899 165.005C236.001 165.348 236.135 165.679 236.257 166.009C236.377 166.342 236.504 166.669 236.652 166.986C236.802 167.301 236.912 167.634 237.084 167.933L237.555 168.85L238.094 169.715C238.252 170.018 238.48 170.266 238.674 170.541C238.878 170.808 239.061 171.092 239.3 171.326C239.524 171.574 239.755 171.817 239.97 172.074L240.721 172.742C240.846 172.854 240.964 172.976 241.093 173.084L241.508 173.376L242.332 173.986L243.93 175.17L242.408 175.994C241.301 176.594 240.171 177.158 239.014 177.68C238.445 177.957 237.846 178.184 237.262 178.436C236.663 178.666 236.065 178.897 235.441 179.088C235.874 178.599 236.332 178.151 236.789 177.702C237.262 177.275 237.717 176.823 238.204 176.42C239.159 175.584 240.142 174.791 241.147 174.032L241.223 176.039L240.144 175.453L239.608 175.146C239.437 175.031 239.276 174.902 239.11 174.779L238.135 174.008C237.84 173.718 237.559 173.412 237.274 173.112C236.974 172.822 236.735 172.485 236.496 172.147C236.265 171.807 235.994 171.489 235.81 171.121L235.228 170.039C235.065 169.666 234.922 169.285 234.77 168.909C234.603 168.538 234.526 168.14 234.408 167.756C234.288 167.372 234.203 166.981 234.141 166.587C234.068 166.195 233.993 165.806 233.969 165.41C233.933 165.016 233.886 164.625 233.895 164.23C233.874 163.444 233.903 162.663 234.013 161.89C234.107 161.12 234.274 160.354 234.537 159.624Z" fill="#FF8255"/>
<path d="M220.278 184.971L243.363 185.423C243.363 185.423 235.895 201.04 220.278 184.971Z" fill="#FF553C"/>
<path d="M220.278 184.971C220.822 185.53 221.352 186.042 221.875 186.525C226.38 185.924 230.859 186.378 234.083 189.946C234.632 190.554 235.185 191.226 235.702 191.941C240.849 190.658 243.363 185.423 243.363 185.423L220.278 184.971Z" fill="#B2382B"/>
<path d="M261.016 272.33C261.016 272.33 260.11 325.741 262.374 325.741C264.637 325.741 318.953 340.226 321.217 349.731C323.48 359.236 325.291 378.248 317.143 352.9C317.143 352.9 323.933 388.206 311.259 352.447C311.259 352.447 306.28 386.395 306.28 351.994C306.28 351.994 301.753 382.773 301.3 352.447C301.3 352.447 243.363 351.541 227.068 338.415C210.773 325.289 238.384 265.088 238.384 265.088L261.016 272.33Z" fill="#E2887D"/>
<path d="M243.364 277.309C243.364 277.309 256.037 278.667 264.185 275.498C264.185 275.498 263.796 235.208 244.269 232.045C225.754 229.047 243.364 277.309 243.364 277.309Z" fill="#FFA94D"/>
<path d="M240.585 268.763C242.089 273.813 243.364 277.31 243.364 277.31C243.364 277.31 256.037 278.668 264.185 275.499C264.185 275.499 264.062 262.968 260.569 251.333C255.225 258.217 248.268 263.99 240.585 268.763Z" fill="#DD8D45"/>
<path d="M172.144 343.394C172.144 343.394 147.449 358.784 146.499 382.322H262.374C262.374 382.322 261.424 357.879 237.679 341.584C213.934 325.289 172.144 343.394 172.144 343.394Z" fill="#DD8D45"/>
<path d="M170.942 343.394C170.942 343.394 141.973 298.13 146.499 262.825C151.026 227.519 168.226 231.593 175.468 231.593C175.468 231.593 186.332 255.13 209.416 251.962C234.339 248.541 236.574 230.688 236.574 230.688C236.574 230.688 251.059 228.425 255.133 242.457C259.207 256.488 265.996 295.867 242.006 302.657L236.575 330.268C236.575 330.268 214.395 351.994 170.942 343.394Z" fill="#FFA94D"/>
<path d="M191.155 285.832C180.897 280.552 171.631 273.595 162.783 266.236C157.813 262.104 152.715 257.923 148.267 253.175C147.562 256.012 146.963 259.209 146.499 262.824C141.972 298.13 170.942 343.393 170.942 343.393C214.394 351.993 236.574 330.267 236.574 330.267L242.005 302.656C246.979 301.249 250.613 298.426 253.239 294.733C232.58 296.123 209.805 295.43 191.155 285.832Z" fill="#DD8D45"/>
<path d="M190.857 108.476C190.857 108.476 217.11 103.044 219.374 125.676C221.637 148.307 197.194 148.76 198.1 172.297C199.005 195.834 207.152 223.898 189.047 233.856C170.942 243.814 153.741 220.277 146.5 265.088C146.5 265.088 130.658 239.74 143.331 222.992C156.005 206.245 162.342 186.782 161.89 151.929C161.436 117.075 181.805 111.644 190.857 108.476Z" fill="#001433"/>
<path d="M189.952 176.269C189.952 176.269 202.625 191.76 219.373 192.666" stroke="#001433" stroke-width="0.9797" stroke-miterlimit="10"/>
<path d="M225.754 193.602C225.475 195.223 223.935 196.31 222.314 196.031L215.344 194.83C213.724 194.551 212.636 193.011 212.915 191.39C213.194 189.769 214.735 188.682 216.355 188.961L223.325 190.162C224.946 190.441 226.033 191.981 225.754 193.602Z" fill="#5665B0"/>
<path d="M185.653 184.971C196.027 184.971 204.438 175.75 204.438 164.376C204.438 153.001 196.027 143.781 185.653 143.781C175.278 143.781 166.868 153.001 166.868 164.376C166.868 175.75 175.278 184.971 185.653 184.971Z" fill="#DD8D45"/>
<path d="M179.768 184.971C190.142 184.971 198.552 175.75 198.552 164.376C198.552 153.001 190.142 143.781 179.768 143.781C169.393 143.781 160.983 153.001 160.983 164.376C160.983 175.75 169.393 184.971 179.768 184.971Z" fill="#FFA94D"/>
<path d="M179.729 175.722C185.33 175.722 189.871 170.744 189.871 164.602C189.871 158.46 185.33 153.482 179.729 153.482C174.127 153.482 169.586 158.46 169.586 164.602C169.586 170.744 174.127 175.722 179.729 175.722Z" fill="#DD8D45"/>
<path d="M176.826 164.149C176.826 164.149 175.92 126.128 196.289 112.549C219.166 97.297 237.932 111.643 237.932 111.643C237.932 111.643 213.036 106.664 199.004 121.601C184.973 136.538 183.162 160.98 183.162 160.98L176.826 164.149Z" fill="#DD8D45"/>
<path d="M188.142 276.856C188.142 276.856 185.879 327.099 184.973 338.868C184.973 338.868 246.532 327.1 254.68 331.625C262.828 336.152 284.554 377.342 262.828 349.278C262.828 349.278 281.838 383.679 257.848 351.089C257.848 351.089 269.617 380.51 252.417 351.089C252.417 351.089 263.733 376.437 246.08 348.826C246.08 348.826 172.301 379.606 161.437 372.816C150.574 366.027 142.879 313.973 148.311 270.973C153.741 227.972 188.142 276.856 188.142 276.856Z" fill="#FFB199"/>
<path d="M172.908 297.752C177.816 297.839 182.573 297.302 187.236 296.36C187.755 285.45 188.142 276.857 188.142 276.857C188.142 276.857 153.741 227.972 148.31 270.973C147.429 277.948 146.895 285.161 146.663 292.381C155.095 295.386 163.731 297.591 172.908 297.752Z" fill="#E2887D"/>
<path d="M143.783 287.72C143.783 287.72 141.068 233.403 168.226 236.119C195.384 238.834 189.5 289.982 189.5 289.982C189.5 289.982 164.605 296.32 143.783 287.72Z" fill="#FFA94D"/>
<path d="M523.998 392.279C523.998 395.279 521.972 397.711 519.472 397.711H31.5294C29.0299 397.711 27.0027 395.279 27.0027 392.279V381.416C27.0027 378.416 29.029 375.985 31.5294 375.985H519.473C521.973 375.985 523.999 378.417 523.999 381.416L523.998 392.279Z" fill="#5665B0"/>
<path d="M476.06 329.815C476.06 332.316 474.034 334.342 471.534 334.342H304.963C302.464 334.342 300.437 332.316 300.437 329.815V200.361C300.437 197.861 302.463 195.834 304.963 195.834H471.534C474.034 195.834 476.06 197.861 476.06 200.361V329.815Z" fill="#5665B0"/>
<path d="M488.731 329.815C488.731 332.316 486.705 334.342 484.204 334.342H317.635C315.135 334.342 313.108 332.316 313.108 329.815V200.361C313.108 197.861 315.135 195.834 317.635 195.834H484.205C486.706 195.834 488.732 197.861 488.732 200.361V329.815H488.731Z" fill="#001433"/>
<path d="M414.273 370.553C414.273 373.052 412.247 375.079 409.747 375.079H386.21C383.709 375.079 381.683 373.053 381.683 370.553V273.688C381.683 271.188 383.709 269.161 386.21 269.161H409.747C412.246 269.161 414.273 271.187 414.273 273.688V370.553Z" fill="#5665B0"/>
<path d="M452.748 371.458C452.748 373.958 450.721 375.985 448.221 375.985H347.735C345.236 375.985 343.208 373.958 343.208 371.458V370.553C343.208 368.052 345.235 366.026 347.735 366.026H448.221C450.721 366.026 452.748 368.052 452.748 370.553V371.458Z" fill="#5665B0"/>
<path d="M414.273 370.553C414.273 373.052 412.247 375.079 409.747 375.079H386.21C383.709 375.079 381.683 373.053 381.683 370.553V273.688C381.683 271.188 383.709 269.161 386.21 269.161H409.747C412.246 269.161 414.273 271.187 414.273 273.688V370.553Z" fill="#5665B0"/>
<path d="M325.065 371.458C325.065 373.958 323.038 375.985 320.538 375.985H220.053C217.554 375.985 215.526 373.958 215.526 371.458V370.553C215.526 368.052 217.553 366.026 220.053 366.026H320.539C323.039 366.026 325.066 368.052 325.066 370.553V371.458H325.065Z" fill="#5665B0"/>
<path d="M368.057 60.0552H266.367C260.783 60.0552 256.256 64.5819 256.256 70.1656V109.544C256.256 115.127 260.783 119.654 266.367 119.654H280.397V146.209L295.283 119.654H368.056C373.639 119.654 378.166 115.127 378.166 109.544V70.1656C378.167 64.5819 373.64 60.0552 368.057 60.0552Z" fill="#77C476"/>
<g opacity="0.25">
<path d="M288.243 97.3248C291.91 97.3248 294.882 94.3524 294.882 90.6858C294.882 87.0192 291.91 84.0469 288.243 84.0469C284.577 84.0469 281.604 87.0192 281.604 90.6858C281.604 94.3524 284.577 97.3248 288.243 97.3248Z" fill="black"/>
<path d="M319.023 97.3248C322.689 97.3248 325.662 94.3524 325.662 90.6858C325.662 87.0192 322.689 84.0469 319.023 84.0469C315.356 84.0469 312.384 87.0192 312.384 90.6858C312.384 94.3524 315.356 97.3248 319.023 97.3248Z" fill="black"/>
<path d="M349.802 97.3248C353.469 97.3248 356.441 94.3524 356.441 90.6858C356.441 87.0192 353.469 84.0469 349.802 84.0469C346.136 84.0469 343.163 87.0192 343.163 90.6858C343.163 94.3524 346.136 97.3248 349.802 97.3248Z" fill="black"/>
</g>
<path d="M286.432 95.5137C290.099 95.5137 293.071 92.5414 293.071 88.8748C293.071 85.2082 290.099 82.2358 286.432 82.2358C282.766 82.2358 279.793 85.2082 279.793 88.8748C279.793 92.5414 282.766 95.5137 286.432 95.5137Z" fill="white"/>
<path d="M317.212 95.5137C320.878 95.5137 323.851 92.5414 323.851 88.8748C323.851 85.2082 320.878 82.2358 317.212 82.2358C313.545 82.2358 310.573 85.2082 310.573 88.8748C310.573 92.5414 313.545 95.5137 317.212 95.5137Z" fill="white"/>
<path d="M347.991 95.5137C351.658 95.5137 354.63 92.5414 354.63 88.8748C354.63 85.2082 351.658 82.2358 347.991 82.2358C344.325 82.2358 341.352 85.2082 341.352 88.8748C341.352 92.5414 344.325 95.5137 347.991 95.5137Z" fill="white"/>
<path d="M156.295 60.9996L150.815 65.2602C154.045 69.4394 157.992 72.8869 162.543 75.5055L166.007 69.4847C169.813 71.6727 173.986 73.068 178.271 73.627L177.372 80.5108C182.628 81.1973 187.881 80.8518 192.985 79.4815L191.186 72.7769C195.298 71.6737 199.266 69.7582 202.847 66.9945L207.115 72.4683C211.284 69.2454 214.725 65.311 217.34 60.7742L211.323 57.3055C213.515 53.5032 214.913 49.3313 215.478 45.0486L222.36 45.955C223.052 40.6984 222.712 35.4445 221.348 30.3413L214.642 32.1339C213.548 28.0368 211.645 24.0849 208.904 20.5127L214.397 16.266L214.324 16.1708C211.076 11.9676 207.105 8.50625 202.524 5.88393L199.074 11.9112C195.265 9.73055 191.089 8.34455 186.803 7.79384L187.688 0.90912C182.43 0.232752 177.177 0.589414 172.076 1.96987L173.89 8.67349C169.795 9.78137 165.845 11.6931 162.279 14.4485L158.027 8.9627C153.836 12.2022 150.382 16.1607 147.761 20.7271L153.784 24.1838C151.6 27.9906 150.209 32.1653 149.654 36.4499L142.77 35.5573C142.088 40.8158 142.439 46.0678 143.814 51.1692L150.519 49.3628C151.622 53.4672 153.536 57.4256 156.295 60.9996ZM195.023 31.0888C200.331 37.956 199.063 47.8613 192.195 53.1696C185.328 58.478 175.422 57.2094 170.115 50.3422C164.806 43.475 166.075 33.5688 172.942 28.2614C179.809 22.953 189.715 24.2216 195.023 31.0888Z" fill="#5665B0"/>
<path d="M113.642 88.5551L111.204 92.9913C114.575 94.8568 118.213 96.0248 122.019 96.4627L122.598 91.4306C125.778 91.7965 128.976 91.524 132.007 90.6609L133.394 95.5304C137.113 94.4706 140.53 92.7215 143.551 90.3292L140.409 86.3597C142.844 84.4323 144.948 82.0031 146.547 79.1183L150.987 81.5503C152.848 78.1869 154.014 74.5584 154.455 70.7645L149.423 70.1805C149.791 67.001 149.522 63.803 148.662 60.7723L153.533 59.39C152.478 55.67 150.732 52.2503 148.343 49.2269L144.371 52.3648C142.455 49.9375 140.038 47.8409 137.17 46.2415L139.622 41.81L139.545 41.7675C136.155 39.8918 132.496 38.7211 128.67 38.2896L128.101 43.3226C124.921 42.9631 121.724 43.2413 118.695 44.1108L117.299 39.245C113.582 40.3113 110.168 42.0687 107.15 44.4665L110.302 48.4314C107.88 50.3561 105.788 52.7779 104.195 55.6534L99.7631 53.2085C97.8929 56.5894 96.7231 60.2382 96.2888 64.0525L101.321 64.6272C100.959 67.8077 101.234 71.0047 102.1 74.0345L97.2322 75.426C98.2948 79.1442 100.049 82.5602 102.443 85.5789L106.41 82.4318C108.337 84.8619 110.762 86.9603 113.642 88.5551ZM130.932 57.335C136.472 60.3999 138.484 67.3992 135.42 72.9386C132.355 78.478 125.356 80.4905 119.817 77.4265C114.277 74.3616 112.265 67.3623 115.329 61.8229C118.394 56.2835 125.394 54.2701 130.932 57.335Z" fill="#77C476"/>
<path d="M50.4842 198.665C78.1492 198.665 100.576 176.239 100.576 148.574C100.576 120.909 78.1492 98.4817 50.4842 98.4817C22.8192 98.4817 0.392334 120.909 0.392334 148.574C0.392334 176.239 22.8192 198.665 50.4842 198.665Z" fill="#5665B0"/>
<g opacity="0.25">
<path d="M55.3324 149.206C55.9894 148.87 56.7212 148.693 57.4798 148.693C58.7383 148.693 59.921 149.181 60.8136 150.069L62.7336 148.149C67.4839 149.814 72.9799 148.748 76.7775 144.95C79.9736 141.754 81.234 137.357 80.5604 133.213C80.4864 132.757 80.163 132.379 79.7232 132.238C79.2834 132.096 78.8011 132.211 78.474 132.538L75.6234 135.389C73.3014 137.711 69.538 137.711 67.216 135.389C64.8958 133.067 64.8958 129.303 67.216 126.981L70.0674 124.132C70.3945 123.804 70.5109 123.321 70.3687 122.882C70.2264 122.441 69.8503 122.119 69.3929 122.045C65.2478 121.372 60.8515 122.631 57.6563 125.827C53.8013 129.682 52.7637 135.284 54.5368 140.083L50.3733 144.246L55.3324 149.206Z" fill="black"/>
<path d="M47.7446 156.753L42.8058 151.814L25.5362 169.084C23.29 171.328 23.29 174.969 25.5362 177.215C27.7816 179.46 31.4221 179.46 33.6674 177.215L48.554 162.327C47.0544 160.817 46.7836 158.538 47.7446 156.753Z" fill="black"/>
<path d="M58.7597 152.141C58.4058 151.787 57.9438 151.611 57.4799 151.611C57.017 151.611 56.555 151.787 56.2011 152.141L55.1699 153.171L36.8055 134.808L37.6638 133.949C38.4455 133.168 38.3485 131.87 37.4578 131.214L29.9651 125.696C29.2453 125.166 28.2464 125.241 27.6135 125.874L24.4322 129.055C23.7992 129.687 23.7244 130.686 24.2548 131.406L29.7729 138.899C30.4289 139.791 31.7253 139.889 32.5079 139.106L33.3663 138.248L51.7299 156.611L50.6266 157.715C49.9198 158.422 49.9198 159.567 50.6266 160.273L67.5673 177.215C69.8126 179.46 73.4541 179.46 75.6994 177.215C77.9447 174.969 77.9447 171.328 75.6994 169.083L58.7597 152.141Z" fill="black"/>
</g>
<path d="M53.5214 147.396C54.1784 147.06 54.9102 146.883 55.6697 146.883C56.9282 146.883 58.1109 147.372 59.0035 148.258L60.9236 146.339C65.6739 148.004 71.1698 146.938 74.9684 143.14C78.1645 139.944 79.4248 135.547 78.7512 131.403C78.6773 130.947 78.3539 130.569 77.9141 130.428C77.4743 130.286 76.9919 130.401 76.6648 130.728L73.8143 133.579C71.4923 135.901 67.7288 135.901 65.4068 133.579C63.0867 131.257 63.0867 127.493 65.4068 125.171L68.2574 122.322C68.5845 121.994 68.7009 121.511 68.5586 121.072C68.4163 120.631 68.0402 120.309 67.5828 120.234C63.4378 119.562 59.0414 120.821 55.8462 124.017C51.9913 127.872 50.9536 133.474 52.7268 138.273L48.5632 142.436L53.5214 147.396Z" fill="white"/>
<path d="M45.9345 154.942L40.9957 150.003L23.7262 167.272C21.4799 169.517 21.4799 173.158 23.7262 175.404C25.9715 177.649 29.6121 177.649 31.8574 175.404L46.7449 160.516C45.2434 159.006 44.9726 156.728 45.9345 154.942Z" fill="white"/>
<path d="M56.9496 150.331C56.5966 149.978 56.1337 149.801 55.6698 149.801C55.2069 149.801 54.7449 149.977 54.391 150.331L53.3598 151.361L34.9953 132.998L35.8537 132.139C36.6354 131.358 36.5384 130.06 35.6477 129.404L28.154 123.886C27.4342 123.356 26.4354 123.431 25.8025 124.063L22.6211 127.245C21.9882 127.877 21.9133 128.876 22.4437 129.596L27.9619 137.089C28.6179 137.981 29.9143 138.079 30.6969 137.296L31.5553 136.438L49.9189 154.801L48.8156 155.905C48.1087 156.612 48.1087 157.757 48.8156 158.463L65.7562 175.405C68.0015 177.65 71.643 177.65 73.8884 175.405C76.1337 173.159 76.1337 169.518 73.8884 167.273L56.9496 150.331Z" fill="white"/>
<path d="M433.316 182.196C459.981 182.196 481.598 160.58 481.598 133.914C481.598 107.249 459.981 85.6326 433.316 85.6326C406.651 85.6326 385.034 107.249 385.034 133.914C385.034 160.58 406.651 182.196 433.316 182.196Z" fill="#FFA94D"/>
<g opacity="0.25">
<path d="M466.151 116.693L446.996 135.725L466.151 154.758C466.498 154.034 466.708 153.234 466.708 152.38V119.071C466.708 118.217 466.497 117.416 466.151 116.693Z" fill="black"/>
<path d="M439.051 138.435L463.535 114.076C462.811 113.73 462.011 113.52 461.156 113.52H409.097C408.242 113.52 407.442 113.73 406.719 114.076L431.202 138.435C433.367 140.6 436.886 140.6 439.051 138.435Z" fill="black"/>
<path d="M404.102 116.693C403.755 117.416 403.546 118.217 403.546 119.071V152.38C403.546 153.234 403.755 154.034 404.102 154.758L423.257 135.725L404.102 116.693Z" fill="black"/>
<path d="M441.668 141.052C438.061 144.66 432.192 144.66 428.585 141.052L425.875 138.341L406.72 157.374C407.443 157.72 408.243 157.93 409.098 157.93H461.157C462.012 157.93 462.812 157.72 463.536 157.374L444.38 138.341L441.668 141.052Z" fill="black"/>
</g>
<path d="M464.34 114.882L445.185 133.914L464.34 152.947C464.687 152.223 464.897 151.423 464.897 150.569V117.26C464.897 116.406 464.687 115.606 464.34 114.882Z" fill="white"/>
<path d="M437.241 136.625L461.725 112.266C461.001 111.919 460.201 111.71 459.346 111.71H407.287C406.432 111.71 405.632 111.919 404.909 112.266L429.392 136.625C431.556 138.789 435.076 138.789 437.241 136.625Z" fill="white"/>
<path d="M402.292 114.882C401.945 115.605 401.736 116.406 401.736 117.26V150.569C401.736 151.423 401.945 152.223 402.292 152.947L421.447 133.914L402.292 114.882Z" fill="white"/>
<path d="M439.858 139.241C436.251 142.849 430.382 142.849 426.775 139.241L424.064 136.53L404.909 155.563C405.632 155.909 406.432 156.119 407.287 156.119H459.346C460.201 156.119 461.001 155.909 461.725 155.563L442.569 136.53L439.858 139.241Z" fill="white"/>
<path d="M473.443 75.5527C492.609 75.5527 508.145 60.0162 508.145 40.8509C508.145 21.6857 492.609 6.14917 473.443 6.14917C454.278 6.14917 438.742 21.6857 438.742 40.8509C438.742 60.0162 454.278 75.5527 473.443 75.5527Z" fill="#5665B0"/>
<g opacity="0.25">
<path d="M477.225 49.7112L469.04 49.0533V39.0482C469.274 39.1841 469.798 39.3254 470.607 39.4779C471.414 39.6303 472.122 39.7061 472.728 39.7061C474.11 39.7061 475.296 39.3439 476.291 38.6186C477.284 37.8951 477.782 36.9434 477.782 35.7643C477.782 34.6518 477.417 33.7167 476.694 32.96C475.97 32.2014 474.934 31.8235 473.588 31.8235C472.274 31.8235 471.262 32.2199 470.555 33.0099C469.847 33.8036 469.377 34.772 469.14 35.9168L462.925 33.3896C463.093 31.4696 463.751 29.7094 464.896 28.1099C466.042 26.5105 467.524 25.2372 469.342 24.2938C471.161 23.3522 473.114 22.8792 475.204 22.8792C477.595 22.8792 479.735 23.5019 481.621 24.7484C483.508 25.9967 484.972 27.6294 486.019 29.6502C487.061 31.671 487.583 33.7934 487.583 36.0184C487.583 38.443 486.977 40.4989 485.766 42.1824C484.553 43.866 483.119 45.106 481.471 45.896C479.82 46.6879 478.37 47.0676 477.125 47.0325L477.225 49.7112ZM469.342 60.802C468.332 59.7079 467.826 58.419 467.826 56.9369C467.826 55.4215 468.373 54.1408 469.469 53.0958C470.563 52.0535 471.836 51.5287 473.284 51.5287C474.63 51.5287 475.786 52.0018 476.746 52.9452C477.706 53.8886 478.185 55.1517 478.185 56.7345C478.185 58.3173 477.707 59.6645 476.746 60.777C475.786 61.8895 474.564 62.4448 473.082 62.4448C471.6 62.4439 470.353 61.895 469.342 60.802Z" fill="black"/>
</g>
<path d="M475.414 47.9002L467.23 47.2423V37.2382C467.464 37.374 467.988 37.5154 468.797 37.6678C469.605 37.8203 470.312 37.8961 470.918 37.8961C472.3 37.8961 473.486 37.5339 474.481 36.8085C475.474 36.085 475.972 35.1324 475.972 33.9543C475.972 32.8418 475.607 31.9067 474.884 31.1499C474.16 30.3913 473.124 30.0134 471.777 30.0134C470.464 30.0134 469.452 30.4107 468.745 31.1998C468.037 31.9935 467.567 32.9619 467.33 34.1067L461.115 31.5796C461.283 29.6595 461.942 27.8993 463.086 26.2999C464.231 24.7004 465.714 23.4271 467.532 22.4837C469.351 21.5422 471.304 21.0691 473.394 21.0691C475.785 21.0691 477.925 21.6919 479.811 22.9383C481.698 24.1867 483.162 25.8194 484.209 27.8402C485.251 29.861 485.773 31.9834 485.773 34.2074C485.773 36.6311 485.167 38.6879 483.956 40.3715C482.743 42.055 481.309 43.295 479.661 44.085C478.01 44.8769 476.56 45.2566 475.315 45.2215L475.414 47.9002ZM467.532 58.991C466.522 57.897 466.016 56.608 466.016 55.1259C466.016 53.6105 466.563 52.3299 467.659 51.2848C468.753 50.2425 470.026 49.7177 471.473 49.7177C472.821 49.7177 473.976 50.1908 474.936 51.1342C475.896 52.0776 476.375 53.3407 476.375 54.9235C476.375 56.5063 475.897 57.8535 474.936 58.966C473.976 60.0785 472.754 60.6338 471.272 60.6338C469.789 60.6338 468.543 60.085 467.532 58.991Z" fill="white"/>
</svg>
